<svg id="Layer_6" enable-background="new 0 0 64 64" height="512" viewBox="0 0 64 64" width="512" xmlns="http://www.w3.org/2000/svg"><g><g><g><path d="m54.98 3.99c0-1.11-.9-2-2-2h-40c-1.11 0-2 .89-2 2v54c0 1.1.89 2 2 2h33l9.02-.01z" fill="#e6e9ed"/></g><g><path d="m14.98 5.99h36v6h-36z" fill="#fcd770"/></g><g><path d="m14.98 47.99h8v8h-8z" fill="#5cd6b3"/></g><g><path d="m14.98 35.99h8v8h-8z" fill="#5cd6b3"/></g><g><path d="m1.98 15.99h18v16h-18z" fill="#d3a06c"/></g><g><path d="m13.98 15.99v4h-6v-4h3z" fill="#b27946"/></g><g><path d="m59.84 54.07c.27 1.55-.18 3.2-1.38 4.4s-2.85 1.65-4.4 1.38c-.9 1.29-2.39 2.14-4.08 2.14-1.64 0-3.09-.79-3.99-2.01-.04-.04-.07-.09-.1-.13-1.55.27-3.2-.18-4.4-1.38s-1.65-2.85-1.38-4.4c-1.29-.9-2.13-2.39-2.13-4.08 0-1.7.84-3.19 2.13-4.09-.27-1.55.18-3.2 1.38-4.4s2.85-1.65 4.4-1.38c.9-1.29 2.39-2.13 4.09-2.13 1.69 0 3.18.84 4.08 2.13.3-.05.61-.08.92-.08 1.26.01 2.51.49 3.48 1.46 1.2 1.2 1.65 2.85 1.38 4.4 1.29.9 2.14 2.39 2.14 4.09 0 1.69-.85 3.18-2.14 4.08z" fill="#ff826e"/></g><g><circle cx="49.98" cy="49.99" fill="#ffeaa7" r="8"/></g></g><g><path d="m49.975 40.985c-4.962 0-9 4.037-9 9s4.038 9 9 9 9-4.037 9-9-4.037-9-9-9zm0 16c-3.86 0-7-3.141-7-7s3.14-7 7-7 7 3.141 7 7-3.14 7-7 7z"/><path d="m47.975 51.571-1.293-1.293-1.414 1.414 2.707 2.707 6.707-6.707-1.414-1.414z"/><path d="m62.975 49.985c0-1.74-.765-3.392-2.073-4.526.122-1.727-.504-3.435-1.734-4.665-.876-.877-1.997-1.438-3.192-1.649v-35.159c0-1.654-1.346-3-3-3h-40c-1.654 0-3 1.346-3 3v10.999h-9v18h9v25c0 1.654 1.346 3 3 3h32.544c1.131 1.261 2.749 2 4.456 2 1.741 0 3.392-.765 4.526-2.072 1.728.115 3.436-.504 4.666-1.735 1.23-1.23 1.857-2.938 1.735-4.665 1.307-1.135 2.072-2.786 2.072-4.528zm-54-33h4v2h-4zm-6 0h4v4h8v-4h4v14h-16zm9 41v-25h9v-18h-9v-10.999c0-.552.449-1 1-1h40c.551 0 1 .448 1 1v34.544c-1.09-.98-2.511-1.544-4-1.544-1.741 0-3.392.766-4.526 2.073-1.729-.117-3.437.504-4.666 1.735-1.23 1.23-1.857 2.938-1.735 4.665-1.308 1.135-2.073 2.786-2.073 4.526 0 1.741.765 3.393 2.073 4.527-.116 1.641.451 3.259 1.562 4.473h-27.635c-.551 0-1-.448-1-1zm47.292-4.73-.519.365.109.625c.225 1.287-.188 2.603-1.104 3.519-.915.917-2.228 1.331-3.518 1.104l-.625-.109-.365.521c-.751 1.068-1.973 1.707-3.269 1.707s-2.518-.639-3.269-1.707l-.365-.521-.625.109c-1.288.229-2.603-.187-3.519-1.104-.916-.916-1.329-2.231-1.104-3.519l.109-.625-.519-.365c-1.069-.751-1.708-1.974-1.708-3.27 0-1.295.639-2.518 1.708-3.269l.519-.365-.109-.625c-.225-1.287.188-2.603 1.104-3.519.915-.917 2.229-1.332 3.518-1.104l.625.109.365-.521c.751-1.069 1.973-1.708 3.269-1.708s2.517.639 3.269 1.708l.365.521.625-.109c1.291-.228 2.603.187 3.519 1.104.916.916 1.329 2.231 1.104 3.519l-.109.625.519.365c1.069.751 1.708 1.974 1.708 3.269 0 1.296-.639 2.519-1.708 3.27z"/><path d="m51.975 4.985h-38v8h38zm-2 6h-34v-4h34z"/><path d="m22.975 14.985h29v2h-29z"/><path d="m49.975 18.985h2v2h-2z"/><path d="m34.975 18.985h13v2h-13z"/><path d="m22.975 18.985h10v2h-10z"/><path d="m22.975 22.985h29v2h-29z"/><path d="m36.975 26.985h15v2h-15z"/><path d="m22.975 26.985h12v2h-12z"/><path d="m22.975 30.985h29v2h-29z"/><path d="m13.975 44.985h10v-10h-10zm2-8h6v6h-6z"/><path d="m32.975 38.985h2v2h-2z"/><path d="m25.975 38.985h5v2h-5z"/><path d="m25.975 34.985h9v2h-9z"/><path d="m25.975 42.985h9v2h-9z"/><path d="m13.975 56.985h10v-10h-10zm2-8h6v6h-6z"/><path d="m25.975 50.985h9v2h-9z"/><path d="m25.975 46.985h9v2h-9z"/><path d="m25.975 54.985h5v2h-5z"/><path d="m32.975 54.985h2v2h-2z"/></g></g></svg>