<svg id="Layer_6" enable-background="new 0 0 64 64" height="512" viewBox="0 0 64 64" width="512" xmlns="http://www.w3.org/2000/svg"><g><g><g><path d="m61.98 14.99v33h-4v-8l-2-2v-20h-48v14c-1.11 0-2 .89-2 2v14h-4v-33l28.08-12.6c.6-.26 1.26-.4 1.92-.4.65 0 1.31.14 1.91.4z" fill="#aab2bd"/></g><g><path d="m55.98 17.99v20l-2-2h-4v-14h-4-4-4-4-4-4-4-4-4v10h-6v-14z" fill="#e6e9ed"/></g><g><circle cx="39.98" cy="11.99" fill="#69d6f4" r="2"/></g><g><circle cx="31.98" cy="11.99" fill="#69d6f4" r="2"/></g><g><circle cx="23.98" cy="11.99" fill="#69d6f4" r="2"/></g><g><path d="m14 22h24v10h-24z" fill="#d3a06c"/></g><g><path d="m38 22h12v14h-12z" fill="#d3a06c"/></g><g><path d="m41.98 21.99h4v4h-4z" fill="#b27946"/></g><g><path d="m29.98 21.99h4v4h-4z" fill="#b27946"/></g><g><path d="m17.98 21.99h4v4h-4z" fill="#b27946"/></g><g><path d="m43.98 49.99c-.7 0-1.37.12-2 .34v-14.34h8 4l2 2 2 2v8 6h-8.35c-.81-2.33-3.04-4-5.65-4z" fill="#fc6e51"/></g><g><path d="m41.98 50.33c-1.71.6-3.06 1.95-3.66 3.66h-16.69c-.81-2.33-3.04-4-5.65-4-2.62 0-4.84 1.67-5.66 4h-4.34v-6-14c0-1.11.89-2 2-2h6 12 12 2c1.1 0 2 .89 2 2v2z" fill="#ff826e"/></g><g><path d="m35.13 41.46c.53.33.85.9.85 1.53 0 .62-.32 1.2-.85 1.53l-7.15 4.47v-3h-18v-6h18v-3z" fill="#ffeaa7"/></g><g><path d="m58.98 57.99h-9.35c.23-.62.35-1.3.35-2s-.12-1.37-.35-2h8.35 1c.55 0 1 .44 1 1v2c0 .55-.45 1-1 1z" fill="#ccd1d9"/></g><g><path d="m37.98 55.99c0 .7.12 1.38.35 2h-.01-16.69c.23-.62.35-1.3.35-2s-.12-1.37-.35-2h16.69c-.22.63-.34 1.3-.34 2z" fill="#ccd1d9"/></g><g><path d="m10.33 57.99h-2.35c-1.11 0-2-.9-2-2v-2h4.34c-.22.63-.34 1.3-.34 2s.12 1.38.35 2z" fill="#ccd1d9"/></g><g><path d="m38.32 53.99c.6-1.71 1.95-3.06 3.66-3.66.63-.22 1.3-.34 2-.34 2.61 0 4.84 1.67 5.65 4 .23.63.35 1.3.35 2s-.12 1.38-.35 2c-.82 2.33-3.04 4-5.65 4s-4.83-1.67-5.65-4c-.23-.62-.35-1.3-.35-2s.12-1.37.34-2z" fill="#969faa"/></g><g><path d="m10.32 53.99c.82-2.33 3.04-4 5.66-4 2.61 0 4.84 1.67 5.65 4 .23.63.35 1.3.35 2s-.12 1.38-.35 2c-.82 2.33-3.04 4-5.65 4s-4.83-1.67-5.65-4c-.23-.62-.35-1.3-.35-2s.12-1.37.34-2z" fill="#969faa"/></g><g><circle cx="43.98" cy="55.99" fill="#ccd1d9" r="2"/></g><g><circle cx="15.98" cy="55.99" fill="#ccd1d9" r="2"/></g><g><path d="m53.98 41.99v4h-8v-6h6z" fill="#69d6f4"/></g></g><g><path d="m43.975 52.985c-1.654 0-3 1.346-3 3s1.346 3 3 3 3-1.346 3-3-1.346-3-3-3zm0 4c-.552 0-1-.448-1-1s.448-1 1-1 1 .448 1 1-.449 1-1 1z"/><path d="m15.975 52.985c-1.654 0-3 1.346-3 3s1.346 3 3 3 3-1.346 3-3-1.346-3-3-3zm0 4c-.552 0-1-.448-1-1s.448-1 1-1 1 .448 1 1-.449 1-1 1z"/><path d="m35.657 40.608-8.683-5.428v3.805h-18v8h18v3.804l8.683-5.426c.825-.515 1.317-1.404 1.317-2.378.001-.972-.492-1.862-1.317-2.377zm-1.06 3.06-5.622 3.514v-2.196h-18v-4h18v-2.196l5.622 3.514c.236.148.378.402.378.682s-.142.534-.378.682z"/><path d="m52.389 38.985h-7.414v8h10v-5.414zm.586 6h-6v-4h4.586l1.414 1.414z"/><path d="m62.975 48.985v-34.647l-28.68-12.857c-1.452-.648-3.185-.649-4.641.001l-28.679 12.856v34.647h4v7c0 1.654 1.346 3 3 3h1.685c1.126 2.361 3.53 4 6.315 4s5.188-1.639 6.315-4h15.37c1.126 2.361 3.53 4 6.315 4s5.188-1.639 6.315-4h8.686c1.103 0 2-.897 2-2v-2c0-1.103-.897-2-2-2h-.001v-4zm-60-2v-31.352l27.497-12.325c.944-.422 2.065-.421 3.006-.001l27.497 12.326v31.353h-2v-7.414l-2-2v-20.587h-50v14.185c-1.161.414-2 1.514-2 2.816v13h-2zm34.685 6h-15.37c-1.126-2.361-3.53-4-6.315-4s-5.188 1.639-6.315 4h-2.685v-19c0-.552.448-1 1-1h32c.552 0 1 .448 1 1v15.685c-1.45.692-2.623 1.865-3.315 3.315zm-18.685-30h2v2h-2zm4 4v-4h2v8h-10v-8h2v4zm8-4h2v2h-2zm4 4v-4h2v8h-10v-8h2v4zm5 4h-1v-8h2v4h6v-4h2v12h-6v-1c0-1.654-1.346-3-3-3zm3-8h2v2h-2zm-4-2h-2-10-2-12v10h-4v-12h46v16.586l-.586-.586h-3.414v-14zm-31 36c-.552 0-1-.448-1-1v-1h2.08c-.047.328-.08.66-.08 1s.033.672.08 1zm8 4c-2.757 0-5-2.243-5-5s2.243-5 5-5 5 2.243 5 5-2.244 5-5 5zm6.92-4c.047-.328.08-.66.08-1s-.033-.672-.08-1h14.16c-.047.328-.08.66-.08 1s.033.672.08 1zm21.08 4c-2.757 0-5-2.243-5-5s2.243-5 5-5 5 2.243 5 5-2.244 5-5 5zm15.001-4h-8.081c.047-.328.08-.66.08-1s-.033-.672-.08-1h8.081zm-8.687-4c-1.126-2.361-3.53-4-6.315-4-.34 0-.672.033-1 .08v-12.08h10.586l3.414 3.414v12.586z"/><path d="m39.975 14.985c1.654 0 3-1.346 3-3s-1.346-3-3-3-3 1.346-3 3 1.345 3 3 3zm0-4c.552 0 1 .448 1 1s-.448 1-1 1-1-.448-1-1 .448-1 1-1z"/><path d="m31.975 14.985c1.654 0 3-1.346 3-3s-1.346-3-3-3-3 1.346-3 3 1.345 3 3 3zm0-4c.552 0 1 .448 1 1s-.448 1-1 1-1-.448-1-1 .448-1 1-1z"/><path d="m23.975 14.985c1.654 0 3-1.346 3-3s-1.346-3-3-3-3 1.346-3 3 1.345 3 3 3zm0-4c.552 0 1 .448 1 1s-.448 1-1 1-1-.448-1-1 .448-1 1-1z"/></g></g></svg>