<svg id="Layer_6" enable-background="new 0 0 64 64" height="512" viewBox="0 0 64 64" width="512" xmlns="http://www.w3.org/2000/svg"><g><g><g><path d="m59.98 19.99h-25v-4h25c1.1 0 2 .89 2 2v2z" fill="#aab2bd"/></g><g><path d="m28.98 15.99v4h-25-2v-2c0-1.11.89-2 2-2z" fill="#aab2bd"/></g><g><path d="m3.98 57.99h4 16 16 16 4 2v2c0 1.1-.9 2-2 2h-56c-1.11 0-2-.9-2-2v-2z" fill="#aab2bd"/></g><g><path d="m4 20h56v38h-56z" fill="#ccd1d9"/></g><g><path d="m8 26h48v32h-48z" fill="#d3a06c"/></g><g><path d="m34.98 19.99v3h-6v-3-4-6h-3l4.47-7.16c.33-.52.9-.84 1.53-.84.62 0 1.2.32 1.53.84l4.47 7.16h-3v6z" fill="#ffeaa7"/></g><g><path d="m45.98 41.99h4v4h-4z" fill="#b27946"/></g><g><path d="m45.98 25.99h4v4h-4z" fill="#b27946"/></g><g><path d="m29.98 25.99h4v4h-4z" fill="#b27946"/></g><g><path d="m29.98 41.99h4v4h-4z" fill="#b27946"/></g><g><path d="m13.98 41.99h4v4h-4z" fill="#b27946"/></g><g><path d="m13.98 25.99h4v4h-4z" fill="#b27946"/></g></g><path d="m62.975 20.986v-3c0-1.654-1.346-3-3-3h-24v-4h3.804l-5.426-8.681c-.515-.826-1.404-1.319-2.378-1.319s-1.863.493-2.378 1.318l-5.426 8.682h3.804v4h-24c-1.654 0-3 1.346-3 3v3h2v36h-2v3c0 1.654 1.346 3 3 3h56c1.654 0 3-1.346 3-3v-3h-2v-36zm-3-4c.551 0 1 .449 1 1v1h-25v-2zm-57 1c0-.551.449-1 1-1h24v2h-25zm58 41.999c0 .552-.449 1-1 1h-56c-.551 0-1-.448-1-1v-1h58zm-46-32.999h2v2h-2zm4 4v-4h4v14h-14v-14h4v4zm12-4h2v2h-2zm4 4v-4h4v14h-14v-14h4v4zm12-4h2v2h-2zm4 4v-4h4v14h-14v-14h4v4zm-10 25.999v-14h4v4h6v-4h4v14zm-16-14h4v4h6v-4h4v14h-14zm6 0h2v2h-2zm16 0h2v2h-2zm-32 0h2v2h-2zm-2 0v4h6v-4h4v14h-14v-14zm46 14h-2v-15-1-16h-16-2-14-2-16v16 1 15h-2v-36h23v2h2v-14h-2.196l3.514-5.622c.296-.474 1.068-.474 1.364 0l3.514 5.622h-2.196v14h2v-2h23z"/></g></svg>