<svg id="Layer_6" enable-background="new 0 0 64 64" height="512" viewBox="0 0 64 64" width="512" xmlns="http://www.w3.org/2000/svg"><g><g><g><path d="m40 26h16v36h-16z" fill="#d3a06c"/></g><g><path d="m24 24h16v38h-16z" fill="#d3a06c"/></g><g><path d="m2 34h16v28h-16z" fill="#d3a06c"/></g><g><path d="m18 48h16v14h-16z" fill="#d3a06c"/></g><g><path d="m61.98 13.99v4h-2-47v-4.48l24-11.52z" fill="#aab2bd"/></g><g><path d="m59.98 17.99v44h-4v-12-12-12h-6-4-6v-2h-6-4-6v12 12h-6v-14h-6-2c.62 0 1.2-.32 1.53-.85l4.47-7.15h-3v-8z" fill="#e6e9ed"/></g><g><path d="m15.98 25.99-4.47 7.15c-.33.53-.91.85-1.53.85-.63 0-1.2-.32-1.53-.85l-4.47-7.15h3v-20h6v7.52 4.48 8z" fill="#ffeaa7"/></g><g><path d="m45.98 49.99h4v4h-4z" fill="#b27946"/></g><g><path d="m45.98 37.99h4v4h-4z" fill="#b27946"/></g><g><path d="m45.98 25.99h4v4h-4z" fill="#b27946"/></g><g><path d="m29.98 23.99h4v4h-4z" fill="#b27946"/></g><g><path d="m29.98 35.99h4v4h-4z" fill="#b27946"/></g><g><path d="m23.98 47.99h4v4h-4z" fill="#b27946"/></g><g><path d="m7.98 47.99h4v4h-4z" fill="#b27946"/></g><g><path d="m11.98 33.99v4h-4v-4h2z" fill="#b27946"/></g></g><g><path d="m11.975 5.986h2v2h-2z"/><path d="m62.975 13.356-26-12.48-23 11.04v-1.93h-2v17h2.196l-3.515 5.623c-.294.472-1.068.472-1.363 0l-3.514-5.622h2.196v-21h-2v19h-3.804l5 8h-6.196v14 1 15h60v-44h2zm-54 21.629h2v2h-2zm-6 0h4v4h6v-4h4v12h-14zm6 14h2v2h-2zm-6 0h4v4h6v-4h4v12h-14zm16 0h4v4h6v-4h4v12h-14zm12-23.999h2v2h-2zm4 4v-4h4v10h-14v-10h4v4zm12-2h2v2h-2zm4 4v-4h4v10h-14v-1-1-8h4v4zm-6 19.999v4h6v-4h4v10h-14v-10zm2 0h2v2h-2zm-6-2v-1-9h4v4h6v-4h4v10zm6-10h2v2h-2zm-16-2h2v2h-2zm-2 0v4h6v-4h4v1 10 1 1 11h-4v-14h-10v-10zm-4 12h2v2h-2zm34 12h-2v-11-1-11-1-12h-16v-2h-18v12 1 11h-4v-14h-6.195l5-8h-3.804v-6h45v42zm2-43.999h-47v-2.851l23-11.04 24 11.52z"/></g></g></svg>