<svg id="Capa_1" enable-background="new 0 0 512 512" height="512" viewBox="0 0 512 512" width="512" xmlns="http://www.w3.org/2000/svg"><g class="fill-current"><path d="m316 122c-8.284 0-15 6.716-15 15v300c0 8.284 6.716 15 15 15s15-6.716 15-15v-300c0-8.284-6.716-15-15-15z"/><path d="m196 122c-8.284 0-15 6.716-15 15v300c0 8.284 6.716 15 15 15s15-6.716 15-15v-300c0-8.284-6.716-15-15-15z"/><path d="m256 122c-8.284 0-15 6.716-15 15v300c0 8.284 6.716 15 15 15s15-6.716 15-15v-300c0-8.284-6.716-15-15-15z"/><path d="m497 482h-6v-265c0-5.269-2.765-10.151-7.283-12.862l-92.717-55.631v-71.507c0-8.284-6.716-15-15-15h-15v-47c0-8.284-6.716-15-15-15h-180c-8.284 0-15 6.716-15 15v47h-15c-8.284 0-15 6.716-15 15v71.507l-92.717 55.63c-4.518 2.712-7.283 7.594-7.283 12.863v265h-6c-8.284 0-15 6.716-15 15s6.716 15 15 15h482c8.284 0 15-6.716 15-15s-6.716-15-15-15zm-316-452h150v32h-150zm-130 422h25c8.284 0 15-6.716 15-15s-6.716-15-15-15h-25v-30h25c8.284 0 15-6.716 15-15s-6.716-15-15-15h-25v-30h25c8.284 0 15-6.716 15-15s-6.716-15-15-15h-25v-30h25c8.284 0 15-6.716 15-15s-6.716-15-15-15h-25v-16.507l70-42v298.507h-70zm100-360h210v390h-210zm240 390v-298.507l70 42v16.507h-25c-8.284 0-15 6.716-15 15s6.716 15 15 15h25v30h-25c-8.284 0-15 6.716-15 15s6.716 15 15 15h25v30h-25c-8.284 0-15 6.716-15 15s6.716 15 15 15h25v30h-25c-8.284 0-15 6.716-15 15s6.716 15 15 15h25v30z"/></g></svg>