<?xml version="1.0" encoding="utf-8"?>
<!-- Generator: Adobe Illustrator 20.0.0, SVG Export Plug-In . SVG Version: 6.00 Build 0)  -->
<svg version="1.1" id="Capa_1" xmlns="http://www.w3.org/2000/svg" xmlns:xlink="http://www.w3.org/1999/xlink" x="0px" y="0px"
	 viewBox="0 0 24.3 24.3" style="enable-background:new 0 0 24.3 24.3;" xml:space="preserve">
<g>
	<path d="M24.1,10.8C24,10,23.3,9.5,22.6,9.6c-0.8,0.1-1.3,0.8-1.2,1.6c0.3,2.8-0.6,5.6-2.6,7.6c-3.6,3.6-9.5,3.6-13.1,0
		C2,15.1,2,9.3,5.6,5.7c2-2,4.8-3,7.6-2.6c0.8,0.1,1.5-0.5,1.6-1.2c0.1-0.8-0.5-1.5-1.2-1.6c-3.7-0.4-7.3,0.8-10,3.5
		c-4.7,4.7-4.7,12.4,0,17.1s12.4,4.7,17.1,0C23.3,18.1,24.6,14.5,24.1,10.8z"/>
</g>
<path d="M21.2,2.4c-0.3-0.2-0.7-0.3-1.1-0.2c-0.4,0.1-0.7,0.3-1,0.6l-7.4,9.7L7.9,8.9C7.2,8.5,6.2,8.6,5.8,9.3
	c-0.5,0.7-0.3,1.6,0.4,2.1l5.1,4.8c0.3,0.2,0.6,0.3,0.9,0.3c0.1,0,0.2,0,0.3,0c0.4-0.1,0.7-0.3,1-0.6l8.2-11.3
	C22,3.8,21.9,2.9,21.2,2.4z"/>
</svg>
