<?xml version="1.0" encoding="utf-8"?>
<!-- Generator: Adobe Illustrator 24.0.1, SVG Export Plug-In . SVG Version: 6.00 Build 0)  -->
<svg version="1.1" id="Layer_1" xmlns="http://www.w3.org/2000/svg" xmlns:xlink="http://www.w3.org/1999/xlink" x="0px" y="0px"
	 viewBox="0 0 512 512" style="enable-background:new 0 0 512 512;" xml:space="preserve">
<g>
	<path d="M448.3,0H106.9C66.2,0,33,33.9,33,75.5v266.9L4.5,370.6c-2.3,2.5-4.5,6-4.5,10.7v58.9c0,19.5,7.5,37.7,21.2,51.3
		C34.4,504.7,51.8,512,70.3,512h0.1l286.6-0.4c0,0,0,0,0,0c31.7,0,57.6-26.4,57.6-58.7V151.7H497c8.3,0,15-6.7,15-15V65
		C512,29.2,483.4,0,448.3,0L448.3,0z M70.4,482L70.4,482c-10.6,0-20.5-4.1-28-11.7c-8-8-12.4-18.6-12.4-30.1v-52.6l22.7-22.5
		l26.9,26.7c5.3,5.4,15.4,6,21.2,0l26.8-26.7l26.8,26.7c5.2,5.4,15.2,6.1,21.2,0l26.8-26.7l26.8,26.7c5.3,5.4,15.4,6,21.2,0
		l26.8-26.7l22.3,22.2v65.5c0,10.5,2.7,20.3,7.4,28.8L70.4,482z M384.6,452.8c0,15.8-12.4,28.7-27.6,28.7
		c-15.2,0-27.6-12.9-27.6-28.7v-71.7c-0.1-3.3-1.1-7.4-4.4-10.6l-37.3-37.2c-5.8-5.8-15.3-5.8-21.2,0L239.7,360l-26.8-26.7
		c-5.9-5.8-15.3-5.8-21.2,0L164.9,360l-26.8-26.7c-5.9-5.8-15.3-5.8-21.2,0L90.1,360l-26.8-26.7c-0.1-0.1-0.2-0.2-0.3-0.3V75.5
		C63,50.4,82.7,30,106.9,30h287.8c-6.4,10.1-10.1,22.1-10.1,35L384.6,452.8z M482,121.7h-67.4V65c0-19.3,15.1-35,33.7-35
		c18.6,0,33.7,15.7,33.7,35L482,121.7z"/>
	<path d="M253.6,144.1c8.3,0,15-6.7,15-15s-6.7-15-15-15c-42.9,0-78.7,31.2-85.8,72.1H156c-8.3,0-15,6.7-15,15s6.7,15,15,15h11.8
		c7.1,40.9,42.9,72.1,85.8,72.1c8.3,0,15-6.7,15-15c0-8.3-6.7-15-15-15c-26.3,0-48.5-17.9-55.1-42.1h55.1c8.3,0,15-6.7,15-15
		s-6.7-15-15-15h-55.1C205.1,162,227.3,144.1,253.6,144.1L253.6,144.1z"/>
</g>
</svg>
