<svg width="22" height="22" viewBox="0 0 22 22" fill="none" xmlns="http://www.w3.org/2000/svg">
<g clip-path="url(#clip0)">
<path d="M19.2727 21.2143L19.2727 17.2857L20.7841 17.2857C20.9028 17.2857 21 17.1973 21 17.0893L21 15.7143C21 15.6063 20.9028 15.5179 20.7841 15.5179L19.2727 15.5179L19.2727 11.8839L20.7841 11.8839C20.9028 11.8839 21 11.7955 21 11.6875L21 10.3125C21 10.2045 20.9028 10.1161 20.7841 10.1161L19.2727 10.1161L19.2727 6.48214L20.7841 6.48214C20.9028 6.48214 21 6.39375 21 6.28571L21 4.91071C21 4.80268 20.9028 4.71429 20.7841 4.71429L19.2727 4.71429L19.2727 0.785714C19.2727 0.351116 18.8868 -9.23713e-08 18.4091 -1.13252e-07L2.86364 -7.92766e-07C2.38594 -8.13646e-07 2 0.351115 2 0.785713L2 21.2143C2 21.6489 2.38594 22 2.86364 22L18.4091 22C18.8868 22 19.2727 21.6489 19.2727 21.2143ZM3.94318 20.2321L3.94318 1.76786L17.3295 1.76786L17.3295 4.71429L15.8182 4.71429C15.6994 4.71429 15.6023 4.80268 15.6023 4.91071L15.6023 6.28571C15.6023 6.39375 15.6994 6.48214 15.8182 6.48214L17.3295 6.48214L17.3295 10.1161L15.8182 10.1161C15.6994 10.1161 15.6023 10.2045 15.6023 10.3125L15.6023 11.6875C15.6023 11.7955 15.6994 11.8839 15.8182 11.8839L17.3295 11.8839L17.3295 15.5179L15.8182 15.5179C15.6994 15.5179 15.6023 15.6062 15.6023 15.7143L15.6023 17.0893C15.6023 17.1973 15.6994 17.2857 15.8182 17.2857L17.3295 17.2857L17.3295 20.2321L3.94318 20.2321Z" fill="black"/>
</g>
<defs>
<clipPath id="clip0">
<rect width="22" height="22" fill="white" transform="translate(22) rotate(90)"/>
</clipPath>
</defs>
</svg>
