<?xml version="1.0" encoding="utf-8"?>
<!-- Generator: Adobe Illustrator 24.0.1, SVG Export Plug-In . SVG Version: 6.00 Build 0)  -->
<svg version="1.1" id="Capa_1" xmlns="http://www.w3.org/2000/svg" xmlns:xlink="http://www.w3.org/1999/xlink" x="0px" y="0px"
	 viewBox="0 0 512 512" style="enable-background:new 0 0 512 512;" xml:space="preserve">
<path d="M497,162H270V90h20v35c0,8.3,6.7,15,15,15s15-6.7,15-15V75c0-8.3-6.7-15-15-15h-35V35c0-19.3-15.7-35-35-35h-20
	c-19.3,0-35,15.7-35,35v127h-31.5c-7-34.2-37.3-60-73.5-60c-41.4,0-75,33.6-75,75v260c0,41.4,33.6,75,75,75h360c8.3,0,15-6.7,15-15
	v-45h47c8.3,0,15-6.7,15-15V177C512,168.7,505.3,162,497,162z M210,35c0-2.8,2.2-5,5-5h20c2.8,0,5,2.2,5,5v25h-30V35z M210,90h30
	v157c0,21.4-5.2,42.8-15,61.8c-9.8-19-15-40.3-15-61.8V90z M30,177c0-24.8,20.2-45,45-45s45,20.2,45,45v200c-12.5-9.4-28.1-15-45-15
	s-32.5,5.6-45,15V177z M420,482H75c-24.8,0-45-20.2-45-45s20.2-45,45-45s45,20.2,45,45c0,8.3,6.7,15,15,15h285V482z M482,422H150
	V192h30v55c0,33.8,10.6,67.2,30,94.9V357c0,8.3,6.7,15,15,15s15-6.7,15-15v-15.1c19.4-27.6,30-61.1,30-94.9v-55h212V422z"/>
<path d="M315,252h120c8.3,0,15-6.7,15-15s-6.7-15-15-15H315c-8.3,0-15,6.7-15,15S306.7,252,315,252z"/>
<path d="M315,312h120c8.3,0,15-6.7,15-15s-6.7-15-15-15H315c-8.3,0-15,6.7-15,15S306.7,312,315,312z"/>
<path d="M435,362h-60c-8.3,0-15,6.7-15,15s6.7,15,15,15h60c8.3,0,15-6.7,15-15S443.3,362,435,362z"/>
</svg>
