<svg width="22" height="22" viewBox="0 0 22 22" fill="none" xmlns="http://www.w3.org/2000/svg">
<path d="M11.8617 11L16.3167 6.545C16.4168 6.42809 16.4691 6.27771 16.4632 6.12391C16.4572 5.97011 16.3935 5.82421 16.2846 5.71538C16.1758 5.60654 16.0299 5.54278 15.8761 5.53684C15.7223 5.5309 15.5719 5.58321 15.455 5.68333L11 10.1383L6.54501 5.67722C6.4281 5.5771 6.27772 5.52479 6.12392 5.53073C5.97012 5.53667 5.82422 5.60043 5.71539 5.70926C5.60655 5.8181 5.54279 5.964 5.53685 6.1178C5.53091 6.2716 5.58323 6.42198 5.68334 6.53889L10.1383 11L5.67723 15.455C5.61326 15.5098 5.5613 15.5772 5.52462 15.653C5.48794 15.7288 5.46733 15.8114 5.46408 15.8956C5.46083 15.9797 5.47501 16.0637 5.50573 16.1421C5.53646 16.2205 5.58306 16.2917 5.64261 16.3513C5.70217 16.4108 5.77339 16.4574 5.85181 16.4882C5.93023 16.5189 6.01416 16.5331 6.09832 16.5298C6.18248 16.5266 6.26506 16.506 6.34088 16.4693C6.4167 16.4326 6.48412 16.3806 6.5389 16.3167L11 11.8617L15.455 16.3167C15.5719 16.4168 15.7223 16.4691 15.8761 16.4632C16.0299 16.4572 16.1758 16.3935 16.2846 16.2846C16.3935 16.1758 16.4572 16.0299 16.4632 15.8761C16.4691 15.7223 16.4168 15.5719 16.3167 15.455L11.8617 11Z"/>
</svg>
