<svg width="26" height="25" viewBox="0 0 26 25" fill="none" xmlns="http://www.w3.org/2000/svg">
<path d="M3.25001 19.7916V5.93748C3.24994 5.72365 3.31831 5.51498 3.44584 5.33981C3.57337 5.16463 3.75387 5.03144 3.96284 4.95831L14.4398 1.29581C14.5216 1.26717 14.6094 1.25793 14.6958 1.26887C14.7821 1.2798 14.8644 1.3106 14.9358 1.35864C15.0071 1.40669 15.0653 1.47056 15.1055 1.54485C15.1457 1.61914 15.1667 1.70165 15.1667 1.78539V6.94477L22.009 9.13748C22.2248 9.20659 22.4125 9.33927 22.5455 9.51669C22.6785 9.69412 22.7501 9.90731 22.75 10.126V19.7916H24.9167V21.875H1.08334V19.7916H3.25001ZM5.41667 19.7916H13V4.0156L5.41667 6.66769V19.7916ZM20.5833 19.7916V10.8771L15.1667 9.1406V19.7916H20.5833Z" />
</svg>
