<svg width="22" height="22" viewBox="0 0 22 22" fill="none" xmlns="http://www.w3.org/2000/svg">
<g>
<path fill-rule="evenodd" clip-rule="evenodd" d="M16.63 4.46187C16.9274 4.16707 17.3289 4.00116 17.7476 4.00001C18.1664 3.99885 18.5687 4.16254 18.8677 4.4557C19.1668 4.74885 19.3384 5.1479 19.3455 5.56659C19.3527 5.98527 19.1947 6.38995 18.9059 6.69312L10.4229 17.2969C10.2771 17.4539 10.1011 17.5799 9.90551 17.6674C9.7099 17.7549 9.49866 17.802 9.28442 17.806C9.07017 17.8099 8.85733 17.7707 8.65862 17.6905C8.4599 17.6103 8.27939 17.4909 8.12788 17.3394L2.50726 11.7166C2.35067 11.5707 2.22508 11.3948 2.13797 11.1993C2.05086 11.0038 2.00402 10.7927 2.00025 10.5787C1.99647 10.3647 2.03584 10.1522 2.11599 9.95372C2.19615 9.75527 2.31546 9.575 2.4668 9.42366C2.61814 9.27232 2.79841 9.15302 2.99686 9.07286C3.19531 8.9927 3.40787 8.95334 3.62187 8.95711C3.83586 8.96089 4.0469 9.00773 4.2424 9.09483C4.4379 9.18194 4.61385 9.30753 4.75976 9.46412L9.20951 13.9117L16.5896 4.50862C16.6028 4.49216 16.617 4.47654 16.6321 4.46187H16.63Z"/>
</g>
</svg>
