<?xml version="1.0" encoding="utf-8"?>
<!-- Generator: Adobe Illustrator 24.0.1, SVG Export Plug-In . SVG Version: 6.00 Build 0)  -->
<svg version="1.1" id="Capa_1" xmlns="http://www.w3.org/2000/svg" xmlns:xlink="http://www.w3.org/1999/xlink" x="0px" y="0px"
	 viewBox="0 0 512 512" style="enable-background:new 0 0 512 512;" xml:space="preserve">
<g>
	<g>
		<path d="M448,64h-48V16c0-8.8-7.2-16-16-16H96C69.5,0,48,21.5,48,48v400c0,35.3,28.7,64,64,64h336c8.8,0,16-7.2,16-16V80
			C464,71.2,456.8,64,448,64z M320,416H160c-8.8,0-16-7.2-16-16c0-44.1,35.9-80,80-80h32c44.1,0,80,35.9,80,80
			C336,408.8,328.8,416,320,416z M176,224c0-35.3,28.7-64,64-64s64,28.7,64,64s-28.7,64-64,64S176,259.3,176,224z M368,64H96
			c-8.8,0-16-7.2-16-16s7.2-16,16-16h272V64z"/>
	</g>
</g>
</svg>
