<?xml version="1.0" encoding="utf-8"?>
<!-- Generator: Adobe Illustrator 24.0.1, SVG Export Plug-In . SVG Version: 6.00 Build 0)  -->
<svg version="1.1" id="Livello_1" xmlns="http://www.w3.org/2000/svg" xmlns:xlink="http://www.w3.org/1999/xlink" x="0px" y="0px"
	 viewBox="0 0 93.3 94.6" style="enable-background:new 0 0 93.3 94.6;" xml:space="preserve">
<g>
	<path d="M55,46c7,0,12.8-5.7,12.8-12.8S62,20.4,55,20.4s-12.8,5.7-12.8,12.8S47.9,46,55,46z M55,25.6c4.2,0,7.7,3.4,7.7,7.7
		s-3.4,7.7-7.7,7.7s-7.7-3.4-7.7-7.7S50.7,25.6,55,25.6z"/>
	<path d="M37.3,72.8h35.4c2.2,0,4-1.8,4-4v-5.1c0-8.4-6.8-15.2-15.2-15.2H48.4c-8.4,0-15.2,6.8-15.2,15.2v5.1
		C33.2,71,35,72.8,37.3,72.8z M38.3,63.7c0-5.5,4.5-10.1,10.1-10.1h13.1c5.5,0,10.1,4.5,10.1,10.1v4H38.3V63.7z"/>
	<path d="M6.4,66.5c-3.5,0-6.4,2.9-6.4,6.4s2.9,6.4,6.4,6.4h3.8v7.4c0,4.4,3.6,7.9,7.9,7.9h67.3c4.4,0,7.9-3.6,7.9-7.9V7.9
		c0-4.4-3.6-7.9-7.9-7.9H18.1c-4.4,0-7.9,3.6-7.9,7.9v6.1H6.4c-3.5,0-6.4,2.9-6.4,6.4s2.9,6.4,6.4,6.4h3.8v14.1H6.4
		c-3.5,0-6.4,2.9-6.4,6.4c0,3.5,2.9,6.4,6.4,6.4h3.8v12.8H6.4z M15.3,7.9c0-1.5,1.3-2.8,2.8-2.8h67.3c1.5,0,2.8,1.3,2.8,2.8v78.8
		c0,1.5-1.3,2.8-2.8,2.8H18.1c-1.5,0-2.8-1.3-2.8-2.8v-7.4h3.8c3.5,0,6.4-2.9,6.4-6.4s-2.9-6.4-6.4-6.4h-3.8V53.7h3.8
		c3.5,0,6.4-2.9,6.4-6.4c0-3.5-2.9-6.4-6.4-6.4h-3.8V26.8h3.8c3.5,0,6.4-2.9,6.4-6.4s-2.9-6.4-6.4-6.4h-3.8V7.9z M6.4,21.7
		c-0.7,0-1.3-0.6-1.3-1.3s0.6-1.3,1.3-1.3h5.5c0.3,0.1,0.6,0.2,0.9,0.2c0.3,0,0.6-0.1,0.9-0.2h5.5c0.7,0,1.3,0.6,1.3,1.3
		s-0.6,1.3-1.3,1.3h-5.5c-0.3-0.1-0.6-0.2-0.9-0.2c-0.3,0-0.6,0.1-0.9,0.2H6.4z M6.4,48.6c-0.7,0-1.3-0.6-1.3-1.3
		c0-0.7,0.6-1.3,1.3-1.3h5.5c0.3,0.1,0.6,0.2,0.9,0.2c0.3,0,0.6-0.1,0.9-0.2h5.5c0.7,0,1.3,0.6,1.3,1.3c0,0.7-0.6,1.3-1.3,1.3H6.4z
		 M19.2,71.6c0.7,0,1.3,0.6,1.3,1.3s-0.6,1.3-1.3,1.3H6.4c-0.7,0-1.3-0.6-1.3-1.3s0.6-1.3,1.3-1.3H19.2z"/>
</g>
</svg>
