<?xml version="1.0" encoding="utf-8"?>
<!-- Generator: Adobe Illustrator 24.0.1, SVG Export Plug-In . SVG Version: 6.00 Build 0)  -->
<svg version="1.1" id="Capa_1" xmlns="http://www.w3.org/2000/svg" xmlns:xlink="http://www.w3.org/1999/xlink" x="0px" y="0px"
	 viewBox="0 0 512 512" style="enable-background:new 0 0 512 512;" xml:space="preserve">
<path d="M325.8,132.4c-19.8,0-39.7,4.3-58,12.2c0.3-0.6,0.3-1.2,0.6-2.1c0.9-9.2,0.9-18.6,0-27.8
	c15.6,5.8,31.7,8.9,48.2,9.2c12.2,0.3,24.1-2.4,35.1-7.9c39.4-21.4,50.7-68.7,51.6-70.8c1.2-5.8-1.5-11.6-6.7-14
	c-2.4-1.2-61.4-30.2-101.4-8.5c-16.8,9.5-30.2,23.2-39.4,40c-7.6-17.1-19.8-31.7-35.1-42.1c-5.8-4-13.7-2.1-17.4,3.7
	c-4,5.8-2.1,13.7,3.7,17.4c43.3,28.7,36.6,96.8,36.6,98c-0.3,1.5-0.3,3.1,0,4.6c-73.6-31.7-159.1,2.1-190.8,75.7
	c-7.6,17.7-11.6,36.3-11.9,55.6c0,76,78.8,227.7,181.9,227.7c7.9,0,15.6-1.5,22.9-4.6c6.4-2.7,13.7-2.7,20.5,0
	c7.3,3.1,15,4.6,22.9,4.6c95.9,0,181.9-154.5,181.9-227.7C470.2,196.2,405.4,132.1,325.8,132.4z M306.8,44.5
	c19.2-10.4,50.1-2.1,68.4,4.6c-6.4,18.3-18.9,34.2-35.4,44.3c-19.2,10.4-50.1,2.1-68.4-4.6C277.8,70.4,290.3,54.9,306.8,44.5z
	 M289.1,478.3c-4.6,0-9.2-0.9-13.4-2.7c-12.8-5.2-26.9-5.2-39.4,0c-4.3,1.8-8.9,2.7-13.4,2.7c-84,0-156.6-135.5-156.6-202.4
	c0.6-65.6,54.3-118.4,120-118.1c22.3,0,44.3,6.1,63.2,18c4,2.4,9.2,2.4,13.4,0c18.9-11.6,40.9-18,63.2-18
	c65.6-0.3,119.1,52.5,120,118.1C445.7,346.4,362.7,478.3,289.1,478.3z"/>
<path d="M325.8,183.1c-7,0-12.5,5.8-12.5,12.5s5.8,12.5,12.5,12.5c37.9-0.3,68.7,29.9,69.3,67.5c0,7,5.8,12.5,12.5,12.5
	c6.7,0,12.5-5.8,12.5-12.5C419.8,224,377.3,182.8,325.8,183.1z"/>
</svg>
