<svg xmlns="http://www.w3.org/2000/svg" data-name="Layer 2" viewBox="0 0 16 20" x="0px" y="0px"><title>User Interface Home Tabbar Navigation Aplication Mobile</title><path d="M10.5,15.5h4a1.0009,1.0009,0,0,0,1-1V7.23a.9979.9979,0,0,0-.35-.7593L8.65.8984A.996.996,0,0,0,7.35.8994L.85,6.4707A.9962.9962,0,0,0,.5,7.23V14.5a1.0009,1.0009,0,0,0,1,1h4a1.0009,1.0009,0,0,0,1-1v-4h3v4A1.0009,1.0009,0,0,0,10.5,15.5Zm-4-6a1.0009,1.0009,0,0,0-1,1v4h-4V7.23l-.3252-.38h0L1.5,7.23,8,1.6582,14.5,7.23V14.5h-4v-4a1.0009,1.0009,0,0,0-1-1Z"/><text x="0" y="31" fill="#000000" font-size="5px" font-weight="bold" font-family="'Helvetica Neue', Helvetica, Arial-Unicode, Arial, Sans-serif">Created by Rizki Ahmad Fauzi</text><text x="0" y="36" fill="#000000" font-size="5px" font-weight="bold" font-family="'Helvetica Neue', Helvetica, Arial-Unicode, Arial, Sans-serif">from the Noun Project</text></svg>