<?xml version="1.0" encoding="utf-8"?>
<!-- Generator: Adobe Illustrator 24.0.1, SVG Export Plug-In . SVG Version: 6.00 Build 0)  -->
<svg version="1.1" id="Layer_1" xmlns="http://www.w3.org/2000/svg" xmlns:xlink="http://www.w3.org/1999/xlink" x="0px" y="0px"
	 viewBox="0 0 512 512" style="enable-background:new 0 0 512 512;" xml:space="preserve">
<title>Clipboard verification</title>
<path d="M197,249.9l-39,37.3l-19-19c-2.7-2.7-7.2-2.7-9.9,0s-2.7,7.2,0,9.9L153,302c2.7,2.7,7,2.7,9.8,0.1l43.9-42
	c2.8-2.7,2.9-7.1,0.2-9.9S199.8,247.3,197,249.9L197,249.9z"/>
<path d="M197,149.9l-39,37.3l-19-19.1c-2.7-2.7-7.2-2.7-9.9,0s-2.7,7.2,0,9.9l23.9,23.9c2.7,2.7,7,2.7,9.8,0.1l43.9-42
	c2.8-2.7,2.9-7.1,0.2-9.9S199.8,147.3,197,149.9L197,149.9z"/>
<path d="M197,349.9l-39,37.3l-19-19c-2.7-2.7-7.2-2.7-9.9,0s-2.7,7.2,0,9.9L153,402c2.7,2.7,7,2.7,9.8,0.1l43.9-42
	c2.8-2.7,2.9-7.1,0.2-9.9C204.3,347.4,199.8,347.3,197,349.9L197,349.9z"/>
<path d="M394.1,70H374V45.8c0-3.9-3.1-7-7-7s-7,3.1-7,7V70H152V45.8c0-3.9-3.1-7-7-7s-7,3.1-7,7V70h-20.2
	C91.9,70.1,70.9,91.2,71,117.1v309.1C71,452,91.9,473,117.7,473h0.1h276.3c25.8,0.1,46.8-20.8,46.8-46.6v-0.1V117.1
	C441.1,91.2,420.1,70.1,394.1,70z M427,426.2c0,18.1-14.6,32.8-32.7,32.8c-0.1,0-0.1,0-0.2,0H117.8C99.7,459.1,85,444.5,85,426.4
	c0-0.1,0-0.1,0-0.2V117.1c-0.1-18.2,14.6-33,32.8-33.1H138v18.7c0,3.9,3.1,7,7,7s7-3.1,7-7V84h208v18.7c0,3.9,3.1,7,7,7s7-3.1,7-7
	V84h20.1c18.2,0.1,32.9,14.9,32.9,33.1V426.2z"/>
<path d="M378,269H263c-3.9,0-7,3.1-7,7s3.1,7,7,7h115c3.9,0,7-3.1,7-7S381.8,269,378,269z"/>
<path d="M378,169H263c-3.9,0-7,3.1-7,7s3.1,7,7,7h115c3.9,0,7-3.1,7-7S381.8,169,378,169z"/>
<path d="M378,369H263c-3.9,0-7,3.1-7,7s3.1,7,7,7h115c3.9,0,7-3.1,7-7S381.8,369,378,369z"/>
</svg>
