<?xml version="1.0" encoding="utf-8"?>
<!-- Generator: Adobe Illustrator 24.0.1, SVG Export Plug-In . SVG Version: 6.00 Build 0)  -->
<svg version="1.1" id="Capa_1" xmlns="http://www.w3.org/2000/svg" xmlns:xlink="http://www.w3.org/1999/xlink" x="0px" y="0px"
	 viewBox="0 0 407 407" style="enable-background:new 0 0 407 407;" xml:space="preserve">
<g>
	<g>
		<g>
			<path d="M271.4,30.8h-29.8c-3.7-0.1-6.9-2.7-7.8-6.3C231,9.9,217.9-0.5,203,0c-15-0.3-28,10.3-30.8,25.1c-1,3.5-4.2,5.9-7.8,5.7
				h-28.7v52.2h135.8V30.8z"/>
			<path d="M355,383V83.6c0-11.8-9.5-21.4-21.4-21.5c-0.5,0-1.1,0-1.6,0.1h-44.9v26.6c0,4.2-2.6,9.9-6.8,9.9H126.2
				c-4.2,0-6.3-5.7-6.3-9.9V62.2H75c-11.8-0.9-22.1,8-22.9,19.8c0,0.5-0.1,1.1-0.1,1.6V383c-0.3,13,10,23.7,23,24c0,0,0,0,0,0h257
				C345,406.7,355.3,396,355,383C355,383,355,383,355,383z M161.2,314l-40.8,38.1c-1.3,1.6-3.2,2.5-5.2,2.6c-2.2-0.1-4.2-1-5.7-2.6
				L88,330.2c-2.8-3.2-2.6-8.1,0.5-11c3-3,7.9-3,11,0l15.7,16.7l35.5-33.4c3.6-2.5,8.4-1.6,10.9,2
				C163.6,307.4,163.5,311.3,161.2,314z M161.2,230.4L161.2,230.4l-40.8,38.1c-1.3,1.6-3.2,2.5-5.2,2.6c-2.2-0.1-4.2-1-5.7-2.6
				L88,246.6c-2.8-3.2-2.6-8.1,0.5-11c3-3,7.9-3,11,0l15.7,16.7l35.5-33.4c3.6-2.5,8.4-1.6,10.9,2
				C163.6,223.8,163.5,227.7,161.2,230.4z M161.2,146.8L120.4,185c-1.3,1.6-3.2,2.5-5.2,2.6c-2.2-0.1-4.2-1-5.7-2.6L88,163
				c-2.8-3.2-2.6-8.1,0.5-11c3-3,7.9-3,11,0l15.7,16.7l35.5-33.4c3.6-2.5,8.4-1.6,10.9,2C163.6,140.2,163.5,144.1,161.2,146.8z
				 M313.2,344.3H193.1c-4.3,0-7.8-3.5-7.8-7.8s3.5-7.8,7.8-7.8h120.2c4.3,0,7.8,3.5,7.8,7.8S317.5,344.3,313.2,344.3z M313.2,260.7
				H193.1c-4.3,0-7.8-3.5-7.8-7.8s3.5-7.8,7.8-7.8h120.2c4.3,0,7.8,3.5,7.8,7.8C321.1,257.2,317.5,260.7,313.2,260.7z M313.2,177.1
				H193.1c-4.3,0-7.8-3.5-7.8-7.8s3.5-7.8,7.8-7.8h120.2c4.3,0,7.8,3.5,7.8,7.8C321.1,173.6,317.5,177.1,313.2,177.1z"/>
		</g>
	</g>
</g>
</svg>
