<?xml version="1.0" encoding="utf-8"?>
<!-- Generator: Adobe Illustrator 24.0.1, SVG Export Plug-In . SVG Version: 6.00 Build 0)  -->
<svg version="1.1" id="Livello_1" xmlns="http://www.w3.org/2000/svg" xmlns:xlink="http://www.w3.org/1999/xlink" x="0px" y="0px"
	 viewBox="0 0 420 420" style="enable-background:new 0 0 420 420;" xml:space="preserve">
<g class="fill-current text-amber-500">
<path d="M210,241.7c-2.3,0-4.6-0.6-6.6-1.7L8.9,131.5c-3.2-1.8-5.5-4.7-6.5-8.2c-1-3.5-0.6-7.2,1.2-10.4c2.4-4.3,7-7,11.9-7
	c2.3,0,4.6,0.6,6.6,1.7l187.9,104.8l187.8-104.8c2.1-1.1,4.4-1.7,6.6-1.7c5,0,9.6,2.7,12,6.9c3.7,6.6,1.3,14.9-5.3,18.6L216.7,239.9
	c-1.9,1.1-4.2,1.8-6.6,1.8L210,241.7z"/>
<path d="M405,108.3l-195,108.8l-195-108.8c-4.8-2.7-10.9-0.9-13.6,3.9s-0.9,10.9,3.9,13.6l199.9,111.5c1.5,0.8,3.2,1.3,4.9,1.3
	c1.7,0,3.4-0.4,4.9-1.3l199.9-111.5c4.8-2.7,6.6-8.8,3.9-13.6C416,107.4,409.9,105.7,405,108.3z"/>
<path d="M54.3,353.7c-28.9,0-52.5-23.6-52.5-52.5V119.6c0-29,23.6-52.5,52.5-52.5h311.2c28.9,0,52.5,23.6,52.5,52.5v181.6
	c0,28.9-23.6,52.5-52.5,52.5H54.3z M54.3,94.4c-13.9,0-25.3,11.4-25.3,25.3v181.5c0,13.9,11.4,25.2,25.3,25.3h311.2
	c13.9,0,25.2-11.4,25.3-25.3V119.6c0-13.9-11.4-25.2-25.3-25.3H54.3z"/>
<path d="M369.9,67.1H50c-27.6,0-50,22.4-50,50v186.6c0,27.6,22.4,50,50,50h319.9c27.6,0,50-22.4,50-50V117.1
	C419.8,89.5,397.5,67.1,369.9,67.1z M399.9,303.6c0,16.5-13.4,29.9-30,30H50c-16.5,0-29.9-13.4-30-30V117.1c0-16.5,13.4-29.9,30-30
	h319.9c16.5,0,29.9,13.4,30,30V303.6z"/>
</g>
</svg>
