<svg height="512pt" viewBox="0 0 512 512" width="512pt" xmlns="http://www.w3.org/2000/svg"><path d="m512 60v295l-40-40v-255c0-11.027344-8.972656-20-20-20h-392c-11.027344 0-20 8.972656-20 20v392c0 11.027344 8.972656 20 20 20h278l40 40h-318c-33.085938 0-60-26.914062-60-60v-392c0-33.085938 26.914062-60 60-60h392c33.085938 0 60 26.914062 60 60zm-172 30h-167v40h167zm52.855469 260.144531 40.859375 40.855469h-172.714844v40h174.714844l-42.859375 42.855469 28.285156 28.285156 90.144531-90.140625-90.144531-90.144531zm0 0"/></svg>