<?xml version="1.0" encoding="utf-8"?>
<!-- Generator: Adobe Illustrator 24.0.1, SVG Export Plug-In . SVG Version: 6.00 Build 0)  -->
<svg version="1.1" id="Livello_1" xmlns="http://www.w3.org/2000/svg" xmlns:xlink="http://www.w3.org/1999/xlink" x="0px" y="0px"
	 viewBox="0 0 71 98.6" style="enable-background:new 0 0 71 98.6;" xml:space="preserve">
<style type="text/css">
	.st0{fill:#231F20;}
</style>
<g>
	<path class="st0" d="M35.5,88.9c-8.6,0-23.4-25.2-27.2-39.8c-0.9-2.9-1.4-6-1.4-9.2C7,23.3,19.8,9.7,35.5,9.7S64,23.3,64,39.9
		c0,3.2-0.5,6.3-1.4,9.3C58.9,63.8,44.1,88.9,35.5,88.9z M35.5,15.3c-12.6,0-22.9,11-22.9,24.6c0,2.6,0.4,5.2,1.1,7.7
		c4.1,16,18,35.2,21.8,35.7c3.8-0.5,17.6-19.6,21.7-35.5c0.8-2.6,1.2-5.2,1.2-7.8C58.4,26.4,48.1,15.3,35.5,15.3z"/>
	<path class="st0" d="M35.5,52.9C28,52.9,22,46.8,22,39.4S28,25.8,35.5,25.8s13.6,6.1,13.6,13.6S43,52.9,35.5,52.9z M35.5,31.4
		c-4.4,0-7.9,3.6-7.9,7.9s3.6,7.9,7.9,7.9c4.4,0,7.9-3.6,7.9-7.9S39.9,31.4,35.5,31.4z"/>
</g>
</svg>
