<?xml version="1.0" encoding="utf-8"?>
<!-- Generator: Adobe Illustrator 24.0.1, SVG Export Plug-In . SVG Version: 6.00 Build 0)  -->
<svg version="1.1" id="Livello_1" xmlns="http://www.w3.org/2000/svg" xmlns:xlink="http://www.w3.org/1999/xlink" x="0px" y="0px"
	 viewBox="0 0 472 472" style="enable-background:new 0 0 472 472;" xml:space="preserve">
<style type="text/css">
	.st0{stroke:#000000;stroke-miterlimit:10;}
</style>
<g>
	<path class="st0" d="M236.4,239.7c-66.1,0-119.8-53.8-119.8-119.8C116.6,53.8,170.3,0,236.4,0c66,0.1,119.8,53.8,119.8,119.8
		C356.2,185.9,302.5,239.7,236.4,239.7z M236.4,27.8c-50.8,0-92.1,41.3-92.1,92.1s41.3,92.1,92.1,92.1c50.7-0.1,92-41.4,92.1-92.1
		C328.5,69.1,287.2,27.8,236.4,27.8z"/>
	<path class="st0" d="M236.4,4.1c-63.9,0-115.8,51.8-115.8,115.8s51.8,115.8,115.8,115.8c63.9,0,115.8-51.8,115.8-115.8
		C352.1,55.9,300.3,4.1,236.4,4.1z M236.4,216c-53.1,0-96.1-43-96.1-96.1s43-96.1,96.1-96.1c53.1,0,96.1,43,96.1,96.1
		C332.5,172.9,289.5,215.9,236.4,216z"/>
	<path class="st0" d="M59.8,472c-7.6,0-13.9-6.3-13.9-13.9c0-54.5,19.8-104.7,55.7-141.4c35.5-36.3,83.3-56.3,134.8-56.3
		c51.4,0,99.2,20,134.8,56.4c35.9,36.6,55.7,86.8,55.7,141.3c0,7.6-6.2,13.9-13.9,13.9H59.8z M398.4,444.2
		c-3-41.6-19.7-79.8-47.2-107.9c-30.2-30.9-71-47.9-114.9-47.9c-43.9,0-84.7,17-114.9,47.9c-27.6,28.2-44.3,66.4-47.2,107.9H398.4z"
		/>
	<path class="st0" d="M236.4,264.5c-50.3,0-97.1,19.5-131.8,55C69.3,355.6,50,404.7,50,458.1c0,5.4,4.4,9.8,9.8,9.8H413
		c5.4,0,9.8-4.4,9.8-9.8c0-53.3-19.3-102.5-54.5-138.4C333.5,284.2,286.7,264.5,236.4,264.5z M69.8,448.3
		c2.2-44.3,19.3-84.9,48.7-114.9c31-31.7,72.9-49.1,117.8-49.1s86.8,17.5,117.8,49.1c29.4,30,46.5,70.5,48.7,114.9H69.8z"/>
</g>
</svg>
