<?xml version="1.0" encoding="utf-8"?>
<!-- Generator: Adobe Illustrator 24.0.1, SVG Export Plug-In . SVG Version: 6.00 Build 0)  -->
<svg version="1.1" id="Layer_1" xmlns="http://www.w3.org/2000/svg" xmlns:xlink="http://www.w3.org/1999/xlink" x="0px" y="0px"
	 viewBox="0 0 512 512" style="enable-background:new 0 0 512 512;" xml:space="preserve">
<title>Track delivery call</title>
<g>
<path d="M486.5,382.3L422.2,318c-0.2-0.2-0.4-0.4-0.6-0.6c-4.6-4.9-14.2-12.9-27.5-12.9c-9.9,0-19.8,4.6-28.4,13.2l-40.1,40.1
	c-1.3,1.3-3.7,3.6-7,3.6c-1.5,0-3.1-0.4-4.4-1.1c-0.3-0.2-0.7-0.4-1-0.6c-3.9-2.4-8.1-4.5-12.3-6.6l-0.3-0.2
	c-4.4-2.1-8.8-4.5-13-7.1c-36.2-22.9-69-52.8-100.4-91.5c-0.1-0.1-0.2-0.3-0.3-0.4c-16.7-21.3-27.6-39-35.2-57.3l-0.1-0.3
	c-1.6-5-1.5-7.5,2.4-11.3c0.1-0.1,0.2-0.2,0.3-0.3c10-9,19.1-18,29.7-28.9c0.1-0.1,0.2-0.2,0.4-0.4c2.3-2.2,4.4-4.4,6.5-6.5
	c1-1.1,2.1-2.1,3.1-3.2c9.1-9.1,13.8-18.8,13.8-28.9c0-10-4.6-19.8-13.8-28.9L162,56.3c-1.9-1.9-3.7-3.8-5.6-5.7l-0.4-0.4
	c-1.7-1.7-3.4-3.4-5-5.1c-6.4-6.6-13.8-14.2-21.6-21.5l-0.2-0.2c-8.2-8.2-17.8-12.5-27.7-12.5c-9.8,0-19.5,4.3-28.2,12.4
	c-0.1,0.1-0.3,0.3-0.4,0.4L33,63.5C20.9,75.3,13.6,91,12.4,107.8c-2,24,2.4,48.6,14,79.9c18.3,49.5,45.9,95.5,87,145
	c49.1,59,109,105.9,178.1,139.5c25.5,12.2,59.6,26.5,96.9,28.9c2.3,0.2,4.5,0.2,6.5,0.2c22.4,0,40.4-7.7,55.1-23.4
	c0.2-0.2,0.3-0.4,0.4-0.5c6.8-7.8,14.1-15.3,21.7-22.5c1-1,2-1.9,3-2.9l2.7-2.6c2.7-2.7,5.9-5.8,9-9.1
	C504.6,421.7,504.4,400.1,486.5,382.3z M129.2,66.1c1.9,1.9,3.8,3.8,5.6,5.8c1.8,1.9,3.7,3.7,5.5,5.6l32.2,32.2
	c4.7,4.7,4.9,7,4.9,7.5c0,0.4-12.2,14.5-15.9,18.4L82.7,56.7c2.6-2.3,17.1-15.6,18.8-15.6c1.6,0,4,1.4,6.4,3.8c0,0,0.5,0.5,0.8,0.7
	C115.2,51.7,121.6,58.2,129.2,66.1z M42.6,110.2c0.6-9.6,4.8-18.5,11.8-25.3l6.8-6.8l78.9,78.9c-7,7-0.8,0.5-6.5,5.6l0,0
	c-0.7,0.6-1.3,1.2-1.8,1.8c-11.1,11.5-14.1,25.4-9.1,41.2c0.2,0.5,0.3,1.1,0.6,1.7c0.1,0.2,0.2,0.4,0.2,0.6
	c8.8,21.2,21.1,41.4,40,65.4c0.2,0.3,0.4,0.5,0.6,0.7c33.4,41,68.5,72.9,107.4,97.5c5.1,3.1,10.4,6,15.7,8.6l0.3,0.1
	c3.8,1.9,7.4,3.7,10.1,5.4c0.2,0.1,0.4,0.3,0.7,0.4c0.7,0.4,1.3,0.8,1.9,1.1c5.7,2.9,12,4.5,18.5,4.6c10.6,0,20.2-4.2,28.5-12.5
	l8.9-8.9l78.9,78.9c-6.2,6-1.3,1.6-7,8.1c-9,9.6-18.9,13.7-32.9,13.7c-1.5,0-3.1,0-4.4-0.1c-32.2-2.1-62.8-14.9-85.8-25.9
	c-65.1-31.6-121.7-75.9-168-131.5c-38.8-46.7-64.8-90-81.9-136.2C44.8,150.3,41,129.6,42.6,110.2z M394.1,334.8
	c1.4,0,3.7,1.4,5.7,3.6c0.1,0.2,0.3,0.3,0.5,0.5l64.9,64.9c5.4,5.3-4.8,19-8.9,24l-78.8-78.8C379.9,346.6,392.9,334.8,394.1,334.8z"
	/>
</g>
</svg>
