<?xml version="1.0" encoding="utf-8"?>
<!-- Generator: Adobe Illustrator 24.0.1, SVG Export Plug-In . SVG Version: 6.00 Build 0)  -->
<svg version="1.1" id="Layer_1" xmlns="http://www.w3.org/2000/svg" xmlns:xlink="http://www.w3.org/1999/xlink" x="0px" y="0px"
	 viewBox="0 0 512 512" style="enable-background:new 0 0 512 512;" xml:space="preserve">
<title>Share status</title>
<g>
	<path d="M256,225.2c1.6,0,3.3-0.4,4.8-1.3l60-34.6c2.9-1.7,4.8-4.8,4.8-8.2v-69.3c0-3.4-1.8-6.5-4.8-8.2l-60-34.6
		c-2.9-1.7-6.6-1.7-9.5,0l-60,34.6c-2.9,1.7-4.8,4.8-4.8,8.2V181c0,3.4,1.8,6.5,4.8,8.2l60,34.6C252.7,224.7,254.4,225.2,256,225.2z
		 M244.4,128.7l41-23.7l11.6,6.7l-41,23.7L244.4,128.7z M265.5,199.2v-47.3l41-23.7v47.3L265.5,199.2z M215,111.7l41-23.7l10.4,6
		l-41,23.7L215,111.7z M205.5,175.5v-47.3l41,23.7v47.3L205.5,175.5z"/>
	<path d="M101.9,437.5h39c5.2,0,9.5-4.3,9.5-9.5s-4.3-9.5-9.5-9.5h-39c-5.2,0-9.5,4.3-9.5,9.5S96.7,437.5,101.9,437.5z"/>
	<path d="M453.8,81.5h-87.3V61.4c0-16-13.3-28.9-29.7-28.9H178.6c-0.1,0-0.2,0-0.3,0c-15.7,0-28.6,12.7-28.8,28.5l0,20.5H58.2
		c-28.5,0-51.6,23.2-51.7,51.6v295.2c0.1,28.3,23.1,51.2,51.3,51.2c0,0,0.1,0,0.1,0l126.7,0c28.6,0,51.8-23,51.8-51.2V259.5h39
		v168.8c0,28.2,23.3,51.2,51.8,51.2h126.5c0.1,0,0.2,0,0.3,0c28.2,0,51.2-22.8,51.3-51l0-295.4C505.5,104.7,482.3,81.5,453.8,81.5z
		 M486.5,395.5v32.8c-0.1,17.8-14.5,32.2-32.3,32.2c0,0-0.1,0-0.1,0l-126.7,0c-18.1,0-32.8-14.5-32.8-32.2v-32.8H486.5z
		 M390.6,336.2c23.8,0,44.4,17.1,49.1,40.3h-98.3C346.1,353.3,366.8,336.2,390.6,336.2z M390.6,317.2c-17.1,0-33.5,6.4-46.3,17.9
		c-12.1,10.9-19.9,25.5-22.2,41.4h-27.7v-117h42.3c4.2,0,8.2-0.9,11.8-2.4c-1,3.7-1.6,7.5-1.6,11.5c0,23.5,19.1,42.6,42.6,42.6
		c23.5,0,42.6-19.1,42.6-42.6v0c0-23.5-19.1-42.6-42.6-42.6c-8.6,0-16.6,2.6-23.3,6.9c0.1-0.8,0.1-1.7,0.1-2.5v-80.9h120v227H459
		c-2.3-15.8-10.1-30.5-22.2-41.4C424.1,323.6,407.7,317.2,390.6,317.2z M217.7,244.5h-0.2v0.2l-14,14.5v-8.9c0-5.5-4-9.8-9.1-9.8
		h-15.8c0,0-0.1,0-0.1,0c-5.4,0-9.8-4.4-9.9-9.8l0-169.3c-0.1-5.4,4.2-9.8,9.6-9.9c0.1,0,0.3,0,0.5,0h158.2c5.9,0,10.7,4.5,10.7,9.9
		v168.9c0,5.6-4.8,10.1-10.7,10.1l-111.2,0c-2.6,0.1-5.1,1.1-7,3L217.7,244.5z M121.4,336.2c23.8,0,44.4,17.1,49.1,40.3H72.3
		C77,353.3,97.6,336.2,121.4,336.2z M121.4,317.2c-17.1,0-33.5,6.4-46.3,17.9C63.1,346,55.3,360.7,53,376.5H25.5v-227h124l0,80.9
		c0,2,0.2,4,0.6,5.9c-7.5-6.4-17.1-10.3-27.7-10.3h0c0,0,0,0,0,0c-23.5,0-42.6,19.1-42.6,42.6c0,11.4,4.4,22.1,12.5,30.1
		c8.1,8.1,18.8,12.5,30.1,12.5c0,0,0,0,0,0c11.4,0,22.1-4.4,30.1-12.5S165,280,165,268.6c0-4.8-0.8-9.4-2.3-13.8
		c4.6,3,9.9,4.6,15.5,4.7h6.3l0,23.3c0.1,3.9,2.5,7.3,6.2,8.8c1.2,0.5,2.4,0.7,3.7,0.7c0,0,0,0,0,0c2.6-0.1,5.1-1.2,6.8-3l16.3-17
		v104.3h-27.7c-2.3-15.8-10.1-30.5-22.2-41.4C154.9,323.6,138.5,317.2,121.4,317.2z M139.1,251.9c4.5,4.5,6.9,10.4,6.9,16.7
		c0,13-10.6,23.6-23.6,23.6c-6.3,0-12.2-2.5-16.7-6.9c-4.5-4.5-6.9-10.4-6.9-16.7s2.5-12.2,6.9-16.7c4.5-4.5,10.4-6.9,16.7-6.9
		C128.7,245,134.6,247.4,139.1,251.9z M366,268.6c0-13,10.6-23.6,23.6-23.6c13,0,23.6,10.6,23.6,23.6s-10.6,23.6-23.6,23.6
		C376.6,292.2,366,281.6,366,268.6z M366.5,130.5v-30h87.3c0,0,0,0,0,0c17.1,0,31.2,13.2,32.6,30H366.5z M149.5,130.5H25.6
		c1.4-16.8,15.4-30,32.6-30c0,0,0,0,0,0h91.3L149.5,130.5z M217.5,395.5v32.8c0,17.8-14.7,32.2-32.8,32.2H58.1c-0.1,0-0.2,0-0.3,0
		c-8.5,0-16.5-3.3-22.6-9.3c-6.2-6-9.6-14.1-9.7-22.8l0-33H217.5z"/>
	<path d="M371.1,437.5h39c5.2,0,9.5-4.3,9.5-9.5s-4.3-9.5-9.5-9.5h-39c-5.2,0-9.5,4.3-9.5,9.5S365.8,437.5,371.1,437.5z"/>
</g>
</svg>
