<?xml version="1.0" encoding="utf-8"?>
<!-- Generator: Adobe Illustrator 24.0.1, SVG Export Plug-In . SVG Version: 6.00 Build 0)  -->
<svg version="1.1" id="Layer_1" xmlns="http://www.w3.org/2000/svg" xmlns:xlink="http://www.w3.org/1999/xlink" x="0px" y="0px"
	 viewBox="0 0 512 512" style="enable-background:new 0 0 512 512;" xml:space="preserve">
<title>Parcel boxses</title>
<g class="fill-current text-red-500">
<path d="M382.7,73.4L260.5,2.7c-2.3-1.4-5-1.4-7.3,0L130.7,73.4c-2.3,1.2-3.7,3.6-3.9,6.4v140.9h14.6V92.3l35.4,20.2v86.2
	c0,2,0.8,3.9,2.2,5.2l35.8,35.3c2.9,2.8,7.5,2.8,10.3-0.1c1.4-1.4,2.1-3.2,2.1-5.1l-0.1-92.6l22.5,13v136.9h14.6V154.5l107.3-62.2
	v128.3h14.6v-141C386.3,77.1,384.9,74.6,382.7,73.4z M256.9,17.4l107.7,62.2l-107.7,62.2l-22.6-13.1l55.3-32.6
	c3.4-2.1,4.6-6.6,2.6-10c-0.6-1-1.5-1.9-2.5-2.5l-33.8-20.7c-2.3-1.4-5.1-1.5-7.4-0.1l-64.4,37l-34.9-20.1L256.9,17.4z M212.6,128.7
	l0.1,87.8l-21.2-20.8v-83.4l60.4-34.7l19.9,12.1l-55.6,32.7C213.9,123.8,212.6,126.1,212.6,128.7z"/>
<path d="M504.4,284.8l-122.3-70.6c-2.3-1.4-5-1.4-7.3,0L256,282.9l-118.8-68.6c-2.3-1.4-5-1.4-7.3,0L7.6,284.8
	c-2.3,1.4-3.6,3.7-3.6,6.4v141.2c0,2.6,1.4,5,3.6,6.4l122.3,70.6c2.3,1.2,5,1.2,7.3,0L256,440.6l118.8,68.6c2.3,1.2,5,1.2,7.3,0
	l122.3-70.6c2.3-1.4,3.6-3.7,3.6-6.4V291.2C508,288.6,506.6,286.2,504.4,284.8z M378.5,229l107.7,62.2l-107.7,62.2l-22.6-13.1
	l55.3-32.6c3.4-2.1,4.6-6.6,2.6-10c-0.6-1-1.5-1.9-2.5-2.5l-33.8-20.7c-2.3-1.4-5.1-1.5-7.4-0.1l-64.4,37l-34.9-20.1L378.5,229z
	 M263.3,303.6l35.4,20.4v86.2c0,2,0.7,3.9,2.1,5.2l35.7,35.3c2.8,2.8,7.5,2.8,10.3-0.1c1.4-1.4,2.1-3.2,2.1-5.1v-92.6l22.7,13v124.3
	l-108.3-62.4L263.3,303.6L263.3,303.6z M337.6,334c-2.2,1.4-3.6,3.7-3.5,6.2l0.2,87.8l-21-20.8v-83.4l60.3-34.7l19.8,12.1L337.6,334
	z M133.5,229l107.7,62.2l-107.7,62.2l-22.6-13.1l55.3-32.6c3.4-2.1,4.6-6.6,2.6-10c-0.6-1-1.5-1.9-2.5-2.5l-33.8-20.7
	c-2.3-1.4-5.1-1.5-7.4-0.1l-64.4,37l-34.9-20.1L133.5,229z M89.5,428.1l-20.9-20.8v-83.4l60.2-34.7l19.7,12.1L92.8,334
	c-2.2,1.4-3.5,3.7-3.5,6.2L89.5,428.1z M18.6,303.8L54,324v86.2c-0.1,1.9,0.6,3.7,2,5.2l35.7,35.3c2.1,2.1,5.2,2.7,7.9,1.6
	c2.7-1.1,4.5-3.7,4.5-6.8l-0.4-92.6l22.3,13v124.3L18.6,428.1V303.8z M140.4,490.3V366l108.3-62.2v124.3L140.4,490.3z M386.2,490.3
	V366l107.3-62.2v124.3L386.2,490.3z"/>
</g>
</svg>
