<?xml version="1.0" encoding="utf-8"?>
<!-- Generator: Adobe Illustrator 24.0.1, SVG Export Plug-In . SVG Version: 6.00 Build 0)  -->
<svg version="1.1" id="Livello_1" xmlns="http://www.w3.org/2000/svg" xmlns:xlink="http://www.w3.org/1999/xlink" x="0px" y="0px"
	 viewBox="0 0 1024 1024" style="enable-background:new 0 0 1024 1024;" xml:space="preserve">
<path d="M492,579.1c0,12.4,0,24.9,0,37.3c0,29.9,0,59.7,0,89.6c0,36.2,0,72.3,0,108.5c0,31.3,0,62.6,0,93.9
	c0,15.2-0.7,30.6,0,45.9c0,0.2,0,0.4,0,0.6c10-5.8,20.1-11.5,30.1-17.3c-11.8-6.2-23.6-12.5-35.4-18.7c-28.3-15-56.6-29.9-85-44.9
	c-34.3-18.1-68.6-36.2-102.8-54.3c-29.7-15.7-59.3-31.3-89-47c-14.4-7.6-28.7-16-43.5-23c-0.2-0.1-0.4-0.2-0.6-0.3
	c3.3,5.8,6.6,11.5,9.9,17.3c0-21,0-41.9,0-62.9c0-33.2,0-66.5,0-99.7c0-7.7,0-15.4,0-23.1c-10,5.8-20.1,11.5-30.1,17.3
	c28.3,14.9,56.6,29.9,84.9,44.8c44.7,23.6,89.5,47.2,134.2,70.8c10.3,5.4,20.5,10.8,30.8,16.3c7.1,3.8,18.7,3.9,24.2-3.1
	c11.9-15,23.9-30,35.8-45c19.1-24.1,38.3-48.2,57.4-72.3c4.4-5.5,8.8-11,13.2-16.6c6.5-8.2,8.6-20.4,0-28.3
	c-7.2-6.6-21.3-8.7-28.3,0c-11.9,15-23.9,30-35.8,45c-19.1,24.1-38.3,48.2-57.4,72.3c-4.4,5.5-8.8,11-13.2,16.6
	c8.1-1,16.2-2.1,24.2-3.1c-28.3-14.9-56.6-29.9-84.9-44.8c-44.7-23.6-89.5-47.2-134.2-70.8c-10.3-5.4-20.5-10.8-30.8-16.3
	c-13.2-7-30.1,1.6-30.1,17.3c0,21,0,41.9,0,62.9c0,33.2,0,66.5,0,99.7c0,7.7,0,15.4,0,23.1c0,6.8,3.8,14,9.9,17.3
	c11.8,6.2,23.6,12.5,35.4,18.7c28.3,15,56.6,29.9,85,44.9c34.3,18.1,68.6,36.2,102.8,54.3c29.7,15.7,59.3,31.3,89,47
	c14.5,7.6,28.9,15.6,43.5,23c0.2,0.1,0.4,0.2,0.6,0.3c13.2,7,30.1-1.6,30.1-17.3c0-12.4,0-24.9,0-37.3c0-29.9,0-59.7,0-89.6
	c0-36.2,0-72.3,0-108.5c0-31.3,0-62.6,0-93.9c0-15.3,0.4-30.6,0-45.9c0-0.2,0-0.4,0-0.6c0-10.5-9.2-20.5-20-20
	C501.2,559.6,492,567.9,492,579.1z"/>
<path d="M848.3,581.1c0,21,0,41.9,0,62.9c0,33.2,0,66.5,0,99.7c0,7.7,0,15.4,0,23.1c3.3-5.8,6.6-11.5,9.9-17.3
	c-11.8,6.2-23.6,12.5-35.4,18.7c-28.3,15-56.6,29.9-85,44.9c-34.3,18.1-68.6,36.2-102.8,54.3c-29.7,15.7-59.3,31.3-89,47
	c-14.4,7.6-29.4,14.7-43.5,23c-0.2,0.1-0.4,0.2-0.6,0.3c10,5.8,20.1,11.5,30.1,17.3c0-12.4,0-24.9,0-37.3c0-29.9,0-59.7,0-89.6
	c0-36.2,0-72.3,0-108.5c0-31.3,0-62.6,0-93.9c0-15.2,0.7-30.6,0-45.9c0-0.2,0-0.4,0-0.6c-11.4,4.7-22.8,9.4-34.1,14.1
	c11.9,15,23.9,30,35.8,45c19.1,24.1,38.3,48.2,57.4,72.3c4.4,5.5,8.8,11,13.2,16.6c5.6,7.1,17,6.9,24.2,3.1
	c28.3-14.9,56.6-29.9,84.9-44.8c44.7-23.6,89.5-47.2,134.2-70.8c10.3-5.4,20.5-10.8,30.8-16.3c9.3-4.9,12.9-18.6,7.2-27.4
	c-6.1-9.4-17.5-12.4-27.4-7.2c-28.3,14.9-56.6,29.9-84.9,44.8c-44.7,23.6-89.5,47.2-134.2,70.8c-10.3,5.4-20.5,10.8-30.8,16.3
	c8.1,1,16.2,2.1,24.2,3.1c-11.9-15-23.9-30-35.8-45c-19.1-24.1-38.3-48.2-57.4-72.3c-4.4-5.5-8.8-11-13.2-16.6
	c-4.9-6.2-15.3-6.9-21.8-4.1c-7.3,3.1-12.3,10.3-12.3,18.3c0,12.4,0,24.9,0,37.3c0,29.9,0,59.7,0,89.6c0,36.2,0,72.3,0,108.5
	c0,31.3,0,62.6,0,93.9c0,15.3-0.4,30.6,0,45.9c0,0.2,0,0.4,0,0.6c0,15.7,16.9,24.3,30.1,17.3c11.8-6.2,23.6-12.5,35.4-18.7
	c28.3-15,56.6-29.9,85-44.9c34.3-18.1,68.6-36.2,102.8-54.3c29.7-15.7,59.3-31.3,89-47c14.5-7.6,29.3-14.8,43.5-23
	c0.2-0.1,0.4-0.2,0.6-0.3c6.2-3.2,9.9-10.5,9.9-17.3c0-21,0-41.9,0-62.9c0-33.2,0-66.5,0-99.7c0-7.7,0-15.4,0-23.1
	c0-10.5-9.2-20.5-20-20C857.4,561.6,848.3,569.9,848.3,581.1z"/>
<path d="M858.2,373.7c-11.8,6.2-23.6,12.5-35.4,18.7c-28.3,15-56.6,29.9-85,44.9c-34.3,18.1-68.6,36.2-102.8,54.3
	c-29.7,15.7-59.3,31.3-89,47c-14.5,7.6-29.3,14.8-43.5,23c-0.2,0.1-0.4,0.2-0.6,0.3c6.7,0,13.5,0,20.2,0
	c-11.8-6.2-23.6-12.5-35.4-18.7c-28.3-15-56.6-29.9-85-44.9c-34.3-18.1-68.6-36.2-102.8-54.3c-29.7-15.7-59.3-31.3-89-47
	c-14.4-7.6-28.7-16-43.5-23c-0.2-0.1-0.4-0.2-0.6-0.3c0,11.5,0,23,0,34.5c11.8-6.2,23.6-12.4,35.4-18.7c28.3-14.9,56.6-29.9,85-44.8
	c34.3-18.1,68.6-36.2,102.8-54.2c29.7-15.6,59.3-31.3,89-46.9c14.5-7.6,29.3-14.7,43.5-22.9c0.2-0.1,0.4-0.2,0.6-0.3
	c-6.7,0-13.5,0-20.2,0c11.8,6.2,23.6,12.4,35.4,18.7c28.3,14.9,56.6,29.9,85,44.8c34.3,18.1,68.6,36.2,102.8,54.2
	c29.7,15.6,59.3,31.3,89,46.9c14.5,7.6,28.9,15.5,43.5,22.9c0.2,0.1,0.4,0.2,0.6,0.3c9.2,4.9,22.2,2.7,27.4-7.2
	c4.9-9.2,2.7-22.2-7.2-27.4c-11.9-6.3-23.8-12.5-35.7-18.8c-28.5-15-57-30.1-85.5-45.1c-34.4-18.2-68.9-36.3-103.3-54.5
	c-29.6-15.6-59.3-31.3-88.9-46.9c-14.1-7.4-28.1-15.3-42.4-22.4c-7.2-3.5-14-3.5-21.1,0c-1.6,0.8-3.1,1.6-4.7,2.5
	c-7.3,3.8-14.5,7.7-21.8,11.5c-26.8,14.2-53.7,28.3-80.5,42.5c-34.2,18.1-68.5,36.1-102.7,54.2c-31,16.3-61.9,32.6-92.9,49
	c-16.9,8.9-33.9,17.9-50.8,26.8c-0.8,0.4-1.6,0.8-2.4,1.3c-13,6.9-13,27.7,0,34.5c11.9,6.3,23.8,12.6,35.7,18.8
	c28.5,15.1,57,30.1,85.5,45.2c34.4,18.2,68.9,36.4,103.3,54.6c29.6,15.7,59.3,31.3,88.9,47c14.1,7.5,28.1,15.4,42.4,22.4
	c7.2,3.5,14,3.5,21.1,0c1.6-0.8,3.1-1.6,4.7-2.5c7.3-3.8,14.5-7.7,21.8-11.5c26.8-14.2,53.7-28.4,80.5-42.5
	c34.2-18.1,68.5-36.2,102.7-54.3c31-16.3,61.9-32.7,92.9-49c16.9-8.9,33.9-17.9,50.8-26.8c0.8-0.4,1.6-0.8,2.4-1.3
	c9.3-4.9,12.9-18.6,7.2-27.4C879.5,371.4,868.1,368.5,858.2,373.7z"/>
<path d="M497.9,565c-11.9,15-23.9,30-35.8,45c-19.1,24.1-38.3,48.2-57.4,72.3c-4.4,5.5-8.8,11-13.2,16.6
	c8.1-1,16.2-2.1,24.2-3.1c-15.8-8.3-31.5-16.6-47.3-25c-32.9-17.4-65.9-34.8-98.8-52.2c-28.5-15.1-57.1-30.1-85.6-45.2
	c-12.2-6.5-24.4-12.9-36.7-19.4c-28.7-15.1-57.3-30.3-86-45.4c-0.6-0.3-1.3-0.7-1.9-1c1.3,10.5,2.7,20.9,4,31.4
	c11.9-15,23.9-30,35.8-45.1c19.1-24.1,38.3-48.2,57.4-72.3c4.4-5.5,8.8-11.1,13.2-16.6c-8.1,1-16.2,2.1-24.2,3.1
	c11.8,6.2,23.6,12.5,35.4,18.7c28.3,15,56.6,29.9,85,44.9c34.3,18.1,68.6,36.2,102.8,54.3c29.7,15.7,59.3,31.3,89,47
	c14.5,7.7,28.9,15.6,43.5,23c0.2,0.1,0.4,0.2,0.6,0.3c9.2,4.9,22.2,2.7,27.4-7.2c4.9-9.2,2.7-22.1-7.2-27.4
	c-11.8-6.2-23.6-12.5-35.4-18.7c-28.3-15-56.6-29.9-85-44.9c-34.3-18.1-68.6-36.2-102.8-54.3c-29.7-15.7-59.3-31.3-89-47
	c-14.5-7.6-28.8-15.7-43.5-23c-0.2-0.1-0.4-0.2-0.6-0.3c-7.1-3.8-18.7-3.9-24.2,3.1c-11.9,15-23.9,30-35.8,45.1
	c-19.1,24.1-38.3,48.2-57.4,72.3c-4.4,5.5-8.8,11.1-13.2,16.6c-4.1,5.2-6.4,10-5.5,16.8c0.8,5.9,4.1,11.7,9.5,14.6
	c25.6,13.5,51.1,27,76.7,40.5c13.7,7.3,27.5,14.5,41.2,21.8c26.4,14,52.9,27.9,79.3,41.9c33.6,17.7,67.1,35.4,100.7,53.2
	c19.1,10.1,38.1,20.6,57.5,30.3c0.3,0.1,0.6,0.3,0.9,0.5c7.1,3.8,18.7,3.9,24.2-3.1c11.9-15,23.9-30,35.8-45
	c19.1-24.1,38.3-48.2,57.4-72.3c4.4-5.5,8.8-11,13.2-16.6c6.5-8.2,8.6-20.4,0-28.3C518.9,558.4,504.8,556.3,497.9,565z"/>
<path d="M964.6,507.7c-25.6,13.5-51.1,27-76.7,40.5c-13.7,7.3-27.5,14.5-41.2,21.8c-26.4,14-52.9,27.9-79.3,41.9
	c-33.6,17.7-67.1,35.4-100.7,53.2c-19.1,10.1-38.7,19.6-57.5,30.3c-0.3,0.2-0.6,0.3-0.9,0.5c8.1,1,16.2,2.1,24.2,3.1
	c-11.9-15-23.9-30-35.8-45c-19.1-24.1-38.3-48.2-57.4-72.3c-4.4-5.5-8.8-11-13.2-16.6c-1.3,10.5-2.7,20.9-4,31.4
	c11.8-6.2,23.6-12.5,35.4-18.7c28.3-15,56.6-29.9,85-44.9c34.3-18.1,68.6-36.2,102.8-54.3c29.7-15.7,59.3-31.3,89-47
	c14.4-7.6,29.3-14.8,43.5-23c0.2-0.1,0.4-0.2,0.6-0.3c-8.1-1-16.2-2.1-24.2-3.1c11.9,15,23.9,30,35.8,45.1
	c19.1,24.1,38.3,48.2,57.4,72.3c4.4,5.5,8.8,11.1,13.2,16.6c6.5,8.2,21.5,7.3,28.3,0c8-8.7,7-19.5,0-28.3
	c-11.9-15-23.9-30-35.8-45.1c-19.1-24.1-38.3-48.2-57.4-72.3c-4.4-5.5-8.8-11.1-13.2-16.6c-5.6-7.1-17-6.9-24.2-3.1
	c-11.8,6.2-23.6,12.5-35.4,18.7c-28.3,15-56.6,29.9-85,44.9c-34.3,18.1-68.6,36.2-102.8,54.3c-29.7,15.7-59.3,31.3-89,47
	c-14.5,7.6-29.3,14.8-43.5,23c-0.2,0.1-0.4,0.2-0.6,0.3c-5.5,2.9-8.8,8.7-9.5,14.6c-0.9,6.8,1.4,11.6,5.5,16.8
	c11.9,15,23.9,30,35.8,45c19.1,24.1,38.3,48.2,57.4,72.3c4.4,5.5,8.8,11,13.2,16.6c5.6,7.1,17,6.9,24.2,3.1
	c15.8-8.3,31.5-16.6,47.3-25c32.9-17.4,65.9-34.8,98.8-52.2c28.5-15.1,57.1-30.1,85.6-45.2c12.2-6.5,24.4-12.9,36.7-19.4
	c28.7-15.1,57.3-30.3,86-45.4c0.6-0.3,1.3-0.7,1.9-1c9.3-4.9,12.9-18.6,7.2-27.4C985.9,505.4,974.5,502.4,964.6,507.7z"/>
<path d="M878.4,373.7c-11.8-6.2-23.6-12.4-35.4-18.7c-28.3-14.9-56.6-29.9-85-44.8c-34.3-18.1-68.6-36.2-102.8-54.2
	c-29.7-15.6-59.3-31.3-89-46.9c-14.4-7.6-28.7-16-43.5-22.9c-0.2-0.1-0.4-0.2-0.6-0.3c1.3,10.5,2.7,20.9,4,31.4
	c11.9-15,23.9-30,35.8-45c19.1-24.1,38.3-48.2,57.4-72.3c4.4-5.5,8.8-11,13.2-16.6c-8.1,1-16.2,2.1-24.2,3.1
	c11.8,6.2,23.6,12.5,35.4,18.7c28.3,15,56.6,29.9,85,44.9c34.3,18.1,68.6,36.2,102.8,54.4c29.7,15.7,59.3,31.4,89,47
	c14.4,7.6,28.7,16,43.5,23c0.2,0.1,0.4,0.2,0.6,0.3c-1.3-10.5-2.7-20.9-4-31.4c-11.9,15-23.9,29.9-35.8,44.9
	c-19.1,24-38.3,48.1-57.4,72.1c-4.4,5.5-8.8,11-13.2,16.5c-6.5,8.2-8.6,20.4,0,28.3c7.2,6.6,21.3,8.7,28.3,0
	c11.9-15,23.9-29.9,35.8-44.9c19.1-24,38.3-48.1,57.4-72.1c4.4-5.5,8.8-11,13.2-16.5c4.1-5.2,6.4-10.1,5.5-16.8
	c-0.8-5.9-4.1-11.7-9.5-14.6c-11.8-6.2-23.6-12.5-35.4-18.7c-28.3-15-56.6-29.9-85-44.9c-34.3-18.1-68.6-36.2-102.8-54.4
	c-29.7-15.7-59.3-31.4-89-47c-14.5-7.7-28.8-15.7-43.5-23c-0.2-0.1-0.4-0.2-0.6-0.3c-7.1-3.8-18.7-3.9-24.2,3.1
	c-11.9,15-23.9,30-35.8,45c-19.1,24.1-38.3,48.2-57.4,72.3c-4.4,5.5-8.8,11-13.2,16.6c-4.1,5.2-6.4,10-5.5,16.8
	c0.8,5.9,4.1,11.7,9.5,14.6c11.8,6.2,23.6,12.4,35.4,18.7c28.3,14.9,56.6,29.9,85,44.8c34.3,18.1,68.6,36.2,102.8,54.2
	c29.7,15.6,59.3,31.3,89,46.9c14.5,7.6,28.9,15.5,43.5,22.9c0.2,0.1,0.4,0.2,0.6,0.3c9.2,4.9,22.2,2.7,27.4-7.2
	C890.4,391.8,888.3,378.9,878.4,373.7z"/>
<path d="M501.9,185.8c-11.8,6.2-23.6,12.4-35.4,18.7c-28.3,14.9-56.6,29.9-85,44.8c-34.3,18.1-68.6,36.2-102.8,54.2
	c-29.7,15.6-59.3,31.3-89,46.9c-14.4,7.6-29.3,14.7-43.5,22.9c-0.2,0.1-0.4,0.2-0.6,0.3c8.1,1,16.2,2.1,24.2,3.1
	c-11.9-15-23.9-29.9-35.8-44.9c-19.1-24-38.3-48.1-57.4-72.1c-4.4-5.5-8.8-11-13.2-16.5c-1.3,10.5-2.7,20.9-4,31.4
	c11.8-6.2,23.6-12.5,35.4-18.7c28.3-15,56.6-29.9,85-44.9c34.3-18.1,68.6-36.2,102.8-54.4c29.7-15.7,59.3-31.4,89-47
	c14.4-7.6,29.3-14.8,43.5-23c0.2-0.1,0.4-0.2,0.6-0.3c-8.1-1-16.2-2.1-24.2-3.1c11.9,15,23.9,30,35.8,45
	c19.1,24.1,38.3,48.2,57.4,72.3c4.4,5.5,8.8,11,13.2,16.6c6.5,8.2,21.5,7.3,28.3,0c8-8.7,7-19.5,0-28.3c-11.9-15-23.9-30-35.8-45
	c-19.1-24.1-38.3-48.2-57.4-72.3c-4.4-5.5-8.8-11-13.2-16.6c-5.6-7.1-17-6.9-24.2-3.1C383.8,58,372,64.3,360.2,70.5
	c-28.3,15-56.6,29.9-85,44.9c-34.3,18.1-68.6,36.2-102.8,54.4c-29.7,15.7-59.3,31.4-89,47c-14.5,7.6-29.3,14.8-43.5,23
	c-0.2,0.1-0.4,0.2-0.6,0.3c-5.5,2.9-8.7,8.7-9.5,14.6c-0.9,6.7,1.4,11.6,5.5,16.8c11.9,15,23.9,29.9,35.8,44.9
	c19.1,24,38.3,48.1,57.4,72.1c4.4,5.5,8.8,11,13.2,16.5c5.6,7.1,17,6.9,24.2,3.1c11.8-6.2,23.6-12.4,35.4-18.7
	c28.3-14.9,56.6-29.9,85-44.8c34.3-18.1,68.6-36.2,102.8-54.2c29.7-15.6,59.3-31.3,89-46.9c14.5-7.6,29.3-14.8,43.5-22.9
	c0.2-0.1,0.4-0.2,0.6-0.3c9.3-4.9,12.9-18.6,7.2-27.4C523.2,183.5,511.8,180.5,501.9,185.8z"/>
</svg>
