<svg width="22" height="22" viewBox="0 0 22 22" fill="none" xmlns="http://www.w3.org/2000/svg">
<path d="M19.8688 13.4428L18.4615 12.2396C18.5281 11.8314 18.5625 11.4146 18.5625 10.9978C18.5625 10.581 18.5281 10.1642 18.4615 9.75604L19.8688 8.55292C19.9749 8.46205 20.0509 8.34103 20.0866 8.20594C20.1223 8.07085 20.116 7.9281 20.0686 7.79667L20.0492 7.74081C19.6618 6.65805 19.0817 5.65432 18.3369 4.77811L18.2983 4.733C18.2079 4.62676 18.0875 4.55039 17.9529 4.51396C17.8183 4.47752 17.6758 4.48273 17.5442 4.52889L15.7975 5.14979C15.153 4.62128 14.4332 4.20448 13.6555 3.91229L13.3182 2.08612C13.2927 1.94871 13.2261 1.8223 13.1271 1.72367C13.0281 1.62505 12.9014 1.55889 12.7639 1.53397L12.7059 1.52323C11.5865 1.32128 10.4092 1.32128 9.28987 1.52323L9.23186 1.53397C9.09436 1.55889 8.96768 1.62505 8.86868 1.72367C8.76967 1.8223 8.70301 1.94871 8.67757 2.08612L8.33811 3.92089C7.56658 4.21314 6.8481 4.62971 6.21116 5.15409L4.45159 4.52889C4.32003 4.48236 4.17743 4.47697 4.04273 4.51343C3.90803 4.54988 3.78762 4.62646 3.69749 4.733L3.65882 4.77811C2.91491 5.65494 2.3349 6.65851 1.94651 7.74081L1.92718 7.79667C1.8305 8.06522 1.90999 8.366 2.12698 8.55292L3.5514 9.76893C3.48479 10.1728 3.45257 10.5853 3.45257 10.9957C3.45257 11.4082 3.48479 11.8207 3.5514 12.2225L2.12698 13.4385C2.02084 13.5293 1.94487 13.6504 1.90918 13.7854C1.87349 13.9205 1.87977 14.0633 1.92718 14.1947L1.94651 14.2506C2.33538 15.3334 2.91116 16.3324 3.65882 17.2133L3.69749 17.2584C3.78784 17.3646 3.90826 17.441 4.04288 17.4774C4.17749 17.5139 4.31999 17.5087 4.45159 17.4625L6.21116 16.8373C6.85139 17.3637 7.56682 17.7805 8.33811 18.0705L8.67757 19.9053C8.70301 20.0427 8.76967 20.1691 8.86868 20.2677C8.96768 20.3663 9.09436 20.4325 9.23186 20.4574L9.28987 20.4682C10.4195 20.6712 11.5763 20.6712 12.7059 20.4682L12.7639 20.4574C12.9014 20.4325 13.0281 20.3663 13.1271 20.2677C13.2261 20.1691 13.2927 20.0427 13.3182 19.9053L13.6555 18.0791C14.4329 17.7877 15.1567 17.3695 15.7975 16.8416L17.5442 17.4625C17.6757 17.509 17.8183 17.5144 17.953 17.478C18.0877 17.4415 18.2081 17.3649 18.2983 17.2584L18.3369 17.2133C19.0846 16.3303 19.6604 15.3334 20.0492 14.2506L20.0686 14.1947C20.1653 13.9305 20.0858 13.6297 19.8688 13.4428V13.4428ZM16.9362 10.0096C16.9899 10.334 17.0178 10.667 17.0178 11C17.0178 11.333 16.9899 11.666 16.9362 11.9904L16.7944 12.8519L18.3992 14.2248C18.1559 14.7853 17.8488 15.3159 17.484 15.806L15.4903 15.0992L14.8156 15.6535C14.3022 16.0746 13.7307 16.4055 13.1119 16.6375L12.2934 16.9447L11.9088 19.0287C11.302 19.0975 10.6894 19.0975 10.0826 19.0287L9.69807 16.9404L8.88596 16.6289C8.27366 16.3969 7.70432 16.066 7.19514 15.6471L6.52054 15.0906L4.5139 15.8039C4.14866 15.3119 3.84358 14.7812 3.59866 14.2226L5.22073 12.8369L5.08108 11.9775C5.02952 11.6574 5.00159 11.3266 5.00159 11C5.00159 10.6713 5.02737 10.3426 5.08108 10.0225L5.22073 9.16307L3.59866 7.77733C3.84143 7.21659 4.14866 6.68807 4.5139 6.19608L6.52054 6.90936L7.19514 6.35292C7.70432 5.93397 8.27366 5.60311 8.88596 5.37108L9.70022 5.06386L10.0848 2.97557C10.6885 2.90682 11.3051 2.90682 11.911 2.97557L12.2955 5.05956L13.1141 5.36679C13.7307 5.59882 14.3043 5.92968 14.8178 6.35077L15.4924 6.90507L17.4862 6.19823C17.8514 6.69022 18.1565 7.22089 18.4014 7.77948L16.7965 9.15233L16.9362 10.0096ZM11 7.00389C8.91174 7.00389 7.21878 8.69686 7.21878 10.7851C7.21878 12.8734 8.91174 14.5664 11 14.5664C13.0883 14.5664 14.7813 12.8734 14.7813 10.7851C14.7813 8.69686 13.0883 7.00389 11 7.00389ZM12.7016 12.4867C12.4784 12.7105 12.2132 12.888 11.9212 13.0089C11.6291 13.1299 11.3161 13.1919 11 13.1914C10.3576 13.1914 9.75393 12.94 9.29846 12.4867C9.07465 12.2635 8.89716 11.9983 8.77623 11.7063C8.65529 11.4143 8.59328 11.1012 8.59378 10.7851C8.59378 10.1428 8.84514 9.53905 9.29846 9.08358C9.75393 8.62811 10.3576 8.3789 11 8.3789C11.6424 8.3789 12.2461 8.62811 12.7016 9.08358C12.9254 9.30676 13.1029 9.57199 13.2238 9.864C13.3448 10.156 13.4068 10.4691 13.4063 10.7851C13.4063 11.4275 13.1549 12.0312 12.7016 12.4867Z" />
</svg>
