<?xml version="1.0" encoding="utf-8"?>
<!-- Generator: Adobe Illustrator 24.0.1, SVG Export Plug-In . SVG Version: 6.00 Build 0)  -->
<svg version="1.1" id="Capa_1" xmlns="http://www.w3.org/2000/svg" xmlns:xlink="http://www.w3.org/1999/xlink" x="0px" y="0px"
	 viewBox="0 0 512 512" style="enable-background:new 0 0 512 512;" xml:space="preserve">
<g>
	<path d="M150,105c0-24.8-20.2-45-45-45s-45,20.2-45,45s20.2,45,45,45S150,129.8,150,105z M90,105c0-8.3,6.7-15,15-15s15,6.7,15,15
		s-6.7,15-15,15S90,113.3,90,105z"/>
	<path d="M476.8,284.7c-19.3-9.5-44.4-14.7-70.8-14.7c-35.4,0-65.6,9-84.4,23.4l-111.8-27.7c-2.5-22-24-40.3-56.9-49.5L189,168
		c13.7-18.3,21-40,21-63C210,47.1,162.9,0,105,0S0,47.1,0,105c0,22.9,7.2,44.7,21,63l36.2,48.3C22.2,226,0,246.1,0,270
		c0,34.2,45.1,60,105,60c44.4,0,80.7-14.2,96.5-35.4l101,25.1c-0.9,3.4-1.4,6.8-1.4,10.4c0,12.6,6.1,24,16.7,33.4l-64,37.2
		c-17.2-6.3-37.6-9.6-58.8-9.6c-59.9,0-105,25.8-105,60c0,42.6,61.5,61,105,61c59.4,0,106-26.8,106-61c0-12.3-5.9-23.8-16.9-33.3
		l63.7-37.1c16.4,6,36.3,9.4,58.1,9.4c43.9,0,106-17.6,106-60C512,312,499.5,295.9,476.8,284.7z M252.4,469.9
		c-15.1,7.7-36,12.1-57.4,12.1c-45.1,0-75-18.7-75-31c0-12.2,29.2-30,75-30c45.7,0,76,18.1,76,30C271,456.8,263.7,464.2,252.4,469.9
		z M30,105c0-41.4,33.6-75,75-75s75,33.6,75,75c0,16.4-5.2,31.9-15,45L105,230l-60-80.1C35.2,136.9,30,121.4,30,105z M105,300
		c-45.8,0-75-17.8-75-30c0-8.5,16.2-22,46.9-27.5L93,264c2.8,3.8,7.3,6,12,6s9.2-2.2,12-6l16.1-21.5c30.6,5.6,46.9,19,46.9,27.5
		C180,282.2,150.8,300,105,300z M406,360c-22.1,0-75-9.4-75-30c0-12.5,30-30,75-30c45.7,0,76,18.1,76,30S451.7,360,406,360z"/>
</g>
</svg>
