<?xml version="1.0" encoding="utf-8"?>
<!-- Generator: Adobe Illustrator 24.0.1, SVG Export Plug-In . SVG Version: 6.00 Build 0)  -->
<svg version="1.1" id="Livello_1" xmlns="http://www.w3.org/2000/svg" xmlns:xlink="http://www.w3.org/1999/xlink" x="0px" y="0px"
	 viewBox="0 0 1000 1000" style="enable-background:new 0 0 1000 1000;" xml:space="preserve">
<g>
	<path d="M675.6,722.8c-20.2,0-40.6,0-61,0c-47,0-93.9,0-141.1,0.3c-4.5,0-9.8,2.7-13.3,5.8
		c-7.4,6.4-15.1,10.1-24.9,10.1c-46.4-0.3-92.6,0-139-0.3c-5,0-8,0.8-10.6,6.1c-17.8,38.2-48,58.4-90.5,57.3
		c-40.1-1.1-68.2-22-84.9-58.4c-0.8-1.6-1.6-2.9-2.7-5c-22.3,0-44.6,0-67.1,0c-19.9,0-32.9-13-33.2-32.9c0-3.2,0-6.6,0-9.8
		c0-22.6,9-33.4,31.8-37.4c0-32.4,1.1-64.7-0.3-97.1c-1.3-27.6,9.8-45.6,34-58.1c24.9-13,49.1-27.3,73.2-41.9
		c4.8-2.9,9.3-7.4,11.9-12.5c16.7-32.6,33.2-65.5,49.3-98.4c18.8-37.9,49.1-57.3,92.1-57c40.1,0.3,80.1,0,121.2,0
		c0-14.6,0-28.7,0-43c0-10.9,0-21.8,0-32.9c0-14.6,5.3-19.9,19.6-19.9c58.9,0,117.8,0,176.7,0c118.1,0,236.4,0,354.4,0
		c16.7,0,21.2,4.5,21.2,21c0,113,0,225.8,0,338.8c0,14.9-2.1,17.8-15.9,22.8c0,30.5,0,61.3,0,92.1c0,29.7-19.9,49.6-49.6,49.9
		c-20.7,0-41.7,0-62.1,0c-14.6,51.5-48.8,79.6-95.2,79.6C724.2,802.4,690,773.8,675.6,722.8z M960.3,547.7c0-106.1,0-211.4,0-316.5
		c-169.5,0-338.5,0-507.2,0c0,105.9,0,210.9,0,316.5C622.3,547.7,791,547.7,960.3,547.7z M420.1,659.4c0-112,0-222.6,0-333.7
		c-40.3,0-80.1,0.3-119.6,0c-29.4-0.3-50.7,12.2-63.7,38.7C219.6,399.7,202.1,435,184,470c-3.2,6.4-9,12.5-15.1,15.9
		c-28.4,17-57.3,32.9-86,49.3c-4.2,2.4-7.7,6.9-11.4,10.3c0.5,0.8,1.1,1.6,1.9,2.4c3.7,0,7.2,0,10.9,0c22.3,0,34.8,12.5,34.8,35
		c0,9.6,0,19.1,0,28.9c-0.3,18-13.5,31.3-31.3,31.6c-5.3,0-10.3,0-15.7,0c0,5.8,0,10.6,0,15.9c13.5,0,26.5,0.3,39.3-0.3
		c2.7,0,5.8-2.7,7.4-4.8c41.9-57.6,117.3-57.6,159.2,0c1.6,2.4,5,4.8,7.4,4.8C330.2,659.4,374.8,659.4,420.1,659.4z M945.2,580.6
		c-164.7,0-328.4,0-492.7,0c0,26.5,0,52.3,0,78c0,2.4,1.6,4.8,2.9,6.9c5,8,10.6,15.9,16.7,25.2c66.1,0,134.8,0,203.5,0
		c13-47.8,47.8-78.3,89.1-79.1c50.7-0.8,84.6,25.7,100.3,79.3c21.5,0,43.2,0.5,65-0.3c9-0.3,14.6-7.2,14.6-17
		C945.4,643,945.2,612.2,945.2,580.6z M770.1,770.6c34.8,0.3,63.9-28.7,63.9-63.7c0-34.2-28.7-63.1-63.1-63.4
		c-34.5-0.3-63.9,29.2-63.9,63.7C706.9,741.4,735.6,770.3,770.1,770.6z M135,706.4c-0.8,33.7,28.1,63.7,62.6,64.2
		c34,0.5,63.4-28.1,64.5-62.3c0.8-34-27.9-63.9-62.1-64.7C165.2,642.7,135.7,671.4,135,706.4z M293.9,706.4c48.3,0,95.2,0,142.5,0
		c0-5.3,0-9.8,0-14.3c-47.8,0-95.2,0-142.5,0C293.9,697.1,293.9,701.3,293.9,706.4z M40.2,691.5c0,5.3,0,10.1,0,14.6
		c21.2,0,41.7,0,62.6,0c0.3-5.3,0.5-9.8,0.8-14.6C82.2,691.5,61.5,691.5,40.2,691.5z M71.5,611.1c5.6,0,10.1,0,15.1,0
		c0-10.3,0-20.4,0-30.5c-5.3,0-9.8,0-15.1,0C71.5,591,71.5,600.8,71.5,611.1z"/>
	<path d="M308.7,484.6c-25.2,0-50.4,0-75.3,0c-16.2,0-23.1-10.1-17-24.9c12.2-29.2,24.9-58.4,37.4-87.3
		c9-21,25.2-31.3,48.3-31c27.9,0.3,55.7,0,83.3,0.3c13.8,0,19.1,5.3,19.4,19.1c0,35,0,70,0,105.3c0,13-5.6,18.6-18.6,18.6
		C360.5,484.6,334.7,484.6,308.7,484.6z M254.9,452c40.3,0,79.1,0,117.8,0c0-26.5,0-52.3,0-78.5c-25.2,0-49.9-0.5-74.5,0.5
		c-4.8,0.3-11.1,5.8-13.8,10.6c-5.3,9-8.5,19.4-12.7,28.9C266,426.2,260.7,438.7,254.9,452z"/>
	<path d="M341.9,531.6c0-10.3,0-20.2,0-30.5c15.7,0,31,0,46.7,0c0,10.1,0,19.9,0,30.5
		C373.2,531.6,358.1,531.6,341.9,531.6z"/>
	<path d="M770.6,659.4c26.5,0,47.5,21.2,47.5,47.8c0,26.5-21.2,47.8-47.8,47.5c-26.5,0-47.5-21.2-47.5-48
		C722.8,680.4,743.8,659.4,770.6,659.4z M770.3,691.3c-8.2,0-15.9,8-15.7,16.2c0.3,8,7.4,15.1,15.4,15.7c8.2,0.3,16.2-7.4,16.2-15.7
		C786.3,699.2,778.6,691.3,770.3,691.3z"/>
	<path d="M198.9,659.4c26,0,47,21,47.2,47.2c0,27.3-21,48.3-48.3,48c-26.5-0.3-47.2-21.5-47-48.3
		C150.9,679.9,171.8,659.4,198.9,659.4z M214,706.6c-0.3-8.2-8.5-15.7-16.4-15.4c-8,0.5-15.1,8-15.1,15.9c0,8.2,8,15.9,15.9,15.9
		C206.8,722.6,214.5,714.6,214,706.6z"/>
</g>
</svg>
