<?xml version="1.0" encoding="utf-8"?>
<!-- Generator: Adobe Illustrator 24.0.1, SVG Export Plug-In . SVG Version: 6.00 Build 0)  -->
<svg version="1.1" id="Livello_1" xmlns="http://www.w3.org/2000/svg" xmlns:xlink="http://www.w3.org/1999/xlink" x="0px" y="0px"
	 viewBox="0 0 512 512" style="enable-background:new 0 0 512 512;" xml:space="preserve">
<g id="Page-1">
	<g id="_x30_05---Truck">
		<circle id="Oval" cx="82.3" cy="402.3" r="9.1"/>
		<path id="Shape" d="M18.3,393.1H19c2-13.9,8.5-26.8,18.6-36.6H18.3C8.2,356.6,0,364.8,0,374.9S8.2,393.1,18.3,393.1z"/>
		<path id="Shape_1_" d="M402.3,274.3h108.3c-0.5-2.2-1.2-4.4-2-6.5l-55.2-134.1c-1.4-3.4-4.8-5.7-8.5-5.7h-51.7v137.1
			C393.1,270.2,397.2,274.3,402.3,274.3z"/>
		<path id="Shape_2_" d="M310.9,64H9.1c-5,0-9.1,4.1-9.1,9.1v256c0,5,4.1,9.1,9.1,9.1H320V73.1C320,68.1,315.9,64,310.9,64z
			 M54.9,100.6H27.4c-5,0-9.1-4.1-9.1-9.1s4.1-9.1,9.1-9.1h27.4c5,0,9.1,4.1,9.1,9.1S59.9,100.6,54.9,100.6z M292.6,100.6H91.4
			c-5,0-9.1-4.1-9.1-9.1s4.1-9.1,9.1-9.1h201.1c5,0,9.1,4.1,9.1,9.1S297.6,100.6,292.6,100.6z"/>
		<path id="Shape_3_" d="M82.3,356.6c-25.2,0-45.7,20.5-45.7,45.7S57,448,82.3,448s45.7-20.5,45.7-45.7S107.5,356.6,82.3,356.6z
			 M82.3,429.7c-15.1,0-27.4-12.3-27.4-27.4c0-15.1,12.3-27.4,27.4-27.4s27.4,12.3,27.4,27.4C109.7,417.4,97.4,429.7,82.3,429.7z"/>
		<path id="Shape_4_" d="M384,356.6c-25.2,0-45.7,20.5-45.7,45.7S358.8,448,384,448s45.7-20.5,45.7-45.7S409.2,356.6,384,356.6z
			 M384,429.7c-15.1,0-27.4-12.3-27.4-27.4c0-15.1,12.3-27.4,27.4-27.4c15.1,0,27.4,12.3,27.4,27.4
			C411.4,417.4,399.1,429.7,384,429.7z"/>
		<path id="Shape_5_" d="M447.3,393.1h55.6c5,0,9.1-4.1,9.1-9.1v-18.3h-9.1c-5,0-9.1-4.1-9.1-9.1c0-5,4.1-9.1,9.1-9.1h9.1v-18.3
			h-9.1c-5,0-9.1-4.1-9.1-9.1c0-5,4.1-9.1,9.1-9.1h9.1v-18.3H402.3c-15.1,0-27.4-12.3-27.4-27.4V128h-36.6v210.3H384
			C415.8,338.3,442.7,361.7,447.3,393.1z"/>
		<path id="Shape_6_" d="M145.6,393.1h175.2c2-13.9,8.5-26.8,18.6-36.6H127C137,366.4,143.6,379.2,145.6,393.1z"/>
		<circle id="Oval_1_" cx="384" cy="402.3" r="9.1"/>
	</g>
</g>
</svg>
