<?xml version="1.0" encoding="utf-8"?>
<!-- Generator: Adobe Illustrator 24.0.1, SVG Export Plug-In . SVG Version: 6.00 Build 0)  -->
<svg version="1.1" id="Livello_1" xmlns="http://www.w3.org/2000/svg" xmlns:xlink="http://www.w3.org/1999/xlink" x="0px" y="0px"
	 viewBox="0 0 512 512" style="enable-background:new 0 0 512 512;" xml:space="preserve">
<path d="M256,0C150.1,0,64,86.7,64,193.4c0,151.5,174,308,181.4,314.6c3.1,2.7,6.8,4.1,10.6,4.1c3.8,0,7.6-1.3,10.6-4
	C274,501.4,448,344.9,448,193.4C448,86.7,361.9,0,256,0L256,0z M256,298.7c-58.8,0-106.7-47.9-106.7-106.7S197.2,85.3,256,85.3
	S362.7,133.2,362.7,192S314.8,298.7,256,298.7z"/>
</svg>
