<?xml version="1.0" encoding="utf-8"?>
<!-- Generator: Adobe Illustrator 24.0.1, SVG Export Plug-In . SVG Version: 6.00 Build 0)  -->
<svg version="1.1" id="Livello_1" xmlns="http://www.w3.org/2000/svg" xmlns:xlink="http://www.w3.org/1999/xlink" x="0px" y="0px"
	 viewBox="0 0 595.3 595.3" style="enable-background:new 0 0 595.3 595.3;" xml:space="preserve">
<style type="text/css">
	.st0{fill:#3AAA35;}
</style>
<g>
	<path d="M368.6,184c0,14.9-12.1,27.1-27.1,27.1c-14.9,0-27.1-12.1-27.1-27.1c0-14.9,12.1-27.1,27.1-27.1
		C356.5,157,368.6,169.1,368.6,184"/>
	<rect x="218.4" y="176.8" width="122.7" height="14.4"/>
	<path d="M368.6,371.8c0,14.9-12.1,27.1-27.1,27.1c-14.9,0-27.1-12.1-27.1-27.1s12.1-27.1,27.1-27.1
		C356.5,344.7,368.6,356.8,368.6,371.8"/>
	<rect x="218.4" y="364.6" width="122.7" height="14.4"/>
	<path class="st0" d="M351.8,270.7h-80.3c-3.1-11.4-13.6-19.9-26.1-19.9c-14.9,0-27.1,12.1-27.1,27.1c0,14.9,12.1,27.1,27.1,27.1
		c12.5,0,22.9-8.4,26.1-19.9h80.3V270.7z"/>
	<polygon points="203,176.8 192.4,176.8 150.2,176.8 148.4,176.8 147.2,178.1 53.1,270.8 53.1,181.2 53.1,176.8 48.8,176.8 
		12.9,176.8 8.6,176.8 8.6,181.2 8.6,374.6 8.6,379 12.9,379 48.8,379 53.1,379 53.1,374.6 53.1,327.2 84.5,295.9 146,377.2 
		147.3,379 149.5,379 192.6,379 201.4,379 196.2,372 115.9,264.2 195.5,184.3 	"/>
	<polygon points="582.2,176.8 545.8,176.8 543.4,176.8 542.1,178.9 486.2,267.3 429.2,178.8 427.9,176.8 425.5,176.8 389.4,176.8 
		381.6,176.8 385.6,183.5 464.3,312.6 464.3,374.6 464.3,379 468.6,379 504.2,379 508.6,379 508.6,374.6 508.6,311.4 586,183.5 
		590,176.8 	"/>
</g>
</svg>
