<?xml version="1.0" encoding="utf-8"?>
<!-- Generator: Adobe Illustrator 24.0.1, SVG Export Plug-In . SVG Version: 6.00 Build 0)  -->
<svg version="1.1" id="ITALIA"  x="0px" y="0px" viewBox="0 0 1200 1500" style="enable-background:new 0 0 1200 1500;" xml:space="preserve">
<style type="text/css">
	.st0{fill:#11676A;}
</style>
<g id="CENTRO_1_">
	<path id="umbria_1_" class="st0" d="M723.7,436.2C723.7,436.2,723.7,436.5,723.7,436.2c-0.6,0.3-0.9,0.6-1.1,0.6s-0.6,0.6-0.3,0.3
		c-1.1,1.1-2.3,1.4-3.4,2c-1.1,0.6-2,0.6-2.3,0.9c-1.4,0.6-3.1,1.7-5.4,2.3c-2.3,0.6-4.6,0.9-6.8,0.9c-2.8,0-4.8-0.6-6.5-0.9
		c-3.1-0.9-4.6-2.3-5.7-3.4c-0.6-0.6-0.9-0.9-1.1-0.9c-0.3,0-1.1-0.3-2.6-0.3c-1.7,0-3.1-0.6-4-0.9c-0.6,1.4-0.9,2.6-1.4,3.4
		c-0.6,1.4-1.4,2-1.7,2.3c-0.3,0.3-0.6,0.6-0.6,1.1c-0.6,2.6-2,4.3-2.3,5.1c-0.9,1.7-1.7,2.6-2,3.1c-0.3,0.3-0.3,0.3-0.3,2
		c0,4.3-3.1,6.5-4.3,7.7c-1.1,1.1-2.3,1.4-3.4,1.7l0,0l0,0c0.3,0.3,0.3,0.3,0.6,0.9c0.3,0.6,0.3,0.6,0.3,0.6s0.3,0,1.4,0
		c3.1,0,4.8,0.9,6.5,1.7c1.1,0.6,2,1.1,2.6,2.3c0.6,1.1,0.3,2.3,0.3,3.1c-0.6,1.7-1.1,2.6-1.4,3.1c-0.6,1.4-1.7,2.3-2,2.6
		c-0.3,0.3-0.3,0-0.3,0.9c-0.3,1.1-1.1,2-2,2.6s-1.7,0.9-2.3,0.9c-1.4,0.3-2.8,0.3-3.7,0.3c-2.3,0-4.3,0-6.5,0c-0.6,0-1.1,0-1.1,0
		c0.3,0-0.3,0.3-1.1,1.4c-0.9,0.9-2,2.6-2.6,3.7c-0.6,1.1-0.9,2-1.1,2.8s-1.1,2.3-2.3,3.4c-1.4,1.4-2.6,2-3.1,2.3s-0.3,0-0.9,0.9
		c-0.3,0.6-0.3,0.6-0.3,1.7c0,0.9-0.3,2.8-1.4,4.3c0.3,0,0.6,0.3,1.1,0.3c0.9,0,2,0,3.1,0.3c2.3,0.6,3.7,2.3,4.8,3.7c0,0,0,0,0.3,0
		c0.3,0.3,0.9,0.6,1.4,0.9c0.6,0.3,1.1,0.6,1.7,0.9c0.3,0,0.6,0.3,0.9,0.3c0.3,0,0.3,0,0.9,0.9c0.9,0.9,1.4,2,1.7,2.8
		c0,0.3,0,0.3,0,0.3c2.3,0.6,3.7,1.7,5.1,2.3c1.1,0.6,2.3,0.9,3.1,2s1.4,2,2.3,3.7c0.6,1.7,0,2.8-0.3,3.7l0,0c1.4,1.1,1.4,2,1.7,2.8
		s0.3,1.4,0.3,2.3c0,0.6,0,1.1,0,1.4c0.3,0,0.3,0,0.6,0.3c0.9,0.3,2.3,0.6,2.8,0.9c1.4,0.3,2.3,0.9,2.8,0.9c0.3,0,0.6,0.3,1.4,0.3
		h0.3c0.3,0,0.9-0.3,1.4-0.6c0.9-0.3,2-0.6,3.1-0.9c0-0.3,0.3-0.3,0.3-0.9c0.3-0.3,0.6-0.9,0.9-1.4c0-0.3,0.3-0.3,0.3-0.6
		s0-0.3,0.6-0.9c1.4-1.4,2.3-1.1,3.1-1.1s1.7,0,2.3,0.3c1.4,0.3,3.1,0.6,3.4,0.6c1.4,0.3,2,0.3,3.4,0.3c0.9,0,1.7,0.3,2.6,1.1
		s1.1,1.4,1.7,2.3c1.1,2.3,1.4,4,1.7,4.8c0.9,1.4,0.3,3.1,0,4c-0.6,0.9-1.1,1.7-1.7,2.3c-1.1,1.4-2.6,2.6-2.8,2.6
		c-2,2-3.1,2.3-4.3,3.7c-1.1,1.1-2.3,1.4-3.1,2c-0.3,0.3-0.9,0.3-1.1,0.6l0,0l0,0h-0.3c-1.4,0.9-2.8,1.4-3.7,1.7s-1.4,0.9-2.8,2.3
		l-0.6,0.9l-0.9,0.3c-0.9,0.3-1.4,0.3-2,0.9s-1.7,0.9-2.8,1.1c-2,0.6-4.3,1.4-5.7,2c-0.3,0,0.3-0.3-0.3,0.9
		c-0.3,0.6-0.9,1.4-1.7,2.3s-2.3,0.9-3.4,0.9c-0.9,0-2,1.1-4.6,2.3c-0.6,0.3-0.6,0.3-0.9,0.9c-0.3,0.6-0.9,1.4-1.7,2.6
		c-1.7,1.7-4,1.4-5.4,1.1s-2.6-0.9-3.1-1.1c-1.4-0.9-2.3-1.7-2.8-2.6c-0.6-0.9-1.1-1.4-1.4-1.7c-0.9-0.9-0.9-0.9-1.1-1.1
		c-0.3-0.3-1.1-0.3-2.6-0.9c-0.9-0.3-1.1,0-1.4,0c0,0,0,0-0.3,0.3c-0.9,1.4-1.7,2.3-2.3,2.8s-0.9,0.9-1.1,1.1
		c-0.6,0.9-0.9,1.4-1.4,2.3s-1.1,1.7-1.1,1.7c-0.6,1.4-1.7,2.3-2,2.6c-0.3,0.3-0.3,0.3-0.6,0.9c-0.3,1.1-1.1,2-1.7,2.6
		c-0.6,0.6-1.4,0.9-2,1.1c-1.1,0.6-2.3,1.1-2.3,0.9c-2,0.9-3.7,1.4-5.4,2c-0.3,0-2.6,1.7-4,3.1c-1.1,1.1-2.6,1.7-4,2.3
		s-2.6,0.6-3.1,0.9c-0.9,0.3-0.9,0.3-0.9,0.6c-0.3,0.3-0.3,0.9-0.3,2c0,2-1.1,3.4-1.7,4s-0.6,1.1-0.6,1.7c0,0.3,0.9,2.8,1.4,4
		c0.9,1.7,2.3,3.7,3.1,5.7c1.1,2,1.4,3.7,2,4c1.1,1.1,1.4,2.8,1.4,4s-0.6,2-0.9,2.8s-0.9,1.4-1.1,2c-0.3,0.3-0.3,0.6-0.3,0.6v0.3
		c-0.3,1.4-0.9,1.4-1.1,2c0,0.3-0.3,0.3-0.3,0.6c0.6,0,1.4,0,2.3,0c1.7,0,3.1,0.6,4.3,1.7c0.6,0.6,0.9,1.4,1.1,2.3
		c0.3,0,0.6,0,0.9,0.3c0.6,0,1.1,0,1.4,0.3s0.9,0,1.4,0.3c1.1,0.3,2.3,1.1,2.8,2s0.9,1.7,0.9,2.3c0.3,1.4,0.3,2.8,0.3,3.7
		c0,2.3-1.1,3.1-1.7,3.7s-0.6,0.9-0.6,1.1c0,1.4,0,2.8-0.6,4c-0.3,1.4-1.1,2.6-2.3,3.7c0.6-0.6,0,0.3-0.3,1.4
		c-0.3,1.1-0.3,2-0.9,3.7c-1.1,2.6-2,3.1-2.8,5.4c-0.3,0.9-0.3,1.4-0.6,2.3c0,0.9-0.3,2.3-0.9,3.7c-0.3,0.3,0,2.6,0.3,3.7
		c0.6,2.3,0.6,4.6,0.6,6.8c0,0-0.3-0.3,0.3,0.6c0.6,0.9,1.4,2.3,1.4,4.3c0,2.8-1.4,4.6-2.6,6c0,0,0,0,0,0.3s-0.3,0.9-0.3,1.4
		s-0.3,1.1-0.3,2c0,0.6-0.3,1.1-0.6,2c-0.6,1.4-1.4,2.3-2,2.8c-0.6,0.6-0.9,0.9-0.9,1.1c-0.3,0.6-0.3,0.3,0,1.4
		c0,0.6-0.3,2.3-1.1,3.1s-1.7,0.9-2.8,1.1c0,0-0.6,0.3-1.1,0.9s-1.1,1.4-1.7,2c-1.4,1.4-2.8,2.3-3.7,2.8c0.3,0.6,0.6,1.4,0.6,2
		c0,3.1,0,5.7,0.6,8c0.3,0.9,0.3,1.1,0.9,1.4s1.7,0.9,3.1,1.7c2.8,1.4,3.7,2.3,6.8,3.7c1.4,0.6,4,1.1,6.8,2.6
		c0.9,0.3,1.1,0.6,1.7,1.1s1.4,1.4,2.3,2.3s1.4,2,1.4,3.7c0,1.7-1.1,3.4-2.8,4.3c-1.4,0.9-3.4,2.6-6.8,3.4c-1.1,0.3-3.7,2-4.8,3.1
		c-0.9,0.9-1.7,1.4-1.7,1.7s-0.3,0,0.3,1.1c0.6,1.4,0.9,2.6,1.4,3.4s0.9,1.4,1.1,1.4c4.6,2.3,6.3,5.7,8,7.4c0.3,0.3,0.9,0.6,2.3,0.9
		s3.7,0.6,5.4,2.3c1.7,1.7,3.1,3.7,4.3,4.8c0.9,0.9,1.4,2,2.3,2.8c0.9,0.9,2,1.7,1.4,1.4c2.8,0.6,3.7,1.1,6.3,1.1
		c1.4,0,2-0.3,2.6-0.6c0.6-0.3,1.1-0.9,2.3-2c1.1-1.1,2.6-1.7,3.7-2.6c0.6-0.3,1.1-0.6,1.4-0.9c0.3-0.9,0.9-2.3,1.4-3.7
		c0.3-0.9,0.6-1.7,1.1-2.3s0.6-1.4,2.3-2.3c-0.3,0,1.1-1.1,2.6-2.3s3.4-2.6,6.3-1.7c2.3,0.6,5.4,0.6,8,3.1c0.3,0.3,0.9,0.9,2,1.1
		s2.3,1.1,3.7,2.6s2.8,2.3,5.1,4.3c1.7,1.7,4,3.1,5.4,6.5c1.4,2.8,2,4.3,2.8,8c0.6,2,2,4,3.4,6.8c1.1,2,2.6,5.4,3.4,8.5
		c0.9,2.8,1.1,5.7,2,8c0.3,1.7,0.6,3.1,0.6,4.8c0,1.7,0.3,3.1,0.6,3.4c1.4,2.6,1.4,4.8,2.6,6.8c0.9,1.7,1.1,1.7,3.7,3.1
		c1.4,0.6,3.4,0.9,6.8,0.9c3.1,0,6.8,0.6,8.5,0c3.4-0.9,4-1.4,6.8-2.8c0.9-0.3,1.4-1.1,2.8-1.7s3.1-0.9,5.4-0.3
		c0.9,0.3,2.8,0.6,4.3,1.7c0.9,0.6,1.7,1.1,2.3,2.3s0.9,2.6,0.6,3.7c-0.6,2.3-0.6,5.7-3.4,8.3c-0.9,0.9-1.7,1.7-2.3,2.3
		s-0.6,0.9-0.3,2c0,0.6,0.6,1.4,1.1,2.3s1.4,2.3,2,4c0.6,2,1.1,2.6,3.7,4.8c1.1,1.1,2.3,2.8,2.3,4.6s0,3.1-0.6,5.1s-1.1,2.8-1.7,3.7
		c-0.3,0.3-0.3,0.6-0.3,0.6c1.1,1.1,2,2.6,2.6,3.7c0.3,0.6,0.9,1.4,1.1,1.7c0,0,0,0.3,0.3,0.3l0,0c2.3,0.9,4,1.7,6.3,2.8
		c1.1,0.6,5.1,1.4,6.8,5.1c0.3,0.9,0.9,2,1.4,2.8c0.6,0.9,1.4,1.7,1.1,1.4c0.6,0.3,0.9,0.6,1.4,0.9s1.1,0.6,1.7,0.9l0,0
		c0.9-1.4,1.4-3.1,2.8-4.6c0.9-0.9,2.6-4,5.7-5.4c1.7-0.9,3.4-1.7,4.8-3.1c1.1-1.1,1.7-1.4,2-2s0.6-0.9,0.6-2.3
		c0-3.1-0.6-4.8-0.6-8.8c0-3.1,0-6.3,0-9.4c0-0.6-0.3-3.1,0-5.1c0.3-1.1,0.6-2.6,2.3-3.7s3.7-0.6,5.1,0c2,0.9,3.1,2.3,3.7,3.4
		s0.6,1.1,1.4,2.3c1.1,1.1,1.7,2,2.3,2.8s1.1,1.4,1.4,1.4c2,0.6,2.8,1.4,4,2c0.6,0.3,0.9,0.6,1.1,0.6c0.6-0.3,1.1-0.9,2-1.4
		c0.9-0.9,1.7-2,3.4-2.6c0.9-0.3,2-0.9,2.8-1.4c0.9-0.3,1.4-0.9,1.4-1.1c0.9-1.4,1.7-2.3,2.3-3.1s1.1-1.4,1.1-2c0.3-1.1,0-1.4-0.3-2
		s-1.1-2-1.1-4c0,0,0-2.6,0-4.8c0-1.1,0-2.3,0-3.1c0-0.6,0-0.9,0-1.1c0-0.3,0-0.3,0-0.6c0-0.3,0-0.3,0.3-0.9c0-0.3,0.3-0.3,0.6-0.9
		c0-0.3,0.3-0.3,0.6-0.6c0.3-0.3,0.9-0.3,0.9-0.3c1.1-0.3,2.3-0.6,4-0.9c0.9-0.3,1.4-0.3,2-0.6c0.6-0.3,1.1-0.9,0.3,0
		c1.7-1.7,3.4-1.7,4.6-2.3s2.3-0.9,2.3-0.9c1.1-1.1,2.3-2.6,2.3-4.8c0-0.3-0.3-1.7-0.9-3.4c-0.3-0.9-0.3-1.7,0-2.8s1.7-2.8,3.1-3.1
		c0.3,0,1.7-0.6,2.6-1.1c0.9-0.6,2.3-1.1,2.3-1.1c1.4-1.4,3.1-3.7,4.8-5.7c2-2,2.6-2,3.7-4.8c0.9-1.7,2.3-4.3,4.3-6.3
		s3.4-2.6,5.1-4.3c0.6-0.6,0.9-0.9,1.4-1.4s1.4-0.9,2.6-0.6s1.7,0.9,2,1.4c0.3-0.3,0.6-0.6,1.4-1.1c0.6-0.6,1.1-0.9,1.4-1.4
		s0.6-0.9,2.3-1.4c2.8-0.6,6.3-0.9,9.4-0.9c2.8,0,3.4-0.3,4.8-1.7c0.6-0.6,1.1-1.4,2.3-2.6c1.1-1.1,2.6-2,4.6-2.6
		c2-0.6,5.7-2.3,10.2-1.1c1.7,0.3,2.6,1.1,3.4,1.4s0.9,0.3,1.4,0c1.7-0.9,4-2.3,4.8-3.1c1.7-1.7,3.4-3.7,6.8-4.6
		c1.1-0.3,1.7-0.6,2.8-1.1s2.3-1.4,4-2c0.9-0.3,0.9-0.3,1.1-0.6c0.3-0.3,0.6-1.4,1.4-2.8c1.1-2.6,2.3-4,2.8-5.7
		c0.3-0.6,0.6-2,1.1-3.7c0.3-0.9,0.9-1.7,1.1-2.6c0.3-0.3,0.6-0.9,0.9-1.1c0.3-0.3,0.9-0.6,1.4-0.9c0-0.6,0-1.1,0.3-2
		c0-1.1,0.3-2.6,0.6-4c0.6-2.6,1.7-4.3,3.4-6.3c1.4-1.4,3.1-2.8,4.8-4.8c1.4-1.4,2-2.8,4-4.8c1.1-1.1,2.6-2.8,4.3-4.6
		c1.4-1.4,2-1.1,2-2.8c0-2.6,0.3-5.1,0-6c-0.3-1.4-0.9-3.7-0.6-6.3c-0.6-0.3-1.1-0.3-1.7-0.6c-0.9-0.3-1.7-0.6-2-0.9
		c-0.9,0.6-1.4,1.4-2.3,1.7c-1.1,0.6-2.6,0.6-3.7,0.6c-0.3,0-2.8,0.9-5.7,0.9c-1.7,0-2.8-0.3-3.7-0.6s-1.4-0.3-2.3-0.3
		c-2,0-3.4-1.1-4.6-2s-1.7-2-2-3.1c-0.6-1.1-2-2.3-3.7-3.1s-2.6-2-3.4-3.1s-1.7-2.3-2-2.6c-1.4-2-3.7-2.8-6-4
		c-2.6-1.1-3.4-2-5.4-2.3c-0.9-0.3-1.4-0.3-1.7-0.3l0,0c-1.1,2.3-2.6,3.7-4,5.1c-0.6,0.6-0.9,0.9-1.1,1.7s-0.9,2-2,3.1
		c-1.1,1.1-2.3,1.7-2.6,2l0,0c0,0,0,0,0,0.3c-0.3,1.1-1.4,2.3-2.3,2.8s-2,0.6-2.8,0.6c-1.7-0.3-2.8-0.9-4-2c-1.4-1.4-1.7-3.1-2-4.6
		s-0.3-2.6-0.6-3.1c-0.6-2-1.4-3.4-2-4.6c0,0-0.3,0-0.9,0c-0.9,0-2,0.3-3.4,0.3c-3.7,0-5.7-2.8-6.5-3.4c-2-2-2.6-4.6-2.8-6.3
		c-0.9-2.8-0.9-5.4-1.1-6c-1.4-2.6-1.4-4.8-2.3-6.3c-1.4-2.8-1.1-5.7-1.1-8s0-4.3-0.3-5.4c-0.3-1.4-1.4-3.4-2-4.8
		c-0.9-1.7-1.7-4-2.3-6c0,0,0,0,0-0.3c-0.3-0.3-0.6-0.6-0.9-0.9c-0.9-0.6-1.4-1.1-2.3-2c-1.7-1.7-2.8-4-3.4-6.5
		c-0.6-2.6-0.9-5.1-0.9-5.7c-0.9-3.1-0.6-4.3-1.7-6.5c-0.6-1.4-2-3.4-2.8-4.6c-0.9-1.4-1.4-2.8-1.4-4s0-2.3,0-3.4
		c0-1.7,0.6-3.1,1.1-4.3s1.1-1.7,1.4-2.3c1.1-2.3,1.4-2.6,2-5.1c0.3-1.7,0.3-3.1,0.3-5.4h0.9c-0.6-0.9-1.1-2-1.7-3.1
		c-0.9-1.7-1.7-3.1-2.3-4.3c-1.1-2.3-1.1-4.3-1.1-6.8c0-1.1,0-1.1,0-1.1s-0.3-0.3-0.9-0.9c-1.7-1.7-1.4-3.4-1.4-4.8
		c0-1.1,0-2.3,0-2.3s-0.3-0.6-0.9-0.9c-0.6-0.6-1.4-1.1-2.3-2.6c-0.3-0.9-0.9-1.1-1.1-2s-0.9-1.7-1.1-3.1c-0.6-2.3-0.9-3.7,0-6.5
		c0-0.6,0-0.6-0.3-1.4c-0.3-0.6-1.1-1.7-1.4-3.4c-0.6-2.6-0.9-3.7-1.4-5.1c-0.3-0.6-1.1-1.1-2.6-2c-1.1-0.6-2-0.9-2.8-1.7
		s-1.7-1.7-2.3-3.1s-1.4-1.7-2.8-3.1c-1.1-1.1-2-2.6-2-4c-0.3-1.4,0-2.6,0.3-3.7c0.6-2,0.9-3.4,0.9-5.4c0-1.4-0.3-3.7-0.9-5.1
		c-0.6-2.6-0.6-5.1-0.6-7.1c0,0,0-0.3-0.6-0.9c-0.3-0.6-0.9-1.1-1.4-2.3c-0.6-1.1-1.4-2.6-2-4.8c0,0-0.3,0-0.3-0.3
		c-0.3,0.3-0.6,0.6-0.9,0.9s-0.3,0.6-0.3,0.9s-0.3,0.6,0-0.3c0,0,0,0.3-0.3,0.6s0,0.3,0,0.3c0,0.3-0.3,0.3-0.3,0.3
		c0,0.3-0.3,0.3-0.3,0.3l-0.3,0.3c-0.3,0-0.3,0.3-0.6,0.3c-0.3,0.3-0.6,0.6-1.1,0.9c-0.6,0.3-0.9,0.6-1.1,0.9l-0.3,0.3
		c-0.3,0.3-0.3,0.9-0.6,1.1c-0.3,0.6-0.9,1.4-2,1.7c-1.7,0.9-2.6,0.6-4.3,0.6c-3.1,0-5.4-1.7-6.5-2.8c0,0-0.6-0.3-1.1-0.3
		c-0.9-0.3-1.7-0.3-2.8-0.6c-0.6,0-0.6,0-0.9,0c0,0-0.3,0.3-0.6,0.9c-1.1,2-2.6,3.7-3.7,4.8c-0.6,0.6-0.9,1.1-1.7,2s-2,1.7-3.7,2
		c-1.7,0.3-3.1,0.6-4,0.3c-1.1,0-1.7-0.3-2.8-0.3s-1.7-0.3-2.3-0.6s-1.1-0.6-1.7-0.9c-0.9-0.6-2-1.1-2-1.1c-0.9-0.6-2-1.1-2.8-2
		s-1.7-2-2.3-3.4c-0.3-1.4-0.3-2.8-0.6-3.4s0-0.6-0.6-1.1c-1.7-1.7-3.4-3.7-4.6-6c-0.3-0.3-0.6-0.9-1.1-1.4s-2-1.4-2.6-2.8
		c-0.9-1.7-2-2.6-3.7-4.8c-0.3-0.3-0.6-0.6-1.4-1.1s-1.7-1.7-2.3-3.4c-0.3,0-1.1,0-2.3,0c-0.9,0-1.1,0-2,0.3s-2,0.6-3.7,0.6
		c0,0.3-0.3,0.3-0.6,0.9c-0.6,0.6-1.7,0.9-2.6,0.9c-1.7-0.3-2.3-1.1-2.8-1.7c-1.4-1.4-2-2.6-2.6-3.1h-0.3c-0.3,0.3-0.9,0.3-1.1,0.6
		c-0.3,0.3-0.6,0.3-0.9,0.6c-2,0.9-4,0.3-5.1,0s-2-0.6-2-0.6c-2,0-3.4-0.6-4.6-1.4s-2.3-1.4-2.8-1.7c-1.4-0.6-2.3-1.7-2.8-2.3
		s-0.9-1.1-1.4-1.7c-0.3-0.3-0.6-0.6-1.1-0.9s-0.9-0.6-1.4-2c-0.3-0.6-0.3-1.7,0-2.3s0.6-1.1,0.9-1.4c0.6-0.6,1.4-0.9,2.3-1.4
		c1.4-0.9,3.7-2.6,4.6-3.4c2.3-2.3,4-3.4,4.8-4.8c0.3-0.3,0.3-2,0.9-4.3c0.3-1.1-0.3-2.6-0.9-4.8
		C725.1,437.9,724.3,437.1,723.7,436.2L723.7,436.2z"/>
	<path id="toscana_1_" class="st0" d="M97.1,123.4c-0.6,0-0.9,0-1.1,0.3c-2.8,1.4-5.1,1.4-7.4,2.6c-2.8,1.4-6,3.1-9.4,4
		c-1.7,0.3-3.4,0.6-5.4,0.9s-3.4,1.1-3.1,0.9c-2,2-4.3,3.4-6.8,4.8c-0.9,0.3-2.6,1.1-3.7,2c-0.6,0.3-1.1,0.9-1.7,1.1l0,0
		c0,1.4-0.3,2.8-0.9,4c-0.6,1.4-1.1,2.3-2,3.7c-0.9,1.7-2.3,4.6-2.3,6.3c0,2,0,3.4-0.6,5.1c-0.6,1.7-1.4,3.1-2.8,4.3
		c-1.1,1.1-2.3,1.7-3.7,2.3c1.4,1.1,2.6,2.6,3.1,4.8c0.3,1.7,0.3,3.1,0.6,4.6c0,1.4,0.6,3.1,0.3,2.6c2,2.6,2.3,4.6,4,5.4
		c0.9,0.6,4.8,0.9,8,3.4c2.6,2,4.3,4.3,6.3,5.7c1.1,0.9,5.1,2.6,7.7,4c1.7,0.9,3.1,2.3,4,4.3c0.9,2,0.9,5.1-1.4,7.1
		c-0.6,0.6-0.6,0.6-1.1,1.1c-0.6,0.6-1.1,0.9-1.7,1.1s-0.9,0.6-1.1,0.9c0.3,2.6,1.1,4.6,1.1,7.7c0,1.4-0.3,3.1-0.3,4.6
		c0,0.6,0,0.6,0,0.9c1.4,0.3,2.3,0.3,4-1.1c0.3-0.3,1.4-1.4,2.8-2.6c0.9-0.6,1.4-1.1,2.3-1.7c0.3-0.3,0.9-0.6,1.4-0.6
		c0.6-0.3,1.1-0.6,2.3-0.3c0,0,2,0.3,3.7,0.9c0.9,0.3,1.7,0.6,2.8,0.9c0.6,0.3,0.9,0.6,1.4,1.1s0.9,1.4,0.9,2.6c0,2,0,3.4-0.6,5.1
		c-0.6,1.4-1.4,2.6-2.6,3.7c-1.4,1.4-2.3,2.8-3.1,4.8c0.6,0,1.4-0.3,2.3-0.3c0.9,0,2-0.3,2.6-0.3c0.3,0,0.3,0,0.6,0
		c1.1-0.9,2.3-1.7,4-2.3c2-0.6,5.1-0.9,7.4,1.4c0.9,0.9,3.4,2,5.7,4.3c1.7,1.7,4.6,3.7,6.3,6.8c0.3,0.9,0.9,1.7,1.4,2.6
		c0.3,0.6,0.6,0.9,0.6,0.9c0.9,0,2.6-0.3,4.3-0.3c2,0,4-0.6,6,0.6c1.1,0.6,2.6,1.1,4.3,2.3s2.8,3.7,2.3,6.5
		c-0.3,0.9-0.3,2.3-0.9,3.7s-0.9,3.1-2.3,4.6c-0.3,0.3-1.4,1.4-2.3,2.3c-0.6,0.6-0.9,0.9-1.1,1.4c0,0,0,0.3-0.3,0.3
		c-0.3,1.4-0.9,3.4-1.1,5.7l-1.1,4.8c0.6,0-2.8,0.3-2.3,0c2.3-0.6,7.4,0,9.1,0.9c1.7,0.9,3.1,1.7,4.8,2.3c0.6,0.3,2.6,3.1,3.7,3.7
		c1.7,0.9,2.6,2.8,3.4,4c1.4,1.4,2.3,2.8,3.4,4c1.4,1.4,2.6,2,3.7,3.1c1.7,1.7,2.3,5.1,3.4,7.1c1.1,1.7,2.3,2,4.6,2.6
		c1.1,0.3,2.6,2.6,3.1,3.7c0.9,1.4,3.1,2.6,4.3,4c1.1,1.1,2.3,2.6,3.1,4c0.9,2,2.6,2.8,3.4,4.3c0.9,2,1.1,3.7,1.7,5.1
		c0.9,1.4,1.7,3.1,2.3,4.3c1.1,2.3,1.4,2.6,0.6,4.6c-0.9,2,1.1,5.1,1.7,6.3c0.9,1.4,2.8,2.6,4,4c1.4,1.4,1.1,3.1,1.7,5.1
		c0.6,1.7,1.4,3.4,1.7,4.8c0.6,2,0,4.8,0,6.8c0,2.3,0,4.3,0,6.5c0,2.6,1.4,4,1.4,6.5c0,1.7,0.6,4.3,0.6,6.3c0,2.6,0,5.4,0,8
		s2.3,3.1,4,4c1.4,0.9,0.6,4.3,0.6,5.1c-0.6,2-2.3,2.8-3.4,3.4c-2.8,1.4-2.6,1.7-3.1,4.3c-0.6,1.7,2.6,2.8,3.1,3.7
		c1.7,1.7,2.3,2.3,2.3,4.8c0,1.7,0.9,3.7,0.9,6.3c0,1.4-1.7,2.8-1.7,5.1s0.3,3.7,0.9,5.7c0.6,1.7,1.1,3.4,1.7,4.8
		c0.6,1.1,4.8,1.4,4.8,1.4c0.9,1.7-0.6,5.1-1.4,6.3c-0.9,0.9-1.7,3.1-2.3,4.3c-1.1,2,1.1,4.3,1.4,5.7c0.3,0.6,0.3,1.1,0.6,1.7
		c0.6,1.7,0.6,4.3,0.6,6.5c0,2,1.4,2.8,2.6,4c1.1,1.1,1.4,3.4,1.7,5.1c0.3,1.4,2.3,2.8,3.1,3.7c1.4,1.4,2.3,2.3,3.4,3.4
		c1.7,1.7,3.4,2.3,4.8,3.1c1.7,0.9,2.6,2.6,4,4s2.3,3.1,3.4,4.8c1.1,1.4,2.3,3.1,2.6,4.8c0.3,1.7,2.3,3.7,3.1,4.3
		c1.1,1.1,1.7,2.8,2.6,4c0.6,0.6,0.9,0.6,2.3,3.1c0.9,2,1.1,4.3,2.3,5.7s0.6,4.3,0.9,5.7l3.4,14.5c0.6,0.3,3.4,2.6,4,3.1
		c0.9,0.9,3.7,1.7,5.1,2.3c1.4,0.3,2.3,2.8,2.6,4c0.3,1.1,0.3,1.1,0.3,2.3c0,0.9,0,1.4,0,2.3c0,1.4,2,3.4,2.3,4.8
		c0.6,2.3,1.4,3.1,1.4,6.3c0,2.6,0.6,4,1.4,5.7c0.6,1.4,0.6,4,0.6,6.3c0,1.7,1.1,4.6,1.7,5.7c0.6,1.4,0.3,4.3,0.9,6.3
		c0.6,1.7,0.6,3.7,0.6,6.3c0,2.3,0,4.6-0.6,6.5s0,4.6,0,6.5c0,2.6,0,5.1,0,7.4s0,4.6-0.6,6.3c-0.6,2.6,0,4.6-1.1,7.1
		c-0.9,1.4-0.9,4-1.4,5.7c-0.6,2.6-1.1,3.7-1.7,6.3c-0.6,2-2.3,3.7-2.6,5.7c-0.6,2.3-2.3,3.7-4,5.1c-1.4,1.4-1.7,2.8-3.1,4
		c-1.1,1.1-0.9,3.7-1.4,5.1c-0.6,1.7,0.3,4.8,0.6,6.3c0.6,2,0.6,3.7,1.1,5.1c0.9,2,2,2.6,2.6,4c0.9,1.7,2.8,2,4.3,3.1
		c1.4,1.1,3.7,0.9,5.7,0.9c2.8,0,3.4-0.3,4.6-2.3s0-4.3-0.6-5.7c-0.9-2.8,0.6-3.7,2.3-4.3c1.4-0.9,4.3-0.9,6.3-1.4
		c1.7-0.6,4.3-0.6,6.5-0.6c1.7,0,4.8,0.9,6.8,1.4c2.6,0.6,4.6,1.1,7.1,1.7c2.6,0.6,3.1,1.7,6.3,1.7c2.3,0,3.1,2,5.4,3.1
		c1.7,0.9,3.7,2,5.7,2.6s3.4,2.6,4.3,3.7c1.4,1.4,2.8,1.4,4,2.6c1.4,1.4,2.6,2.8,3.7,4s1.4,3.4,1.4,5.1c0,2.3,0,4.6-0.6,6.3
		c-0.6,1.7-0.3,3.7-0.9,5.7c-0.6,2.3-1.4,3.1-1.4,5.7c0,2.3-0.6,3.7-1.7,4.8c-1.4,1.4-1.7,2.8-3.1,4c-2,2-2.6,0.6-3.1,3.1
		c-0.3,0.9,2.6,3.4,3.1,4.6c0.3,0.6,3.7,2.8,4.3,3.4c1.4,1.4,2.6,1.7,4.8,1.7c1.7,0,4.6,0.6,6.3,0.9c2.3,0.6,5.1,0,7.4,0
		c2,0,2.8,1.4,4,2.6c1.7,1.7,1.4,2.3,4.3,3.7c1.4,0.9,4,0.6,6.3,0.6c2.3,0,3.7,0.6,5.1,1.1c2,0.9,2.8,2,4.3,2.6
		c1.7,0.9,3.4,2.3,4.6,3.1c1.1,1.1,2.8,1.1,4.3,2.6c2.3,2.3,0.3,4,3.1,5.1c1.4,0.9,2.8,2,4.3,2.6c1.4,0.6,1.7,3.4,2.3,4.3
		c0.6,1.4,0,5.1,0,6.5c0,2.8-0.3,4.3,2.3,4.8c1.1,0.3,3.7,2.3,4.8,2.6c2.3,1.1,4,1.4,6.3,2.6c2,1.1,2.8,2.3,4.6,3.1s2.6,2.8,3.1,4
		c0.9,1.7-0.6,4.3-0.6,6.3c0,1.7,3.7,1.1,4,2.6c0.6,2.3,0,4.3,0.9,5.7c0.3,0.6,0.6,1.4,0.6,2.3c0.6-0.3,2.8,3.7,3.4,5.1
		c0.6,2.6-1.4,3.1,1.7,4c2.3,0.6,3.1-1.4,3.4-3.1c0.6-2.6,3.1-0.6,4,0c0.9,0.3,2.3,3.1,2.6,4c0.9,2,1.4,2.8,2.6,4
		c1.4,1.4,2.3,2.6,2.3,4.8c0,1.7,0.9,4,1.4,5.1c0.9,2,1.1,2.6,1.7,5.1c0.3,1.4-1.7,4-2.3,5.1c-1.1,2-1.7,3.1-2.6,4.8
		c-1.1,2-1.1,3.1-2.3,5.1s-2,3.1-3.1,4.3c-1.7,1.7-4,1.4-5.7,0.9c-1.7-0.6-2.3-2-3.4-3.1c-1.4-1.4-0.9-3.1-4-3.1
		c-2.8,0-3.4,0.9-4,3.1c-0.3,1.4-1.7,2.6-2.3,4.3c-0.3,1.4,2,3.1,2.6,4c1.7,1.7,0,3.1-0.9,4c-1.4,1.4-1.7,2.3-1.7,4.8
		c0,1.7,3.4,1.7,4.8,1.7c2,0,3.7,1.4,5.1,2.3c2,0.9,3.4,1.7,5.1,2.6c1.7,0.9,2.3,2.6,2.6,4c0.6,2.3,3.7,0,4.3-0.6
		c1.7-1.7,2.3-1.7,5.1-1.7c1.4,0,3.4-2.3,4.3-2.6c0.9-0.3,1.7-4.3,1.7-4.8c0.6-2,0-4.8-0.6-6.3c-0.9-2.8,2-2.6,4.6-2.6
		c2.6,0,4.8,0,7.4,0c2.3,0,4.6,0,7.1,0c2,0,3.4,1.1,5.7,1.7c2.8,0.6,5.4,0.6,8.3,1.4c1.7,0.6,3.4,0.9,5.7,0.9c1.7,0,3.7,2.3,5.7,2.6
		c2.6,0.6,4.6,1.7,6.5,2.3c2,0.6,4,1.7,5.1,2.3c0.6-2.3,1.1-6,1.1-8c0-1.4-0.3-2.8,0-4.6s0.6-3.7,2.3-5.4c0,0,0.9-1.4,1.4-2.6
		c0.3-0.6,0.9-1.4,1.7-2.3s2.6-1.1,4-0.9c3.1,0.9,5.1,0.9,8.5,2c2.6,0.6,4.3,1.1,7.4,1.1c1.4,0,3.4,0.3,5.1,0.3s3.1-0.3,3.1,0
		c1.4-0.6,2-0.9,2.3-1.1s0.6-0.6,0.9-2c0.6-2.3,1.1-5.4,1.1-5.4c0-0.6,0.6-6.8,0.6-7.7c-0.3-1.4-0.3-2.6-0.6-3.7
		c0-0.6-0.3-0.9-0.3-1.1c-0.9-0.3-2.3-0.3-3.7-0.9c-1.7-0.6-3.1-0.6-4.8-2.3c-1.1-1.1-2-2.8-2.3-4c-0.3-1.1,0-1.7-0.6-3.4
		c-0.6-2-0.3-3.4-0.3-5.1s0.3-2.8,0.3-3.1v-0.3c0-0.3,0-1.4,0.6-3.1c0.3-0.9,0.9-1.7,1.7-2.6c0.9-0.9,2.3-1.7,3.7-1.7
		c3.7,0,6.3,0.6,9.4,1.4c1.4,0.3,2,0.3,3.7-1.1c1.4-1.4,2.3-2.8,4.3-5.1c1.4-1.4,4-4,6.8-5.4c1.7-0.9,2.6-2.3,5.7-3.7
		c2-0.9,3.7-3.1,7.4-4c1.1-0.3,2.6-0.6,3.7-0.9c1.1-0.3,1.7-0.9,2-0.9c0.9-0.9,1.7-1.4,2.6-2.3c0.3-0.3,0.9-0.9,0.9-1.1
		c0-2.3-0.9-4.8-0.9-5.1c-1.4-1.4-2-2.8-2.6-4s-0.9-1.7-1.1-2.3c-0.3-0.3-1.4-1.4-2.6-3.1c-0.6-0.9-1.1-1.7-1.4-2.8
		c0-0.6-0.3-1.7,0.3-2.6c0.6-0.9,1.4-1.7,2.3-1.7c2.3-0.6,4.6-1.1,6.8-2.3c-0.3,0,1.4-0.9,2.3-1.4c-0.9-0.9-1.4-2-2.8-2.6
		c-1.7-0.9-4.8-1.7-7.7-4.3c0.3,0.3,0,0-0.6-0.6c-0.6-0.6-1.1-0.9-1.7-1.1s-1.4-0.9-2-1.4s-1.4-1.4-1.4-3.1c0,0-0.3-2.6-0.3-4.6
		c0-1.1,0-2,0-3.1c0-0.6,0-0.9,0.3-1.4c0.3-0.6,0.3-1.1,1.1-2c1.4-1.4,2.6-3.1,4.3-5.1c0.6-0.6,1.1-1.4,2-2.6s2-2,3.7-2.8
		c0.9-0.3,1.7-1.1,3.4-1.7c1.7-0.6,4-0.6,6,0.6c2,1.1,3.1,2.6,4,3.4s1.1,1.4,1.7,1.7c0.3,0.3,0.3,0.3,0.6,0.3
		c0.3-0.3,0.3-0.3,0.6-0.9c0,0,0.3-1.4,0.6-3.1s0.6-3.4,2.3-5.1c0.6-0.6,1.4-1.7,2.6-2.6s3.1-2,5.7-2c1.1,0,3.1-0.3,5.1-0.3
		c0-0.3,0.3-0.3,0.6-0.6c1.7-1.7,3.7-2.8,4.6-3.7c0.3-0.3,0.9-1.1,2-2c0.9-0.9,2-1.7,3.7-2.3c0-0.9-0.3-1.4,0.6-2.8
		c0.6-1.1,1.4-2,2-2.6c0.6-0.6,0.9-0.9,0.9-1.1c0,0,0-0.3,0.3-0.6c0-0.6,0-1.1,0.3-1.7s0.3-1.4,0.3-2s0.3-1.4,1.1-2.3
		c0.6-0.6,1.4-1.7,1.4-2.3c0-0.9,0-0.6-0.3-1.1c-0.3-0.6-1.4-2-1.4-3.7c0-2.3,0-4.3-0.3-5.4c-0.3-1.4-1.4-4.6,0.3-7.7
		c0.3-0.6,0.3-0.9,0.3-1.7s0.3-2.3,0.9-3.7c1.1-3.1,2.3-4,3.1-6c-0.3,0.3,0.3-0.9,0.6-2.3c0.3-1.4,0-2.6,1.7-4.3
		c0.6-0.6,0.6-0.6,0.9-1.1s0.3-1.1,0.3-2.6c0-2,1.1-3.7,1.7-4.6c0.3-0.6,0.6-0.9,0.6-0.9c0-0.9,0-1.7,0-2c0,0,0,0-0.3,0
		c-0.6,0-1.1,0-2-0.3s-1.4-0.3-2.3-0.6c-0.3,0-0.9-0.3-1.1-0.6s-1.1-0.9-1.4-2c-0.3-0.6-0.3-0.9-0.3-0.9s0.3,0-0.3,0
		c-0.6,0-2.3,0.3-3.7,0c-0.9,0-1.7-0.3-2.8-1.1c-1.1-0.9-1.7-2.6-1.4-4c0-0.6,0.3-1.4,0.6-2.3c0.3-1.4,0.9-1.7,1.1-2.3
		s0.6-1.1,0.3,0c0.3-1.1,0.6-1.4,0.9-2.3s0.6-1.1,0.9-1.7c0.3-0.3,0.3-0.6,0.3-0.9c-1.4-1.7-2.3-3.7-2.8-5.1c-0.9-1.4-2-3.7-3.1-5.7
		c-0.9-1.4-2-3.7-2-6.5c0-2,0.9-3.7,1.4-4.6s0.9-1.1,0.9-1.1c0-1.7,0.3-3.4,1.1-4.8s2.6-2.6,4.6-3.1c0.9-0.3,1.7-0.3,2.8-0.9
		s1.7-0.9,1.7-0.9c1.4-1.4,3.4-4,6.5-4.8c1.4-0.3,2.6-0.9,4.3-1.4c1.1-0.6,2-0.9,2.6-1.1c0.3-0.3,0.6-0.3,0.6-0.3
		c0,0.3,0,0.3-0.3,0.6c0-0.6,0.3-0.6,0.3-0.6c0.6-1.1,1.1-2.3,1.7-2.6c0.6-0.6,0.9-0.9,0.9-1.1c0.6-0.9,1.1-1.7,1.7-2.6
		c0.6-0.9,1.1-1.7,0.9-1.4c0.9-1.4,1.7-2.3,2.6-2.8s1.1-0.9,1.1-1.1c0.6-1.1,1.4-2.3,3.1-3.1s3.4-0.6,5.1-0.3
		c1.7,0.3,2.6,0.6,3.7,1.1s2,1.4,2.8,2.3s1.4,1.7,2,2.3s0.9,0.9,0.9,0.9c0.3,0.3,1.1,0.6,1.7,0.6c0.3,0,0.3,0,0.3,0
		c0.3-0.3,0.3-0.6,0.9-1.4s1.7-2,3.1-2.8c0.6-0.3,3.1-2.8,6.8-2.8c0.3,0,0,0,0,0c0.3-0.6,1.1-2.6,3.4-3.4c1.4-0.6,4-1.7,6.5-2.3
		c0.9-0.3,1.1-0.3,1.7-0.9c0.6-0.3,1.4-0.6,2.3-0.9c1.4-1.4,2.6-2.3,3.7-2.8c1.4-0.6,2.3-0.9,3.4-1.4l0.3-0.3c0.3,0,0.3,0,0.6-0.3
		c0.3,0,0.6-0.3,0.9-0.6c0.6-0.3,1.4-0.9,1.4-0.9c2-2,3.1-2.3,4.6-3.4c0.9-0.9,1.7-1.4,2.6-2.3c0.3-0.3,0.6-0.6,0.6-0.9
		c-0.6-1.7-1.1-3.1-1.4-4c-0.3-0.3-0.3-0.3-0.3-0.3c-0.6,0-1.7,0.3-3.7-0.3c-0.3,0-1.4-0.3-2.6-0.6c-0.3,0-0.6,0-0.9,0
		c-0.3,0.3-0.3,0.6-0.6,0.9c-0.3,0.6-0.6,0.9-0.9,1.4c-0.3,0.3-0.3,0.6-0.9,0.9s-0.9,0.9-2.3,0.9c-0.3,0-1.4,0.3-2.3,0.6
		c-0.6,0.3-0.9,0.3-1.4,0.6c-0.6,0.3-0.9,0.6-2,0.6c-1.7,0-2.8-0.3-3.7-0.6c-0.9-0.3-1.1-0.6-2.3-0.9c-0.6-0.3-2-0.6-3.1-0.9
		c-0.6-0.3-1.4-0.6-2-0.9c-0.3-0.3-0.6-0.3-0.9-0.9s-0.9-0.9-1.1-1.7c-0.3-0.9-0.3-1.1-0.3-1.7s0-1.1,0-1.7c0-0.6,0-0.9-0.3-1.1l0,0
		c0,0,0-0.3,0,0c-0.6-0.6-1.1-1.1-1.4-2c-0.3-1.1-0.3-2.3,0-2.8s0.3-0.6,0.3-0.6c-0.6-1.1-0.6-1.4-0.9-1.4c0,0-0.6-0.3-2-0.9
		c-1.7-0.9-2.8-1.7-4.3-2c-1.1-0.3-2-0.6-3.1-1.4s-1.1-2.3-1.1-3.1l0,0l0,0c-0.3-0.3-1.1-0.6-1.7-0.9s-1.1-0.6-1.7-0.9
		c-0.3,0-0.3-0.3-0.6-0.3c0,0-0.3-0.3-0.6-0.3c-0.3,0-0.3,0-0.9-1.1c-0.6-1.1-0.6-1.4-1.7-1.7c0,0-1.1,0-2.6-0.3
		c-1.4-0.3-2.8-0.3-4.6-2c-0.6-0.6-1.7-1.4-2-3.4c-0.3-1.7,0.6-3.4,2-4.6l0,0c0,0,0,0,0-0.3c0-0.6,0-2.6,0.9-4.3s2.3-2.8,3.1-3.4
		s1.1-0.6,2-1.4c0.6-0.6,0.9-1.1,1.1-1.7c0.3-0.6,0.6-1.7,1.4-3.1c0.9-1.7,2.3-3.7,3.7-5.1c0.6-0.6,0.6-1.1,2-2s2.6-1.1,4.6-1.1
		c2.3,0,4.3,0,6.5,0c0.9,0,2,0,2.6-0.3c0.3,0,0.6-0.3,0.6-0.3c0.6-1.1,0.9-2.3,1.4-2.6c0.6-0.6,0.9-0.6,0.9-1.1
		c0.3-0.6,0.6-0.9,0.6-1.1c-1.1-0.6-1.4-0.9-3.4-0.9c-1.4,0-2.8,0-4-0.9s-2.3-2-2.8-3.1c0.3,0.6,0-0.3-0.3-0.6
		c-0.3-0.6-0.6-0.9-0.9-1.7s-0.6-1.4-0.9-2.3c0-0.6,0-1.1,0.3-2s1.4-1.7,2.3-1.7c0.9-0.3,1.7-0.3,2.6-0.6c0.6-0.3,1.1-0.6,1.1-0.6
		c1.7-1.7,2.6-2.6,2.6-3.7c0-2.3,0.6-4,1.1-5.1s1.1-1.4,1.7-2.3c0.9-1.7,1.7-2.8,2-3.7c0.3-1.7,1.4-2.8,2-3.7s0.9-0.9,0.9-0.9
		s0.9-1.7,1.4-3.1c0,0,0,0,0-0.3c-0.3-0.3-0.3-0.6-0.3-0.9c-0.3-1.4,0-2,0.3-2.8c0.6-1.4,0.9-3.1,0.9-3.1c0-1.7-0.3-4-0.9-5.4
		c-0.6-2.6-0.6-4.6-0.6-6.8c0-1.4,0.9-2.6,1.4-3.1s1.4-0.9,2-1.1c1.1-0.6,2.3-1.1,2.3-0.9c0.6-0.3,0.9-0.3,1.1-0.9s1.4-1.4,2.8-2.3
		c1.1-0.6,1.7-1.7,4-2.6c2.8-1.4,5.4-1.7,5.7-1.7c1.1-0.6,2.6-1.7,4.6-2.6c0.6-0.3,1.7-2,2.8-3.7c0.3-0.6,0.6-1.1,0.9-2
		c0.3-0.9,0.9-2,2-3.1c0.9-0.9,2.3-1.4,3.4-1.4s2,0.6,2.6,0.9c1.4,0.9,2.3,2,2.3,2.3c2,2,2.8,4.8,3.4,5.7c1.1,2,1.1,4.3,1.1,6
		c0,0,0,0,0.3,0s0.6,0,0.9,0.3c0-0.3,0.3-0.6,0.3-1.1c0.6-1.4,0.9-3.1,0.9-3.1c0.3-1.1,0.3-2,0.6-3.1s0.3-2.6,1.1-4
		c0.9-1.1,1.1-1.4,1.4-1.7c0,0,0,0-0.3-0.3c-0.3-0.6-1.7-1.4-3.1-4c-0.6-1.4-3.1-3.7-4.8-5.4c-1.1-1.1-1.4-1.1-3.7-2.3
		c-0.6-0.3-2,0-4.6,0.6c-2.6,0.6-4.6,0.6-6.8,0.6c-1.4,0-2.3,0-2.6,0c-0.3,0-0.3,0-0.6,0.6c-0.6,0.6-1.7,1.1-2.8,0.9
		c-1.1,0-1.7-0.6-2.3-0.9c-0.9-0.9-1.4-1.7-2-2.6s-0.9-2-1.1-2.8c-0.3-0.9-0.6-1.7-0.3-3.1c0.6-2.6,2.3-4,4-4.8c0,0,0,0,0-0.3
		c0-0.6-0.3-1.7-0.3-2.3c0,0,0,0-0.6-0.3c-0.9-0.3-2-0.6-3.4-1.1l-0.9-0.3c-0.6,0-1.1,0-1.4,0.3c-0.6,0.3-0.9,0.6-0.6,0.3
		c-1.4,1.4-2.8,2.3-4.3,3.1c0,0-0.3,0-0.3,0.3c-0.3,0.3-0.6,0.6-0.9,0.9c-0.3,0.6-0.9,0.9-1.4,1.4c0.3,0,1.7,0.6,1.1,0.3
		c-6.3-2.3,4.8,8,7.4,14.5l-1.4,0.6l0.6,1.4c0,0-3.1,1.4-3.4,2c-0.3,0.9-9.4-2-10.5-3.1s-4,0.3-5.4-1.1c-0.9-0.9-1.1-1.1-1.1-1.4
		l0,0c-5.4,0.3-13.9,5.7-16.5,5.7c-2,0-5.1,0.9-8.8,0c-2.3-0.6-4-1.7-4.8-2.8s-1.1-2-1.7-2.8c-0.3,0-1.1-0.3-2-0.6
		c-1.7-0.3-3.1-0.3-4.8-0.6c-1.4-0.3-1.4-0.6-2.3-1.1s-1.1-0.9-1.7-1.4c-1.1-1.1-2.3-2.3-2.3-2.3s-1.1-0.6-2.3-1.1
		c-1.1-0.6-2.6-0.9-3.4-1.1c-2.3-0.6-3.1-2.3-4-3.1c-0.9-0.9-0.9-1.1-1.7-1.4c-2-0.6-3.1-1.4-4-2c-0.9-0.6-1.4-0.9-2.3-1.1
		c-1.1-0.3-2.6,0.6-4.8,1.7c-3.1,1.4-6,1.4-9.4,1.4c-2.3,0-4-0.6-5.1-1.1s-2-1.1-3.1-1.4c-2.3-0.6-3.4-2-4.6-3.1s-2-2.3-2.3-2.6
		c-2.3-2.3-3.7-4.6-4.8-6.8c0,0.3-0.9-0.9-2-1.4c-1.1-0.6-2.3-1.1-2.8-1.7c-2-1.1-3.4-2.6-4.8-4s-2.6-2.6-3.1-3.1
		c-2.3-1.7-4.3-3.7-6.3-6.3c-1.4-1.7-2.6-2.6-4.6-3.4c-1.1-0.6-2-1.1-2.8-2.3s-1.1-2.3-0.9-3.4c0-2,0.9-3.1,1.1-4.6
		c0.6-1.7,0.6-2.8,0.9-3.1c0-0.3,0-0.6-0.6-1.7c-1.4-2.6-2.6-4.8-3.7-7.4c-0.3-0.9-0.9-1.4-1.7-2.3c-0.9-0.9-2-1.7-2.6-3.4
		c-0.6-1.1-0.9-2.6-0.9-3.7s0.6-2.6,1.1-3.4c1.4-1.4,2.8-2,4.3-2.3c0,0,0.3,0,0.6-0.3c-0.3,0-0.3,0-0.6,0c0.3-0.3,0.3-0.6,0.6-1.1
		c0.3-1.1,0.9-2.3,0.9-2.8c0,0,0,0-0.3,0c-0.6-0.3-2-0.9-3.4-1.1c-0.9-0.3-1.7-0.6-2.3-2c-0.6-1.4-0.3-2.3,0-2.8
		c0.6-1.1,1.1-1.7,2-2.3c1.4-1.1,3.4-2.3,4.6-3.1c2.8-1.4,4.6-2,7.4-2.8c-0.3,0,0.6-0.3,1.1-1.1c0.6-0.9,1.1-1.7,1.4-2.3
		c0.9-1.4,0.9-3.7,0.9-6.8c0-2.3,0.6-4.3,1.4-5.4c0.9-1.1,1.7-1.7,2.6-2.6c0-0.6-0.3-1.4-0.3-2.6s-0.3-2-0.6-2.8
		c-0.3-0.9-0.6-1.1,0-2.8c0.3-0.6,0-0.6-0.3-1.1c-0.3-0.6-1.1-0.9-2-1.1c-1.1-0.6-1.7-0.9-2-0.9c0,0-0.3,0-1.1,0.9
		c-2.3,2.3-4.3,3.1-6.3,4.3c-3.7,1.7-8,1.7-11.4,0.9c-1.7-0.3-2-0.9-2.3-1.1c-0.3,0,0,0-0.6,0.3c-1.1,1.1-1.1,1.7-2.6,2.8
		s-3.1,1.1-5.7,1.1c-2.6,0-4.3-1.7-5.1-3.1c-0.9-1.4-1.7-2.8-2-3.4c-1.1-2.6-0.6-5.1,0.3-6.8c0.9-1.7,1.7-2.8,1.4-2.6
		c0.3-1.7,0.3-1.4,0.3-1.4s-0.6-0.3-2-0.9c-2.3-0.6-3.7-2-4.3-2.6c-0.6-0.6-0.9-0.6-1.1-0.9c-0.3,0.3-0.6,0.3-0.9,0.9
		c-0.6,0.3-1.1,0.9-1.7,1.4s-0.9,0.6-1.7,1.1c-2.3,1.1-4.3,0.9-6.3,0.6c-2-0.3-3.7-0.9-4.3-0.9c-1.4-0.3-2.8-1.1-4-1.7
		s-2.3-1.4-2.8-1.7c-2.8-1.4-4.6-4-5.7-6.3c-0.6-0.9-2.6-3.1-4-5.1c-1.7-2.3-2.8-5.4-3.4-6.5c-0.3-0.6-0.6-0.6-0.9-0.9
		c-0.3,0-0.9,0-1.4,0c-0.3,0.3-0.6,0.6-0.9,1.1c-0.3,0.6-0.9,1.1-1.1,1.7c-0.3,0.6-0.3,0.9-1.1,1.4c-0.9,0.9-1.4,3.1-3.7,5.4
		c-1.1,1.1-2.3,2.3-3.7,2.8c-1.4,0.6-3.1,0.6-5.1,0.6c-1.4,0-2.8-0.9-3.4-1.7c-0.6-0.9-0.9-1.7-1.1-2.3c-0.6-1.4-1.1-2.3-0.9-2.3
		c-0.6,0.3-1.4,1.4-1.7,2.3c-0.6,1.4-1.7,2-2.6,2.3c-0.9,0.3-1.7,0.6-2.6,0.9c-1.7,0.3-3.4,0.6-3.4,0.6c-0.9,0.3-2.8,2.6-4.3,3.7
		c-2.6,2.6-6.3,3.7-7.7,4.3c-1.4,0.9-2.6,2.3-4.3,3.7c-0.6,0.6-0.6,0.6-0.3,1.1c0,0.6,0.3,1.4,0.9,2.3c0,0.3,0.6,0.9,1.4,1.4
		s2,1.1,2.8,2.3c1.1,1.1,1.7,1.4,2.6,2.6s-0.3,5.1-0.9,6s0.6,2.8,0,2.8c-1.1,0.3-2.3,0.3-3.1,0.6c-2,0-4.6-0.3-5.1-0.3
		c-3.1,0-6.3,0-9.4,0c-1.1,0-5.4,1.1-8,1.7s-4.6,1.4-8.8,1.4c-2.3,0-4.3-1.1-5.1-1.7s-1.4-0.9-2.3-1.1c-0.3,0-0.6,0.3-0.9,0.6
		c-0.9,0.6-2.3,2-4.3,2.3c-1.7,0.3-2.8-0.3-3.7-0.9c-0.9-0.6-1.4-1.1-2-1.7s-1.1-1.1-1.4-1.7s-0.9-1.1-0.6-0.9
		c-1.1-1.1-2-2.8-2.6-4.3c-0.6-1.4-1.4-2.8-1.7-3.4c-1.4-2.8-2-3.7-3.7-5.4c-0.6-0.6-0.6-0.6-0.9-0.6c-0.3,0-0.9,0.6-1.4,1.1
		c-1.7,1.7-2.8,3.4-3.7,5.4c-0.6,1.4-1.4,2.3-1.7,3.1c-0.3,0.9-0.9,1.4-1.1,2.6c-0.6,1.7-1.4,3.1-1.7,3.7s-0.6,1.1-0.6,1.7
		c0,1.1-0.6,1.7-0.9,2s-0.6,0.6-0.9,0.6c-0.3,0.3-0.6,0.3-0.9,0.3c-0.6,0-0.9,0.3-1.1,0.3c-0.9,0.3-2,0.3-3.1,0.6s-2.3,0.3-3.1,0.3
		c-0.3,0-0.9,0-0.9,0l0,0c-2,0.6-4.3,0.3-5.7-0.6c-1.4-0.9-2.6-1.7-3.1-2.6c-0.6-0.6-1.7-1.1-3.1-1.7s-3.4-1.1-4.8-2.8
		c-0.9-0.9-1.1-0.9-2-1.4s-2.6-1.7-3.4-3.7c0,0.3-0.6-0.6-1.7-1.1s-2.3-0.9-2.8-1.1c-2.3-0.6-3.4-2-4.6-3.1s-2-2-2.3-2
		c-2.6-1.1-4.8-3.4-6.3-4.8c0.3,0.3-1.1-0.6-2.6-0.6c-1.7-0.3-3.1,0-4.8-0.6c-0.9-0.3-1.4,0-2.3,0.3s-2,1.1-3.7,1.7
		c-0.3,0-1.4,0.6-2.3,1.4s-2,1.4-3.4,2.3c-2,1.1-3.7,1.4-4.3,1.4c-0.3,0-0.3-0.3-0.9,0.9c-0.6,1.4-1.1,2.6-2.3,3.7
		c-1.1,1.1-2.6,2.3-4.6,2.6c-4,1.1-7.7-0.3-10-0.6c-3.4-0.6-6-2.6-7.7-4.6c-2-2-3.4-3.4-5.1-5.1c-2.3-2.3-4-4.8-4.8-6.8
		c0-0.3-0.6-0.9-1.7-1.7c-1.1-0.9-2-1.4-3.1-2.8c-1.1-1.7-3.7-3.1-5.7-5.7c-2-2.6-2.6-3.7-4-5.1c-2.3-2.3-3.4-3.4-5.1-5.1
		c-1.7-1.7-3.4-3.4-5.1-4.8c-2.3-1.7-3.7-3.4-5.1-5.7c0,0-0.3-0.3-0.6-0.6c-0.6-0.3-1.1-0.9-1.7-1.1s-1.4-0.9-2.3-1.4
		s-1.1-0.9-2-1.4c-2-2-3.1-2.3-5.7-4.8c-1.1-1.1-3.4-2.6-4.8-3.1c-2-1.1-4-2-6.3-3.1c-1.1-0.6-1.7-0.6-2-0.3s-0.9,0.6-1.4,1.1
		c-1.4,1.4-2.6,1.7-3.7,2l0.3,0.6l-0.3,0.3c-0.6,0.3-0.9,0.3-1.1,0.3c-0.6,0-0.9,0-1.4,0c-0.3,0-2,0.3-3.7,0.6
		c-1.7,0.3-4.3,0.6-6.3-1.4c-1.4-1.4-2.8-2.3-5.1-4.3c-0.6-0.6-0.9-1.1-1.1-1.7s-0.9-1.1-1.1-2c-0.3-0.9-0.6-1.1-0.9-1.7
		c0-0.3-0.3-0.3-0.3-0.3l0,0c-2.6-1.4-5.1-3.1-7.1-4.8c-1.1-0.9-2.3-1.7-3.4-2.8s-2.6-1.7-2.6-1.7c-0.6-0.3-2.6-0.6-4.6-1.1
		c-0.9-0.3-2-0.6-2.8-1.1s-1.7-0.9-2.6-1.7c-0.9-0.9-1.4-1.7-2.3-2.6c-0.9-0.9-1.1-1.1-1.4-1.1c-2.8-0.9-5.1-2-6.8-2.6
		c-3.7-0.9-5.1-2.6-7.4-3.1c-2.3-0.6-6-1.7-8.8-4.6c-2-2-3.1-4.3-4.3-6.3c-1.4-3.1-1.7-4.3-2.6-8c-0.3-1.1-0.6-2.3-0.9-3.7
		c-0.3-1.4-0.9-2.6-0.9-2.6c-0.9-0.9-3.1-1.4-5.4-3.7c-1.4-1.4-3.7-3.4-4.6-6.8c-0.3-1.7-0.3-3.1-0.6-4.6c0-0.6-0.3-0.9-0.3-0.9
		c-1.7,0-3.4-0.3-4.6-0.6C98,123.1,97.4,123.4,97.1,123.4L97.1,123.4z M406.3,796.1c0,0,0,0.3,0,0.6c0,2,0.6,2.8,0.3,1.4
		C406.3,797.2,406.3,796.6,406.3,796.1L406.3,796.1z M75.5,620.1c0-0.3-2,4-3.1,5.1c-1.7,1.7-1.7,3.1-1.7,5.7c0,1.4-2.6,2.6-2.6,5.1
		c0,1.7-2.8,2.6-3.7,3.4s3.1,2.8,3.7,3.1c1.4,0.3,2.8,1.4,4.8,1.7c2,0.6,2.3-4,2.3-5.4s4.6-0.9,5.7-0.9c2.6,0,0.3-3.1,0-4.8
		c-0.9-2.8,0.9-4-1.7-5.1c-2-0.9-1.7-3.4-1.7-5.7c0-0.9-1.1-1.4-1.7-2.3C75.2,620.1,75.5,620.1,75.5,620.1L75.5,620.1z M227.5,694.1
		c1.4,2.6-4.3,4.8-4.3,8c0,1.7-1.7,3.1-3.4,4c-1.4,0.9-2.6,2.8-3.7,4c-1.1,1.1-0.6,4.6-0.6,6.3c0,2.6-2.6,2.3-4.8,2.3
		c-2.8,0-3.4-0.3-4.8-1.7c-1.1-1.1-2.6-1.4-4-2.3c-1.4-0.6,3.1-2.3,2.6-3.7c-0.6-2-4-1.7-5.7-1.7c-2,0-3.1,0-5.7,0
		c-1.7,0-2-3.1-3.7-3.7c-2.3-0.6,1.1,4.3,1.4,4.3c0.9,1.7,2,2.3-0.9,3.1c-1.4,0.3,0.6,2-0.9,3.4c-1.1,1.1-4.8,1.7-6.3,2.3
		c-2,1.1,0,4.6-3.1,1.7c-1.7-1.7-4-3.7-5.1-4.8c-1.1-1.1-4.6-1.7-6.3-1.7c-3.4,0-3.7-1.4-6.5-1.4c-3.1,0-3.7,0.6-5.1,2.3
		c-1.1,1.1-2.6,2-4.6,3.1c-1.7,0.9-2.6,3.1-3.1,4.8c-0.6,2,0,4.6,0.6,6.3c0.6,2,0.9,3.4,0.9,5.7c0,1.1,2.3,3.7,3.1,4.3
		c1.4,1.4,2.8,1.7,4.3,2.6c1.7,0.9,3.4,0.9,5.7,0.9c2.3,0,3.4-0.9,5.4-1.7c2-1.1,4-0.9,6.5-0.9c2.6,0,3.4,0.9,5.1,0
		c2-1.1,0.3-2.6,4-2.6c2,0,2.3-2,5.1-0.6c1.4,0.9,3.4,1.7,5.1,2.3c0,0,0-4.6,0-5.7c0-1.7,3.7-0.3,5.4,0.6c1.1,0.6,2.3,3.7,3.1,4.3
		c2.6,2.6,2.6-2.8,2.6-4c0-2.8,0-4,1.4-5.4c1.1-1.1,4.6,2.6,4.8,2.6c1.1,1.1,1.4,3.4,2.6,4.8c1.7,1.7,2.3,2.6,2.3,5.1
		c0,2,1.7,3.4,4,4c1.7,0.6,3.1,1.4,4.6,2.3s3.7,1.1,4.8,1.7c1.1,0.6,2.6-3.7,2.6-4c0.9-2,0.6-3.4,2.6-4c2-0.6-2-3.4-3.4-4.8
		c-1.1-1.1-3.1-2-4.6-2.6c-2.3-1.1-1.4-2.3-4.3-3.1c-3.4-0.9-2.8,0-0.6-1.7c1.4-0.9,4.3-1.7,5.1-2.3c1.1-0.6,3.1-1.4,4.8-2.3
		c0.9-0.3-0.3-6-0.6-6.3c-0.3-1.7-0.6-4-0.6-6.3c0-2.6,1.4-2.6,2.3-4.3c0.9-2,0.9-3.7,0.9-6.3c0-2.8-0.3-3.7-1.7-4.8
		C232.6,696.1,228.9,694.4,227.5,694.1z M142.4,779c-0.9,0,0,4.6-0.6,6.5c-0.3,0.9-3.4,2.3-4,2.6c-1.7,0.9-3.7,0.9-5.4,1.4
		c-1.7,0.6-1.4,3.4-1.1,4.3c0.6,1.7,3.4,2.3,5.1,2.6c1.7,0.3,1.4,2.3,4,3.1c2.8,0.6,4.3,0,4.8-2.3c0.6-1.7,0.9-4.3,1.4-5.7
		c0.6-2.6-1.7-3.4-2.6-4.6c-1.7-1.7-1.4-3.4-0.9-5.1c0.3-0.9-0.3-1.7-0.6-2.6C142.7,779,142.7,779,142.4,779L142.4,779z
		 M348.8,861.2c0.6,1.1-3.1-0.3-3.7,0.9c-0.3,1.7,0.6,3.7,0.6,4.8c-0.3,1.7-3.1,0.6-3.1,4c0,2.6,0.9,3.4,2.3,4.8
		c1.1,1.1,2.6,4,3.7,4.8c1.4,1.4,1.7,2.8,3.1,4c1.4,1.4,2.8,2.3,4.8,2.3c2.6,0,3.1-1.1,3.7-3.1c0.6-2.3,0.3-3.7-0.6-6.3
		c-0.6-2.3-1.7-2.8-2.3-4.8c-0.6-2-2-3.4-2.6-5.7c-0.6-1.7-2.3-2.8-3.7-3.7C349.9,863,349.6,861.8,348.8,861.2z M201.3,870.9
		c-1.4,0-3.1,0.9-3.7,2.3c-1.4,2.6,0,3.1-2.6,4.3c-1.7,0.9-1.7,2-1.7,4.8c0,2,2.8,3.4,4,3.7c1.7,0.3,2.6,1.4,5.1,1.4
		c1.7,0,2.6-2.3,3.7-3.1c1.7-1.7,2-2.3,2.6-4.8c0.6-2.3-1.1-4-2.6-5.1c-1.4-1.4-0.9-0.9-3.1-2.6
		C202.4,871.2,201.9,870.9,201.3,870.9z"/>
	<path id="marche_1_" class="st0" d="M835.6,305.3c0,0.6-0.3,1.1-0.3,2.3H835c-0.3,0.9-0.3,1.7-0.6,2.8c-0.3,0.6-0.3,1.1-0.6,1.7
		s0,0.9-1.1,2c-0.9,0.9-2,2.6-3.7,4c-0.6,0.6-1.1,0.9-1.4,1.4c-0.3,0.3-0.3,0.6-0.3,0.6c0,1.7,0.6,2.8,0.9,3.1
		c0.6,0.6,3.1,2.3,3.7,5.1c0,0.3,0.3,0.9,0.9,2s0.9,2.3,0.9,4c0,3.1-0.9,6.5-4.3,8.3c-0.3,0.3-0.9,0.6-2,1.1s-2.6,1.1-4.3,1.1
		c-2.6,0-5.4,0-6.8,0.3c-1.1,0.3-2.3,0.3-3.4,0.6c-0.9,0-1.4,0.6-1.4,0.3c-1.4,1.4-3.1,2.3-5.4,3.4c-2,0.9-1.7,0.9-2.8,2.6
		c-0.9,1.4-2,2-2.8,2.6s-1.4,0.9-1.7,1.1c0.3-0.3,0,0-0.6,0.6c-0.3,0.3-0.9,0.9-1.4,1.4c-0.6,0.6-1.4,1.1-2.3,1.4s-2.3,0.3-3.7-0.3
		c-0.9-0.3-2-0.9-2.8-2c-0.9-1.1-1.7-2.8-1.7-4.6c0-1.4,0-2.3,0-2.6c0,0,0,0-0.3,0s-1.7-0.6-3.1-1.1s-2.8-0.6-4.3-2.3
		c-1.1-1.1-1.4-2.6-1.7-3.4c0-0.3,0-0.3,0-0.3c-0.3,0.3,0.6-1.4,0-1.1c-2,1.1-5.1,2.8-7.7,2.8c-1.4,0-2.8,0.3-4.6-1.4
		c-0.9-0.9-1.4-2-1.4-2.8s0-2,0.3-2.8c0.6-2.6,1.4-4.3,2.3-6.3c1.1-2.3,2.3-3.1,3.4-4.3c2-2.6,3.7-4,4-4.8c0-0.3,0-0.3,0-0.3
		c0-0.3-0.6-0.9-1.1-2c-0.3-0.9-0.3-0.9-0.6-0.9c0,0-0.9-0.3-2.3-0.9c-0.3-0.3-1.4-0.6-2.3-0.9c-0.3,0.9-0.6,1.4-1.1,2
		c-1.7,1.4-0.9,3.1-2.6,4.8c-1.1,1.1-2.6,1.7-3.4,3.1c-0.9,1.1-1.7,3.1-3.1,4c-1.7,0.9-2,0.6-4.3-0.6c-1.7-0.9-2.3-1.7-4.8-1.7
		s-3.7,0-5.1-1.4s-2-1.7-1.4-4.3c0.3-1.4,0-4.3,0.6-6.3c0.3-0.9,0-2.3-0.3-3.7c-1.7,0.3-3.4,0.6-5.4,0.6c-2.3,0,12.5,25.6,9.7,25.6
		s-11.1,5.4-12.8,5.4c-2.8,0-3.7,3.1-6.8,2.3c-0.9-0.3-2.8,10.5-4.3,8.8c-0.6-0.6-15.1,5.7-14.5,6c0.3,0,12.5-3.4,13.4-2.8
		c1.4,0.6-18.8,10.8-19.1,11.7s-0.9,2.3-2.3,2.8c-0.6,0.3-1.4,1.1-1.4,1.4c0,0,0,0.3,0,0.6c0,0.6,0.3,1.1,0.6,1.4
		c0.6-0.3,0.9-0.6,1.4-0.9c1.1-0.3,2.3-0.3,3.7-0.3c2.6,0,3.7,0,5.4-0.3c2-0.6,5.1-2,8.5-0.3c1.7,0.9,3.4,1.4,5.1,3.1
		c1.4,1.4,4.3,3.7,5.7,6.8c0.3,0.6,1.7,1.4,3.1,4c0.6,0.9,0.9,1.7,0.9,2.6s0,2.3-0.6,2.8c-0.9,1.4-1.4,1.4-1.7,2.3
		c-0.3,0.3-0.3,0.9-0.3,1.7c0,0.9-0.3,2.3-0.6,3.7c0,0.3-0.3,2-0.9,3.7c-0.3,0.9-0.6,1.7-1.1,2.6c-0.3,0.3-0.3,0.9-0.9,1.1
		s-0.9,1.4-2.6,1.4c-1.1,0-2.6-0.3-4-0.9c-0.9-0.3-1.4-0.6-2.3-1.1s-2-1.7-2-3.4c0-2.6,0-3.4-0.6-4.3c-1.1-2-2.3-4.3-2.6-4.8
		c-0.3-0.3-0.6-0.6-0.9-0.9c0,0.3,0,0-0.3,0.3c-0.3,0.9-0.9,2-1.7,3.1c-0.6,0.9-2,3.7-5.1,5.1c-1.1,0.6-2.6,1.7-4.3,2.6
		c-2.6,1.1-4.3,1.1-5.7,1.7c-0.9,0.6-1.7,1.7-4,2.6c-0.6,0.3-0.9,0.6-1.1,0.9c-0.3,0.3-1.4,1.4-2.6,2.3c-1.1,0.6-1.7,0.6-2.3,0.9
		c0,1.7,0,3.1,0.3,4.6c0.6,1.7,0.9,4.3,0.9,6.8c0,1.7-0.6,2.8-0.9,3.7c0.6,0.3,1.4,0.3,1.7,0.3c0.9,0.3,0.9,0.3,1.7,0.3
		c1.4,0,2.6,0,4,0.3s2.8,1.1,3.7,2.3c1.4,1.4,0.6,1.1,3.1,2c1.7,0.6,2.8,0.9,5.1,0.9c2,0,3.1-0.3,5.4-0.9c1.1-0.3,2.6-1.1,4.3-2
		c1.1-0.6,2-0.9,2.8-1.1s1.4-0.6,1.1-0.6c0.3-0.3,0.6-0.6,1.1-0.9c0.6-0.3,1.1-0.9,1.7-1.1s1.4-0.6,2.3-0.9c0.9-0.3,2.3-0.3,3.4,0.9
		c1.7,1.1,3.4,3.1,4,6.3c0.3,0.9,1.7,3.7,0.9,7.4c-0.3,1.4,0,3.7-1.7,6.3c-1.7,2.6-3.7,3.7-5.7,5.7c-1.1,1.1-3.1,2.6-5.1,3.7
		c0.9,0.9,1.4,1.7,1.7,2c0.3,0.3,0.3,0.3,0.9,0.9c1.1,0.6,2,1.1,2.8,1.7c0.9,0.6,1.7,0.9,2,0.9c2,0,3.1,0.9,3.7,0.9s0.6,0.3,0.6,0.3
		c-0.3,0,0.3,0,0.9-0.3s1.1-0.6,1.7-0.9c0.6-0.3,1.4-0.6,2.3-0.6s2.3,0,3.7,1.1c1.1,1.1,1.7,2.3,2.3,3.1c0.9-0.3,1.7-0.9,2.6-0.9
		c1.1,0,1.4,0,2.3-0.3c0.9-0.3,2-0.6,3.7-0.6c0.9,0,2-0.3,3.7,0c0.9,0,1.7,0.6,2.6,1.1s1.1,1.7,1.4,2.6c0,0.6,0,0.3,0.6,0.6
		c0.6,0.3,1.7,1.1,2.6,2.3c1.1,1.7,2.8,3.1,4.3,5.7c0,0,0.6,0.6,1.1,1.1c0.6,0.6,2,1.7,2.8,3.1c0.6,1.4,2,3.1,3.4,4.6
		c1.1,1.1,1.7,2.8,2,4c0.3,1.1,0.3,2,0.6,2.8c0,0.6,0,0.6,0.3,0.9c0.3,0.3,0.9,0.6,1.7,0.9c0.9,0.3,1.4,0.9,2.3,1.1
		c0.3,0.3,0.9,0.3,1.1,0.6h0.3c1.1,0,2.3,0.3,2.8,0.3c0.9,0,1.1,0,2.3-0.3c0.9-0.3,0.9-0.3,0.9-0.6c0.3-0.3,0.9-0.9,1.7-2
		c0.9-0.9,2-2.3,2.6-3.1c0.3-0.9,0.9-2,2.3-3.1s3.4-1.1,5.4-0.9c0,0,1.1,0.3,2.3,0.3s2.6,0.3,4.3,1.7c1.1,1.1,1.1,1.4,2.8,1.4
		c0.9,0,1.4,0,1.4,0c0-0.3,0.3-0.3,0.3-0.6c0.6-1.1,0.9-1.1,1.4-1.7s0.9-0.9,1.4-1.1c0.6-0.3,0.9-0.6,1.1-0.9l0,0
		c0.3-0.3,0.3-0.6,0.6-1.1c0.6-0.9,1.1-1.7,2.3-2.3c1.1-0.6,1.7-1.7,3.7-1.7c0.9,0,2.3,0.6,2.8,1.4c0,0,0,0.3,0.3,0.6l0,0l0.6,0.6
		l0.3,0.3c0,0,0.3,0.3,0.3,0.6c0.3,0.6,0.3,0.6,0.3,0.6c0,0.3,0,0.6,0.3,0.9c0.6,1.7,1.1,2.3,2,4.3c0,0.3,0.6,0.9,1.1,1.7
		s1.4,2.3,1.4,4c0,2.3,0,4.3,0.3,6s0.9,4,0.9,6.5c0,2.8-0.3,4.8-0.9,6.8c-0.3,1.1-0.3,1.4-0.3,1.7c0,0,0,0,0.6,0.6
		c1.1,1.1,2.8,2.3,4,4.8c0.6,1.1,0.6,1.1,0.9,1.1c0,0,0.9,0.3,2,0.9s3.7,1.4,5.1,4.3c1.1,2,1.4,3.7,2,6.3c0,0.6,0.6,1.1,1.1,2.3
		s1.1,3.1,0.6,5.1c-0.6,2.6-0.6,1.7,0,4c0.3,0.9,0.3,0.9,0.6,1.4c0.3,0.6,0.9,1.1,1.4,2.3c0,0,0.6,0.6,1.1,1.1
		c0.9,0.9,1.7,1.4,2.3,3.4c0.3,1.7,0.3,2.6,0.3,3.7c0,0.6,0,0.9,0.3,1.1l0,0c0.6,0.6,1.1,1.1,1.7,2.3c0.6,1.1,0.6,2.3,0.6,3.7
		c0,2.6,0,3.4,0.6,4.6c0.6,1.4,1.4,2.6,2.3,4.3c0.3,0.9,1.1,2,1.7,3.1c0.3,0.6,0.6,0.9,0.9,1.7c0,0.3,0.3,0.9,0.3,1.1
		c0,0.6,0,1.4-0.6,2.3l-0.9-0.6c0,1.7,0,3.1-0.6,4.8c-0.9,2.8-1.4,4.3-2.3,6.3c-0.6,1.4-1.1,2-1.4,2.6c-0.3,0.6-0.3,0.6-0.3,1.4
		c0,1.1,0,2.3,0,2.8s0,0.9,0.3,1.1c1.1,1.4,2.6,3.7,3.4,6c1.1,3.1,1.1,4.6,2,7.4c0.6,2,0.6,4,0.9,5.7c0.6,2.3,0.9,2.8,2,4
		c0,0,0.9,0.9,2,1.7c0.6,0.3,0.9,0.9,1.4,1.4s1.1,1.1,1.4,2.3c0.3,1.4,1.4,3.7,2,5.1c0.6,1.1,1.7,3.4,2.3,6c0.6,2.3,0.6,4.6,0.6,6.8
		c0,2.3,0.3,4.6,0.6,5.4c1.4,2.6,1.4,4.6,2.3,6.3c1.4,2.8,1.1,5.4,1.4,7.1c0.3,1.1,1.4,3.4,1.4,3.7c1.4,1.4,1.4,1.7,2.3,1.7
		c0.6,0,2-0.3,3.4-0.3s3.7,0.3,5.1,2.3c1.1,1.7,2.6,4,3.1,6.8c0.3,1.1,0.3,2.3,0.6,3.4c0.3,0.9,0.6,1.4,0.6,1.4s0.3,0,0.6,0.3
		c0.6-0.9,1.1-2,1.7-2.6c0.9-0.6,1.1-0.6,1.7-1.1c0.3-0.3,0.3-0.6,0.9-1.4s1.1-2.3,2.3-3.4c1.4-1.4,2.3-2.3,3.1-3.7
		c0.6-1.4,2-2.6,3.7-3.1s2.8,0,4.6,0.3c2.8,0.9,4.6,1.7,6.8,2.8c1.7,0.9,5.4,2.3,8,5.7c0.6,0.6,1.1,1.4,2,2.3s1.7,1.7,1.4,1.4
		c2.3,1.1,4.8,3.1,6.3,5.7c0.3,0.6,0.9,1.1,1.1,1.7c0.3,0.6,0.6,0.3,0.3,0.3c1.7,0,2.8,0.3,3.7,0.6c0.9,0.3,1.4,0.3,2.3,0.3
		c1.4,0,3.1-0.9,5.7-0.9c1.1,0,1.7,0,2-0.3c0.3-0.3,0.3-0.3,0.9-0.9c1.4-1.4,3.4-1.4,4.6-1.1c1.1,0.3,2,0.6,2.8,0.9
		c0.9,0.3,1.4,0.6,1.4,0.6s-0.3,0-0.9,0.3s-0.9,0.9-0.9,1.1l5.4,1.4c-0.3,0.9-0.9,1.7-1.4,2.3l1.4,0.3c-0.3,1.1,0.3,3.7,0.6,4.8
		c0.9,2.8,0,5.7,0,7.4c0,3.7-2.6,6-3.4,6.8c-1.7,1.7-3.4,3.4-4.6,4.6c-1.4,1.4-2,2.8-4,4.8s-3.4,3.4-4.8,4.8s-1.4,1.7-2,3.7
		c-0.3,0.6-0.3,1.7-0.6,3.1c0,0.6,0,1.1-0.3,1.7c1.4,0.3,2.6,0.3,4,0.3c3.7,0,6.8,0.6,8.8,0.6c3.4,0,6,0.6,9.4,1.4
		c1.1,0.3,2.6,0.6,4.3,1.7s2.8,3.1,2.8,5.4c0,1.1,0,2.6,0.3,4c0,0.6,0.3,1.1,0.3,1.1c1.7,0.6,3.1,1.4,3.7,2.3
		c0.9,1.1,0.9,1.4,1.7,2.3c0,0,0.6,0.3,1.1,0.6s1.7,0.6,2.8,0.9c0.6,0.3,1.1,0.3,1.7,0.6c1.4-0.6,2.8-1.1,3.7-1.7c1.7-1.4,4-2,6-2.8
		c0.9-0.3,2-0.9,2.6-1.1s1.1-0.9,0.9-0.6c1.7-2.6,4-3.7,4.8-5.1c1.4-2.6,4-5.4,8-6.5c0.3,0,2-0.6,3.1-1.4c0.3-0.3,0.6-0.3,0.9-0.6
		c-0.3-0.9-0.6-1.7-0.9-3.4c-0.3-1.1-0.3-2.3-0.3-3.4s-0.3-2.3,1.1-3.7c1.7-1.7,2.3-3.7,3.7-6.5c0.9-1.7,2-4.6,4.3-6.8
		c2-2,2.8-2.8,5.1-5.1c1.1-1.1,2.8-2.3,4.3-2.6c1.4-0.3,3.1-0.3,5.1-0.3c3.1,0,6.3,0,9.4,0c2.8,0,6.5,0,10,1.7
		c2.6,1.1,4.3,2.8,6.3,3.7c1.1,0.6,2.6,1.4,4,2.3c0.6,0.3,0.9,0.6,1.4,0.6c0.6-1.1,1.4-3.1,4-5.1c2.8-2.3,5.1-3.1,7.1-5.4
		c2-2,2.6-3.4,5.4-6.3c1.7-1.7,3.7-4,6.8-5.4c0.6-0.3,2-0.9,3.4-1.7c1.4-0.9,2.6-1.4,4-1.7c1.4-0.3,1.1-0.3,1.4-0.9
		c0.6-0.6,1.4-2.3,3.4-3.1c1.7-0.9,3.7-2.3,4.8-3.1c1.1-1.1,2.8-2.3,4.6-2.6s3.4,0,5.7,0.6c2,0.6,7.7,0.6,8.5,0.6l0,0
		c0-1.7-0.3-4.6-0.9-6.5c-0.6-2.3-1.7-3.4-2.6-5.1c-1.4-2.8-3.1-5.4-3.1-8.8c0-2.3-1.7-4.6-2.3-6.5c-0.6-2-1.7-3.7-2.3-6.3
		c-0.6-2.8-1.4-4.6-2.6-7.1c-1.1-2.3-1.1-4-1.7-6.3c-0.6-2-0.6-4.6-0.9-6.5c-0.6-2.3,0-4.8-0.6-7.1c-0.6-2.8,0-6.3,0-9.1
		c0-2.8-0.9-3.7-1.7-5.7c-1.1-2-2.3-2-3.1-4.6c-0.3-1.1-3.1-4.3-3.7-4.8c-1.1-1.1-2.3-4.8-3.1-6.5c-1.4-2.6-1.7-4.3-2.3-6.5
		c-0.6-2.6-0.3-3.7-1.7-5.1c-1.7-1.7-1.7-3.7-2.3-5.7s0-4.6,0-6.5c0-2.6-0.3-4.3-0.9-5.7c-0.9-2-2-3.1-4-4.8
		c-0.9-0.6-2.3-4.6-2.6-5.4c-0.6-2.6-2.3-4.3-3.1-6.3c-1.1-2-2-4-2.6-6.5c-0.6-2.3-2.8-5.4-4-8c-0.9-2-1.7-4-1.7-6.3
		c0-0.9,0-1.4,0-2.3c0-1.7-2-4.3-2.6-5.1c-0.9-1.7-0.9-3.7-1.4-5.1c-0.6-2.3-1.1-4-2.3-5.7c-1.1-2-1.7-3.7-2.6-5.1
		c-1.1-2-1.7-4-2.3-5.7c-0.3-1.7-2.6-3.4-3.1-5.1c-0.3-1.1-2.8-3.4-3.7-4.8c-0.6-1.1,0.9-3.7,0.9-5.7c0-2.6-0.9-3.7-1.7-5.4
		c-1.1-2.3-1.7-3.1-1.7-6.3c0-2.6,0-4.8,0-7.4c0-2.3,0-4.3,0-6.5c0-3.1-0.6-3.1-2.3-4.8c-1.7-1.7-2.6-2.6-4.3-3.1
		c-2.3-0.6-4.8-1.4-6.5-1.7c-1.7-0.6-3.1-4-3.7-6.3c-0.6-1.7-3.1-3.4-4.3-4.3c-2.3-1.7-4-2.8-5.1-4c-1.4-1.4-2-4-3.4-5.1
		c-2-2-3.4-1.4-4.8,0s0,4.6,0.6,5.1c0.6,1.4-5.1,0.9-6.3,0.9c-2.8,0-4.8-0.3-7.4-0.9c-2.6-0.6-4-1.4-5.1-2.6
		c-1.4-1.4-2.6-2.3-4.3-2.6c-2.6-0.6-3.7-2.3-5.1-3.1c-2.3-1.1-3.1-1.7-4.6-3.1c-0.9-0.9-5.1-1.7-6.3-2.6c-4-2.8-8.8-4-12.2-6.5
		c-1.7-1.1-2.3-2.8-4-3.7c-1.4-0.9-2.8-3.7-4-4.8c-1.7-1.7-3.1-2.8-4.3-4c-0.3-0.3-0.6-0.3-0.9-0.6c-1.4-0.6-3.1-2.6-4.8-3.7
		c-1.4-0.6-2.6-2.6-4-4c-1.7-1.7-2.8-2.6-4.6-4c-1.4-1.4-2.6-2.6-4-4s-3.1-2.6-4.3-3.1c-2.3-1.1-2.3-2-4-4c-1.1-1.1-2.8-2.6-4-3.1
		c-1.7-0.9-3.1-2.6-4.3-3.7c-1.4-1.1-2.3-2.3-3.1-4c-0.6-1.4-2-2.6-3.1-3.7c-1.4-1.4-2.8-2-4-3.1c-2-2-2.6-2.8-4.8-4
		c-1.7-0.9-2.8-1.7-4.3-2.6c-1.4-0.6-2.8-2.8-3.7-3.7c-1.4-1.4-3.1-2-4.3-3.1c-1.1-0.9-2.6-2.8-3.7-4c-1.4-1.4-2.8-1.4-4-2.6
		c-1.1-1.1-2.8-1.4-4.3-2.3c-1.1-0.6-2.8-3.1-3.7-4c-0.9-1.1-2.8-1.7-4.3-2.3c-0.6,0-2-3.7-2.3-4.8c-0.6-1.7-2-3.1-3.4-4
		c-2-1.1-3.1-1.7-5.1-2.3c-1.7-0.3-3.1-1.7-4.6-2.3c-1.7-0.9-3.4-1.1-4.8-2.6c-0.6-0.6-4.6-1.4-5.7-1.7c-2.6-0.6-2.8-1.7-5.1-2.3
		c-2-0.6-2.6-1.7-5.1-1.7C838.1,306.7,836.7,305.8,835.6,305.3z"/>
	<path id="lazio_1_" class="st0" d="M599,708.1c-1.1,0-3.1,0.3-4.8,0.3c-1.1,0-1.4,0.3-2,0.6s-1.1,1.1-2.3,2.3c0,0-0.6,1.1-0.9,2.3
		c-0.3,1.4-0.3,2.8-1.1,4.6c-0.6,0.9-0.9,1.7-1.4,2.3s-1.1,1.4-2.3,2s-2.3,0-2.8-0.3s-1.4-0.6-2.3-0.9c-1.7-0.9-2.8-2.3-3.4-3.1
		s-1.1-1.4-2.3-2c-0.9-0.3-0.9-0.3-1.4-0.3s-1.4,0.9-2.8,1.4c-0.9,0.3-1.1,0.9-1.7,1.4c-0.6,0.6-1.1,1.7-2.3,2.8
		c-1.1,1.1-2.3,2.8-3.7,4.3v0.3c0,0.6,0,1.4,0,2.6c0,1.7,0.3,2.8,0.3,4.3c0.3,0.3,0.6,0.6,1.1,0.9c0.6,0.3,1.1,0.9,1.7,1.1
		c0.6,0.3,0.9,0.6,1.4,1.1c1.4,1.4,3.4,2,6,3.1c3.1,1.4,4.3,3.4,5.7,4.8c0.6,0.6,1.1,1.7,1.1,2.6c0,0.9-0.3,1.7-0.6,2.3
		c-0.6,1.1-1.4,1.7-2.3,2.3c-1.4,1.1-2.8,2-3.4,2.3c-2.3,1.1-4,1.4-5.7,2c0.6,0.9,1.4,1.7,1.4,1.7c1.4,1.4,1.7,2.8,2.3,3.7
		s0.9,2,1.4,2.3c2.8,2.8,2.8,6.3,2.8,9.4c0,1.4-0.6,2.3-1.1,3.1s-1.1,1.1-1.7,1.7c-1.1,1.1-2.6,2.3-2.3,2.3c-1.4,1.4-2.8,2-4.3,2.3
		c-1.4,0.3-2.8,0.9-3.7,0.9c-1.7,0.6-3.1,2-6.3,3.4c-2,1.1-2.8,2.3-5.7,3.7c-1.7,0.9-4,3.1-5.4,4.6c-1.7,1.7-2.6,3.1-4.3,4.8
		c-2.6,2.6-6,3.4-8.8,2.6c-2.8-0.6-4.8-1.1-7.7-1.1c0,0-0.3,0.3-0.3,0.6c-0.3,0.6-0.3,1.4-0.3,1.4l0,0c0,0-0.3,1.4-0.3,2.8
		s0,3.7,0,3.4c0.6,2.3,0.6,3.7,0.6,4c0,0.3,0-0.3,0.9,0.6c0.3,0,1.1,0.6,2.3,0.9c1.4,0.3,2.8,0.6,4,0.9c1.4,0.3,2.6,1.4,3.1,2.3
		s0.9,2,0.9,2.8c0.3,1.7,0.6,3.4,0.6,3.7v0.6v0.6l-0.6,8.8v0.3v0.3c0,0-0.6,3.1-1.1,5.7c-0.6,1.7-1.1,3.4-2.3,4.6
		c-1.1,1.1-2.3,1.4-3.7,2.3c-2.3,1.1-4,0.9-6,0.9s-3.7-0.3-4.6-0.3c-3.7,0-6.3-0.9-8.8-1.4c-2.8-0.9-5.1-1.1-8-1.7c0,0,0,0,0,0.3
		c-0.6,0.9-0.9,2.3-2.3,3.7c-0.3,0.3-0.6,0.6-0.6,1.7c0,1.1,0,2.6,0,4.3c0,3.7-1.1,8-1.7,10.5l-0.9-0.3c0.3,0.3,0.6,0.3,0.9,0.6
		c2,0.9,3.7,2,6.3,2.6c2.6,0.6,4.3,2,6.5,2.6c2,0.6,4,2.6,5.7,3.7c2.6,1.1,3.4,2,5.7,3.1c2,1.1,2.3,2.3,4.8,3.7
		c2.6,1.4,4,1.7,5.7,3.4c2,2,3.4,3.4,5.1,5.1c1.4,1.4,2.8,2.8,4,4c1.7,1.7,3.1,2.8,4.3,3.4c1.7,0.9,3.7,3.7,5.1,5.1
		c1.1,1.1,2.6,3.7,3.1,4.8c1.1,2.3,1.4,3.4,3.1,4.8c1.4,1.4,3.1,5.1,3.1,5.1c1.4,1.4,2,2,3.4,3.4s1.7,2.6,1.7,4.8
		c0,1.7,0.9,3.7,1.4,5.1c0.3,1.7,2.8,2.3,3.4,3.4c0.9,2,0.9,3.7,0.9,6.3c0,2.3,1.1,3.1,1.7,5.1c0.3,1.1,2.6,4.6,3.4,5.4
		c1.1,1.1,2,2.6,2.6,4c1.1,2,2,3.7,3.1,5.7c0.6,0.9,0.9,1.7,1.4,2.6c1.1,0.9,2.8,2.6,3.4,3.7c0.9,1.7,1.7,3.7,2.6,4.8
		c1.1,1.1,0.9,4.3,0.9,6.3c0,2.3,1.7,3.4,2.6,4.6c1.7,1.7,1.7,2.8,3.1,4c1.7,1.7,3.7,0.6,4.8,0c1.7-0.9,3.1-1.7,4.8-2.3
		c2.8-0.6,3.1-1.1,6.3-1.1c1.4,0,4,0.9,5.1,2.3c1.4,1.4,4.8,1.4,6.3,2.6c1.1,1.1,4.6,2.3,6.3,3.1c1.4,0.9,1.7,3.1,3.4,4.6
		c2,1.7,3.4,3.1,4.8,4.3c1.7,1.1,2.8,2,4.8,3.1c2.3,1.1,2.6,0.6,4,3.1c1.1,2,1.7,3.4,3.1,4.3c1.4,1.1,2.3,3.4,3.4,4.6
		c1.7,1.1,2.6,2.6,4.6,3.1c2.8,0.9,4.8,2.8,8,3.7c2,0.6,3.4,1.7,5.1,2.3c0.6,0,3.1,4,3.7,4.6c1.4,1.4,3.1,3.7,3.4,4
		c0.3,0.3,1.1,5.1,1.4,5.1c0.9,1.7,3.1,1.7,3.7,4c0.3,0.9,1.4,3.7,2.3,4.8c0.9,2,2.3,3.7,3.1,5.1c1.1,2,1.4,4,2.6,6.3
		c0.9,1.7,0.6,4.3,0.9,6.3c0.6,2,1.7,4.3,2.6,6.3c0.9,1.7,1.4,4.3,1.7,5.7c0.6,2.6,0,2.8-0.6,5.1c-0.3,1.7,1.4,2.6-0.6,4.6
		c-2.3,2.3,4.6,1.1,5.1,1.1c2.3,0,6,3.1,8,4c2,0.9,3.7,1.4,6.3,2.6c2.6,1.4,4.3,1.7,7.1,3.1c2,1.1,4.8,2,6.3,3.4
		c0.6,0.6,0.6,0.9,0.9,0.9c0.6,0.6,1.1,0.9,1.7,1.4c2,1.4,3.1,2,4.8,3.7c1.4,1.4,2.6,2.6,4,4c1.7,1.7,2.6,3.4,4,4.8
		c1.4,1.4,2.8,3.4,4.8,4.8c1.1,0.9,2.6,3.4,3.7,4.6c1.4,1.4,2.8,3.7,4.3,5.1c0.9,0.9,2.6,3.1,3.7,4.3c1.4,1.7,2.8,2.8,4,4
		c1.4,1.4,2.3,2,3.1,3.4c0.9,1.7,3.4,3.4,4.3,4.3c1.4,1.4,2.3,3.4,3.4,4.8c1.4,2,3.1,4,4.6,5.7c1.4,2,2.6,3.4,4,4.8
		c0.9,0.9,2.3,3.4,2.6,4.3c1.1,2,2.6,4,4,5.1c1.4,1.4,2.6,4.3,3.4,5.7c0.9,1.7,1.1,3.1,1.7,5.1c0.6,2.3,1.4,4,1.7,5.7
		c0.6,2.3,1.4,2.6,3.1,3.4s3.7-1.7,4.6-2.3c1.4-0.9,2.8-2.3,4-3.7c1.7-1.7,1.7-2,4.3-1.4c0.9,0.3,3.7,2.8,4.8,3.7
		c2,1.7,3.4,1.4,5.1,3.4c1.7,1.7,3.7,3.1,6.3,4.8c2,1.4,3.1,1.1,4.3,3.7c0.6,1.4,3.1,1.7,4,3.4c1.1,2.3,4.3-1.7,4.3-2.3
		c0.6-2.6,0-4,2.3-4.6c1.7-0.6,3.7,1.4,5.7,1.7c2.3,0.6,4,0,5.7,0.9c2.3,1.1,4,1.1,6.3,1.7c3.7,0.9,3.7,1.4,4,2.3
		c0.6,1.4,2.3,1.7,4.3,2.3c1.7,0.3,3.1,1.7,4,2.6c1.4,1.4,3.1,1.7,4.8,3.4c1.4,1.4,2.3,2,4,3.7c1.7,1.7,2.6,2.6,4,4
		c1.4,1.4,2.3,2.6,3.4,4.3c1.1,1.7,2.3,2.8,3.7,4.6c1.1,1.4,2,2.6,2.6,4c0.9,2,2.3,3.1,3.1,4.8c0.9,1.7,2,1.7,2.6,4.3
		c0.6,1.7,1.1,4.3,1.7,5.4c0.9,1.7,1.4,3.7,1.4,5.7c0,1.7,1.7,4,2.3,4.8c0.9,1.7,1.1,3.1,2.3,4.8c0.9,1.7,2,2.6,3.1,3.7
		c1.4,1.4,3.4,1.4,4.8,2.3c2,1.1,4.6-0.9,5.7-1.1c1.7-0.9,2.3-3.4,3.7-4.6c1.1-1.1,2-2.3,3.4-4c2-2,2.3-3.1,4-4.8
		c1.7-1.7,1.4-2.8,4-3.7c1.4-0.3,4.3-2,5.7-3.1c1.7-1.1,3.7-1.7,5.1-2.6c2-1.1,5.1-0.6,7.4-0.6c2.8,0,6.3,0.3,8.8,0.9
		c2,0.6,5.4-1.1,6.5-1.4c2.3-0.6,3.1-1.4,5.7-1.4c2.8,0,4.8,0.6,7.4,1.4c2,0.6,4.3,0.9,6.3,1.4c2.6,0.6,5.4,2,7.4,3.1
		c2,1.1,4.6,2,6.5,3.1c0.6,0.3,0.9,0.6,1.4,0.9c0.6,0.3,1.1,0.6,1.7,0.9c1.4,0.6,3.1,2.3,4,3.1c1.1,1.1,4,1.1,5.1,2.3
		c1.1,0.9,2.6,3.1,4,4.3c0.9,0.6,1.7,3.7,2.3,4.6c1.1,2.3,1.7,3.1,4.6,3.1c1.1,0,1.1-4.6,1.4-5.1c0.6-2.3,5.7,0,6.8,0.6
		c1.7,0.6,2,4,2.3,5.1c0.6,1.7,3.4,1.4,5.1,1.4c2,0,5.1-1.4,6.5-1.7c3.1-0.9-0.6-3.1-1.7-4c-2.8-1.4-4-1.7-4-4.8
		c0-2,1.7-3.4,2.6-4.3c1.1-1.1,5.7-1.4,7.1-1.4c2.8,0,3.1-1.4,5.7-2.3c2.8-0.6,6.8,0.3,9.1,0.9c2.3,0.6,4.8,1.7,7.1,2.3
		c2.3,0.6,4.8,1.1,7.4,2.3c1.7,0.9,4.3,2,5.7,3.1c0.3,0.3,0.6,0.6,0.9,0.9l0.9-0.9c-0.6-0.6-0.9-0.6-0.9-0.6c0.3,0,0.3,0,0.9,0
		c1.1-0.3,2.6-0.6,4-0.9c3.1-0.9,6-2,7.4-2.3c3.4-0.9,5.7-1.1,7.4-2.3c0.3-0.3,0.3-0.3,0.9-1.1c0.6-0.9,1.4-2.8,3.4-3.7
		c-0.3,0,0.6-0.6,1.7-2c1.1-1.4,2-2.8,4-3.7s2.8-2.3,4.6-4c0,0,0-0.3,0.3-0.6c0-0.6,0.3-1.4,0.3-2.3s0.3-1.7,0.3-2.6
		c0-0.6,0.3-0.9,0.6-1.4v-0.3c0-0.6-0.3-1.4-0.6-2.3c-0.6-1.7-0.9-3.1-1.1-4c-0.3-1.4-0.9-2.6-1.1-4c-0.3-1.4-0.6-3.1,0-5.1
		c0.9-3.4,1.4-4.3,0.6-7.4c-0.9-3.1-0.9-6.5-1.1-8.5c-0.3-0.9-0.6-1.4-0.6-2.3s0-2,0.9-3.1c0.9-0.9,1.7-1.1,2.3-1.4
		c0.6-0.3,1.4-0.3,2.3-0.6c3.4-0.9,3.7-1.1,6.3-2.3c0.9-0.3,1.1-0.6,1.4-1.1c0.3-0.6,0.6-1.1,0.9-2.6c0.9-3.1,2.6-5.7,4.6-7.7
		c0.9-0.9,0.9-1.1,1.4-2.6c0.6-1.4,2.3-3.1,4.8-3.7c0.6-0.3,1.1-0.3,1.7-0.3c-0.6-1.4-0.9-3.1-0.9-5.1c0-4,0.9-6.8,2.3-9.4
		c0.6-0.9,1.1-3.7,2.6-6.8c0.9-1.4,1.7-2.6,2.3-3.7c0.6-1.1,0.9-2,0.9-2.6c0-4.3,1.1-8.3,1.1-10c0-3.1,0-6-0.6-8
		c-0.6-2-1.7-4.6-2.8-6.8c-1.4-2.6-2.6-4.3-3.7-5.1c-2-0.9-5.4-2.8-6.5-6.8c-0.3-1.1-0.6-2-1.1-2.8c-0.6-0.9-1.1-2-1.4-3.7
		c-0.3-1.7-0.6-2-1.4-2.8s-1.7-2-2.8-4c-0.6-0.9-0.9-2-1.4-3.1c-0.3-0.6-0.6-1.1-0.9-1.4c0-0.3-0.3-0.3-0.3-0.3
		c-1.7-0.9-3.1-1.4-6-1.4c-3.7,0-7.7,0.6-11.4-1.7c-1.7-0.9-4.3-2-7.1-2c-1.4,0-1.7,0.3-2.3,0.6c-0.6,0.3-1.1,0.9-2,1.7
		c-0.3,0.3-1.4,1.7-3.1,2.8c-0.9,0.6-2,0.9-3.4,0.9c-1.4,0-2.8-0.9-3.7-1.7s-4-2.8-5.1-6.8c-0.3-0.9-0.3-2-0.9-3.4
		c-0.6-1.4-1.1-2.6-0.9-2.3c-1.7-1.7-1.7-2.8-2-4c-0.3-0.6-0.6-0.9-0.6-0.9c-0.3,0-0.3,0-0.6,0c-0.9,0-2,0.3-3.1,0.6
		c-1.1,0-2.3,0.3-3.1,0.3c-0.6,0-0.9,0-1.4,0c-0.3,0-0.6,0-0.9-0.3c-0.3-0.3-1.1-0.3-2-1.4c-0.6-1.4-2-3.1-3.1-5.1
		c0,0,0,0.3-0.3,0.3c-1.1,1.1-1.4,1.4-1.4,1.7s-0.3,1.1-0.9,3.4c-0.3,1.4-0.6,2.6-1.1,4.3c-0.6,1.7-2,2.8-4,4
		c-2.8,1.4-2.8,1.4-4.3,4.3c-0.9,1.4-1.1,2.6-2.6,3.4c-0.6,0.6-1.7,0.9-2.6,0.6c-0.9-0.3-1.4-0.6-1.7-0.9c-1.4-0.9-0.3-0.9-1.7-0.6
		c-3.4,0.9-4.8,1.1-8.8,0c-1.7-0.6-3.1-1.4-4-2c-0.9-0.6-1.4-1.1-2-1.1c-2.3-0.6-4-1.1-5.1-2.3c-1.1-1.1-1.4-2.6-2.3-4
		c-0.9-1.4-1.1-1.7-3.7-3.1c-1.1-0.6-2-1.1-3.1-2c-0.6-0.3-1.1-0.6-1.4-0.9c-0.3,0-0.3-0.3-0.6-0.3c-1.7,0-3.7,0-5.7-0.3
		c-2-0.3-4-0.6-5.7-2.3c-2-2-2-1.7-4.8-3.1c-2-1.1-2.8-2.6-3.7-3.7c-0.6-0.9-1.4-1.4-1.4-1.4c-1.7-0.3-3.1-0.6-4.8-1.7
		c-0.9-0.6-1.7-1.7-2.3-2.8s-0.3-2.3,0-3.4c0.3-0.6,0.6-2.3,1.1-3.7c0.3-0.9,0.6-1.4,0.9-2.3s0.6-1.4,1.4-2.3s0.6-0.6,0.9-1.1
		c0-0.6-0.3-2-0.3-4.3c0-1.7,0-2.6-0.3-2.8c0-0.3-0.3-0.3-1.4-0.6c-2.6-0.6-5.4-1.7-7.4-3.7c-1.1-1.1-2.8-1.7-5.4-4.3c0,0,0,0-0.3,0
		c-0.6,0-1.4,0-2.3,0s-2,0.3-3.4,0c-1.4-0.3-3.1-1.7-3.7-3.4c0,0.3,0-0.3-0.3-0.9s-0.6-1.1-1.1-2s-0.6-1.4-0.9-2
		c-0.3-0.3-0.3-0.6-0.6-0.9c0-0.3-0.3,0-0.3-1.4c0-1.7,0-2.8,0-6.8c0-1.1,0-1.4,0-1.7c0,0-1.1-0.3-2.8-2c-0.6-0.6-1.4-1.4-2.6-2.3
		s-2.3-1.1-2.3-1.1c-3.7,0-7.1,0.3-10.8-0.9c-1.4-0.3-2.8-0.9-4.3-1.7c-1.4-0.9-2.8-1.4-3.7-1.4c-0.6,0-2.3-0.3-4.3-0.9
		c-0.9-0.3-1.7-0.6-2.6-0.9s-1.7-0.6-2.6-1.4c-1.4-1.4-2-3.1-2.3-4c-0.3-0.9-0.6-1.1-1.7-1.7c-0.9-0.6-1.4-0.9-2-1.4
		c-0.6-0.6-1.1-1.1-1.7-1.7c-0.3-0.3-0.6-0.3-0.9-0.6l0,0c-0.6,0.9-1.4,2-3.1,3.1c0,0-0.3,0.3-0.9,0.9c-0.6,0.6-1.1,1.1-1.7,1.7
		c-0.6,0.6-1.1,1.1-1.7,1.7c-0.3,0.3-0.6,0.6-0.9,0.9c-0.3,0.3-0.6,0.6-1.4,0.9c-1.4,0.3-3.1,0.9-5.1,0.6c-1.1,0-2-0.6-3.1-1.1
		s-1.7-2-2-3.4c-0.3-1.7-0.3-3.1-0.3-4.6c0-1.7,0-3.1-0.3-4.3c-0.3-2-0.6-3.7-0.6-5.4s-0.3-2.8-0.6-3.1c-1.1-2.3-1.1-4.3-0.9-5.7
		c0.3-1.4,0.3-2,0-2.8c-0.3-1.7-0.9-3.1-0.9-4.8c0-0.9,0.6-2,1.1-2.8s1.4-1.4,2.3-2c2.3-1.1,4.3-2,6-3.7c2-2,4-3.1,4.6-4.3
		c1.4-2.8,3.4-5.1,6.8-6.8c1.1-0.6,2.6-1.1,4.6-1.7c2-0.6,4.3-0.9,6.5,0.3c3.1,1.7,5.4,2.8,8.3,5.4c1.7,1.7,2.8,2.3,6.3,3.7
		c1.1,0.6,2.3,1.4,3.7,2.3s2.8,2,3.7,4c0.3,0.3,0.9,1.4,1.4,2c0.6,0.6,0.9,0.9,1.1,0.9c1.4,0,1.7-0.3,1.7,0c0-0.3,0-0.6-0.3-1.1
		c0,0-0.9-1.1-1.7-2c-0.6-0.6-0.9-0.9-1.1-1.1c-0.3-0.3-0.3-0.3-0.6-0.6c0,0,0,0-0.3-0.3c0,0,0,0-0.3-0.3c0,0,0,0-0.3-0.3l-0.3-0.3
		l-0.3-0.6v-0.9c1.7,2.3,13.9,1.4,14.5-0.3c0.6-1.7,2.3,2,2.8,2.6c0.3,0.3,0.6,0.3,0.6,0.3c1.7-0.9,3.1-0.9,4.6-1.1
		c1.4-0.3,2.8-0.3,3.4-0.9c0.3-0.3,0.3-0.3,0.6-0.3c-0.3-0.6-0.9-1.1-0.9-2.8c0-3.4,0.6-7.4,0-9.1c-0.3-1.7-0.3-3.4,0.3-4.6
		s0.9-1.1,1.1-2.6c0.3-1.4,1.1-2.8,2-4s2.3-2.6,4.3-3.1c1.1-0.3,2.3-0.6,3.1-0.9s0.9-0.6,0.9-0.6c0-0.3,0.3-0.9,0.3-0.9
		c-0.3,0-0.9-0.6-2-1.1c-2.8-1.4-4.6-2.3-7.4-3.7s-4.3-3.1-5.7-3.4c-3.4-0.9-6.3-2.6-9.4-4c-1.7-0.9-2.6-1.7-3.7-2.3
		s-1.4-0.9-2.6-1.1c-0.9-0.3-2.3-0.3-4-0.9s-3.7-1.4-4.8-3.7c-1.1-2.6-2-4.6-3.1-6.8c-0.6-1.4-2.6-4.3-3.4-7.4
		c-0.6-1.7-2.3-4-3.1-7.4c-0.6-2-0.3-4,0.3-5.1c0.3-0.9,0.3-1.4,0.3-1.4c-0.9-3.1-1.1-5.7-1.1-9.1c0-1.4,0.3-3.4,0.6-5.4
		c0-1.1,0-2,0-2.6c0-0.3,0-0.3,0-0.3c-1.7-1.7-3.1-3.7-5.1-4.6c-3.7-1.7-4.8-3.4-6.8-5.4c-1.7-1.7-3.4-2-5.7-4.3
		c-0.6-0.6-1.1-1.1-1.7-1.7c-0.6-0.6-0.9-1.4-1.1-2.6c-0.3-2.3,0.6-3.1,1.4-4.6c0.6-0.9,1.1-2,2.3-3.4c1.1-1.4,2-2.6,4-3.1
		c1.4-0.3,2.6-0.6,3.4-0.9c0.6-0.3,0.9-0.3,0.9-0.9c0.6-1.7,0.6-5.1,0.3-6.3c-0.3-0.6-1.1-1.7-1.7-3.1s-1.4-3.4-0.9-5.7
		c0.6-2,1.4-3.1,2-4.3s0.9-1.1,1.1-2c0.6-2.3,2-3.7,2.8-5.1s1.4-2,1.4-2c0.6-2.6,1.7-5.4,4-7.7c1.1-1.1,2.3-2,3.4-2.6
		c1.1-0.6,2-0.9,3.7-1.7c3.7-1.7,7.4-1.7,11.1-1.7c3.7,0,6.8,0.6,10,1.4c4,1.1,5.7,2.8,8,4c1.4,0.9,1.7,0.9,1.7,0.9s0.9-0.6,2.6-1.4
		c2-0.9,4.6-2.3,5.4-3.1c2-2,3.1-2.6,4.8-4.3c1.4-1.4,2.6-3.4,3.7-6.3c0.3-0.3,0.3-0.6,0.3-0.9c0,0-0.3,0-0.9-0.3
		c-2.6-1.4-4-3.1-5.7-4.8c0,0-2-1.1-3.7-2.3c-0.9-0.6-1.4-0.6-2.3-1.7c-0.3-0.3-0.6-0.6-0.9-1.1c0-0.3-0.3-0.6-0.3-1.1
		c-0.3,0-0.6-0.3-0.9-0.3c-1.1-0.3-2.3-0.9-3.4-2c-1.4-1.4-2-2.8-2.3-3.1s0.3-0.3-1.4-0.6c-1.7-0.3-2.6-1.7-2.8-2.6s-0.6-2-0.9-2.8
		c-0.3-2-0.3-3.7-0.3-4.8c0-0.6,0-0.6-0.3-0.9s-1.4-0.6-2.6-0.9c-3.1-0.9-4.8-1.1-8-1.1c-2.8,0-6-0.6-8.8-0.6s-5.1-0.3-7.7-0.6
		c-0.3,0.3-0.3,0.6-0.6,0.9c-0.6,1.1-1.1,2.8-1.1,3.1c-0.9,3.1-2.6,5.1-3.4,6.8c-0.6,1.1-0.9,2.3-2,3.7s-2.6,2.6-4.3,2.8
		c-0.9,0.3-1.4,0.6-2.3,1.1s-2.3,1.4-4.3,2c-2.3,0.6-2.3,1.1-4.3,3.1c-2,2-4.3,3.4-6.3,4.3c-2,1.1-4.3,0.6-5.7,0.3s-2.6-1.1-3.1-1.1
		c-2.3-0.6-4.3,0.6-7.4,1.1c-1.1,0.3-1.4,0.6-2,1.1s-1.1,1.4-2.3,2.3c-2,2-4.8,3.4-8.8,3.4c-2.8,0-6.3,0.3-7.7,0.6
		c-0.3,0.3-0.9,0.9-1.1,1.1c-0.9,0.9-1.7,2-3.4,2.8c-0.9,0.3-1.4,0.6-2.3,0.9c-0.9,0-2,0-2.6-0.6c-0.3-0.3,0-0.3-0.3-0.6
		c-1.4,1.4-2.8,2.6-4,3.7c-1.1,1.1-2.6,3.4-3.1,4.8c-1.7,3.1-3.1,4.6-4.8,6.5c-1.1,1.1-3.1,3.7-5.1,5.4c-1.1,1.1-2.3,1.7-3.7,2.3
		c-0.9,0.3-1.7,0.6-2.6,0.9c0.3,1.1,0.9,2.6,0.9,4.6c0,4.3-2.3,7.4-4,8.8c-1.7,1.7-3.4,2-4.6,2.3s-2.3,0.9-2.3,0.9
		c-1.1,1.1-2,1.1-2.6,1.4s-1.7,0.6-2.6,0.6c-0.9,0.3-0.9,0.3-1.7,0.3c0,0.6,0,1.1,0,2c0,2.3,0,4.3,0,5.1c0,0.3,0.3,0.9,0.9,2
		c0.6,1.1,1.1,3.4,0.6,5.7c-0.6,2-1.4,3.1-2.3,4s-1.4,1.7-1.7,2c-0.9,2-2.6,2.6-3.7,3.4s-2.6,1.4-3.1,1.7c-0.9,0.3-1.1,0.9-2,1.7
		c-0.9,0.9-2,2-3.7,2.6c-1.4,0.6-2.6,0.6-3.7,0.3s-2-0.9-2.6-1.1c-1.4-0.9-2.8-1.4-2.6-1.4c-2.3-0.6-3.7-2-4.6-3.4s-1.7-2.6-1.7-2.6
		c-1.4-1.4-2.3-2.8-2.6-3.4h-0.3c0,0.9,0,1.7,0,2.8c0,3.1,0,6.3,0,9.4c0,3.4,0.6,4.8,0.6,8.8c0,2.3-0.6,4-1.4,5.4s-2,2-2.6,2.8
		c-2,2-4.6,3.4-6.3,4.3c-0.9,0.6-2.3,2.6-4.3,4.6c-1.1,1.1-2.6,3.4-3.1,4.8c-0.6,1.1-1.7,1.7-2.6,2c-0.9,0.3-1.4,0-1.7-0.3
		c-0.9-0.3-1.4-0.6-2.3-0.9s-1.4-0.9-2-1.1c-0.6-0.3-1.1-0.6-0.9-0.6c-2-0.9-2.6-2.6-3.4-3.7c-0.9-1.1-1.4-2.6-1.7-3.1
		c-0.3-0.6-2-1.4-4.3-2.6c-2.8-1.4-4.3-2.3-6.3-2.8c-1.1-0.3-1.4-0.9-1.7-1.1s-0.6-0.6-0.9-0.9c-0.6-0.6-0.9-1.1-1.4-2
		c-0.9-1.4-2-3.1-2-2.8c-1.1-1.1-1.7-2.6-1.7-3.7c0-1.1,0.3-2.3,0.6-3.1c0.6-1.7,1.4-3.1,1.4-2.8c0.3-1.4,0.6-2.3,0.3-2.8
		c0-0.6,0-0.9-0.9-1.4c-2.3-2.3-4.3-4.3-5.1-7.4c0-0.6-0.6-1.1-1.1-2.3s-1.4-2.3-2-4c-0.6-2.6,0-4.8,0.9-6.5
		c1.1-1.4,2.3-2.6,2.8-3.1c0.6-0.6,0.9-2.6,1.7-5.4c0,0,0,0-0.3,0c-0.6-0.3-1.7-0.6-2.6-0.9c-1.1-0.3-1.1-0.3-1.4,0
		s-1.1,0.9-2.8,1.7c-2.6,1.4-4.3,2.6-8,3.4c-3.7,0.9-7.7,0-10,0c-3.7,0-6.5-0.3-9.4-1.7c-2.6-1.4-4.8-2.8-6.3-5.7
		c-1.4-3.1-1.7-5.4-2.6-6.8c-0.9-2-1.1-3.7-1.1-5.4s-0.3-3.4-0.3-3.7c-0.6-2.8-1.1-5.1-2-8c-0.6-2.3-2-5.7-2.8-7.4
		c-1.1-2.3-3.1-4.6-4-8c-0.9-3.7-1.1-4.6-2.3-6.8c-0.9-1.7-2.3-2.6-4.6-4.8c-1.7-1.7-3.1-2.6-4.8-4.3c-0.6-0.6-1.4-0.9-2.3-1.4
		s-2.3-1.1-3.4-2.3c-0.6-0.6-2.6-0.9-5.4-1.7c0.3,0-0.3,0-1.4,0.9c-0.9,0.6-1.7,1.4-2.8,2.3l-0.3,0.3c-0.3,0.3-0.6,1.1-0.9,1.7
		c-0.6,1.4-1.1,3.1-1.1,3.4c-0.3,1.4-1.1,2-1.7,2.6s-1.1,1.1-2,1.4c-1.4,0.9-2.6,1.7-2.6,1.7c-1.1,1.1-2,2-3.7,2.8
		c-1.7,0.9-3.1,1.1-5.1,1.1c-3.4,0-5.1-0.9-7.7-1.4s-3.1-2-4.3-3.1s-2-2.6-2-2.6c-1.7-1.7-3.1-3.7-4.3-5.1c-0.3-0.3-1.1-0.6-2.6-0.9
		s-3.7-0.6-5.4-2.3c-2.6-2.6-3.1-4.6-6.3-6.3c-2-1.1-3.1-2.8-3.7-4.3c-0.6-1.4-0.9-2.8-1.1-3.1c-1.1-2.3-1.1-4.8-0.3-6.5
		c0.9-1.7,2-2.3,2.6-2.8c2-2,4.8-3.7,7.7-4.6c1.4-0.3,2.8-1.4,4.8-2.6c-0.3-0.3-0.6-0.6-0.9-0.9c-0.6-0.3-1.1-0.6-0.9-0.6
		c-1.7-0.9-4.3-1.1-6.8-2.6c-3.1-1.7-4.3-2.3-6.8-3.7c-1.4-0.6-2.6-1.1-4-2.3s-2.6-2.6-3.1-4.6c-0.9-2.8-0.6-5.7-0.6-8.5
		C599.3,708.1,599.3,708.1,599,708.1L599,708.1z M889.9,1358.3l-1.7,0.6c0,2-3.1,2.6-3.4,4.3c-0.3,1.7-2.8,2.6-4,3.4
		c-1.7,1.4-2.6,1.7-4,3.1c-1.7,1.7,0.3,2.8,1.4,4c1.4,1.4,1.7,2.6,1.7,4.8c0,2,4.3,1.1,4.8,1.1c1.7,0,2.6-2.6,3.4-3.4
		c2-2-0.6-4.8-1.7-5.7c-2-1.4,1.4-5.1,1.7-5.1c1.1-0.9,4.6-2,5.7-2.6c2.3-1.1-0.9-2.8-1.7-3.4
		C891.4,1358.9,890.8,1358.6,889.9,1358.3z"/>
</g>
</svg>
