<?xml version="1.0" encoding="utf-8"?>
<!-- Generator: Adobe Illustrator 24.0.1, SVG Export Plug-In . SVG Version: 6.00 Build 0)  -->
<svg version="1.1" xmlns="http://www.w3.org/2000/svg" xmlns:xlink="http://www.w3.org/1999/xlink" x="0px" y="0px"
	 viewBox="0 0 32 32" style="enable-background:new 0 0 32 32;" xml:space="preserve">
<style type="text/css">
	.st0{fill:#ECFDF5;}
	.st1{fill:#10B981;}
	.st2{fill:#FFFFFF;}
	.st3{fill:#6EE7B7;}
	.st4{fill:#A7F3D0;}
	.st5{fill:#047857;}
</style>
<g id="Livello_2">
	<circle class="st0" cx="16" cy="16" r="15.9"/>
</g>
<g id="Livello_1">
	<g id="Packaging_Delivery31">
		<g>
			<path class="st1" d="M17.6,7.8v10.6c0,0.4-0.4,0.8-0.8,0.8H7c-0.4,0-0.8-0.4-0.8-0.8V7.8C6.2,7.4,6.6,7,7,7h9.8
				C17.3,7,17.6,7.4,17.6,7.8z"/>
		</g>
		<path class="st2" d="M9,14.1l2.4,1.8c0,0,0.1,0,0.1,0.1c0,0,0.1,0,0.1,0c0.2,0.1,0.4,0.1,0.6,0c0,0,0.1,0,0.1,0c0,0,0.1,0,0.1-0.1
			l2.4-1.8c0.4-0.3,0.4-0.8,0.2-1.1c-0.3-0.4-0.8-0.4-1.1-0.2l-1.2,0.8v-3.3c0-0.5-0.4-0.8-0.8-0.8s-0.8,0.4-0.8,0.8v3.3l-1.2-0.8
			c-0.1-0.1-0.3-0.2-0.5-0.2c-0.3,0-0.5,0.1-0.7,0.3C8.5,13.3,8.6,13.8,9,14.1z"/>
		<g>
			<g>
				<path class="st3" d="M20.1,18.4v4.1c0,0.4-0.4,0.8-0.8,0.8H4.6c-0.4,0-0.8-0.4-0.8-0.8v-4.1c0-0.4,0.4-0.8,0.8-0.8h14.7
					C19.7,17.6,20.1,18,20.1,18.4z"/>
			</g>
			<g>
				<g>
					<path class="st1" d="M28.2,16.8v5.7c0,0.4-0.4,0.8-0.8,0.8h-9V12.7c0-0.4,0.4-0.8,0.8-0.8h4.9c0.2,0,0.5,0.1,0.6,0.3l3.3,4.1
						c0,0.1,0.1,0.1,0.1,0.2c0,0,0,0,0,0s0,0,0,0C28.2,16.6,28.2,16.7,28.2,16.8z"/>
				</g>
			</g>
			<g>
				<path class="st4" d="M28.2,16.8L28.2,16.8h-4.9v-4.9h0.8c0.2,0,0.5,0.1,0.6,0.3l3.3,4.1c0,0.1,0.1,0.1,0.1,0.2c0,0,0,0,0,0
					s0,0,0,0C28.2,16.6,28.2,16.7,28.2,16.8z"/>
			</g>
			<g>
				<path class="st5" d="M25.8,22.5c0,1.3-1.1,2.4-2.4,2.4s-2.4-1.1-2.4-2.4s1.1-2.4,2.4-2.4S25.8,21.2,25.8,22.5z"/>
			</g>
			<g>
				<path class="st5" d="M11.9,22.5c0,1.3-1.1,2.4-2.4,2.4S7,23.9,7,22.5s1.1-2.4,2.4-2.4C10.8,20.1,11.9,21.2,11.9,22.5z"/>
			</g>
		</g>
	</g>
	<g id="Packaging_Delivery30">
	</g>
	<g id="Packaging_Delivery29">
	</g>
	<g id="Packaging_Delivery28">
	</g>
	<g id="Packaging_Delivery27">
	</g>
	<g id="Packaging_Delivery26">
	</g>
	<g id="Packaging_Delivery25">
	</g>
	<g id="Packaging_Delivery24">
	</g>
	<g id="Packaging_Delivery23">
	</g>
	<g id="Packaging_Delivery22">
	</g>
	<g id="Packaging_Delivery21">
	</g>
	<g id="Packaging_Delivery20">
	</g>
	<g id="Packaging_Delivery19">
	</g>
	<g id="Packaging_Delivery18">
	</g>
	<g id="Packaging_Delivery17">
	</g>
	<g id="Packaging_Delivery16">
	</g>
	<g id="Packaging_Delivery15">
	</g>
	<g id="Packaging_Delivery14">
	</g>
	<g id="Packaging_Delivery13">
	</g>
	<g id="Packaging_Delivery12">
	</g>
	<g id="Packaging_Delivery11">
	</g>
	<g id="Packaging_Delivery10">
	</g>
	<g id="Packaging_Delivery09">
	</g>
	<g id="Packaging_Delivery08">
	</g>
	<g id="Packaging_Delivery07">
	</g>
	<g id="Packaging_Delivery06">
	</g>
	<g id="Packaging_Delivery05">
	</g>
	<g id="Packaging_Delivery04">
	</g>
	<g id="Packaging_Delivery03">
	</g>
	<g id="Packaging_Delivery02">
	</g>
	<g id="Packaging_Delivery01">
	</g>
</g>
</svg>
