<?xml version="1.0" encoding="utf-8"?>
<!-- Generator: Adobe Illustrator 24.0.1, SVG Export Plug-In . SVG Version: 6.00 Build 0)  -->
<svg version="1.1" id="Layer_1" xmlns="http://www.w3.org/2000/svg" xmlns:xlink="http://www.w3.org/1999/xlink" x="0px" y="0px"
	 viewBox="0 0 100 100" style="enable-background:new 0 0 100 100;" xml:space="preserve">
<style type="text/css">
	.st0{fill:#545758;}
	.st1{fill:#158084;}
</style>
<g>
	<path class="st0" d="M32.4,56.6V36.4c0-2.3-1.9-4.2-4.2-4.2H15.4c-2.3,0-5.2,1.6-6.4,3.5l-6.8,11C1,48.7,0,52.1,0,54.4V64
		c0,2.3,1.9,4.2,4.2,4.2h2.9c1.3-4.6,5.6-8,10.6-8s9.3,3.4,10.6,8l0,0l0,0h23.9c1.3-4.6,5.6-8,10.6-8s9.3,3.4,10.6,8h8.2V56.6H32.4z
		 M29.1,45.6H6.8l5-8c0.2-0.4,0.7-0.9,1.6-1.3c0.8-0.5,1.6-0.6,2-0.6h12.9c0.5,0,0.8,0.4,0.8,0.8C29.1,36.5,29.1,45.6,29.1,45.6z"/>
	<path class="st0" d="M70.5,71.3c0,4.2-3.4,7.6-7.6,7.6s-7.6-3.4-7.6-7.6s3.4-7.6,7.6-7.6C67.1,63.7,70.5,67.1,70.5,71.3z"/>
	<path class="st0" d="M25.3,71.3c0,4.2-3.4,7.6-7.6,7.6s-7.6-3.4-7.6-7.6s3.4-7.6,7.6-7.6C21.9,63.7,25.3,67.1,25.3,71.3z"/>
	<path class="st0" d="M70.5,71.3c0,4.2-3.4,7.6-7.6,7.6s-7.6-3.4-7.6-7.6s3.4-7.6,7.6-7.6C67.1,63.7,70.5,67.1,70.5,71.3z"/>
	<path class="st0" d="M25.3,71.3c0,4.2-3.4,7.6-7.6,7.6s-7.6-3.4-7.6-7.6s3.4-7.6,7.6-7.6C21.9,63.7,25.3,67.1,25.3,71.3z"/>
	<g>
		<polygon class="st0" points="84.8,25.8 84.8,25.8 84.8,25.7 		"/>
		<polygon class="st0" points="100,21.1 100,25.8 84.8,25.8 84.8,25.7 84.8,21.1 		"/>
		<rect x="84.8" y="29.6" class="st0" width="12.3" height="4.6"/>
		<rect x="84.8" y="38.2" class="st0" width="15.2" height="4.6"/>
	</g>
	<rect x="38.1" y="21.1" class="st1" width="42.7" height="30.5"/>
</g>
</svg>
