<?xml version="1.0" encoding="utf-8"?>
<!-- Generator: Adobe Illustrator 24.0.1, SVG Export Plug-In . SVG Version: 6.00 Build 0)  -->
<svg version="1.1" id="ITALIA" x="0px" y="0px" viewBox="0 0 1200 1500" style="enable-background:new 0 0 1200 1500;" xml:space="preserve">
<style type="text/css">
	.st0{fill:#11676A;}
</style>
<g id="ISOLE_SINGLE">
	<path id="sicilia_1_" class="st0" d="M484,847.1c-1.8-0.9-4.7,3.1-5.8-0.9c-0.4-2,0-4-0.4-5.8c-0.9-3.1,2.9-2,3.4-2
		c0.4,0,2,4.5,2.5,4.9C485.3,845.1,487.1,843.1,484,847.1z M478.6,859.9c1.3,1.3-2.5-3.4-2.5-5.4s-3.8,1.6-5.8,1.6
		c-1.6,0-2.5,2.9-2.5,4.9c0,1.6,2.5,1.8,3.4,2.9c1.1,1.1-2.5,2.9,1.6,3.8c3.6,0.9,3.4-1.1,3.8-3.4c0.7-2.5,3.4-1.3,3.8,0.4
		c0.4,2,2.7,2.2,3.8,3.4c2,2,4,0.4,5.8,0c2.5-0.7-2.7-4.3-2.9-4.5c-2-0.9-3.4-1.3-3.8-3.4C482.9,857.8,481.1,858.7,478.6,859.9z
		 M425.6,845.3c-0.7,0.2-2.5,0.9-3.1,1.1c-0.7,0.4-2.2,0.7-2.7,0.9c-1.1,0.7,0.2,2.7,0.4,2.9c0.9,0.9,0.2,1.6,1.8,2.7
		c0.9,0.7,0.7,1.8,0.9,2.7c0.2,0.7,2.2,1.1,2.7,1.6c0.9,0.4,1.3,1.1,2.2,1.6s2,0.7,2.7,1.1c0.4,0.2,0.7-3.4,0.7-3.8
		c0-1.3-0.7-2.5-1.1-3.6c-0.4-0.9-1.3-2-2-3.1c-0.4-1.1-0.9-1.6-1.1-2.7C426.7,846,426,845.7,425.6,845.3L425.6,845.3z
		 M416.6,1140.8c-0.2-0.9-0.9,1.8-1.8,2.5c-0.7,0.7-2.5,0.9-3.1,0.4c-1.6-0.9-0.4-2.2-2.5-2.7c-2-0.4-2.2,0.4-2.7-1.6
		c-0.4-1.6-2-1.1-3.1-1.6c-1.6-0.4-2.5,0.4-3.1,0.7c-0.9,0.4-0.2,2.2-0.9,2.9c-0.7,0.7-0.9,1.8-1.1,2.7c-0.2,0.9-1.3,1.3,0,2.7
		c0.7,0.7,0.2,2.9,0.4,3.6c0.2,0.7,1.8,1.3,2.2,2.5c0.4,1.1,1.6,1.8,2.2,3.1c0.4,0.9,2.7,2.5,3.1,2.9c0.4,0.4,0.9,2.5,1.1,2.9
		c0.4,0.7,1.8,0.9,2.5,1.6c0.7,0.7,1.3,1.3,1.8,2.2c0.7,1.3,2.7,0,4.3,0.2c1.8,0.4,2.9-0.2,3.8-0.7c1.1-0.7,1.1-1.1,2.7-1.6
		c0.4-0.2,1.3-2.7,1.6-3.4c0.2-0.9,1.6-2,2.2-2.7c0.9-0.9,0.7-2,0.7-3.1c0-1.6-0.9-1.6-2-2.2s1.3-2,2-2c2,0,0-1.3-0.7-2
		c-0.9-0.9-1.8-0.7-2.7-1.8c-1.1-1.1-0.2-1.8-2.5-1.1c-1.1,0.2-0.9-2.2-0.9-3.1C419.7,1141.3,417.5,1141,416.6,1140.8L416.6,1140.8z
		 M532.3,1469.5c0-1.1-2.9-2-4.3-1.8c-1.3,0.2-2,0.7-3.6,0.7c-1.6,0-1.8-0.4-3.1-0.7c-1.6-0.4-1.6-0.4-2.9,0.2
		c-1.3,0.7-0.2,2.2,0.4,2.9c1.1,1.1,4.7-0.2,5.6-0.7c1.3-0.7,3.8,0.2,4.5,0.4c0.9,0.4,1.1,1.3,2,1.8c1.3,0.7,0.4,2,2.5,2
		c0.9,0,2.5,0.2,3.1,0.4c1.1,0.2,1.8,0.4,3.1,0.4c1.8,0,1.1-0.9,1.1-2.5c0-1.1,1.1-0.9,1.6-2.2c0.4-1.6-2.2-1.1-2.7-0.9
		c-1.1,0.2-2.5,0-3.6,0C534.4,1469.7,534.4,1469,532.3,1469.5L532.3,1469.5z M590.3,1381.2c-2.7,0-3.8-0.7-5.8,1.6
		c-0.7,0.7-2.7,1.6,0.9,2.5c2,0.4,1.3,3.4,4.9,3.4c2.7,0,2.9-2.2,2.5-3.8C592.6,1383.9,590.6,1381.9,590.3,1381.2z M1064.9,635.1
		c-0.7,1.3-2.7,1.3-3.8,2.5c-0.9,0.9-2.5,1.3-3.4,1.8c-2.2,1.1-0.7,1.8,0.7,2.7c1.6,1.3,2.9,0.7,4,2.5c1.3,1.8,2.2,1.6,3.8,0
		c1.1-1.1,0.9-3.4,1.8-4c1.3-1.3,2.2-1.3,2.7-3.4c0-0.4-3.1-1.6-3.4-1.8C1066.3,634.4,1067,634.6,1064.9,635.1L1064.9,635.1z
		 M1034.3,677.8c-0.9-0.4-2.9,1.3-3.8,2c-1.6,1.6,0.2,2.2,1.1,3.1c1.6,1.6,3.8-1.1,4-1.3C1037.6,679.6,1036.5,678.7,1034.3,677.8z
		 M993.3,692.8c1.3-1.3-2.7,3.1-4.5,3.1c-1.3,0-2.9-1.8-3.1-2.7c-0.2-1.3-2.2-1.3-3.8-1.3c-1.8,0-1.6,2.7-1.8,3.8
		c-0.7,2.2-0.2,2.5-2,3.4c-1.6,0.7,1.8,2.2,2,2.5c1.3,0.7,3.1,1.1,4.5,1.3c2.2,0.4,2.5,1.3,3.4,2.5c1.3,1.3,0.4,1.8,2.7,2.5
		c2,0.4,2.7,0,2.7-2.5s-0.7-3.4,0-4.9c0.7-1.3,2.2-1.3,2.7-3.1c0.4-1.8-0.7-3.4-1.3-4C994.4,692.6,994.4,692.8,993.3,692.8
		L993.3,692.8z M1005.6,709.9c-1.8-2.5-2.7-0.9-3.4,0.7c-0.9,1.6-0.7,2.7-2,3.8c-0.7,0.4-0.2,3.8-0.4,4.5c-0.4,1.8-1.8,2,0,3.8
		c0.9,0.9,3.6,1.3,4.5,1.8c1.6,0.9,2.7,0.9,2.7,3.1c0,1.6,1.3,1.8,1.8,3.4c0.7,2.2,1.1,2,2.5,0.7c0.9-0.9,0.2-3.6,1.1-4.5
		c1.6-1.6,2.9-0.4,2.5-2.7c-0.4-1.3-2.7-2.7-3.4-3.4c-0.9-0.9,3.4-1.3,4-1.3c2.7,0-0.7-2.2-2-2.5c-1.8-0.4-1.8-1.8-2-2.7
		c-0.2-0.7,2.9-2,3.1-3.1c0.2-1.3-1.6-2.5-2.5-2.7c-1.3-0.7-2.2,1.8-3.1,2C1008.5,710.8,1006.5,709.9,1005.6,709.9L1005.6,709.9z
		 M1013.7,738.5c-1.1-1.1-6.5-1.8-2.7-2.7c2-0.4,3.4,0,2.7-2.5c-0.4-1.6-3.1,0.4-4.5,1.3c-1.3,0.9-1.1,2.9-1.3,4
		c-0.2,0.9,1.6,3.1,2,3.8c0.9,1.1-0.4,2.5,1.3,3.8c2,1.6,3.4-1.1,4,2c0.2,1.1,3.1,1.8,4,2c2,0.4,2,0.9,3.4-0.4
		c1.8-1.8,0-3.1-1.3-4.5c-1.1-1.1-1.1-2.9-1.8-4c-0.9-1.8-1.8-2.5-3.1-3.1C1015.5,737.8,1015.2,737.6,1013.7,738.5L1013.7,738.5z
		 M651.2,656.8c-2.9-0.7-2.9,2.2-4.5,3.8c-2,2-2.9,0.9-1.6,3.8c0.9,1.8,4.3,0.4,5.8,0c2-0.4,2.5-1.6,5.8-0.9
		c0.9,0.2-2.7-3.1-3.4-3.4C652.3,659.5,652.1,657.9,651.2,656.8L651.2,656.8z M1016.1,804.6c-1.1-0.4-1.8-1.3-2.9-2.5
		c-1.1-1.1-3.6-2.7-4.9-3.8c-0.4-0.4-2.7-3.6-3.8-3.4c-2,0.4-3.8,0.4-5.4,2c-0.9,0.9-2.5,3.1-4.9,2.5c-2.2-0.4-4-1.6-6.3-0.4
		c-1.6,0.9-2.7,1.8-4.9,2.9c-2.5,1.3-2.5,1.6-5.8,1.6c-2.2,0-4.7-0.9-5.8-2c-2.7-2.7-2.2-0.7-3.8,0.9c-1.3,1.3-2.9,1.3-4.5,2.9
		c-1.1,1.1-2.9,2.5-3.8,4.5c-0.2,0.2-2.2,4.7-2.5,4.9c-2,0.9-4.3,2-4.9,4.9c-0.4,2-1.1,3.4-2.9,4.5c-1.3,0.7-4.3,1.6-6.9,0.9
		c-2-0.4-4.5-1.1-5.4,0.9c-1.3,2.9-3.4,0.4-5.4,2.5c-1.1,1.1-3.1,1.8-4.5,3.4c-0.9,1.3-2,4-4.9,3.4c-2.9-0.7-5.6-0.7-8.3,0
		c-3.6,0.9-2.7-1.6-4.5-2c-3.1-0.9-3.4-0.2-5.8,0.4c-3.1,0.9-2.2,0.9-4.5,2.9c-1.6,1.6-2,2-5.4,2c-1.8,0-3.6,0.9-5.4,0.9
		c-3.4,0-4.3,1.6-6.3,2c-2.5,0.4-6.5,0.4-9.9,0.4c-2.7,0-6.3,0.4-8.3-0.9c-3.4-2.7-3.4-0.9-6.3-0.9c-2.2,0-7.4,1.8-6.9-0.4
		c0-0.2,0.7-6.9-2-4.5c-1.1,1.1-2.2,3.1-3.8,3.8c-2.7,1.3-4.3-0.2-7.4,0.4c-2.2,0.4-4.9,0.2-7.4-0.9c-1.6-0.7-2.9-1.6-3.8-3.4
		c-0.9-1.6-1.8-5.6-2.9-4.5c-1.1,1.1-4.3,1.3-5.4,2.5c-2,2-3.1,2-7.4,2c-3.1,0-3.8,0.4-5.8,1.6c-1.8,0.9-4,1.6-5.4,2.9
		c-1.1,1.1-3.1,2-4.5,3.4c-2,2-2.5,3.1-4.9,4.5c-2,0.9-3.8,2-6.9,2c-2.9,0-4,0.4-6.3,0.9c-1.8,0.4-4.3,0.4-6.9,0.4
		c-2.9,0-5.1-0.4-7.4-0.9c-2.5-0.7-2.5-2.9-4.5-3.4c-1.1-0.2-5.4,0.2-6.9-0.4c-1.8-0.9-3.8-2.5-5.4-2.9c-2.5-0.7-3.8-0.9-5.8-2
		c-2-1.1-2.5-2.5-4.9-4.5c-1.6-1.1-4.5-2-6.3-3.8c-1.1-1.1-2.9-2-3.4-3.8c-0.7-2.7,0.9-3.1,1.6-5.4c0.2-0.7,1.8-5.1,0.4-5.8
		c-1.8-0.9-2-2.5-3.4-3.8c-0.7-0.7-3.8-2.7-4.9-0.4c-0.9,1.8-1.6,3.4-3.4,4.5c-2.7,1.3-3.4-0.2-6.3,0.4c-1.8,0.4-4.7,0.4-6.3,0.9
		c-2.2,0.7-3.6,0.2-5.4-1.6c-1.3-1.3-3.6-1.8-4.5-3.4c-0.4-0.9-2.9-3.4-2.5-4.9c0.4-1.6,1.1-4.7,0.4-6.9c-0.4-1.6-0.9-4.5-1.6-6.3
		c-0.9-3.4-2.5-1.1-4.5-2.9c-0.7-0.7-1.8-4-2.9-4.5c-2.5-0.7-3.4-3.1-4.5-3.4c-1.8-0.4-3.8-0.4-4.9,2c-0.2,0.4-1.8,5.6-2.5,5.4
		c-0.9-0.2-5.1-2.7-5.4-2.5c0,0-1.6,5.4-2,5.4c-2.2,0.4-3.4,1.3-5.4,2.5c-1.6,0.9-3.6,0.9-6.3,0.9c-3.1,0-4.5-1.6-5.8-2
		c-1.8-0.4-3.8-1.1-5.4-2c-2.5-1.3-2.2-0.2-4.9,0.4c-2,0.4-2.9,1.8-2.5,3.8c0.9,3.4,0.9,3.1-2.5,3.8c-1.6,0.4-3.4,1.8-3.4,3.8
		c0,3.8,1.3,2.9,2.5,5.4c0.9,1.8,2,2.7,2,5.4c0,1.8-0.7,5.1-2,5.8c-1.3,0.7-3.4,0.9-5.4,2c-2.2,1.1-2,2.9-3.8,3.8
		c-0.9,0.4-5.4,0.7-6.3,1.6c-1.6,1.6-1.8,2.2-4.5,2.9c-1.6,0.4-4.3,1.6-5.4,2c-2,0.4-3.4,0.4-5.8,0.4c-2.2,0-5.4,0.2-5.8-2
		c-0.7-2.7-1.1-2.7-3.4-3.8c-1.8-0.9-3.4-1.6-5.4-2.5c-0.9-0.4-4-1.6-4.5-3.4c-0.7-2.2-2.9-2.7-3.8-4.5c-0.7-1.3-2.7-3.1-2-5.8
		c0.7-2.9-0.9-2.9-0.9-5.8c0-4-2.2-2-2.9-4.9c-0.4-2,2.5-4.7,0.9-5.8c-3.4-2.7-2,0.4-3.8,0.9c-2.9,0.7-3.1,0.4-3.8-2.5
		c-0.2-0.9-1.8-5.6-4.5-2.9c-0.9,0.9-2.7,3.6-0.9,5.4c1.6,1.6,1.8,2.9,3.4,4.5c0.7,0.7,3.1,3.1,1.6,4.9c-1.1,1.1-2.7,2.9-3.4,4.5
		c-0.2,0.4-2.2,4.7-2.9,4.5c-1.1-0.2-4.7-2.5-4.9-2.5c-2.2,0.7-4,0.7-3.4,3.4c0.9,3.4,0.4,3.6-1.6,5.4c-0.9,0.9-2.7,2.9-5.4,2.9
		c-2.9,0-3.1,2-5.4,0.9c-2-1.1-5.1,1.6-6.9,0c-0.2-1.1-4.5,3.6-4.9,3.8c-2.2,2.2-1.6,3.6-3.8,4.9c-1.6,0.7-2.7,2-4.5,2.9
		c-1.3,0.7-3.1,0.2-4.5,0.9c-1.6,0.9,3.1,1.8,4.5,2.9c1.3,1.3-1.3,5.4-1.6,5.8c-1.1,2.2-1.3,2.7-2,5.4c-0.4,2-1.6,3.6-2.9,4.9
		c-1.1,1.1-2,3.1-2.5,4.9c-0.7,2.9-0.9,3.1-3.8,3.8c-2.7,0.7-2.9,2-3.8,3.8c-1.3,2.5,0.2,3.6,1.6,4.9c1.6,1.6,2.5,2.5,2.9,4.5
		c0.7,2.2,0.4,3.8,3.4,3.8c2.5,0,0,4.9,0,7.4c0,1.3-3.8,2-5.4,2c-3.4,0-2.5,1.8-2.5,4.9c0,3.1,3.1,2.5,5.8,2.5c0.9,0,2.5,4,2.9,4.9
		c0.9,2,0.9,3.6,0.9,6.3c0,2.7-0.7,4,0,6.3c0.4,2.2,1.8,3.1,2.9,4.5c1.6,1.6,2.2,2.7,3.4,3.8c1.3,1.3,2.2,2.5,3.8,3.4
		c2.2,1.1,3.1,1.6,5.4,0.9c2.7-0.7,5.6,0.4,7.8,0.9c2.2,0.7,3.4,1.6,3.8,3.8c0.4,2.2,2,3.1,2.9,4.9c0.7,1.6,0.7,5.1,0.9,6.3
		c0.4,1.8,2.9,3.4,4.9,4.5c1.3,0.7,3.4,2.7,3.8,3.8c0.9,1.8,3.1,2,5.4,2c0.7,0,1.6-2.9,4.5-2.9c1.3,0,3.8-2.2,4.5-2.9
		c1.3-1.3,4.5-1.6,6.3-1.6c1.8,0,4.7,0.4,6.9,0.4s5.1-0.4,7.8-0.4c3.1,0,4.5,0,5.8-1.6c1.1-1.1,3.8,2.2,4.9,2.5c2.2,0.4,5.1,0,7.4,0
		c2.9,0,4.3,1.1,4.9,2.5c0.9,1.6,3.4,1.6,4.5,3.4c0.9,1.8,2,3.1,2.5,4.9c0.4,1.6,1.8,3.8,2.9,4.9c1.8,1.8,0.2,3.1,2.9,4.5
		c2,0.9,4.3,0.2,5.8-0.4c2.2-1.1,1.8-2.5,4.9-2.5c1.8,0,4,2.5,4.5,3.4c0.7,1.3,4.9,0.7,5.8,0.4c3.4-0.9,2.2,0.9,4.9,1.6
		c2,0.4,5.4,0.2,6.9,0.4c1.6,0.4,1.6,4.3,2,5.4c0.2,1.1,4.5,0.7,5.4,0.9c2.2,0.7-0.4,1.8,2,2.9c0.9,0.4,2.2,4.5,2.5,5.4
		c0.4,1.6,1.6,4.3,2,5.8c0.4,1.8,2.2,2.7,2.9,5.4c0.4,1.6,4.7,0.2,5.4,0c1.3-0.7,3.4,2.9,3.8,3.8c0.9,1.8,2.5,2.5,4.5,2.9
		c3.1,0.7,4-0.2,5.8,1.6c0.9,0.9,2,2,2.9,2.9c2.2,2.2,3.4,2.9,4.9,4.5c2.2,2.2,3.6,0.9,4.5,4.5c0.4,2.2,2.9,2,3.4,4.5
		c0.2,1.1,5.8,0.4,6.9,0.4c2.5,0,4.9,0,7.4,0c3.8,0,2.5,1.3,5.4,2c1.8,0.4,1.3-3.4,4.5-0.4c1.6,1.6,1.6,2.7,3.8,3.8
		c1.8,0.9,4.7,2.7,5.8,3.8c1.6,1.6,1.6,3.1,2.9,4.5c1.3,1.3,3.6,1.8,4.9,2.5c0.9,0.4,1.3,5.1,1.6,5.8c0.7,2.5,2.2,2.9,4.5,3.4
		c2.5,0.7,4.7,1.1,6.3,2c2,1.1,2.5,2,3.4,3.8c0.7,1.3,4,2.7,4.9,3.4c1.8,1.8,0.7,2.9,4.9,2.9c2,0,5.1-0.7,6.9-1.6
		c2.2-1.1,5.6,0.7,7.4,1.6c1.6,0.9,2.5,2.9,3.4,3.8c1.3,1.3,2.5,3.8,2.9,5.8c0.4,2.2,4.5,2,6.9,2.5c0.7,0.2,1.3,0.2,2,0.4
		c1.6,0.4,4.7,0,6.9,0c1.6,0,3.8-1.8,4.9-2.5c2.2-1.1,5.1-0.9,8.3-0.9c2.5,0,5.1,0,7.4,0.4c0.2,0,0.7,0,0.9,0c3.1,0,6.5,0.4,9.9,0.4
		c2.9,0,4.7,0.9,7.4,1.6c3.1,0.9,2.2,2.9,5.4,2.9c2.2,0,4.3,0.2,7.4,0.9c1.8,0.4,3.4,2,5.4,2.9c2.9,1.3,3.8,2,4.9,4.5
		c0.9,1.6,3.4,3.1,4.9,3.4c2.7,0.7,5.4,2.9,7.4,4.5c1.3,0.9,4.9,4,6.3,5.4c1.1,1.1,1.8,2,2.5,3.4c2,2,3.6,3.6,4.5,5.4
		c0.7,1.6,2.7,2.2,3.8,3.4c1.1,1.1,2,3.1,2.5,4.9c0.7,2.2,0.4,2.7,0.4,5.8c0,0.7,3.6,2.5,3.8,3.8c0.4,1.8,3.1,1.8,3.8,4.5
		c0.9,3.4,0,3.8,2.5,6.3c0.4,0.4-0.2,5.6,0,6.9c0.4,1.3,2.7,3.4,3.4,4.9c0.9,1.6,2.5,2,3.4,3.8c0.9,1.8,2.2,2.5,4.5,2.9
		c2.2,0.7,3.6,1.3,5.8,2c1.3,0.4,5.1-0.9,7.8-0.9c3.6,0,3.4,0.7,5.8,2c2.2,1.1,3.8,1.8,6.3,2.5c3.1,0.7,2.9,2.7,5.4,3.8
		c0.9,0.4,2.5,3.8,2.9,4.9c0.9,2,4.9,2,6.9,1.6c3.1-0.9,4,0.7,4.9-2.9c0.7-2.5,1.8,2.5,2,3.4c0.4,2,2.9,2,4.9,2.5s5.1-1.6,6.9-2
		c2.5-0.7,1.6-2.5,5.4-2.5c3.4,0,3.4,1.6,5.8-0.9c1.8-1.8,3.1-2,6.3-2c0.2,0,4.5,2.9,4.9,3.4c1.3,1.3,2.5,2.9,4.5,3.4
		c1.6,0.4,3.4,2.7,4.9,3.4c2.7,1.3,2.9,1.6,5.4,0.4c2-0.9-0.9-4.7,3.8-3.4c1.8,0.4,3.1,0,5.4,0.4c0.4,0,2.2,4.3,2.9,4.9
		c1.8,1.8,1.8,2.9,2.5,5.4s2.9,2,4.9,2.5c0.2,0,3.1-3.1,4.5-3.4c2.2-0.7,3.4-1.6,5.8-2.9c1.6-0.9,0.9-4,0.9-6.3c0-1.8-4-1.6-4.5-3.4
		c-0.4-1.6,1.1-2.9,2-4.5c0.9-1.8-2-4-2.5-4.9c-1.1-2.2-1.1-3.1-2.9-4.9c-2-2-2-2.5-2-5.8c0-3.1,0-4.3,2-5.4
		c1.1-0.7,0.4-5.6,0.4-6.9c0-2,2.7-3.1,3.8-3.4c2-0.4,2.9-3.1,3.4-4.5c0.9-2,1.8-2.5,2.5-5.4c0.7-2.5,0.9-3.8,1.6-5.8
		c0.4-1.8,2.2-3.8,3.4-4.9c1.6-1.6,2.5-2.2,3.4-4.5c0.9-2,3.1-3.4,4.5-3.8c2-1.1,2.7-1.6,5.4-0.9c3.4,0.9,4.5,0,4.5-2.9
		c0-2.7,1.3-4.5,2.9-5.8c1.8-1.8,2-2.5,4.5,0c2,2,1.3,2.9,4.9,2.9c2.7,0,2-2.9,2.5-4.9c0.2-0.7-2.9-4-3.4-4.9
		c-1.3-2.7-2.9-2.5-4.9-1.6c-2.2,1.1-3.4,1.1-4.9-0.4c-2.2-2.2,0.2-4,2-4.5c2.2-0.4,0.7,3.4,3.8,2.5c0.2,0-0.9-5.4-0.9-6.3
		c0-2.7,4,0.4,2-3.4c-1.1-2-1.8-2-2.5-4.9c-0.4-1.6-3.8-1.8-4.5-2c-1.3-0.4-2.2,1.6-4.9-0.9c-2-2-2.7-1.6-3.8-3.8
		c-0.4-1.1-2.9-3.1-3.8-4.5c-1.3-1.8-1.6-3.1-2.5-4.9c-1.1-2.5-1.8-2.9-2.5-5.4c-0.7-2.5-0.4-4,0.4-5.8c0.9-1.6,1.6-2.5,1.6-5.8
		c0-2,3.4-1.3,3.8,0.4c0.4,2.2,0,5.1,0.4,6.9c0.4,2,2.9-2.2,2.5-3.8c-0.9-3.8,1.6-0.7,2.5,0.4c0.9,1.3,2.5-4.3,2.5-5.4
		c0-2.5-2.2-3.6-3.8-4.5c-2.2-1.1-2.7-1.8-3.4-4.5c0-0.2-0.2-0.2-0.4-0.4c-0.2-0.2,3.4,4.3,2,0.9c-1.3-3.4-2-3.8-4.9-2.5
		c-2.5,1.1-2.7,2.2-4.9,0c-1.8-1.8-2-2-5.4-2c-3.1,0,0.9-5.1-3.8-3.8c-3.1,0.9-4.3,0.7-5.8-0.9c-0.7-0.7-0.4-6-0.9-7.4
		c-0.7-1.6-0.4-6.3-0.4-7.8c0-2.5,0-6-0.4-8.3c0-5.6,0-9.9,0.4-15.2c0-2,0.9-4.3,0.9-6.3c0-3.1,0.7-4,1.6-5.8
		c0.9-1.8,2.9-2.9,3.8-3.8c1.6-1.6,3.1-2.7,4.5-3.8c1.8-1.8,2.7-2,3.8-4.5c1.1-2.2,0.9-3.6,1.6-5.8c0.9-3.1,2-2.7,2-6.3
		c0-2.2,0-5.1,0.4-6.9c0.7-2.7,2.5-1.8,2.5-4.9c0-2.2,0.7-4,0-6.3c-0.7-2.9,1.8-4,3.4-4.5c2.2-0.7,0.4-4.7,0-5.8
		c-0.9-1.8-1.6-3.6-2-5.4c-0.7-3.1-0.2-3.4,2-4.5c1.6-0.9,2.5-3.4,3.4-4.5c1.8-1.8,3.1-2.7,4.5-3.8c1.3-1.3,2.7-2.2,3.4-3.8
		c1.1-2.5,2-2.7,2-5.8c0-2.5,2.7-2.5,4.5-2.9c2.2-0.4,2-2.7,2-5.4c0-3.1,0.9-3.4,2.5-4.9c1.3-1.3,3.1-2.2,4.5-3.4
		c1.6-1.6,2-1.8,2-5.4c0-1.8,2.5-3.4,2.5-6.3c0-2,1.6-4.3,2.5-5.8c0.7-1.6,2.5-2.9,3.4-3.8c1.6-1.6,1.8-2.7,2.9-4.9s3.1-2.7,4.5-3.8
		c1.6-1.6,2.9-4,3.4-5.8c0.7-2.5,3.1-4.7,4.5-5.4c1.6-0.7,2.7-3.8,3.8-5.4c1.3-2,2.2-2.5,3.4-4.9c1.3-2.9,2.2-4,2.9-6.3
		c0.4-1.8,2.5-2.5,2.9-4.5c0.4-1.8,2.9-4,3.8-4.9l3.8-10.7c0.4-0.4,0.4-6,0.4-6.3c0.4-1.6,2.2-2.9,2.9-4.5c1.3-2.7,0.9-2.7,3.4-3.8
		c1.6-0.9,4.5-0.4,6.9-0.4c3.4,0,0.4-4,0-4.5c-0.9-0.9-7.6,0-8.7,0c-0.9,0-3.1-3.4-3.4-3.8c-1.1-2.2-3.8-3.6-5.4-4.5
		c-2.5-1.3-1.8-2.2-4.5-0.9c-2.2,1.1-2.7,2.7-3.8,3.8c-1.6,1.6-2.5,2.5-4.5,3.4c-2.2,1.1-4.3,1.8-5.8,3.4c-1.3,1.3-4,1.8-5.4,2.5
		c-2.2,1.1-2.7,2.9-4.9,3.4c-1.8,0.4-4.9,2.7-6.3,3.4c-1.6,0.9-3.1,1.6-4.9,2.5c-2,1.1-4.3,0.9-6.9,1.6c-2.2,0.7-4.7,0.4-6.9,0.9
		c-2.2,0.4-5.1,0-7.4,0c-1.6,0-0.9-4.9-0.9-6.3c0-2.7,0.4-4.3,0-6.3c-0.4-2.2-2.7-2.9-4.5-3.4c-4.3-1.1-2.5,1.8-1.6,2.9
		c1.8,1.8,2.5,1.8,2.5,4.9c0,1.8,4.9,2.2,0.4,3.4c-0.7,0.2-1.8,4.5-2,5.4c-0.7,2.2-2,2.7-2.9,4.5c-0.9,1.8-1.8,3.8-2.9,4.9
		c-1.6,1.6-2.2,2.9-4.5,3.8c-2.5,1.1-3.1,2.7-4.5,3.8c-1.6,1.6-2.7,2.2-3.8,3.4c-0.7,0.7-5.6,1.8-6.3,2c-2.5,0.7-5.4-0.2-6.9-0.9
		c-1.8-0.9-2.5-2.5-2.9-4.5c-0.4-1.8-4.7-0.9-6.3-0.9c-2.5,0-4.9,0-7.4,0c-1.6,0-1.8-1.3-2.5-2 M934.2,695.8c-0.2-0.9-1.1-2-2-2.7
		c-0.7-0.7-3.1,0.2-3.4,0.4c-0.7,0.2-0.7,2.7-0.7,3.1c-0.2,1.3,1.1,1.6,2,2c0.7,0.4,1.6,1.1,2,1.8c0.2,0.2,3.1,0.4,3.1,0.4
		c0.7,0.2,1.1,1.3,1.8,2c1.1,1.1,2.2-1.1,2.5-1.6c0.2-1.3,0.2-1.8-0.9-2.2c-1.1-0.2-1.8-1.6-2-2.5c0-0.2-0.9-1.1-0.9-1.1
		 M892.3,702.9c-0.2-0.4-2.2-0.9-3.4-0.9c-1.1,0-0.9,1.8-0.9,2.7c0,1.8,0.4,1.6,1.6,2.2c1.1,0.7,2.7-0.2,3.1-0.7
		C893,705.6,892.6,703.6,892.3,702.9L892.3,702.9z"/>
	<path id="sardegna_1_" class="st0" d="M308.6,24.7c-0.9-0.2-2.9,3.8-4.7,4.3c-2.2,0.4,1.1,4.7,0.4,6.9c-0.2,1.1-3.8,2.2-4.5,2.9
		c-2,2,0.4,4.3,1.6,4.9c2.5,1.1,5.1-0.7,5.8-1.6c1.1-1.1,3.1-1.8,4.3-2.9s-2.2-2-2.9-3.4c-0.7-1.3,3.4-2.2,2.9-4
		c-0.7-2.5,0.4-3.1,0-4.9c-0.2-1.3-1.8-1.3-2.9-1.8C308.8,25,308.6,24.7,308.6,24.7z M268.5,29.2c-0.4,0-0.9,0.2-1.3,1.3
		c-0.7,2.7-2.7,1.1-3.4,4c-1.3,5.6-1.6-1.3-2-1.6c-1.3-0.2-4.7,0.7-5.4,0c-1.6-1.6-5.6-0.2-5.4,0c1.6,1.6,1.3,3.4,3.8,4
		c0.7,0.2,5.1,2.2,3.4,4c-0.7,0.7-3.4,2.2-3.4,4c0,3.1,1.3,3.1,2,5.4c0.7,2.9-0.9,2.9-1.6,4.9c-0.2,1.1-2.2,4-4.3,2.9
		c-1.1-0.4-4.5-2.2-4.5,0.9c0,4,0,3.1-3.4,4c-2.5,0.7-1.8,2.9-4.9,2.9c-3.6,0-3.6-0.9-5.4-1.8c-2.5-1.1-2.5-0.7-4.9,0.4
		c-0.9,0.4-4.3,1.6-4.9,2.9c-0.7,1.3-1.3,3.6-2.5,4.9c-1.6,2-2.2,2.7-3.8,4.5c-1.3,1.3-2.2,2.5-3.4,4.9c-0.9,2-2,2.9-3.4,4.3
		c-1.3,1.3-1.3,2.9-3.4,4c-1.3,0.7-4.7,1.3-5.8,2.5c-1.6,1.6-3.4,1.6-3.4,4.5c0,1.8,0,5.4-0.9,6.3c-1.3,1.3-1.8,2.7-3.4,4.5
		c-0.7,0.7-3.6,3.1-4,4.5c-0.9,3.4-2,1.6-4.5,0.4c-0.4-0.2-5.6-1.8-4,1.6c2,4,0.4-1.6,3.4,0c2.7,1.3,1.8,2.2-0.4,3.4
		c-1.3,0.7-3.1,1.6-4.9,2.5c-1.6,0.7-2.9,2.5-4.9,2.5c-2.7,0-5.6,0-8.3,0c-3.1,0-4,0.2-5.8,2c-0.7,0.7-3.4,3.4-4,3.4
		c-1.8,0.4-3.6,1.6-4.9,2.9c-1.3,1.3-2.2,2.2-4,4c-1.1,1.1-3.4,3.8-4.5,4.5c-1.1,0.4-4.9,1.8-5.4,2.9c-0.7,1.1-2,4.5-4.5,4.5
		c-2.7,0-4,0.9-6.3,1.6c-2,0.4-4.3,0.4-6.7,0.4c-1.3,0-5.6-0.2-6.3-0.9c-1.1-1.1-2.7-2.7-4.5-3.4c-1.6-0.7-3.4-3.4-4.9-2.9
		c-2.5,0.7-2.9,1.6-5.8,1.6c-2.5,0-4.3,1.1-6.9,0.4c-2.5-0.7-3.8-1.3-5.8-2c-1.8-0.4-4.5-0.7-5.8-1.8c-1.6-1.6-1.8-2.7-3.4-4.5
		c-1.8-1.8-2-3.6-3.4-4.9c-0.7-0.7-4-3.4-4-4.5c0-1.6-0.4-3.4-0.9-5.4c-0.7-2.5,2.7-6.3,0.4-7.4c-0.4-0.4-3.1-2.9-4.3-4
		c-2-2-0.2-3.4-4-2.5c-2,0.4-1.1,4-2.5,5.4c-1.3,1.3-2.7,2.7-4,3.4c-1.8,0.9,3.1,3.8,3.4,4c2,0.9,2.7,2.7,4,3.8
		c1.6,1.6,2.5,2.2,2.9,4.5c0.4,2.2,0,5.1,0,7.4c0,1.1-2.5,3.6-2.9,4.5c-0.9,2-1.1,3.4-2.5,4.9c-1.3,1.3-0.9,4.3-0.9,6.3
		c0,1.8-2.7,2.7-4,4c-1.1,1.1-1.6,3.8-1.6,5.8c0,2.9-0.4,4.5-0.9,6.3c-0.4,1.3-3.1,2.7-3.8,3.4c-1.8,1.8-0.7,3.6,0.4,4.9
		c1.1,1.1,3.6,1.1,4.9,2.5c1.6,1.6,2.2,2.7,3.4,4c1.8,1.8,2.2,2,5.4,2c1.3,0-1.3,4.7-1.6,4.9c-0.9,1.8-1.6,3.6-2,5.4
		c-0.7,2.9-0.7,3.4-2.9,4.3c-2,0.9-2.7,1.6-5.8,1.6c-0.2,0-1.8,4.7-1.8,5.4c-0.7,2.2,1.1,4,1.8,5.4c0.9,1.8,0.9,4.7,1.6,5.8
		c1.3,2.7,2.7-2.7,2.9-3.4c0.7-2.9,0.9-3.4,2-5.4c1.1-2.2,2-2,2-5.4c0-1.6,5.4-0.7,5.8-0.4c1.6,0.4,0.9,4.9,0.9,6.3
		c0,0.9-3.4,2.9-4,3.4c-2,2-1.3,2.9,0,4.3c1.1,1.1,5.1,0.4,6.9,0c1.6-0.4,2.9-2.9,3.8-3.8c1.6-1.6,2.7-1.8,4.9-2.5s3.1-1.3,4.9,0.4
		c1.8,1.8,2.9,0.7,2.9,4.9c0,1.1,1.6,3.4,1.6,5.8c0,3.1,0.4,3.8,1.8,5.4c1.3,1.3,0.9,4,0.9,6.3c0,3.1,1.6,2.5,3.4,1.8
		c2.7-0.7,3.4,1.8,4.5,2.9c0.4,0.4,0.9,6,0.9,6.3c0.9,2,1.8,3.1,2.5,5.4c0.7,2.5,1.1,3.6,2.5,5.4c1.8,2.2,0,4.5-0.9,5.4
		c-1.8,1.8-2,2-2,5.4c0,2.5-0.4,4.3-0.9,6.3c-0.4,2.2,0.4,5.8,0.4,5.8c0.4,1.8,4.9,0.4,6.3,0.4c1.3,0,2.2,4,2.5,4.9s4.9,1.6,5.8,1.6
		c1.3,0,2.7,3.8,2.9,4.9c0.2,0.7,5.4,3.4,0.4,3.4s-0.4,2,0.4,2.9c1.6,1.6-2.2,4.7-2.5,4.9c-0.4,0.4-0.9,6-0.9,6.3
		c-0.4,1.8-0.4,4.3-0.4,6.7s-0.4,4-0.9,6.3c-0.7,2.7-0.4,4.3-0.9,6.3c-0.4,2.2,2,3.4,2.9,4.3c1.3,1.3,1.6,4.3,2,5.8
		c0.4,1.6,3.4,2.5,4.5,2.9c0.9,0.4-2.9,4.3-2.9,4.5c-1.1,1.1-0.2,4.5-1.6,5.8c-2,2-2.7,2.2-4.5,0.4c-1.3-1.3-3.6,1.8-4.5,3.4
		c-0.9,1.6-4.9,0.2-5.4,0c-2.2-1.1-1.3-3.1-4-0.4c-1.1,1.1-2.7,2.7-4,4c-1.1,1.1,5.8,2,5.8,2c1.3,0.4,2.5,4.9,2.5,5.4
		c0.4,2.5-0.9,4.3-2,5.4c-1.8,1.8-2.2,1.8-3.4,4c-0.9,1.6,2.9,2.7,2.9,4.5c0,2.5,0,4.9,0,7.4s0,5.1,0.4,6.9c0.4,1.6,3.4,1.1,4,3.4
		c0.4,2.2,0.7,4.3,1.3,5.8c1.3,2.5,1.6,4.3,2.9,1.6c0.7-1.1,1.6-3.4,2-5.4c0.4-1.8,2.5-4.3,3.4-5.4c0.7-0.9,3.6-2,4.5-2.9
		c1.6-1.6,5.6,1.1,6.3,1.6c1.3,0.7,2.2,1.6,3.4,2.5l0.4,0.4c1.1,1.6,2.5,2.9,2.9,4.9c0.4,1.6-0.4,3.8,0.4,5.8
		c0.9,1.8,0.9,4.3,0.9,6.9c0,2.7-2,4-2,5.4c0,2.2-0.2,4.5-0.9,6.3c-0.7,1.6-0.9,3.8-2,5.8c-0.7,1.3-1.8,4.7-2.5,5.8
		c0,0-2.7,5.1-3.4,4.3c-1.3-1.3-2.2-1.6-3.4-3.8c-0.9-1.8-1.8-2.5-2.9-4.9c-0.2-0.2-2.7-4.5-4-4c-1.6,0.9-2.9,2.2-2.9,4.5
		c0,3.1,0.4,3.8,1.6,5.8c0.4,0.9,2,4.3,0.9,6.3c-0.2,0.4-2.9,4.3-2.9,4.5c0,3.1,2.5,3.6,2.5,4.9c0,2.2-0.4,5.1,0,7.4
		c0.4,1.6,0.4,4.3,0.9,6.3c0.7,2.7,2,2.7,2,5.8c0,1.6,0.4,6-0.4,6.7c-0.9,0.9-2.9,2.9-2.9,4.5c0,1.8,0.7,5.6-0.9,6.3
		c-2.5,1.3-2,1.8-3.4,4.9c-1.1,2.2-2.5,2.5-4.3,4.3c-0.7,0.7-3.8,2.5-3.4,4c0.2,1.3,0,5.6,1.6,6.3c1.6,0.7,3.4,1.8,3.4,4.3
		c0,2.2,0.4,4.9-0.9,6.3c-0.9,0.9-3.1,3.8-4,4c-1.1,0.2-4.9,4.3-4,4.5c3.8,0.9,1.3,1.1,2.9,4.3c0.9,1.6,1.6,2.9,2.9,4.5
		c1.1,1.1,2.9,2.2,2.9,4.5c0,2.7,0.4,3.8,1.8,5.4c1.1,1.1,2.2,2.9,1.6,5.8c-0.7,2.7-0.2,3.6-2,5.4c-1.3,1.3-2,2.5-3.8,4
		c-1.1,0.9-4,2-5.4,3.4c-0.9,0.9-2.9,3.1-2.5,4.9c0.9,3.4,1.8,1.3,4,3.4c0.9,0.9,1.8,3.8,2.9,4.5c1.8,0.9,3.4,1.1,4,3.4
		c0.9,3.6,1.3,1.8,3.4,4c1.1,1.1,2,2.9,2.5,4.9c0.4,1.8-2.5,5.8-0.4,5.8c1.6,0,4.7,0.7,5.4,2c0.7,1.3,1.1,3.6,2.5,4.9
		c1.1,1.1-0.2,5.1,1.6,4.9c1.3-0.2,2.2-1.6,3.4-1.8c2.5-0.7,2.7,0,3.4,2.9c0.4,1.6,1.3,3.8,3.4,4.5c2.7,0.7,3.1,0.7,4.9,2.5
		c0.9,0.9,4,3.4,2.9,5.4c-0.2,0.7-3.4,3.6-3.4,4c0,2.9,0.9,4.3,2,6.3c0.2,0.2,2,5.4,2.5,5.4c1.8,0.4,4,1.1,5.8,1.6
		c1.8,0.4,3.4,1.6,3.4,4c0,3.1-0.7,3.4-2,5.8c-0.2,0.4-3.1,4.3-2,5.4c0.7,0.7,2.7,2.9,4.5,2.9c4,0,2,0.4,2,3.4
		c0,2.9,0.7,4.3,3.4,2.9c2.7-1.3,2-1.3,2-4.5c0-1.6-2-4.5-0.4-4.9c2-0.4,3.8-1.1,5.4-2c1.8-0.9,2.2-1.8,3.8-3.4
		c1.3-1.3,2.7-3.8,4.5-3.4c1.1,0.2,2.9,0.4,4,2.5c1.1,2,2.5,2.5,4.5,3.4c2.5,1.3,0.9,4.3,2.9,5.4c1.3,0.7,2.2,2,2.9-0.4
		c1.3-5.1,0-0.4,2-0.4c3.1,0,1.6,0.9,3.4,2.9c0.2,0.2,3.1,4.3,4.9,2.5c0.9-0.9,2.5-3.4,4.5-4c1.1-0.2,4.9-1.1,5.4-2
		c0.7-1.6,2-2.7,2.9-4.5c0.9-1.8,1.3-2.9,2.9-4.5c1.6-1.6,2.9-1.8,4.5-3.4c1.3-1.3,2.9-2,4.9-4c0.9-0.9,3.1-2.9,3.4-4.5
		c0.4-1.6,1.6-4.5,2.9-1.6c2.5,4.9,0.7-0.7,2-2c1.6-1.6,1.1-2.9,2-5.8c0.2-0.7,0.2-6,0.9-6.3c0.7-0.2,4.3-2,4-3.4
		c-0.7-2.5-1.8-2.2-2.9-4.5c-0.4-0.9-4-2.7-4-3.4c0-2.7,0-4.5-0.9-6.3c-0.9-2-1.1-3.1,0-5.4c0.7-1.3,2-3.4,2.5-4.9
		c0.7-2.5,1.8-2.5,2.9-4.9c0.7-1.3,1.3-3.8,2.9-5.4c1.6-1.6,1.8-2.9,3.4-4.5c1.1-1.1,1.8-3.6,3.4-4c2.5-0.7,3.4,0,5.4,2
		c1.3,1.3,2.5,2,4,3.4c0.4,0.4,5.1,4.7,5.4,4c0,0,0.7-6,0.9-6.3c1.3-1.3,2-2.5,3.4-4c1.6-1.6,1.3-2.5,4.9-2.5c2.9,0,4.3-0.2,5.8,1.3
		c1.6,1.6,2.5,1.6,5.8,1.6c1.8,0,5.6-0.7,6.9,0.4c1.1,1.1,2.9,1.6,4,3.4c0.4,0.9,2.5,4.5,4,4.9c1.6,0.4,4.5,0.4,6.3,0.9
		c1.6,0.4,3.4,2.2,3.4,4.5c0,3.8,1.3,2.2,3.4,3.8c0.7,0.4,3.4,3.8,4,4c2,0.4,3.6,1.1,5.8,0.4c1.8-0.4,3.4-2.5,4.9-2.5
		c3.4,0,3.8,0.2,4.9,2.5c0.7,1.3,2,3.1,2,5.4c0,1.1,2.5,6.5,3.4,4.5c0.7-1.1,0.9-3.8,1.3-5.8c0.7-2.5,1.6-2.7,4-4
		c2.5-1.3,3.1-1.1,4-4c0.4-1.3,0.2-4.7,1.6-5.8c1.3-1.3,2.2-3.1,0.4-4.9c-1.6-1.6-1.6-2.5-1.6-5.8c0-2.9,0.4-4.5,0.9-6.7
		c0.4-1.8-1.8-5.4,0-5.8c2.2-0.4,1.6-0.7,2.9-3.4c0.7-1.3,2-2.5,3.4-4c0.2-0.2,5.4-2.2,5.4-2.5c1.3-2.7,0.7-1.8-1.6-4
		c-0.9-0.9-4.3-2-4.3-3.4c0-2.5,0-4.9,0-7.4c0-2.2-0.4-4.9,0.4-6.7c0.9-1.6,2.9-2.7,3.4-4.5c0.7-2.5,0.9-3.8,2-5.8
		c1.1-2,2.5-3.6,2.5-6.3c0-2.5,0-4.7,0.4-6.9c0.4-1.8,1.6-4,0.9-6.3c-0.4-1.8-3.4-2.7-3.4-4c0-0.7-1.1-7.2-0.4-7.4
		c2-0.4,4-1.8,4.9-3.4c0.7-1.6,0.9-3.6,0.9-6.3c0-2.5,0-4.9,0-7.4s-1.6-4.3-1.6-5.8c0-3.1-1.6-3.1-1.6-5.8c0-2.9,1.1-4.7,1.6-5.8
		c0.4-2,2.9-3.1,2.9-4.9c0-2.5-0.9-4.7,0-6.3c0.9-1.8,2-3.1,2.5-5.4c0.7-2.5,0.7-3.8-0.9-5.4c-1.6-1.6-2-1.8-2-5.4
		c0-4.5,0-2.9,0.9-7.4c0.2-0.7,0.2-2.2,0.4-3.4c0.4-1.6,0.7-5.4,2-5.8c1.6-0.7,4-1.1,4-4c0-4.3-0.9-2.2-2.9-4.3
		c-0.9-0.9-2.7-3.6-0.9-5.4c2-2,1.1-1.8,2-5.4c0.7-2.7,2.2-2.9,2.9-4.5c0.9-1.6,2.5-3.1,0-4.3c-1.8-0.9-2.9-1.6-2.9-4.5
		c0-1.8-0.7-5.8,0-7.4c0.9-1.6,2-3.8,2-5.8c0-2.5-0.2-4.7,0.9-5.8s2.5-2,3.4-4c0.7-1.3,2.5-3.4,2-5.8c-0.4-1.6-0.2-4.5-1.6-5.8
		c-1.1-1.1-3.6-1.1-4.9-2.5c-1.3-1.3-3.4-2.2-4.9-4c-1.3-1.3-2.7-2.7-3.4-4.5c-0.9-1.8-2-2.9-2.5-4.9c-0.4-2-0.4-3.8-2-5.4
		c-1.6-1.6-2-2-2-5.4c0-2,1.3-5.4,0.9-6.3c-0.9-1.6-2-2.9-2-5.4c0-2-0.2-5.4,0.9-6.3c1.3-1.3,1.3-2.7,2.5-4.9
		c0.7-1.3,2.5-3.4,2.9-4.9c0.4-2.2,1.6-3.1,2.5-4.9c0.7-1.6,1.6-2.9,2.9-4.5c0.7-0.7,2.7-3.6,2.9-4.9c0.2-1.3,3.4-3.4,4.3-3.8
		c1.8-0.9,2-2.5,4-3.4c0.7-0.4,4.7-1.3,5.4-2c1.6-1.6,1.3-2.7,2-5.4c0.4-1.3,0.7-4.5,1.6-6.3c0.7-1.3,2.5-2.7,2.9-4.3
		c0.2-0.9,0.4-5.6,1.8-5.8c2-0.4,2.2-2.5,2.9-4.9c0.4-1.8,0.7-4.9,2-6.3c1.6-1.6,2-2.2,0-4.5c-0.7-0.7-2-4-2.9-4.5
		c-3.1-1.3-2.2-0.9-3.8-4c-1.1-2-2.7-2-2-4.9c1.1-4.7-3.4,0.4-4-2c0-0.2-0.4-4.5-2-4.9c-0.9-0.2-4-3.4-4-3.4c1.3-1.3,2-2.5,3.4-4
		c1.3-1.3,1.1-3.4-2-3.4c-3.8,0-2.5-2.9,0-2.5c4,0.9,0.9-1.6,2.9-3.4c1.1-1.1,2.7-4.3,0.4-5.4c-1.1-0.7-2.5-4.3-2.9-4.5
		c-1.8-0.4-4.7-0.2-5.4-2.5c-0.4-1.6,3.1-3.1,2-4.3c-2-2-1.6-1.8-1.6-4c0-4-1.3-2.7-3.8-4c-2.5-1.1-2.7-1.6-4-4
		c-0.4-1.1,0.7-4.7,0.4-4.9c-0.9-1.6-4.3-2.7-3.4-4.5c0.9-2,3.6-1.3,4.5-2.9c0.7-1.3,0.7-5.6,2-5.8c0.7-0.2,5.1-2.2,4.9-2.5
		c-0.4,0-6-0.2-6.3-0.9c0-0.4-0.4-4.7-2.5-2.9c-0.2,0.2-5.8,2.9-4.9,0.9c0.4-0.7,0.9-2,1.3-3.1l1.1-1.3c-0.2,0-0.4,0-0.7,0
		c0.2-0.9,0.2-1.6-0.2-0.9l-0.9,1.1c-0.4,0-0.9,0-1.1,0c-2-0.4-4-0.7-4.9-2.5c-1.1-2.5-0.2-2,0.9-4.5c0.2-0.4,3.4-3.8,3.4-4
		c-0.4-1.6-1.8-2.5-4-2.5c-2.7,0-4.3,0-4.9,2.5c-0.7,2.9-1.1,3.1-4,2.5c-2.7-0.7-2.7-2.5-4.5-2.9c-2.5-0.7-2.7-0.7-5.4,0
		c0,0-6.5,1.3-6.7,0.4c-0.4-1.6-0.4-3.8,2-4.3c0.9-0.2,4-3.1,4.3-2c0.4,1.8,1.8,3.6,4.5,2.9c3.4-0.9,0.4-2.5,2-5.4
		c0.9-1.8,2.9-2.9,2.9-4.5c0-3.6,1.8-3.8,2.5-6.3c0.9-4,2.2-0.7,4.3-2.9c0.4-0.4,4.7-2.7,3.4-3.4c-1.1-0.7-3.4,0-4.9-1.6
		c-1.1-1.1-4.9-3.1-4.9-1.6c0,1.6-0.7,5.4-2.5,4.9c-3.1-0.7-2-1.3-2-4.5c0-0.7,1.3-5.8,0.4-4.9c-0.7,0.7-1.8,1.1-2.9,1.6
		c-1.1,0.2-3.1,2.2-3.4,2.9c-0.2,0.7-4.3,4.5-4.3,2.9c0-3.4,1.3-3.1,1.8-4.9c0.4-2-2-5.8,0-6.3c0.2,0,6.7-1.8,4.5-2.9
		c-4.7-2.2,0.2-2.5,0-2.9c-0.9-3.6,1.6-0.9,2.5-2.9c0.7-1.3,2-3.4,2.5-4.9c0.7-2.9-0.2-3.6-1.6-2.9c-3.4,1.8-1.3,0.2-2.5-2
		c-0.9-2-2.5-2.9-2.9-4.9c0-0.4-2-6.3-3.4-4.9c-2.2,2.2-0.9,2-4.5,2.9c-1.1,0.2-4.5,0-4.9,2c-0.4,1.6,0,4.7-0.4,6.7
		c-0.7,2.2-4.5,2.7-4,0.4c0.4-2,2.9-5.8,0.9-5.8c-2.9,0-3.4-1.3-4.9-2.9c-1.6-1.6-6.3-2.5-4.9-4c0.2-0.2,5.4-3.4,3.4-4.5
		c-0.7-0.4-4.5-0.9-5.4-2c-1.6-1.6-5.8,0.7-6.3-1.6c-0.2-0.9-0.2-3.8-2-4.3c-0.9-0.2-5.4-0.9-5.8,0.4c-0.4,1.8-1.1,3.8-3.4,3.8
		c-2.9,0-4.7,0-6.9-0.9C277,46.7,273,44,275,42c0.2-0.2,4-3.4,2.5-4.9c-0.7-0.7-2-4.7-2.9-4.9c-2-0.4-3.8-0.4-5.4-2
		C270.5,30.3,269.4,29.2,268.5,29.2L268.5,29.2z M318,32.1c1.3,0.4-2,4.7-2,6.3c0,0.2-3.1,2.7-3.4,4c-0.2,0.7,2,3.6,2,4.3
		c0,1.3-2.9,2.9-4,4c-0.9,0.9,5.1-0.9,5.4-0.9c1.8-0.9,4.3-0.9,4.5-0.9c2-0.4,0.7-4,1.6-5.8c1.1-2.2,1.6-3.6,1.6-4.9
		c0-0.9-2.5-3.1-2.9-4.9C320.2,32.1,318.9,32.3,318,32.1z M84.3,66.4c0,0,0,0-0.2,0.2l0.2,0.2C84.3,66.6,84.3,66.4,84.3,66.4
		L84.3,66.4z M84,66.8c-0.4,1.1-2.2,4-3.6,4.7c-1.6,0.7-2.7-0.7-4,0.4c-1.1,1.1,1.8,3.4,1.6,4.9c-0.4,2-0.4,3.4-0.4,4
		c-0.2,1.1-6.9-0.9-2,1.6c2.5,1.3-4,1.8-4.5,1.8c-1.6,0.4-2.5,2.7-3.8,3.4c-2.2,1.1-2.7,1.1-4,3.4c-0.4,0.9,1.8,1.8,1.6,2.9
		c-0.7,2.2-2.5,2.5,0.4,4c1.3,0.7-1.1,3.6,0,4.9c1.6,1.6,3.6,1.1,4.9,2.5c2.5,2.5,3.8-0.9,4.5-2c0.4-0.7-0.4-5.4-0.4-5.8
		c-0.7-2.9-2.5-2-2.5-5.4c0-1.8,1.1-4,2.9-4.5c1.8-0.4,2-3.6,2.5-4.9c0.9-3.4,2.7,0.2,2.9,1.6c0.2,0.4,4.5,2,4.9,2.5
		c1.8,1.8,3.4,0.7,3.8-1.6c0.7-2.5,0.9-4,0.9-6.3c0-2.5,1.6-4,2-4.5c1.1-1.1-2.7-2.2-4-3.4C86.1,69.5,86.3,68.6,84,66.8z
		 M354.7,95.9c-1.3,0.4-3.4,3.6-3.6,4c-0.4,1.1,3.4,3.1,4,3.4c2.7,1.3,3.6-1.8,4-3.4c0.4-1.8-2-2.7-3.4-3.4
		C355.4,95.9,355.1,95.7,354.7,95.9z M371.5,118.3c-0.9,0.2-3.8,4-5.1,5.4c-1.6,1.6-3.1,1.8-4.3,2.9c-1.8,1.8-2.7,2.5,0.9,2.5
		c2.7,0,4-1.3,6.3-2c2-0.4,3.4-1.8,4.5-2.9c2.5-2.5,1.6-3.1-2-5.4C371.7,118.5,371.7,118.3,371.5,118.3z M81.3,576.8
		c-0.2,0-0.7,0.7-1.8,1.8c-1.6,1.6-3.6,1.3-5.4,0.4c-0.7-0.4-3.1,2.9-4.9,2.9c-2,0-4.3,1.3-5.4,2.5c-2.2,2.2-0.2,3.1,0.9,4.3
		c1.1,1.1,4,0.7,5.4,2c2,2,1.6,4,1.6,6.9c0,1.8,2.5,3.1,4,3.4c2.7,0.7,2.7,1.6,4.9,0.4c2.5-1.1,1.8-2.2,2.5-4.9
		c0.9-3.1-0.2-3.6,2.5-4.9c3.4-1.8-0.9-3.4-2.5-4c-1.6-2.2,0.7-5.8-0.4-8.3C81.6,577.7,81.8,576.6,81.3,576.8z M96.8,594.9
		c0,0-0.2,0-0.4,0C96.6,595.2,96.8,595.2,96.8,594.9C96.8,595.2,97,594.9,96.8,594.9z M96.8,595.2c0,0.7-2.9,3.6-4.3,3.8
		c-2.5,0.7-1.3,4-0.9,5.8c0.7,3.1-0.2,4,1.6,5.8c1.1,1.1,1.1,4.5,1.6,5.8c0.7,2.2,1.6,3.4,2.5,4.9c1.1,2,1.6,3.8,2.9,5.4
		c0.7,0.7,2,4,2.5,4.9c1.6,3.1-0.9,3.4,2.9,4.5c2,0.4,3.1-2.7,4-3.4c1.8-1.8,2.5-1.8,2.5-4.9c0-2.7,0.4-4,0.4-6.7
		c0-3.6,0.4-3.8,2.5-5.4c2-1.6-2.9-4.3-2.9-4.5c-1.3-1.3,2.9-2.7,3.4-4.5c0.2-1.3-0.7-3.8-2.9-3.8c-0.2,0-2.2-4.9-2.5-5.4
		c-0.4-1.8-6,0.4-6.3,0.4c-2.5,0.7-3.1,1.8-4-1.6C99.3,595.6,97.9,595.4,96.8,595.2z"/>
</g>
</svg>
