<svg width="101" height="100" viewBox="0 0 101 100" fill="none" xmlns="http://www.w3.org/2000/svg">
<path d="M37.4961 0C39.2657 0 40.1635 2.12921 38.928 3.39625L3.43196 39.7999C2.17951 41.0844 0 40.1977 0 38.4037V2C0 0.895433 0.895431 0 2 0H37.4961Z" fill="url(#paint0_linear_383_541)"/>
<path d="M100.001 81.8279V94.9999C100.001 96.1045 99.1059 96.9999 98.0014 96.9999H82.5001H67.131C66.0265 96.9999 65.131 96.1045 65.131 94.9999V82.0461C65.131 81.9011 65.1156 81.7562 65.0828 81.6149C63.1817 73.4136 56.3877 66.7625 47.4489 64.0494C44.6494 63.1908 41.6234 62.7258 38.4946 62.7258C38.1603 62.7258 34.9252 62.7792 31.647 62.8399C29.6243 62.8773 28.6512 59.9932 30.2895 58.8065L60.6465 36.8179C61.1807 36.431 61.8725 36.329 62.4867 36.5694C65.5666 37.7746 68.8421 39.5123 71.574 41.0302C87.4242 49.7764 98.3546 64.6575 100.001 81.8279Z" fill="url(#paint1_linear_383_541)"/>
<path d="M61.9801 36.7019L47.4267 64.0494C44.6272 63.1909 41.6013 62.7259 38.4724 62.7259C37.7932 62.7259 37.0933 62.7438 36.4346 62.7974L61.9801 36.7019Z" fill="#0E835F"/>
<path d="M93.1632 0C94.9349 0 95.8317 2.13346 94.5921 3.39932L61.9802 36.7018L36.4347 62.7974L17.7851 81.8279L11.445 88.3205L3.42848 96.5013C2.17453 97.7809 0 96.8931 0 95.1015V54.6356C0 54.112 0.205371 53.6092 0.571999 53.2353L17.6616 35.8075L52.1496 0.600454C52.5258 0.216421 53.0407 0 53.5783 0H93.1632Z" fill="url(#paint2_linear_383_541)"/>
<defs>
<linearGradient id="paint0_linear_383_541" x1="39.3902" y1="4.07791" x2="20.6177" y2="37.8071" gradientUnits="userSpaceOnUse">
<stop stop-color="#1CAE81"/>
<stop offset="1" stop-color="#1A9E76"/>
</linearGradient>
<linearGradient id="paint1_linear_383_541" x1="95.7146" y1="40.9499" x2="80.2727" y2="81.0183" gradientUnits="userSpaceOnUse">
<stop stop-color="#1CAE81"/>
<stop offset="1" stop-color="#199971"/>
</linearGradient>
<linearGradient id="paint2_linear_383_541" x1="91.3154" y1="9.41353" x2="48.0776" y2="87.4306" gradientUnits="userSpaceOnUse">
<stop stop-color="#1CAE81"/>
<stop offset="1" stop-color="#1A9E76"/>
</linearGradient>
</defs>
</svg>
