<?xml version="1.0" encoding="utf-8"?>
<!-- Generator: Adobe Illustrator 24.0.1, SVG Export Plug-In . SVG Version: 6.00 Build 0)  -->
<svg version="1.1" id="Livello_1" xmlns="http://www.w3.org/2000/svg" xmlns:xlink="http://www.w3.org/1999/xlink" x="0px" y="0px"
	 viewBox="0 0 595.3 595.3" style="enable-background:new 0 0 595.3 595.3;" xml:space="preserve">
<style type="text/css">
	.st0{fill:#009FE3;}
	.st1{fill:#009A5E;}
</style>

<g>
	<path class="st1" d="M343,290.5h-73.1c-3.4-12.2-15.1-21-28.6-19.8c-13.1,1.2-23.6,11.9-24.4,25.1c-1.1,15.8,11.4,28.9,27,28.9
		c12.5,0,22.9-8.4,26.1-19.9H343c4,0,7.2-3.2,7.2-7.2v0C350.2,293.7,346.9,290.5,343,290.5z"/>
	<path d="M366.9,223.6c0,15.5-13.1,28-28.8,27c-13.5-0.8-24.4-11.8-25.3-25.3c-1-15.7,11.5-28.8,27-28.8
		C354.8,196.6,366.9,208.7,366.9,223.6"/>
	<path class="st1" d="M270.9,297.6c0,15.5-13.1,28-28.8,27c-13.5-0.8-24.4-11.8-25.3-25.3c-1-15.7,11.5-28.8,27-28.8
		C258.8,270.6,270.9,282.7,270.9,297.6"/>
	<path d="M332.3,230.8H223.9c-4,0-7.2-3.2-7.2-7.2l0,0c0-4,3.2-7.2,7.2-7.2h108.3c4,0,7.2,3.2,7.2,7.2l0,0
		C339.5,227.6,336.2,230.8,332.3,230.8z"/>
	<path d="M366.9,371.9c0,15.5-13.1,28-28.8,27c-13.5-0.8-24.4-11.8-25.3-25.3c-1-15.7,11.5-28.8,27-28.8
		C354.8,344.8,366.9,356.9,366.9,371.9"/>
	<path d="M332.3,379H223.9c-4,0-7.2-3.2-7.2-7.2l0,0c0-4,3.2-7.2,7.2-7.2h108.3c4,0,7.2,3.2,7.2,7.2l0,0
		C339.5,375.8,336.2,379,332.3,379z"/>
	<path d="M194.5,203.5c2.5-2.5,0.7-6.9-2.9-6.9h-0.8h-42.2h-0.1c-1.1,0-2.1,0.4-2.8,1.2l-0.1,0.1l-87.1,85.9
		c-2.6,2.5-6.9,0.7-6.9-2.9v-79.9v-0.3c0-2.2-1.8-4-4-4h-0.3H11.3H11c-2.2,0-4,1.8-4,4v0.3v193.4v0.3c0,2.2,1.8,4,4,4h0.3h35.8h0.3
		c2.2,0,4-1.8,4-4v-0.3v-45.7c0-1.1,0.4-2.1,1.2-2.9l26.9-26.9c1.7-1.7,4.6-1.5,6.1,0.4l58.8,77.7l0.1,0.1c0.8,1,2,1.6,3.2,1.6h0.2
		H191h0.7c3.3,0,5.2-3.8,3.2-6.4l-0.4-0.5l-78.2-105c-1.2-1.6-1-3.8,0.4-5.3l77.2-77.5L194.5,203.5z"/>
	<path d="M580.6,196.6h-36.5h0c-1.5,0-2.9,0.8-3.7,2l0,0l-52.2,82.6c-1.7,2.7-5.6,2.7-7.4,0l-53.3-82.7l0,0c-0.8-1.2-2.2-2-3.7-2h0
		h-36.1h0c-3.4,0-5.5,3.7-3.7,6.6l0,0l78,128c0.4,0.7,0.6,1.5,0.6,2.3v60.8v0c0,2.4,2,4.4,4.4,4.4h0h35.5h0c2.4,0,4.4-2,4.4-4.4v0
		v-61.9c0-0.8,0.2-1.6,0.6-2.3l76.8-126.9l0,0C586.1,200.3,584,196.6,580.6,196.6L580.6,196.6z"/>
</g>
</svg>
