<?xml version="1.0" encoding="utf-8"?>
<!-- Generator: Adobe Illustrator 24.0.1, SVG Export Plug-In . SVG Version: 6.00 Build 0)  -->
<svg version="1.1" id="Livello_1" xmlns="http://www.w3.org/2000/svg" xmlns:xlink="http://www.w3.org/1999/xlink" x="0px" y="0px"
	 viewBox="0 0 595.3 595.3" style="enable-background:new 0 0 595.3 595.3;" xml:space="preserve">
<style type="text/css">
	.st0{fill:#009FE3;}
</style>
<g>
	<path d="M366.9,203.8c0,14.9-12.1,27.1-27.1,27.1c-14.9,0-27.1-12.1-27.1-27.1c0-14.9,12.1-27.1,27.1-27.1
		C354.8,176.7,366.9,188.8,366.9,203.8"/>
	<rect x="216.8" y="196.6" width="122.7" height="14.4"/>
	<path d="M366.9,391.5c0,14.9-12.1,27.1-27.1,27.1c-14.9,0-27.1-12.1-27.1-27.1c0-14.9,12.1-27.1,27.1-27.1
		C354.8,364.5,366.9,376.6,366.9,391.5"/>
	<rect x="216.8" y="384.3" width="122.7" height="14.4"/>
	<path class="st0" d="M350.2,290.5h-80.3c-3.1-11.4-13.6-19.9-26.1-19.9c-14.9,0-27.1,12.1-27.1,27.1c0,14.9,12.1,27.1,27.1,27.1
		c12.5,0,22.9-8.4,26.1-19.9h80.3V290.5z"/>
	<polygon points="201.3,196.6 190.8,196.6 148.6,196.6 146.8,196.6 145.5,197.8 51.5,290.5 51.5,200.9 51.5,196.6 47.1,196.6 
		11.3,196.6 6.9,196.6 6.9,200.9 6.9,394.3 6.9,398.7 11.3,398.7 47.1,398.7 51.5,398.7 51.5,394.3 51.5,347 82.8,315.6 144.4,397 
		145.7,398.7 147.9,398.7 191,398.7 199.7,398.7 194.5,391.7 114.3,284 193.9,204 	"/>
	<polygon points="580.6,196.6 544.2,196.6 541.7,196.6 540.5,198.6 484.6,287 427.5,198.6 426.2,196.6 423.9,196.6 387.7,196.6 
		379.9,196.6 384,203.2 462.6,332.3 462.6,394.3 462.6,398.7 467,398.7 502.5,398.7 506.9,398.7 506.9,394.3 506.9,331.2 
		584.3,203.2 588.4,196.6 	"/>
</g>
</svg>
