<svg width="55" height="56" viewBox="0 0 55 56" fill="none" xmlns="http://www.w3.org/2000/svg">
<g clip-path="url(#clip0_373_460)">
<path d="M19.4794 19.8335L33.1256 2.2223L36.1677 0H27.4469L13.7621 16.7951C8.44076 23.3243 8.33453 32.7642 13.511 39.4212L26.4329 56.0098H38.5L19.4118 36.2943C15.7129 31.4465 15.7419 24.6518 19.4794 19.8335Z" fill="#073042" fill-opacity="0.1"/>
<path d="M3.36084 56.0001H16.7849L0 33.9934V52.5781C0 54.4661 1.50658 56.0001 3.36084 56.0001Z" fill="#1CAE81"/>
<path d="M0 3.27445V22.0362L17.0843 0H3.21598C1.43898 0 0 1.46514 0 3.27445Z" fill="#188963"/>
<path d="M33.1255 2.22241L19.4793 19.8238C15.7418 24.6421 15.7128 31.4368 19.4117 36.2846L33.0772 54.2006C33.9367 55.3315 35.2695 55.9903 36.6698 55.9903H51.2238C53.3098 55.9903 54.9999 54.2695 54.9999 52.1455V50.7983C54.9999 46.1473 53.3581 41.6535 50.3643 38.1332L46.028 33.0298C46.0377 33.0494 26.3748 13.8551 33.1255 2.22241Z" fill="#1CAE81"/>
<path d="M54.9998 7.53222C54.9998 3.37278 51.6872 0 47.6021 0H36.4572C35.4432 0 34.4774 0.471993 33.8497 1.28815L33.1157 2.23213C26.365 13.855 46.0279 33.0493 46.0279 33.0493C43.768 30.3846 43.7004 26.4513 45.8734 23.7176L52.1218 15.8413C53.9858 13.4911 54.9998 10.551 54.9998 7.53222Z" fill="#188963"/>
</g>
<defs>
<clipPath id="clip0_373_460">
<rect width="55" height="56" fill="white"/>
</clipPath>
</defs>
</svg>
