<?xml version="1.0" encoding="utf-8"?>
<!-- Generator: Adobe Illustrator 20.0.0, SVG Export Plug-In . SVG Version: 6.00 Build 0)  -->
<svg version="1.1" id="Livello_1" xmlns="http://www.w3.org/2000/svg" xmlns:xlink="http://www.w3.org/1999/xlink" x="0px" y="0px"
	 viewBox="0 0 352 350" style="enable-background:new 0 0 352 350;" xml:space="preserve">
<style type="text/css">
	.st0{fill:#FD3C53;}
	.st1{clip-path:url(#SVGID_2_);}
	.st2{fill:#FFFFFF;}
</style>
<g>
	<g>
		<circle class="text-primary-200 fill-current " cx="176" cy="175" r="169.5"/>
		<g>
			<g>
				<g>
					<defs>
						<rect id="SVGID_1_" x="44.6" y="30.8" width="267" height="284"/>
					</defs>
					<clipPath id="SVGID_2_">
						<use xlink:href="#SVGID_1_"  style="overflow:visible;"/>
					</clipPath>
					<g class="st1">
						<path class="st2" d="M234.9,204.8l10.3-17.1c1-1.7-0.2-3.9-2.2-3.9h-39.4c-5.9,0-9.6,6.1-6.6,11l43.8,72.4
							c1.7,2.8,5.7,2.8,7.4,0l54.5-90.1c0.8-1.4,0.8-3.1,0-4.5l-54.4-90.1c-1.7-2.8-5.7-2.8-7.4,0l-43.8,72.4c-3,4.9,0.7,11,6.6,11
							h39.4c2,0,3.2-2.2,2.2-3.9L235,144.9c-0.4-0.5-0.4-1.3,0-1.8l8.9-14.7c0.7-1.1,2.3-1.1,3,0l27.5,45.5c0.4,0.5,0.4,1.3,0,1.8
							l-27.5,45.7c-0.7,1.1-2.3,1.1-3,0l-8.9-14.7C234.7,206,234.7,205.3,234.9,204.8z"/>
						<path class="st2" d="M117.2,141.7H99.4c-1.3,0-2.2-1.5-1.5-2.7l27.7-45.4c0.3-0.5,0.9-0.8,1.5-0.8l55.3-0.1
							c1.3,0,2.2,1.5,1.5,2.7L175,110c-0.3,0.5-0.9,0.8-1.5,0.8l-21,0.1c-2,0-3.2,2.2-2.2,3.9l19.6,32.4c3,5,10.3,5,13.3,0
							l43.4-71.8c1.8-2.9-0.3-6.6-3.7-6.6H114c-1.5,0-2.9,0.8-3.7,2.1L56,160.6c-1.8,2.9,0.3,6.6,3.7,6.6H147c5.9,0,9.6-6.1,6.6-11
							l-19.8-32.7c-1-1.6-3.4-1.6-4.4,0l-10.6,17.4C118.4,141.4,117.8,141.7,117.2,141.7z"/>
						<path class="st2" d="M170,202.2l-20.4,33.7c-0.7,1.2,0.1,2.7,1.5,2.7l22.5,0.1c0.6,0,1.2,0.3,1.5,0.8l8.8,14.6
							c0.7,1.2-0.1,2.7-1.5,2.7l-55.3-0.1c-0.6,0-1.2-0.3-1.5-0.8l-27.7-45.4c-0.7-1.2,0.1-2.7,1.5-2.7h17.8c0.6,0,1.2,0.3,1.5,0.8
							l11.4,18.7c0.7,1.1,2.3,1.1,3,0l20.5-33.9c3-4.9-0.7-11-6.6-11H59.6c-3.4,0-5.5,3.7-3.7,6.6l54.3,89.7
							c0.8,1.3,2.2,2.1,3.7,2.1H223c3.4,0,5.5-3.7,3.7-6.6l-43.5-71.8C180.2,197.2,173,197.2,170,202.2z"/>
					</g>
				</g>
			</g>
		</g>
	</g>
</g>
</svg>
