<?xml version="1.0" encoding="utf-8"?>
<!-- Generator: Adobe Illustrator 24.0.1, SVG Export Plug-In . SVG Version: 6.00 Build 0)  -->
<svg version="1.1" id="Livello_1" xmlns="http://www.w3.org/2000/svg" xmlns:xlink="http://www.w3.org/1999/xlink" x="0px" y="0px"
	 viewBox="0 0 1000 369.8" style="enable-background:new 0 0 1000 369.8;" xml:space="preserve">
<style type="text/css">
	.st2{fill:#FFFFFF;}
</style>
<g class="text-primary-200 dark:text-light-100 fill-current">
	<g>
		<circle class="text-primary-200 dark:text-primary-200 fill-current" cx="212.6" cy="185.1" r="169.5"/>
		<g>
			<g>
				<defs>
					<rect id="SVGID_1_" x="81.2" y="40.9" width="267" height="284"/>
				</defs>
				<clipPath id="SVGID_2_">
					<use xlink:href="#SVGID_1_"  style="overflow:visible;"/>
				</clipPath>
				<g class="text-light-100 dark:text-light-100 fill-current">
					<path class="fill-current" d="M271.5,214.9l10.3-17.1c1-1.7-0.2-3.9-2.2-3.9h-39.4c-5.9,0-9.6,6.1-6.6,11l43.8,72.4
						c1.7,2.8,5.7,2.8,7.4,0l54.5-90.1c0.8-1.4,0.8-3.1,0-4.5l-54.4-90.1c-1.7-2.8-5.7-2.8-7.4,0L233.7,165c-3,4.9,0.7,11,6.6,11
						h39.4c2,0,3.2-2.2,2.2-3.9L271.6,155c-0.4-0.5-0.4-1.3,0-1.8l8.9-14.7c0.7-1.1,2.3-1.1,3,0L311,184c0.4,0.5,0.4,1.3,0,1.8
						l-27.5,45.7c-0.7,1.1-2.3,1.1-3,0l-8.9-14.7C271.3,216.1,271.3,215.4,271.5,214.9z"/>
					<path class="fill-current" d="M153.8,151.8H136c-1.3,0-2.2-1.5-1.5-2.7l27.7-45.4c0.3-0.5,0.9-0.8,1.5-0.8l55.3-0.1
						c1.3,0,2.2,1.5,1.5,2.7l-8.9,14.6c-0.3,0.5-0.9,0.8-1.5,0.8l-21,0.1c-2,0-3.2,2.2-2.2,3.9l19.6,32.4c3,5,10.3,5,13.3,0
						l43.4-71.8c1.8-2.9-0.3-6.6-3.7-6.6H150.6c-1.5,0-2.9,0.8-3.7,2.1l-54.3,89.7c-1.8,2.9,0.3,6.6,3.7,6.6h87.3
						c5.9,0,9.6-6.1,6.6-11l-19.8-32.7c-1-1.6-3.4-1.6-4.4,0L155.4,151C155,151.5,154.4,151.8,153.8,151.8z"/>
					<path class="fill-current" d="M206.6,212.3L186.2,246c-0.7,1.2,0.1,2.7,1.5,2.7l22.5,0.1c0.6,0,1.2,0.3,1.5,0.8l8.8,14.6
						c0.7,1.2-0.1,2.7-1.5,2.7l-55.3-0.1c-0.6,0-1.2-0.3-1.5-0.8l-27.7-45.4c-0.7-1.2,0.1-2.7,1.5-2.7h17.8c0.6,0,1.2,0.3,1.5,0.8
						l11.4,18.7c0.7,1.1,2.3,1.1,3,0l20.5-33.9c3-4.9-0.7-11-6.6-11H96.2c-3.4,0-5.5,3.7-3.7,6.6l54.3,89.7c0.8,1.3,2.2,2.1,3.7,2.1
						h109.1c3.4,0,5.5-3.7,3.7-6.6l-43.5-71.8C216.8,207.3,209.6,207.3,206.6,212.3z"/>
				</g>
			</g>
		</g>
	</g>
	<g class="hidden lg:block">
		<path d="M431,115.1h-6.6c-2.8,0-5-0.8-6.6-2.4s-2.5-3.9-2.5-6.7V45l0.7-0.7h5.7c3,0,5.3,0.8,6.9,2.4
			c1.6,1.6,2.3,4.1,2.3,7.6v60.8H431z M458.6,101.6c0,5-0.8,8.5-2.4,10.5s-4.3,3-8.2,3h-23.7l-8.3-11.3c4.3-0.8,8.6-1.3,12.8-1.6
			c4.2-0.3,8.1-0.5,11.6-0.5L458.6,101.6L458.6,101.6z"/>
		<path d="M463.2,79.8c0-7.2,1.1-13.6,3.3-19c2.2-5.5,5.5-9.7,10-12.7s10.1-4.6,16.9-4.6c5.2,0,9.7,0.9,13.5,2.6
			c3.8,1.8,6.9,4.2,9.4,7.5c2.5,3.2,4.3,7.1,5.5,11.5c1.2,4.5,1.8,9.4,1.8,14.8c0,7.3-1.1,13.6-3.3,19.1s-5.5,9.7-10,12.8
			c-4.5,3.1-10.1,4.6-17,4.6c-5.2,0-9.6-0.9-13.4-2.6c-3.8-1.8-6.9-4.3-9.4-7.5s-4.3-7.1-5.5-11.6C463.8,90.1,463.2,85.2,463.2,79.8
			z M479.5,79.8c0,2.8,0.2,5.6,0.5,8.4c0.3,2.9,1,5.5,1.9,7.9c1,2.4,2.3,4.4,4.2,5.9c1.8,1.5,4.3,2.2,7.3,2.2c3.1,0,5.5-0.7,7.3-2.2
			s3.2-3.4,4.2-5.9c1-2.4,1.6-5.1,1.9-7.9s0.5-5.7,0.5-8.4c0-2.8-0.2-5.6-0.5-8.4s-0.9-5.5-1.9-7.9s-2.3-4.4-4.2-5.8
			c-1.8-1.5-4.3-2.2-7.3-2.2s-5.5,0.7-7.3,2.2s-3.2,3.4-4.2,5.8c-1,2.4-1.6,5-1.9,7.9S479.5,77.1,479.5,79.8z"/>
		<path d="M588.7,50.7c-0.2,2.3-1,4.4-2.4,6.6c-1.4,2.1-3,3.7-4.6,4.7c-2.5-1.7-5.2-3-8.2-4.1c-3-1-6-1.6-8.9-1.6
			c-3.5,0-6.5,0.8-9.1,2.5s-4.6,4.3-6,7.8c-1.4,3.6-2.1,8.1-2.1,13.8c0,8.2,1.5,14.1,4.5,17.9s7.4,5.7,13,5.7c3.3,0,6.4-0.3,9.1-0.9
			c2.7-0.6,4.9-1.2,6.7-1.8l8.2,10.8c-2,0.7-4.4,1.3-7.1,2c-2.8,0.6-5.8,1.2-9.1,1.6s-6.8,0.6-10.4,0.6c-5.3,0-9.9-0.9-13.7-2.6
			c-3.9-1.7-7.1-4.1-9.6-7.3c-2.5-3.2-4.4-6.9-5.6-11.4c-1.2-4.4-1.8-9.3-1.8-14.8c0-6.2,0.9-11.7,2.7-16.3s4.2-8.5,7.3-11.5
			c3.1-3.1,6.5-5.3,10.4-6.8s7.9-2.3,12-2.3c4.6,0,9.1,0.7,13.4,2C581.4,46.8,585.2,48.6,588.7,50.7z M578.5,75.5
			c3.9,0,6.6,0.9,8.1,2.7c1.5,1.8,2.3,4.1,2.3,7v3.4h-20c-1.6,0-3-0.2-4.1-0.6s-2-1.1-2.5-2c-0.6-1-0.9-2.3-0.9-3.9
			c0-1.1,0.1-2.2,0.3-3.4c0.2-1.2,0.5-2.2,0.8-3.1L578.5,75.5L578.5,75.5z M574.2,95.6c0-2.4,0.1-4.9,0.3-7.6c0.2-2.6,0.6-5,1.2-7.2
			l13.3,4.4v26.9l-14.7,0.2L574.2,95.6L574.2,95.6z"/>
		<path d="M602.6,44.9c1.2-0.2,2.6-0.4,4.1-0.5s2.7-0.1,3.7-0.1c1.1,0,2.4,0,3.8,0.1c1.4,0.1,2.8,0.2,4.1,0.5v69.9
			c-1.3,0.2-2.7,0.4-4.1,0.5c-1.4,0.1-2.7,0.1-3.8,0.1c-1,0-2.2,0-3.7-0.1s-2.9-0.2-4.1-0.5V44.9z"/>
		<path d="M628.2,108.7c0.2-2.2,0.9-4.4,2.1-6.6c1.2-2.1,2.5-3.9,4-5.2c2.9,1.7,6.2,3.3,9.8,4.7c3.6,1.4,7.3,2,10.9,2
			c3.1,0,5.4-0.7,6.9-2.2c1.4-1.5,2.1-3.1,2.1-4.9c0-1.3-0.4-2.6-1.3-4.1c-0.9-1.5-2.7-2.8-5.6-4l-12.3-5.2
			c-4.2-1.8-7.7-4.1-10.5-7.1c-2.7-2.9-4.1-6.8-4.1-11.7c0-4.2,1.1-7.8,3.3-11s5.1-5.7,8.9-7.4c3.7-1.8,7.9-2.7,12.5-2.7
			c4.8,0,9.3,0.6,13.5,1.9c4.2,1.2,7.6,2.6,10.3,3.9c-0.1,2.2-0.7,4.4-1.6,6.5c-1,2.1-2.2,3.8-3.7,5.2c-2.6-1.2-5.7-2.4-9.1-3.4
			c-3.4-1-6.5-1.6-9.3-1.6c-3,0-5.2,0.7-6.6,2.1c-1.4,1.4-2.1,2.9-2.1,4.5c0,1.4,0.5,2.7,1.5,3.8c1,1.1,2.6,2.1,4.9,3l12.5,5.2
			c3.2,1.3,6,3,8.3,5s4.1,4.3,5.3,6.8s1.8,5.3,1.8,8.3c0,4.1-1,7.8-2.9,11.1c-2,3.3-4.9,5.9-8.9,7.8s-8.9,2.9-14.8,2.9
			c-4.2,0-8.6-0.7-13.2-2C636.1,113,631.9,111.2,628.2,108.7z"/>
		<path d="M682.3,57.9c-0.2-1.2-0.4-2.3-0.5-3.4c-0.1-1.1-0.1-2.1-0.1-3s0-2,0.1-3.1s0.2-2.3,0.5-3.5h50.2
			c0.2,0.8,0.4,1.8,0.6,2.9c0.1,1.1,0.2,2.1,0.2,3.1c0,2.6-0.7,4.4-2,5.4c-1.3,1.1-3.4,1.6-6.2,1.6h-3.5c-0.8,0-1.8,0-3.2-0.1
			c-1.4,0-2.4-0.1-3.2-0.1h-15.7c-0.8,0-1.8,0-3.2,0.1c-1.4,0-2.4,0.1-3.2,0.1H682.3z M699.4,65.4c0-1.4,0-2.7,0-3.8
			s0.1-2.4,0.1-3.8v-6.5H715v6.5c0,1.4,0,2.7,0.1,3.8c0,1.1,0.1,2.4,0.1,3.8v49.5c-1.3,0.2-2.7,0.4-4.1,0.5
			c-1.4,0.1-2.7,0.1-3.7,0.1c-1.1,0-2.3,0-3.7-0.1s-2.8-0.2-4.1-0.5V65.4H699.4z"/>
		<path d="M741.4,44.9c1.2-0.2,2.6-0.4,4.1-0.5s2.7-0.1,3.7-0.1c1.1,0,2.4,0,3.8,0.1c1.4,0.1,2.8,0.2,4.1,0.5v69.9
			c-1.3,0.2-2.7,0.4-4.1,0.5c-1.4,0.1-2.7,0.1-3.8,0.1c-1,0-2.2,0-3.7-0.1s-2.9-0.2-4.1-0.5V44.9z"/>
		<path d="M809.9,72.2c0.1-2.8-0.2-5.5-0.9-8c-0.6-2.5-1.8-4.5-3.6-6.1c-1.7-1.6-4.1-2.4-7.2-2.4
			c-4.5,0-7.8,2.1-9.8,6.2c-2,4.2-3,10.2-3,18.2c0,7.4,1.3,13,3.8,16.8c2.5,3.8,6.1,5.7,10.6,5.7c3.5,0,6.7-0.7,9.5-2.2
			c2.9-1.5,5.6-3.1,8-5c1.5,1,3,2.5,4.5,4.4c1.4,1.9,2.4,3.8,2.7,5.7c-2,1.9-4.4,3.7-7.3,5.3c-2.9,1.6-6,3-9.5,3.9
			c-3.5,1-7.1,1.5-10.8,1.5c-5.3,0-9.8-1-13.4-3.1c-3.6-2.1-6.5-4.9-8.6-8.3c-2.2-3.5-3.7-7.4-4.6-11.6c-0.9-4.3-1.4-8.6-1.4-13.1
			c0-8.6,1.3-15.6,4-21s6.3-9.4,10.8-12s9.4-3.8,14.8-3.8c5.3,0,9.8,0.9,13.7,2.8c3.9,1.9,6.9,4.4,9.1,7.6c2.2,3.2,3.2,6.8,3.2,10.7
			c0,3-0.8,5.2-2.3,6.6c-1.6,1.4-3.7,2.1-6.6,2.1c-1.1,0-2.2-0.1-3.1-0.3C811.9,72.7,810.9,72.5,809.9,72.2z"/>
		<path d="M829.8,108.7c0.2-2.2,0.9-4.4,2.1-6.6c1.2-2.1,2.5-3.9,4-5.2c2.9,1.7,6.2,3.3,9.8,4.7c3.6,1.4,7.3,2,10.9,2
			c3.1,0,5.4-0.7,6.9-2.2c1.4-1.5,2.1-3.1,2.1-4.9c0-1.3-0.4-2.6-1.3-4.1c-0.9-1.5-2.7-2.8-5.6-4l-12.3-5.2
			c-4.2-1.8-7.7-4.1-10.5-7.1c-2.7-2.9-4.1-6.8-4.1-11.7c0-4.2,1.1-7.8,3.3-11s5.1-5.7,8.9-7.4c3.7-1.8,7.9-2.7,12.5-2.7
			c4.8,0,9.3,0.6,13.5,1.9c4.2,1.2,7.6,2.6,10.3,3.9c-0.1,2.2-0.7,4.4-1.6,6.5c-1,2.1-2.2,3.8-3.7,5.2c-2.6-1.2-5.7-2.4-9.1-3.4
			c-3.4-1-6.5-1.6-9.3-1.6c-3,0-5.2,0.7-6.6,2.1c-1.4,1.4-2.1,2.9-2.1,4.5c0,1.4,0.5,2.7,1.5,3.8c1,1.1,2.6,2.1,4.9,3l12.5,5.2
			c3.2,1.3,6,3,8.3,5s4.1,4.3,5.3,6.8s1.8,5.3,1.8,8.3c0,4.1-1,7.8-2.9,11.1c-2,3.3-4.9,5.9-8.9,7.8s-8.9,2.9-14.8,2.9
			c-4.2,0-8.6-0.7-13.2-2C837.7,113,833.5,111.2,829.8,108.7z"/>
		<path d="M408.5,163.1c-0.2-1.2-0.4-2.3-0.5-3.4c-0.1-1.1-0.1-2.1-0.1-3s0-2,0.1-3.1s0.2-2.3,0.5-3.5h50.2
			c0.2,0.8,0.4,1.8,0.6,2.9c0.1,1.1,0.2,2.1,0.2,3.1c0,2.6-0.7,4.4-2,5.4c-1.3,1.1-3.4,1.6-6.2,1.6h-3.5c-0.8,0-1.8,0-3.2-0.1
			s-2.4-0.1-3.2-0.1h-15.7c-0.8,0-1.8,0-3.2,0.1c-1.4,0-2.4,0.1-3.2,0.1H408.5z M425.7,170.7c0-1.4,0-2.7,0.1-3.8
			c0-1.1,0.1-2.4,0.1-3.8v-6.5h15.5v6.5c0,1.4,0,2.7,0.1,3.8c0,1.1,0.1,2.4,0.1,3.8v49.5c-1.3,0.2-2.7,0.4-4.1,0.5s-2.7,0.1-3.7,0.1
			c-1.1,0-2.3,0-3.7-0.1c-1.4-0.1-2.8-0.2-4.1-0.5v-49.5H425.7z"/>
		<path d="M516.9,171.6c0,3.3-0.6,6.2-1.9,8.7c-1.2,2.5-2.8,4.6-4.8,6.3c-1.9,1.7-3.9,2.9-6,3.7
			c1.9,0.7,3.5,1.9,4.8,3.5c1.3,1.7,2.3,3.6,3.1,5.8l3.3,9.1c0.6,1.7,1.3,3.1,2.1,4.4c0.8,1.2,1.8,2.3,2.8,3.1
			c-1,1.3-2.4,2.4-4.4,3.3c-1.9,0.9-3.9,1.3-6,1.3c-2.8,0-4.9-0.8-6.2-2.3c-1.3-1.5-2.4-3.8-3.5-6.8l-3.9-11.1
			c-0.6-1.8-1.5-3.4-2.8-4.7c-1.2-1.3-3.3-2-6.1-2h-11.2v-11.7c1.3-0.1,3-0.1,4.9-0.2c2-0.1,3.8-0.1,5.6-0.2
			c1.8-0.1,3.1-0.1,3.9-0.1c2.7,0,4.8-0.5,6.2-1.5c1.5-1,2.4-2.2,3-3.8c0.5-1.6,0.8-3.2,0.8-5s-0.3-3.5-0.8-5
			c-0.5-1.6-1.5-2.8-3-3.7s-3.5-1.4-6.2-1.4c-0.7,0-1.5,0-2.4,0s-1.8,0-2.8,0s-2,0-2.9-0.1v58.7c-1.3,0.2-2.7,0.4-4.1,0.5
			s-2.7,0.1-3.7,0.1s-2.2,0-3.7-0.1s-2.8-0.2-4.1-0.5v-69.4l0.7-0.7c4.3-0.1,8.4-0.2,12.4-0.3s7.9-0.1,11.7-0.1
			c4.7,0,9,0.8,12.7,2.3c3.7,1.6,6.7,4,8.8,7.2C515.9,162.4,516.9,166.6,516.9,171.6z"/>
		<path d="M545.8,150.1c1.3-0.2,2.8-0.3,4.5-0.4c1.7-0.1,3.3-0.1,4.6-0.1s2.8,0.1,4.5,0.2c1.8,0.1,3.2,0.3,4.5,0.5
			l22.2,68.8c-1.1,0.6-2.5,1.1-4.2,1.4c-1.7,0.3-3.3,0.5-4.8,0.5c-2.5,0-4.4-0.6-5.8-1.7c-1.4-1.1-2.6-3.4-3.5-6.7l-7.8-27.3
			c-0.8-2.9-1.7-6.2-2.8-10c-1-3.8-2-7.4-2.8-10.6h-0.6c-0.3,1.8-0.8,3.9-1.4,6.1c-0.6,2.3-1.2,4.5-1.8,6.7s-1.2,4.2-1.7,6l-11,36.8
			c-1,0.2-2,0.4-3.1,0.5s-2.3,0.1-3.5,0.1s-2.6-0.1-4-0.3c-1.5-0.2-2.6-0.4-3.6-0.7l-0.6-0.8L545.8,150.1z M546.7,205.1
			c-0.5,0-1.1,0-1.7,0c-0.7,0-1.4,0-2-0.1c-0.7,0-1.2,0-1.7,0h-8.1l4.8-12.2h7.1c0.4,0,1,0,1.6,0s1.3,0,1.9-0.1c0.6,0,1.2,0,1.7,0
			h7.8c0.5,0,1,0,1.7,0c0.6,0,1.3,0,1.9,0.1c0.6,0,1.2,0,1.7,0h7.4l3.9,12.2h-8.1c-0.5,0-1.1,0-1.7,0c-0.7,0-1.4,0-2,0.1
			c-0.7,0-1.2,0-1.7,0H546.7z"/>
		<path d="M595.1,150.4c1.2-0.3,2.8-0.5,4.8-0.6s3.5-0.2,4.5-0.2s2.4,0,4,0.1c1.7,0.1,3.3,0.2,5,0.5l-3.9,17.8l-1.1,0.3
			c0.2,2.8,0.5,6,0.6,9.6c0.2,3.6,0.3,7.1,0.4,10.7c0.1,3.6,0.2,6.8,0.2,9.5v22c-1.3,0.2-2.5,0.4-3.8,0.5c-1.2,0.1-2.4,0.1-3.4,0.1
			c-0.9,0-2.1,0-3.5-0.1s-2.7-0.2-3.9-0.5v-69.7H595.1z M614.6,182.5c-1.1-2.6-2.2-5.2-3.2-7.7s-1.9-4.7-2.6-6.8l-7.2-8.4l11.8-9.6
			l16.6,37.4c1.3,3,2.5,5.8,3.6,8.5s2.1,5,2.9,6.9l7.9,8.5l-12.8,8.5L614.6,182.5z M650.1,150.2v69.6c-1.3,0.3-2.9,0.5-4.9,0.6
			s-3.5,0.2-4.6,0.2s-2.4,0-4.1-0.1c-1.7-0.1-3.3-0.2-5-0.5l4.1-16.9l1.1-0.4c-0.3-3.1-0.5-6.5-0.7-10.2s-0.3-7.2-0.4-10.7
			c-0.1-3.4-0.1-6.3-0.1-8.7v-14.3c0-3.5,0.7-5.9,2.1-7.3c1.4-1.4,3.6-2.1,6.6-2.1h5L650.1,150.2z"/>
		<path d="M659.8,214c0.2-2.2,0.9-4.4,2.1-6.6c1.2-2.1,2.5-3.9,4-5.2c2.9,1.7,6.2,3.3,9.8,4.7s7.3,2,10.9,2
			c3.1,0,5.4-0.7,6.9-2.2c1.4-1.5,2.1-3.1,2.1-4.9c0-1.3-0.4-2.6-1.3-4.1c-0.9-1.5-2.7-2.8-5.6-4l-12.3-5.2
			c-4.2-1.8-7.7-4.1-10.5-7.1c-2.7-2.9-4.1-6.8-4.1-11.7c0-4.2,1.1-7.8,3.3-11s5.1-5.7,8.9-7.4c3.7-1.8,7.9-2.7,12.5-2.7
			c4.8,0,9.3,0.6,13.5,1.9c4.2,1.2,7.6,2.6,10.3,3.9c-0.1,2.2-0.7,4.4-1.6,6.5c-1,2.1-2.2,3.8-3.7,5.2c-2.6-1.2-5.7-2.4-9.1-3.4
			c-3.4-1-6.5-1.6-9.3-1.6c-3,0-5.2,0.7-6.6,2.1c-1.4,1.4-2.1,2.9-2.1,4.5c0,1.4,0.5,2.7,1.5,3.8s2.6,2.1,4.9,3l12.5,5.2
			c3.2,1.3,6,3,8.3,5s4.1,4.3,5.3,6.8s1.8,5.3,1.8,8.3c0,4.1-1,7.8-2.9,11.1c-2,3.3-4.9,5.9-8.9,7.8c-4,1.9-8.9,2.9-14.8,2.9
			c-4.2,0-8.6-0.7-13.2-2C667.8,218.3,663.6,216.4,659.8,214z"/>
		<path d="M772,173.7c0,5.3-1.1,9.8-3.2,13.3c-2.1,3.6-5.1,6.3-8.8,8.1s-8,2.7-12.8,2.7h-15.1v-11.5
			c1-0.1,2.4-0.1,4.3-0.2c1.9-0.1,3.8-0.1,5.7-0.2c1.8-0.1,3.1-0.1,3.8-0.1c2.8,0,4.9-0.7,6.4-2c1.4-1.3,2.4-2.9,2.9-4.8
			c0.5-1.9,0.8-3.7,0.8-5.4c0-1.6-0.3-3.4-0.8-5.3c-0.5-1.9-1.5-3.5-2.9-4.8c-1.5-1.3-3.6-2-6.4-2c-1.1,0-2.2,0-3.4,0
			c-1.1,0-2.4,0-3.9-0.1V220c-1.3,0.2-2.7,0.4-4.1,0.5c-1.4,0.1-2.7,0.1-3.7,0.1s-2.2,0-3.7-0.1s-2.9-0.2-4.1-0.5v-69.4l0.7-0.7
			c4.3-0.1,8.3-0.2,12.1-0.3c3.7-0.1,7.5-0.1,11.3-0.1c4.8,0,9.1,0.9,12.8,2.6c3.7,1.7,6.7,4.4,8.8,8
			C770.9,163.7,772,168.2,772,173.7z"/>
		<path d="M778.9,185c0-7.2,1.1-13.6,3.3-19c2.2-5.5,5.5-9.7,10-12.7s10.1-4.6,16.9-4.6c5.2,0,9.7,0.9,13.5,2.6
			c3.8,1.8,6.9,4.2,9.4,7.5c2.5,3.2,4.3,7.1,5.5,11.5c1.2,4.5,1.8,9.4,1.8,14.8c0,7.3-1.1,13.6-3.3,19.1s-5.5,9.7-10,12.8
			s-10.1,4.6-17,4.6c-5.2,0-9.6-0.9-13.4-2.6c-3.8-1.8-6.9-4.3-9.4-7.5s-4.3-7.1-5.5-11.6C779.6,195.4,778.9,190.4,778.9,185z
			 M795.2,185.1c0,2.8,0.2,5.6,0.5,8.4c0.3,2.9,1,5.5,1.9,7.9c1,2.4,2.3,4.4,4.2,5.9c1.8,1.5,4.3,2.2,7.3,2.2c3.1,0,5.5-0.7,7.3-2.2
			s3.2-3.4,4.2-5.9c1-2.4,1.6-5.1,1.9-7.9c0.3-2.8,0.5-5.7,0.5-8.4c0-2.8-0.2-5.6-0.5-8.4c-0.3-2.8-0.9-5.5-1.9-7.9
			s-2.3-4.4-4.2-5.8c-1.8-1.5-4.3-2.2-7.3-2.2s-5.5,0.7-7.3,2.2s-3.2,3.4-4.2,5.8c-1,2.4-1.6,5-1.9,7.9
			C795.4,179.5,795.2,182.3,795.2,185.1z"/>
		<path d="M900.8,171.6c0,3.3-0.6,6.2-1.9,8.7c-1.2,2.5-2.8,4.6-4.8,6.3c-1.9,1.7-3.9,2.9-6,3.7
			c1.9,0.7,3.5,1.9,4.8,3.5c1.3,1.7,2.3,3.6,3.1,5.8l3.3,9.1c0.6,1.7,1.3,3.1,2.1,4.4c0.8,1.2,1.8,2.3,2.8,3.1
			c-1,1.3-2.4,2.4-4.4,3.3c-1.9,0.9-3.9,1.3-6,1.3c-2.8,0-4.9-0.8-6.2-2.3s-2.4-3.8-3.5-6.8l-3.9-11.1c-0.6-1.8-1.5-3.4-2.8-4.7
			c-1.2-1.3-3.3-2-6.1-2h-11.2v-11.7c1.3-0.1,3-0.1,4.9-0.2c2-0.1,3.8-0.1,5.6-0.2c1.8-0.1,3.1-0.1,3.9-0.1c2.7,0,4.8-0.5,6.2-1.5
			s2.4-2.2,3-3.8c0.5-1.6,0.8-3.2,0.8-5s-0.3-3.5-0.8-5c-0.5-1.6-1.5-2.8-3-3.7s-3.5-1.4-6.2-1.4c-0.7,0-1.5,0-2.4,0s-1.8,0-2.8,0
			s-2,0-2.9-0.1v58.7c-1.3,0.2-2.7,0.4-4.1,0.5c-1.4,0.1-2.7,0.1-3.7,0.1s-2.2,0-3.7-0.1s-2.8-0.2-4.1-0.5v-69.4l0.7-0.7
			c4.3-0.1,8.4-0.2,12.4-0.3s7.9-0.1,11.7-0.1c4.7,0,9,0.8,12.7,2.3c3.7,1.6,6.7,4,8.8,7.2C899.7,162.4,900.8,166.6,900.8,171.6z"/>
		<path d="M906,163.1c-0.2-1.2-0.4-2.3-0.5-3.4c-0.1-1.1-0.1-2.1-0.1-3s0-2,0.1-3.1s0.2-2.3,0.5-3.5h50.2
			c0.2,0.8,0.4,1.8,0.6,2.9c0.1,1.1,0.2,2.1,0.2,3.1c0,2.6-0.7,4.4-2,5.4c-1.3,1.1-3.4,1.6-6.2,1.6h-3.5c-0.8,0-1.8,0-3.2-0.1
			c-1.4,0-2.4-0.1-3.2-0.1h-15.7c-0.8,0-1.8,0-3.2,0.1c-1.4,0-2.4,0.1-3.2,0.1H906z M923.1,170.7c0-1.4,0-2.7,0.1-3.8
			c0-1.1,0.1-2.4,0.1-3.8v-6.5h15.5v6.5c0,1.4,0,2.7,0.1,3.8c0,1.1,0.1,2.4,0.1,3.8v49.5c-1.3,0.2-2.7,0.4-4.1,0.5
			c-1.4,0.1-2.7,0.1-3.7,0.1c-1.1,0-2.3,0-3.7-0.1s-2.8-0.2-4.1-0.5v-49.5H923.1z"/>
		<path d="M409.2,319.2c0.2-2.2,0.9-4.4,2.1-6.6s2.5-3.9,4-5.2c2.9,1.7,6.2,3.3,9.8,4.7c3.6,1.4,7.3,2,10.9,2
			c3.1,0,5.4-0.7,6.9-2.2c1.4-1.5,2.1-3.1,2.1-4.9c0-1.3-0.4-2.6-1.3-4.1s-2.7-2.8-5.6-4l-12.3-5.2c-4.2-1.8-7.7-4.1-10.5-7.1
			c-2.7-2.9-4.1-6.8-4.1-11.7c0-4.2,1.1-7.8,3.3-11c2.2-3.2,5.1-5.7,8.9-7.4c3.7-1.8,7.9-2.7,12.5-2.7c4.8,0,9.3,0.6,13.5,1.9
			c4.2,1.2,7.6,2.6,10.3,3.9c-0.1,2.2-0.7,4.4-1.6,6.5c-1,2.1-2.2,3.8-3.7,5.2c-2.6-1.2-5.7-2.4-9.1-3.4s-6.5-1.6-9.3-1.6
			c-3,0-5.2,0.7-6.6,2.1s-2.1,2.9-2.1,4.5c0,1.4,0.5,2.7,1.5,3.8c1,1.1,2.6,2.1,4.9,3l12.5,5.2c3.2,1.3,6,3,8.3,5s4.1,4.3,5.3,6.8
			c1.2,2.5,1.8,5.3,1.8,8.3c0,4.1-1,7.8-2.9,11.1c-2,3.3-4.9,5.9-8.9,7.8s-8.9,2.9-14.8,2.9c-4.2,0-8.6-0.7-13.2-2
			C417.1,323.5,412.9,321.6,409.2,319.2z"/>
		<path d="M472.3,256.1l0.7-0.7h14.6v12.9c0,1.4,0,2.7,0.1,3.8c0,1.1,0.1,2.4,0.1,3.8v29.8c0,1.3,0,2.4-0.1,3.5
			c0,1.1-0.1,2.3-0.1,3.6v13h-6.4c-2.8,0-5-0.8-6.6-2.5c-1.6-1.6-2.4-3.9-2.4-6.7L472.3,256.1L472.3,256.1z M516.7,255.4
			c0.2,1.2,0.4,2.3,0.5,3.3s0.1,2,0.1,2.9s-0.1,2-0.3,3.3s-0.5,2.5-0.9,3.7h-21.4c-0.9,0-2,0-3.6-0.1c-1.5,0-3.1-0.1-4.7-0.1
			s-2.9,0-4-0.1v-12.9L516.7,255.4L516.7,255.4z M510.7,283.8c0.3,1,0.5,2,0.7,3.3c0.2,1.2,0.2,2.2,0.2,3.1s-0.1,1.9-0.2,3.1
			c-0.2,1.2-0.4,2.3-0.7,3.3h-16.1c-0.9,0-2.1,0-3.6,0s-3.1,0-4.7-0.1c-1.6,0-2.9,0-4-0.1V284c1.1,0,2.4,0,4-0.1
			c1.6,0,3.2-0.1,4.7-0.1s2.7,0,3.6,0L510.7,283.8L510.7,283.8z M519.2,312.5c0,4.4-0.7,7.6-2,9.8c-1.4,2.2-4.1,3.3-8.2,3.3h-26.6
			V313c2.1-0.1,4.2-0.2,6.1-0.3c2-0.1,4.2-0.2,6.6-0.2H519.2z"/>
		<path d="M580.6,276.9c0,3.3-0.6,6.2-1.9,8.7c-1.2,2.5-2.8,4.6-4.8,6.3c-1.9,1.7-3.9,2.9-6,3.7
			c1.9,0.7,3.5,1.9,4.8,3.5c1.3,1.7,2.3,3.6,3.1,5.8l3.3,9.1c0.6,1.7,1.3,3.1,2.1,4.4c0.8,1.2,1.8,2.3,2.8,3.1
			c-1,1.3-2.4,2.4-4.4,3.3c-1.9,0.9-3.9,1.3-6,1.3c-2.8,0-4.9-0.8-6.2-2.3s-2.4-3.8-3.5-6.8l-3.9-11.1c-0.6-1.8-1.5-3.4-2.8-4.7
			c-1.2-1.3-3.3-2-6.1-2h-11.2v-11.7c1.3-0.1,3-0.1,4.9-0.2c2-0.1,3.8-0.1,5.6-0.2s3.1-0.1,3.9-0.1c2.7,0,4.8-0.5,6.2-1.5
			s2.4-2.2,3-3.8c0.5-1.6,0.8-3.2,0.8-5s-0.3-3.5-0.8-5c-0.5-1.6-1.5-2.8-3-3.7c-1.5-0.9-3.5-1.4-6.2-1.4c-0.7,0-1.5,0-2.4,0
			s-1.8,0-2.8,0s-2,0-2.9-0.1v58.7c-1.3,0.2-2.7,0.4-4.1,0.5c-1.4,0.1-2.7,0.1-3.7,0.1s-2.2,0-3.7-0.1s-2.8-0.2-4.1-0.5v-69.4
			l0.7-0.7c4.3-0.1,8.4-0.2,12.4-0.3s7.9-0.1,11.7-0.1c4.7,0,9,0.8,12.7,2.3c3.7,1.6,6.7,4,8.8,7.2
			C579.5,267.6,580.6,271.8,580.6,276.9z"/>
		<path d="M630,255.4c1.1-0.3,2.3-0.4,3.5-0.5s2.3-0.1,3.3-0.1s2.2,0.1,3.6,0.2c1.4,0.2,2.6,0.4,3.7,0.8l0.6,0.9
			l-19.4,68.6c-1.8,0.2-3.8,0.3-6,0.4s-4.3,0.1-6.3,0.1c-3,0-5.3-0.5-6.9-1.5c-1.7-1-2.9-2.8-3.7-5.6l-17.3-62
			c1.4-0.6,2.9-1.1,4.5-1.6c1.6-0.4,3.2-0.7,4.9-0.7c2.3,0,4.1,0.6,5.4,1.8c1.3,1.2,2.3,3.2,3,5.9l8.2,30.2c0.5,2,1.1,4,1.5,6.1
			c0.5,2.1,0.9,4.2,1.3,6.3c0.4,2.1,0.8,4.1,1.1,6.1c0.1,0.5,0.2,0.8,0.4,1s0.4,0.2,0.7,0.2L630,255.4z"/>
		<path d="M653.8,255.4c1.2-0.2,2.6-0.4,4.1-0.5s2.7-0.1,3.7-0.1c1.1,0,2.4,0,3.8,0.1c1.4,0.1,2.8,0.2,4.1,0.5v69.9
			c-1.3,0.2-2.7,0.4-4.1,0.5c-1.4,0.1-2.7,0.1-3.8,0.1c-1,0-2.2,0-3.7-0.1s-2.9-0.2-4.1-0.5V255.4z"/>
		<path d="M722.3,282.7c0.1-2.8-0.2-5.5-0.9-8c-0.6-2.5-1.8-4.5-3.6-6.1c-1.7-1.6-4.1-2.4-7.2-2.4
			c-4.5,0-7.8,2.1-9.8,6.2c-2,4.2-3,10.2-3,18.2c0,7.4,1.3,13,3.8,16.8s6.1,5.7,10.6,5.7c3.5,0,6.7-0.7,9.5-2.2c2.9-1.5,5.6-3.1,8-5
			c1.5,1,3,2.5,4.5,4.4c1.4,1.9,2.4,3.8,2.7,5.7c-2,1.9-4.4,3.7-7.3,5.3c-2.9,1.6-6,3-9.5,3.9c-3.5,1-7.1,1.5-10.8,1.5
			c-5.3,0-9.8-1-13.4-3.1c-3.6-2.1-6.5-4.9-8.6-8.3c-2.2-3.5-3.7-7.4-4.6-11.6c-0.9-4.3-1.4-8.6-1.4-13.1c0-8.6,1.3-15.6,4-21
			s6.3-9.4,10.8-12s9.4-3.8,14.8-3.8c5.3,0,9.8,0.9,13.7,2.8c3.9,1.9,6.9,4.4,9.1,7.6c2.2,3.2,3.2,6.7,3.2,10.7c0,3-0.8,5.2-2.3,6.6
			c-1.6,1.4-3.7,2.1-6.6,2.1c-1.1,0-2.2-0.1-3.1-0.3C724.3,283.2,723.3,283,722.3,282.7z"/>
		<path d="M747.8,256.1l0.7-0.7h14.6v12.9c0,1.4,0,2.7,0.1,3.8c0,1.1,0.1,2.4,0.1,3.8v29.8c0,1.3,0,2.4-0.1,3.5
			c0,1.1-0.1,2.3-0.1,3.6v13h-6.4c-2.8,0-5-0.8-6.6-2.5c-1.6-1.6-2.4-3.9-2.4-6.7v-60.5H747.8z M792.3,255.4
			c0.2,1.2,0.4,2.3,0.5,3.3s0.1,2,0.1,2.9s-0.1,2-0.3,3.3s-0.5,2.5-0.9,3.7h-21.4c-0.9,0-2,0-3.6-0.1c-1.5,0-3.1-0.1-4.7-0.1
			c-1.6,0-2.9,0-4-0.1v-12.9L792.3,255.4L792.3,255.4z M786.3,283.8c0.3,1,0.5,2,0.7,3.3c0.2,1.2,0.2,2.2,0.2,3.1s-0.1,1.9-0.2,3.1
			c-0.2,1.2-0.4,2.3-0.7,3.3h-16.1c-0.9,0-2.1,0-3.6,0s-3.1,0-4.7-0.1c-1.6,0-2.9,0-4-0.1V284c1.1,0,2.4,0,4-0.1
			c1.6,0,3.2-0.1,4.7-0.1s2.7,0,3.6,0L786.3,283.8L786.3,283.8z M794.8,312.5c0,4.4-0.7,7.6-2,9.8c-1.4,2.2-4.1,3.3-8.2,3.3H758V313
			c2.1-0.1,4.2-0.2,6.1-0.3c2-0.1,4.2-0.2,6.6-0.2H794.8z"/>
		<path d="M800.2,319.2c0.2-2.2,0.9-4.4,2.1-6.6c1.2-2.2,2.5-3.9,4-5.2c2.9,1.7,6.2,3.3,9.8,4.7c3.6,1.4,7.3,2,10.9,2
			c3.1,0,5.4-0.7,6.9-2.2c1.4-1.5,2.1-3.1,2.1-4.9c0-1.3-0.4-2.6-1.3-4.1c-0.9-1.5-2.7-2.8-5.6-4l-12.3-5.2
			c-4.2-1.8-7.7-4.1-10.5-7.1c-2.7-2.9-4.1-6.8-4.1-11.7c0-4.2,1.1-7.8,3.3-11s5.1-5.7,8.9-7.4c3.7-1.8,7.9-2.7,12.5-2.7
			c4.8,0,9.3,0.6,13.5,1.9c4.2,1.2,7.6,2.6,10.3,3.9c-0.1,2.2-0.7,4.4-1.6,6.5c-1,2.1-2.2,3.8-3.7,5.2c-2.6-1.2-5.7-2.4-9.1-3.4
			c-3.4-1-6.5-1.6-9.3-1.6c-3,0-5.2,0.7-6.6,2.1c-1.4,1.4-2.1,2.9-2.1,4.5c0,1.4,0.5,2.7,1.5,3.8c1,1.1,2.6,2.1,4.9,3l12.5,5.2
			c3.2,1.3,6,3,8.3,5s4.1,4.3,5.3,6.8s1.8,5.3,1.8,8.3c0,4.1-1,7.8-2.9,11.1c-2,3.3-4.9,5.9-8.9,7.8s-8.9,2.9-14.8,2.9
			c-4.2,0-8.6-0.7-13.2-2C808.2,323.5,804,321.6,800.2,319.2z"/>
	</g>
</g>
</svg>
