<?xml version="1.0" encoding="utf-8"?>
<!-- Generator: Adobe Illustrator 24.0.1, SVG Export Plug-In . SVG Version: 6.00 Build 0)  -->
<svg version="1.1" id="Livello_1" xmlns="http://www.w3.org/2000/svg" xmlns:xlink="http://www.w3.org/1999/xlink" x="0px" y="0px"
	 viewBox="0 0 62 62" style="enable-background:new 0 0 62 62;" xml:space="preserve">
<style type="text/css">
	.stq{fill:#158084;}
	.stw{clip-path:url(#SVGID_2_);}
	.ste{fill:#FFFFFF;}
</style>
<circle class="stq" cx="31" cy="31" r="31"/>
<g>
	<defs>
		<rect id="SVGID_1_" x="7" y="4.6" width="48.8" height="51.9"/>
	</defs>
	<clipPath id="SVGID_2_">
		<use xlink:href="#SVGID_1_"  style="overflow:visible;"/>
	</clipPath>
	<g class="stw">
		<path class="ste" d="M41.8,36.5l1.9-3.1c0.2-0.3,0-0.7-0.4-0.7H36c-1.1,0-1.8,1.1-1.2,2l8,13.2c0.3,0.5,1,0.5,1.4,0l10-16.5
			c0.1-0.3,0.1-0.6,0-0.8l-10-16.5c-0.3-0.5-1-0.5-1.4,0l-8,13.2c-0.5,0.9,0.1,2,1.2,2h7.2c0.4,0,0.6-0.4,0.4-0.7l-1.9-3.1
			c-0.1-0.1-0.1-0.2,0-0.3l1.6-2.7c0.1-0.2,0.4-0.2,0.5,0l5,8.4c0.1,0.1,0.1,0.2,0,0.3l-5,8.4c-0.1,0.2-0.4,0.2-0.5,0l-1.6-2.7
			C41.7,36.7,41.7,36.5,41.8,36.5z"/>
		<path class="ste" d="M20.2,24.9H17c-0.2,0-0.4-0.3-0.3-0.5l5.1-8.3C21.8,16,22,16,22.1,16l10.1,0c0.2,0,0.4,0.3,0.3,0.5l-1.6,2.7
			c-0.1,0.1-0.2,0.1-0.3,0.1l-3.8,0c-0.4,0-0.6,0.4-0.4,0.7l3.6,5.9c0.6,0.9,1.9,0.9,2.4,0l7.9-13.1c0.3-0.5-0.1-1.2-0.7-1.2H19.7
			c-0.3,0-0.5,0.1-0.7,0.4L9,28.4c-0.3,0.5,0.1,1.2,0.7,1.2h16c1.1,0,1.8-1.1,1.2-2l-3.6-6c-0.2-0.3-0.6-0.3-0.8,0l-1.9,3.2
			C20.5,24.9,20.4,24.9,20.2,24.9z"/>
		<path class="ste" d="M29.9,36l-3.7,6.2c-0.1,0.2,0,0.5,0.3,0.5l4.1,0c0.1,0,0.2,0.1,0.3,0.1l1.6,2.7c0.1,0.2,0,0.5-0.3,0.5
			l-10.1,0c-0.1,0-0.2-0.1-0.3-0.1l-5.1-8.3c-0.1-0.2,0-0.5,0.3-0.5h3.3c0.1,0,0.2,0.1,0.3,0.1l2.1,3.4c0.1,0.2,0.4,0.2,0.5,0
			l3.8-6.2c0.5-0.9-0.1-2-1.2-2H9.7c-0.6,0-1,0.7-0.7,1.2L19,49.9c0.1,0.2,0.4,0.4,0.7,0.4h19.9c0.6,0,1-0.7,0.7-1.2l-8-13.1
			C31.8,35.1,30.4,35.1,29.9,36z"/>
	</g>
</g>
</svg>
