<?xml version="1.0" encoding="utf-8"?>
<!-- Generator: Adobe Illustrator 24.0.1, SVG Export Plug-In . SVG Version: 6.00 Build 0)  -->
<svg version="1.1" x="0px" y="0px" viewBox="0 0 1200 1500" style="enable-background:new 0 0 1200 1500;">
<style type="text/css">
	.st0{fill:#11676A;}
</style>
<g id="NORD-OVEST_SINGLE">
	<path id="valle-d-aosta_1_" class="st0" d="M258.1,498c-0.5,0-1,4.6-1,5.1c-0.3,1.3-3.1,1.8-4.1,2.3c-2.1,1-3.3,1-5.1,1.5
		c-3.1,0.8-3.8,2.6-4.6,4.4c-0.8,1.8-1.5,2.3-4.4,2.3c-1.8,0-3.6,1.3-5.1,2.1c-1.8,1-1.8,2.6-4.1,3.1c-1.3,0.3-2.8,2.8-3.1,3.6
		c-0.8,1.3-2.3,2.1-3.8,2.3c-2.3,0.5-3.3,1.8-4.1-0.8c-0.3-1-2.1-2.6-2.8-3.1c-1.8-1.8-3.3-0.5-4.1,0.8c-1,1.8-1,2.3-3.1,2.8
		c-1,0.3-2.8-3.1-3.1-3.6c-1.3-1.8-3.3-0.3-4.1,0.5c-1.3,1.3-1.5,2.3-2.8,3.6c-1,1-2.6,1.5-3.6,2.3c-1.3,1.3-1.5,2.1-3.8,2.1
		c-1.8,0-4.6,0.5-6.7,0.5c-2.6,0-2.8,1.5-2.3,3.3c0.5,1.8,0,2.8-0.5,4.6c-0.5,1.5-2.3,2.1-4.1,2.1c-1.5,0-3.1-2.3-3.6-2.8
		c-1.5-1.5-1.8-1.8-3.8-2.8c-1.5-0.8-3.1-0.8-4.9-0.5c-1.3,0.3-1.3,3.3-1.5,4.4s-2.8,2.1-3.6,2.3c-1.5,0.3-1,1.3-2.8,0.8l0.8-0.3
		c-1.5,0-1.8-1-2.3-3.1c-0.5-1.8-0.5-3.8-0.5-5.6c0-1.5-1.5-2.8-2.3-3.6c-1.3-1.3-1.8-1.8-3.6-2.8c-1.3-0.8-2.1-2.8-2.3-4.4
		c-0.5-1.8-1.8-3.1-2.3-4.4c-1-2.3-1.3-1.8-2.8-1.5c-0.3,0-2.3,3.3-3.3,3.8c-1,0.5-1,3.8-1.3,4.6c-0.5,1.5-1.8,2.3-1.3,4.4
		c0.5,2.3,0.8,3.3,0,4.9c-1,2.1-2.1,2.6-4.4,3.1c-1.5,0.5-3.1,1.5-4.6,2.3c-1.3,0.8-4.4,0.8-5.6,1c-1,0.3-2.8,1.8-3.8,2.3
		c-1.8,1-2.1,2.1-4.6,2.1c-1.5,0-3.6,2.6-4.1,3.6c-0.8,1.5-2.6,2.3-4.4,3.3c-1.3,0.8-4.9,0-6.4,0c-2.3,0-4.6-0.5-6.7-0.5
		c-1.3,0-0.5,6.2-0.5,7.2c0,2.8-0.8,4.9-2.1,6.4c-1.3,1.8-0.8,4.9-0.8,7.2c0,2.6,0.5,3.8,1.5,5.9c0.8,1.5,1.5,2.6,2.1,4.4
		c0.3,1-1.3,4.1-1.3,5.6c0,1.5,2.3,3.1,3.3,3.6c1.3,0.8,2.3,3.8,3.6,5.1c2.1,2.1,2.1,3.1,4.6,4.4c1.8,1,4.9,1.5,6.7,2.1
		c0.5,0.3,1.5,2.3,1.5,2.8c2.6,0.5,2.8,3.8,2.3,5.1c0,0.3,4.9,0.8,5.1,0.8c0.5,0.3,2.6-2.1,3.6-2.3c2.6-0.8,2.6-0.8,4.4-1.5
		c2.6-1.3,2.8,1.5,3.3,2.8c0.5,1.8,3.6,0.3,4.6,0c2.1-0.5,2.1,2.8,2.1,3.3c0,1.3-3.6,2.1-4.4,2.3c-1.8,0.8-1.3,3.3-0.8,4.9
		c0.5,2.1,1.5,2.6,0.8,5.1c-0.5,1.8-0.8,2.8-0.8,5.1c0,0.8,2.3,3.1,2.8,3.6c1.3,1.8-0.5,3.3-1.3,4.4c-1,1.3-1.5,2.3-2.1,4.1
		c-0.3,1.3,0.8,3.8,1,4.6c0.5,1,3.3,1.8,4.1,2.1c1,0.5-2.3,4.4-2.3,4.4c-1,1.8,0.3,3.1,1.3,3.8c1.3,1.3,2.1,1.5,4.4,1.5
		c2.6,0,3.3,1.5,5.6,1.5c2.8,0,2.3,0.8,2.3,3.6c0,2.3-0.8,2.6,2.1,3.1c1.8,0.5,3.6,0.8,5.1,1.5c0.5,0.3,1.3,2.3,1.8,3.3
		c2.1-1.3,4.1-1.8,5.9-2.1c2.1-0.3,3.8-0.8,3.8-0.8c1-0.5,2.6-0.5,3.6-0.3c1,0.3,1.8,1,2.3,1.5c1,1.3,2.1,2.6,2.1,2.6l0,0
		c0,0,0.3,0,0.5-0.3c0.8-0.3,1.3-0.8,2.6-1.5c1-0.5,1.8-2.1,3.8-4.1c1.8-1.8,3.6-3.3,5.6-4.4c3.1-1.5,5.1-1.8,7.9-2.3
		c2.3-0.5,3.8,0.3,4.9,0.8c1,0.5,1,0.5,1.8,0c2.1-1,2.6-1.3,3.3-2.8c1-2.1,3.6-3.3,5.4-3.1s3.1,1,3.6,1.3c1.5,0.8,2.3,1.5,2.6,1.8
		c0.3,0,1,0.3,1.8,0.3c0-0.3,0,0,0.3-0.3c0.3-0.5,0.5-1.3,1-2.1c0.5-0.8,1.5-1.5,2.8-2.1c1.8-0.5,2.8-1.5,3.3-2.6
		c1.3-2.3,2.8-4.1,4.4-5.6c0,0,0.5-0.8,0.8-1.8c0.3-1,0.8-2.6,2.1-3.8c1.5-1.5,3.3-3.3,6.2-4.1c3.6-0.8,6.2,0,9,0
		c1.8,0,2.8,0.5,4.1,1s2.3,1,3.1,1.3c3.6,0.8,5.4,2.6,6.9,4.1c0.5,0.5,2.8,0.8,5.6,1.5c2.1,0.5,3.1-0.3,5.9-1
		c2.8-0.8,5.4-1.3,8.5-0.5c3.3,0.8,5.1,1.8,6.7,2.1c2.3,0.5,4.6,0.8,7.2,2.1c-0.3,0,1.3,0.3,2.8,0c1.5,0,3.1-0.5,4.4-0.5
		c3.1,0,4.9-0.3,6.2-0.8c2.1-1,4.1-1.8,6.4-2.3c0,0,0-0.3,0.3-0.3c0.3-0.3,0.8-0.5,1-1c0.8-0.8,1.5-1.8,2.3-2.6
		c1.3-1.3,2.8-1.5,3.8-2.1c1-0.5,1.8-0.8,1.8-0.8c1-1,2.3-1.8,3.3-2.3c1-0.5,1.3-0.8,1.8-1c0.5-0.5,1-1,1.3-2.1c0.3-1,1-2.1,2.1-3.1
		c1.5-1.5,2.1-3.1,3.8-5.1c0,0,0.8-1,1-2.1c0.3-1,0.8-2.3,1-2.8c0.5-2.6,1-3.1,0.5-5.4c-0.5-2.1-1.5-2.8-2.6-5.1
		c-0.8-1.5-0.8-3.1-0.8-4.6s0-3.1,0-4.4c0-2.1,1-3.6,2.1-4.6c1-1,1.8-1.5,2.8-2.1c-0.3-0.5-1.3-1.3-2.1-2.8
		c-0.3-0.8-0.8-1.3-1.5-2.1s-1.5-2.1-2.1-3.6c0,0-0.5-0.5-1.3-1.3c-1-1-2.3-2.3-2.8-4.4c0,0-0.5-0.8-1-1.5c-0.5-0.8-1.5-1.8-2.1-3.1
		c-1.3-2.3-2.1-4.6-2.1-7.9c0-2.6-0.5-3.8-1.3-5.6c-1-2.1-0.8-3.8-0.5-5.6c0.3-1.8,0.5-3.3,0.8-4.1c0.5-2.6,1-4.6,1.8-7.2
		c0.5-2.6,1-4.1,1.8-6.7c0.3-1.5,0-4.9,0-7.7c0-2.1,1-3.6,1.8-4.6c0.8-1,1.8-1.5,2.3-2.1c0,0,0.5-1.3,0.5-2.6c0-0.5-0.3-0.8-0.3-1
		c-0.5,0-1,0-1.5,0c-1.5,0-2.3-2.1-3.6-2.8c-1.5-0.8-3.8-0.3-5.1,0c-1,0.3-2.6,1.8-3.6,2.3c-2.1,1-3.3-0.5-4.1-2.1
		c-1-2.3-2.1-2.3-4.6-2.8c-2.3-0.5-2.6-0.3-3.8,1.3c-1.3,1.3-3.1,1.5-5.1,1.5c-2.3,0-2.3,0-2.3-2.8c0-2.3-1.8-2.1-1.3-4.4
		c0.5-1.8-3.8-1.8-4.6-3.6c-0.3-0.3-3.3-2.1-3.8-2.3c-1.8-1.8-0.3-2.8-3.6-2.8c-2.3,0-3.6,1.3-5.9,1.3c-1.3,0-3.6,1.3-5.1,1.5
		c-2.6,0.8-4.1-1-5.9-2.1c-2.3-1.3-1.5-3.1-4.4-3.1C262.2,498,260.2,498,258.1,498L258.1,498z"/>
	<path id="piemonte_1_" class="st0" d="M463,339.6c-0.3,0-0.5,0-0.8,0c-1.3,0.3-2.8,0.8-4.4,0.8c-2.6,0-3.6,0-4.9,1.3
		c-1.3,1.3-1.8,2.1-3.6,2.3c-1.5,0.5-2.6,1-4.4,1.5c-1,0.3-2.8,2.3-3.3,3.3c-1,2.3-2.6,2.3-4.4,3.1c-1.8,0.8-2.8,1.8-4.4,2.3
		c-1.5,0.8-0.5,4.4-0.5,5.1c0.3,0.8,2.6,1.8,3.6,2.8c1.5,1.5,1.5,1.8,1.5,4.4c0,2.3,0.8,3.1-1.5,4.4c-1.5,0.8-2.6,1.8-3.8,2.3
		c-2.3,1.3-2.8,0.5-4.4,2.1c-1.3,1.3-2.8,2.1-4.1,3.3c-1.3,1.3-2.6,1.5-3.1,3.6c-0.3,0.8-3.3,2.6-3.8,3.3c-1.3,1.3-1.5,2.6-2.3,4.4
		c-1,2.3-2.1,3.3-3.1,4.4c-0.8,0.8-3.6,1.5-4.4,2.1c-1.5,0.8-4.6,0.5-6.7,0.5c-2.3,0-4.4,0-5.9,0.8c-1,0.5-1.5,3.1-2.3,4.1
		c-1,1-2.3,2.3-3.6,3.6c-1.3,1.3-3.3,2.6-4.9,3.3c-2.6,1.3,2.1,3.3,2.3,3.6c0.5,0.3,1,0.5,1.5,0.8c1.8,0.8,2.8,2.1,3.8,3.1
		c1.5,1.5,3.8,3.1,5.6,4.6c1.3,1.3,1.5,2.6,2.1,4.9s0.5,3.3,1.3,4.6c1,2.1,1.5,1.8,1.5,4.6c0,2.1,0,3.3-0.5,5.1s-1.5,1.5-1.5,4.4
		c0,1.8-1.5,2.8-2.1,4.9c-0.5,1.8-2.3,3.1-3.6,3.6c-1.3,0.8-2.6,2.8-3.6,3.8c-1.3,1.3-2.8,1.5-4.4,2.3c-1.3,0.8-4.1,0.8-5.6,1.3
		c-2.6,0.8-3.3,0-5.1,2.1c-1.3,1.3-2.1,2.1-3.3,3.3c-0.8,0.8-1.3,3.1-2.1,4.4c-0.5,1.3-1.3,3.6-1.3,5.1c0,2.1,0,3.8,0.5,5.6
		c0.5,2.3-0.5,3.6-0.8,5.1c-0.3,1.5-2.8,3.1-3.6,3.6c-1,0.8-1.5,2.6-2.8,3.8c-1.5,1.5-1.3,1.8-3.6,2.3c-2.1,0.5-2.8,1.5-5.1,1.5
		c-2.6,0-6.2-0.8-8.7-1.3c-2.3-0.5-4.1,0.5-5.6,1.3c-1,0.5-2.8,2.8-3.1,3.3c-0.8,1,1,3.3-0.5,4.6c-1,1-0.5,4.1-0.5,5.6
		c0,1.5,0,2.8-0.3,4.4c1.8,1.5,2.3,3.8,2.3,5.9c0,2.3-0.3,4.4-2.1,6.2c-1,1-1.8,1.5-2.1,2.1c-0.3,0.5-0.5,0.5-0.5,1.3
		c0,2.1,0.8,5.6,0,9c-0.8,2.6-1,4.4-1.8,6.7c-0.5,2.3-1,4.6-1.8,7.2c-0.3,0.8-0.5,2.1-0.8,3.3s0,2.6,0,2.6c1,2.1,1.8,4.4,2.1,7.9
		c0,2.6,0.5,3.6,1.5,5.6c0.3,0.3,0.8,1,1.5,2.1c0.8,1,1.5,1.8,2.1,3.6c0.3,0.5,0.5,1.3,1.3,2.1s2.1,1.5,2.6,3.6
		c0.3,0.8,0.3,0.8,0.8,1.5c0.5,0.8,1.5,1.5,2.3,3.1c0,0,1.3,1.3,2.1,3.1c0.5,0.8,0.8,2.1,0.5,3.3c-0.3,1.3-1.3,2.6-2.6,3.3
		c-0.5,0.3-1.3,0.8-1.8,1.3c-0.5,0.5-0.8,1-0.8,0.8c0,1.5,0,2.8,0,4.1s0.3,2.3,0.3,2.6c0.8,1.3,2.3,2.8,3.1,6.2
		c0.8,3.3,0,5.9-0.5,7.9c-0.3,1-0.8,2.3-1.3,3.6s-1,2.6-2.3,3.6c-1,1-1.5,2.8-3.8,5.1c-0.3,0.3-0.8,0.8-1,1.8s-1,2.1-2.3,3.3
		c-1,1-2.3,1.5-3.1,2.1c-0.8,0.5-1.5,0.8-2.1,1.3c-1.3,1.3-2.8,1.5-3.8,2.1c-1,0.5-1.8,0.5-1.8,0.8c-0.3,0.3-1,1.3-2.1,2.3
		c-0.5,0.5-1,1-1.5,1.5s-1,1-2.1,1.3c-2.1,0.5-3.8,1-5.6,2.1c-2.6,1.3-5.1,1.3-8.5,1.3c-0.5,0-2.3,0.3-4.1,0.3s-3.6,0.5-5.4-0.5
		c-1-0.5-3.3-0.8-6.2-1.5c-2.6-0.5-4.1-1.5-6.7-2.3c-1.8-0.5-3.3,0-5.9,0.5c-1.8,0.5-4.6,2.1-8.5,1c-1.8-0.5-5.1-0.3-7.9-3.1
		c-1.5-1.5-1.8-2.1-4.4-2.6c-1.5-0.3-2.8-1-3.8-1.5s-2.1-0.8-2.1-0.8c-3.6,0-5.6-0.5-7.7,0c-1.5,0.5-2.3,1.3-3.8,2.6
		c0,0-0.3,0.8-0.8,1.8c-0.5,1-0.8,2.6-2.1,3.8c-1.3,1.3-2.6,3.1-3.3,4.4c-1,2.3-3.3,4.4-6.7,5.1c0,0-0.3,0.5-0.5,1
		c-0.3,0.5-0.5,1-1,2.1c-0.5,1-1.8,1.8-3.3,1.8c-2.3,0-3.8-0.3-5.1-1s-1.3-1-2.3-1.5c-0.8-0.3-1.5-0.8-2.1-0.8l0,0c0,0,0,0,0,0.3
		c-1.3,2.6-3.3,3.8-5.6,5.1c-2.1,1-4.4,0.5-5.6,0.3c-1.3-0.3-1.8-0.5-2.1-0.5c-3.1,0.8-4.1,0.8-6.7,2.1c-1.5,0.8-2.6,1.8-4.4,3.3
		c-1,1-2.3,3.6-5.1,4.9c0.3,0-1.3,1-2.8,1.5c-0.8,0.3-1.8,0.5-2.8,0.5s-2.3-0.5-3.3-1.5c-1-1-1.5-2.1-2.1-2.6
		c-0.3-0.3-0.3-0.3-0.3-0.3c-1.8,0.8-3.3,0.8-5.1,1.3c-1.8,0.3-3.3,0.8-4.6,1.5c0,0.3,0.3,0.5,0.3,0.8c0.5,2.1,2.6,1.8,3.8,3.1
		s2.1,1.8,3.6,3.3s3.1,2.8,5.6,3.8c2.1,1,2.8,1,4.1,2.3c1.5,1.5,1.3,2.3,0.5,4.1c-1,1.8-2.3,1.5-2.8,3.8c-0.8,2.8-2.6,3.1-3.8,5.6
		c-1.3,2.6,0,3.3-3.6,3.3c-2.1,0-2.3,3.6-3.1,5.1c-1,2.3-1,1.8-3.6,2.3c-1.8,0.5-0.3,3.1,0,3.6c-1.5,0.5,1,3.1,1.5,4.6
		c0.5,1.8,1.5,2.3,2.3,3.8c1,2.3-0.3,3.6,1.5,5.6c0.8,0.8-0.3,5.4-0.5,5.9c-0.8,2.8,0.3,2.8-2.3,3.6c-3.1,0.8-3.6-0.3-4.4,2.8
		c-0.5,2.1-2.3,2.8-3.6,3.8c-1.5,1-2.3,3.1-3.3,4.1c-1.5,1.5-3.6-2.1-3.8-2.3c-1-1.8-3.6-0.3-4.4,0c-2.1,1-0.8,2.6-3.6,3.3
		c-1.3,0.3-2.8-1.8-5.1-0.8c-1.3,0.5-2.3,3.1-2.8,4.4c-0.3,1.3-3.6,2.6-4.9,3.1c-2.1,1-3.1,3.6-3.6,5.1c-0.5,1.5-2.1,2.8-2.8,3.6
		c-0.8,0.8-5.4,0-6.7,0c-2.3,0-3.8,0.3-4.4,2.3c-0.5,2.1-0.3,3.8-0.8,5.1c-0.5,2.3,0,3.3-2.8,3.8c-2.3,0.5-4.1,1-5.9,0
		c-2.1-1-3.1-1.5-4.6-2.8c-1.8-1.3-3.3-2.3-4.6-2.8c-2.6-0.8-5.4-0.5-7.9-1.3c-1-0.3-2.8,2.3-3.1,2.8c-0.8,1.5-2.3,2.3-3.3,3.6
		c-1,1.5-3.3,0.5-4.4,0c-1.8-1-3.3-2.1-4.4-3.3c-1.8-1.8-3.8,2.6-4.1,3.3c-0.5,1.5-1.8,2.3-3.6,3.6c-1.5,1.3-3.1,1.8-4.4,2.8
		c-1,1-2.6,1.5-4.1,2.1c-0.3,0-0.8,0-1,0c-3.3,0.8-1.5,4.4-1.3,5.6c0.5,2.1,1.5,2.8,3.1,3.3c1.3,0.3,1.8,2.8,2.1,3.8
		c0.5,2.1,1.3,2.8,2.3,4.1c1.5,1.5,1,3.6,0.3,5.1c-1.3,2.3,1,4.1,2.1,5.1c1.3,1.3,2.8,1.3,3.3,3.1c0.5,1.5,4.1,0.5,4.6,0.5
		c1.8-0.5,3.1-1.5,5.1-2.1c2.3-0.5,2.1,3.3,2.3,4.6c0.5,1.8,1.5,3.6,2.8,5.1c0.5,0.8-1.5,3.3-1.3,4.6c0.5,1.5,1.5,3.6,2.1,5.1
		c0.3,1.3-0.8,4.6-0.8,6.4c0,1.5,0.5,4.1,0.5,5.9c0,2.6,1,4.1,1.5,6.7c0,0.5,4.4,2.8,5.1,3.1c2.6,1.3,3.3,1.5,4.4,3.6
		c0.8,1.8,2.3,3.3,3.6,4.6c1.3,1.5,2.1,2.8,3.3,3.8c1,1,3.8,1.5,4.6,2.1c1.3,0.8,4.4,1,5.9,1.5c2.1,0.5,3.6,1.5,5.9,1.5
		c2.8,0,3.1-0.3,4.4-1.5c1.3-1.3,2.3-2.6,3.3-3.6c1.8-1.8,3.6-0.5,4.6,0.8c1.5,1.5,4.6,2.6,6.7,3.1c2.6,0.8,2.8-0.8,4.6,1.3
		c1.5,1.5,0.8,2.3,0.8,4.6c0,1.3,2.6,2.1,3.6,2.3c2.1,1-1,3.8-1.3,3.8c-1.5,1.5-2.3,1.8-2.8,3.6c-0.5,2.1,0.5,4.1,1,5.6
		c1,2.1,2.1,0.8,2.8,3.6c0.3,1-1,3.6-1.3,4.6c-0.5,2.3-0.5,3.1,0.8,4.4c1.3,1.3,2.6,2.6,4.4,3.3c1.5,0.5,2.6,3.6,3.3,5.1
		c0.8,1.8,3.1,1.8,4.4,2.8c1.3,1,0.8,3.3,0.8,5.1c0,3.3-4.1,1.5-7.2,1.5c-1.8,0-4.9-0.3-6.7-0.8c-2.3-0.5-5.1,0-6.7,0.8
		c-0.8,0.5-2.3,3.1-2.8,3.6c-1,1.5-2.3,2.1-3.3,3.6c-0.8,1.8-1.8,2.3-2.8,4.4c-0.5,0.8-0.3,3.6,0,4.9c0.3,1,4.1,1.8,4.6,2.3
		c2.3,1.8-1,1.5-2.8,1.5c-2.6,0-2.1,2.3-2.1,4.4c0,2.1,0,3.8,0,5.9c0,0.8-2.1,2.6-2.8,3.8c-1,2.1-1.3,3.8-2.1,5.1
		c-0.3,0.5-3.8,2.1-4.4,2.3c-1.8,1-3.3,1-4.4,2.1c-2.1,2.1-2.6-0.5-3.6,3.1c-0.5,1.8-1.3,2.8-2.8,3.3c-0.3,0,0,6.2,0,6.7
		c0,1.3,2.1,3.1,2.8,4.1c0.8,0.8,0.5,4.1,0.5,5.6c0,1.3,2.8,1.8,3.8,2.3c0.5,0.3,1.8,3.6,2.3,4.4c1.3,1.8,3.8,2.3,5.6,2.8
		c1.5,0.5,2.1,3.1,2.8,4.4c0.8,1.5,2.1,1.8,2.3,3.6c0.3,1.5-3.6,1.3-4.6,1.3c-1.5,0-3.1,0-4.4,0c-2.3,0,0,5.4,0,5.9
		c0.3,1.3-1.5,3.1-2.1,4.4c-0.5,2.3,0.8,3.8,0.5,5.6c-0.5,2.1-1.5,2.6-2.1,4.4c-0.3,1.3,3.1,1.8,3.8,2.1c2.1,0.5,2.8,1.3,2.8,3.6
		c0,2.8,0.8,3.3,2.3,5.1c1.3,1.3,1.5,3.1,2.8,4.4c1.8,1.8,2.8,0.3,3.6,2.8c0.5,1.8,0,3.3,0.5,4.6c0.5,1.5,2.8,2.1,4.4,3.3
		c1.5,1.3,2.6,0.8,3.1,3.1c0.5,1.8,0.8,3.3,1.3,5.1c0.5,2.3,1,3.1,0,5.1c-0.8,1.3-1.3,3.1-1.3,3.3c-0.3,1,3.1,2.3,3.6,2.8
		c1,1,3.8,1.5,5.1,2.1c2.1,0.5,3.3-1,4.6-1.5c2.1-1,1.8-1.5,4.6-1.5c1.5,0,2.8,2.1,3.6,3.3c0.5,1,3.6,2.3,4.4,3.6
		c0.5,0.8,2.8,2.1,3.6,2.3c1.5,0.8,3.1,1,5.1,0.5c1.5-0.5,1.3,1.5,2.8,2.3c2.1,1,2.8-2.8,3.1-3.6c1-2.3,2.8,0.5,3.6,1.3
		c0.8,0.8,1.3,3.6,2.1,4.4c1.5,1.8,0,2.6,2.8,3.3c2.1,0.5,2.8,1,5.6,1c2.1,0,1.5,2.3,1.5,4.4s1.5,2.3,3.3,2.8
		c2.8,0.8,3.1,0.3,3.1,3.6c0,1.5,3.6,0.5,4.6-0.8c1.8-1.8,1-3.1,3.6-2.1c0.8,0.3,1.8,2.8,2.8,3.6c2.1,1.5,3.8-1.5,4.6-2.3
		c1.5-1.5,2.1-1.8,4.1-0.8c0.3,0.3,0,5.4,0,5.9c0,3.1-1,2.3,0.8,4.4c1.8,1.8,3.8-1.3,3.8-2.1c0.3-1.3,3.1-2.1,4.6-2.1
		c0.5,0,1,0,1.5,0c1.5,0,1.3,3.3,2.8,3.8c1.5,0.8,4.4-0.5,5.1-0.8c1.5-0.8,0.3-2.3,4.1-2.3c1.8,0,3.1,1,5.1,0.5
		c0.5,0,0.5-0.8,0.8-1.3c0,0-0.3,0-0.5,0c-1,0.3-2.1,0.5-3.1,0.5c-0.5,0-0.8,0-0.8,0c0.5-0.3,3.1-0.5,4.1-0.5
		c2.3-0.5,4.4-2.1,5.6-4.4c1.8-3.8,3.3-5.6,4.6,0c1.3,5.1,4.4-3.1,4.6-4.1c1.3-2.6,6.7-1.5,10.3-1.5c5.1,0,6.4-0.8,8.7-3.1
		c2.8-2.8,3.1-3.1,8.7-3.1c5.1,0,5.9-0.8,4.9,3.8c-0.8,2.8-2.1,6.2-3.3,8.7c-2.1,4.1-3.8,1,0.8,5.6c1,1,2.1,2.1,2.8,3.1
		c1.3-1,3.1-2.1,5.1-3.1c2.3-1,4.6-2.1,7.2-2.1c3.8,0,6.9,2.3,8.5,4.1c2.3,2.3,1.3,2.1,4.9,2.6c1.5,0.3,2.3,0.3,3.8,0.3
		c1.3,0,3.1,0.5,4.6,2.1c0,0,0.3,0,0.5,0c0.5,0,1,0.3,1.8,0c1.3,0,2.8-0.5,3.3-0.8c3.1-0.8,5.9-0.5,8.5-1c2.1-0.5,3.8,0.3,5.1,1.3
		c1.3,1,2.3,1.8,2.8,2.3c0.5,0.5,0.8,0.5,0.8,0.8l0.3-0.3c0-0.3-0.3-1-0.3-1.5c-0.3-0.8-0.5-1.3-0.8-2.1c-0.3-0.5-0.3-1-0.5-1.5
		c0-0.3-0.3-0.3-1-1.3c-0.8-1-1.3-3.1-0.8-5.4c0.5-1.8,1.5-3.1,2.6-3.8c1-0.8,1.8-1.3,2.1-1.8c1.3-1.3,2.1-1,2.8-1.3
		c0.8-0.3,1.5-0.3,2.3-0.3c0.8,0,1.8-0.3,2.3-0.3s1.3-0.3,1,0c2.8-0.8,5.6-0.8,7.2-1c2.8-0.8,4.1-1.3,6.7-2.1c0-0.3,0.3-0.5,0.3-1
		c0.3-1,0.5-2.3,0.5-2.8c0-2.6,0.5-5.1,0-6.7c-0.3-0.5-0.5-1-1.3-2.1c-0.8-1-1.8-2.3-2.1-4.4c-0.8-2.8-1.3-5.4-0.5-8.5
		c0.5-2.3,0.5-4.9,0.5-7.7c0-1.8,0.8-3.3,1.3-4.9s1.3-2.8,1.8-3.6c1.3-2.8,3.1-4.4,4.4-5.6c1.8-1.8,4.1-3.1,5.6-3.8
		c2.1-1,3.1-2.6,5.6-3.8c0.8-0.3,0.8-0.5,1-1c0.3-0.5,0.3-1.5,0.3-2.8c0-2.8,0-5.6,0-8.5c0-2.1,1.3-3.8,2.3-4.9c1-1,2.3-1.8,2.8-2.6
		c1-1,2.3-1.8,3.1-2.3c0.8-0.5,1.3-1,1.8-1.8c1.3-1.5,1.8-3.3,2.3-5.9c0.5-2.3,1-4.1,1.5-6.7c0.8-2.8,1.3-4.6,2.6-7.2
		c1.5-3.1,3.8-4.6,4.9-5.6c1.8-1.8,3.8-3.1,5.6-3.8c2.1-1,3.8-1.3,5.4-0.8c1.5,0.5,2.6,0.8,4.1,1.3c3.6,1,5.4,2.8,6.7,3.6
		c1.5,0.8,2.3,1.8,3.1,2.6s1.5,1.5,2.1,1.8c2.3,1.3,4.1,3.1,5.1,5.1l0,0c0.3,0,0.8,0,1.3,0c1.3,0,2.8-0.3,2.8-0.3
		c0.8-0.3,0.5,0,0.8-0.5c0.3-0.3,0.5-1.3,0.8-2.8c0.8-3.1,2.8-4.9,4.1-6.2c1.3-1.3,2.3-2.8,3.8-4.6c1.5-1.5,3.6-1.8,4.6-2.1
		c1-0.3,1.5-0.5,1.5-0.3c1-1,1.3-2.1,3.1-3.1c1.8-1,3.8-0.8,6.7,0c3.6,1,5.1,1.3,8.5,3.1c1,0.5,4.4,0.3,7.2,0.3
		c2.3,0,4.1,0.5,5.4,1.3c1.3,0.8,2.3,1.3,3.6,1.5c2.6,0.5,4.6,1.5,7.2,2.3c3.3,0.8,4.9,1.3,5.4,1c0,0,0.5-0.3,1.3-1
		c0.8-0.8,1.3-1.5,2.1-2.1c2.1-2.1,3.6-2.8,5.6-3.8c2.3-1,4.1-2.1,7.9-2.1c2.1,0,3.6,0.5,4.6,1c1,0.5,2.1,1,2.6,1.3
		c1,0.3,0.8,0,1-0.3c0.3-0.3,0.8-1,1-2.1c1.3-2.6,2.1-3.1,2.6-5.1c1-3.6,4.1-5.4,5.4-6.4s2.8-1.5,4.4-2.1c1.5-0.5,2.8-0.3,4.6-0.3
		c1,0,1.5-0.3,2.1-0.5c0.5-0.3,1.8-1.3,3.3-1.5c2.1-0.5,2.3-1,3.6-2.6c0-0.3,0-1,0-1.8c0-1.3-0.3-3.1-0.3-4.4c0-0.8-0.3-1-0.8-2.1
		c-0.5-1-1-2.6-1-4.6c0-2.1,1-3.6,2.1-4.6s2.3-1.5,3.3-2.1c1-0.5,1.5-1,2.3-1.5c0.8-0.5,1.8-1.5,3.3-2.3c0.8-0.3,3.3-2.6,4.4-3.3
		c1.3-1.3,2.8-1.8,4.1-2.1c1.3-0.3,2.6-0.8,3.3-0.8c2.3-0.5,4.1,0.5,5.4,1.3c1.3,0.8,2.1,1.5,2.1,1.8c3.1,1.5,4.1,4.1,5.1,6.2
		c0.8,1.5,1.8,2.8,2.6,4.4c0.5,0,1.5,0,2.3,0c1.8,0,3.6-0.3,4.6-0.3c1.8,0,3.3,0.5,4.4,1.3s1.8,1.5,2.6,2.3c1.3,1.3,1.8,2.3,2.1,3.6
		c0.3,1.3,0.8,2.3,1,2.6c0.8,1.5,1,2.8,1.3,3.3c0.3,0.5,0.3,0.8,1,1.5c1,1,1.3,1,1.8,1.3c0.5,0.3,1.8,0.3,3.8,0.8
		c1.3,0.3,5.1-0.3,6.7-0.5c1.5-0.5,2.6-1.5,3.3-3.1c0.3-0.5,0.3-0.5,0.5-0.8c0,0,0,0,0-0.3c-0.5-1.5-1.3-5.4-1.3-7.9
		c0-2.8-0.3-5.9,0.8-9c0.5-1.8,1.3-3.1,1.8-3.6c0.5-0.5,0.5-0.5,0.5-2.1c0-0.8-0.5-2.6-0.8-4.6c0-1-0.3-2.1,0-3.1
		c0-0.3,0.3-0.5,0.3-0.8l0,0c-0.5-3.3-0.5-6.9,0.3-10.5c0.5-2.1,1-4.1,1-6.2c0-2.1-0.3-3.6-1.5-4.6c-2.3-2.3-6.4-5.6-8.5-9.7
		c-1-1.8-1.5-4.1-2.3-6.2c-0.5-1-1-1.8-1.3-2.1c-0.3-0.3-0.5-0.5-0.8-0.5c-2.6,0-5.4,0.3-8.2,0c-2.8-0.3-5.9-0.8-8.2-3.1
		c-1.3-1.3-2.3-2.6-2.8-4.1s-0.5-2.6-0.3-3.6c0.3-2.1,0.8-3.1,0-5.9c-0.5-2.3-1.3-4.4-2.1-5.4c-0.8-1-1.3-1.5-1.8-1.8
		c0,0-1.3-0.3-2.6-0.5c-1.3-0.3-2.8-0.5-4.4-0.8s-3.1-0.8-4.4-1c-0.8-0.3-1.3-0.5-1.8-0.8s-1.3-0.3-2.1-1.8
		c-1.5-3.1-1.5-5.6-1.3-7.7c0.3-2.1,1-3.3,1-5.6c0-4.1,0.3-6.7,0-7.2c0-0.3,0-0.3-0.5-0.5c-0.5-0.3-1.5-0.5-3.1-1
		c-1.3-0.3-4.1-1-6.4-2.3c-1.3-0.8-2.6-1.5-3.6-2.6c-1-1-2.1-2.6-2.1-4.4c0-0.3,0-0.3,0-0.5c0-0.3,0-0.3,0-0.5c0-0.5,0-1,0.3-1.8
		c0-1.5,0.3-3.3,0.5-5.4c0-1,0.3-2.1,0.3-3.1c-1,0.8-2.1,1.5-3.8,1.5c-2.8,0-4.4,0.3-6.2,1c-1.8,0.8-3.8,1.5-6.7,2.3
		c-5.1,1.3-10.3,1.3-16.2,1.3s-11,0-16.2-1.3c-0.5-0.3-3.6-0.8-6.7-1.8c-1.5-0.5-2.8-0.8-4.1-1.5c-0.5-0.3-1.3-0.5-1.8-1
		c-0.5-0.5-1.3-1-1.5-2.1c-1-4.4-1.3-10.3-2.3-14.6c-0.5-2.6-0.5-5.1-0.8-7.7c-0.3-2.6-0.5-4.9-1.3-6.4c-0.5-1-1.5-3.1-2.8-4.6
		c-1.3-1.5-2.6-2.8-3.3-3.1c-0.8-0.3-0.8-0.3-1.3-0.5c-0.5-0.3-1-0.5-1.5-0.8c-1.3-0.5-2.6-1.3-3.8-2.1c-1.3-0.8-2.8-1.5-3.8-2.3
		c-0.5-0.3-1-0.8-1.3-1c-0.3-0.3-0.5-0.5-0.8-0.8c-0.3-0.3-0.8-1-0.5-2.3c0.5-1.5,1-4.6,1.3-7.2c0.3-2.6-0.5-4.9-0.5-4.9
		s-0.8-0.3-1.5-1.8c-1.8-3.6-1-6.7-0.3-8.5c0.5-1,0.8-1.5,1-2.1c0.3-0.5,0.3-0.5,0-1c-0.8-2.8-1.3-3.8-2.1-5.1s-2.1-2.6-3.3-5.6
		c-1.8-3.6-3.1-6.4-6.2-9.5c-1.5-1.5-3.1-3.3-3.3-5.9c-0.3-2.6,1-5.1,3.3-7.7c0.8-0.8,2.8-2.6,4.9-4.1c1-0.8,2.1-1.5,3.3-2.1
		c1.3-0.5,2.1-1.3,3.6-1.3c6.4,0,11,0.3,15.6,2.6c1.5,0.8,4.1,1.3,6.9,2.3c1.3,0.5,2.6,1,3.6,2.1c1,1,2.1,2.6,2.1,4.6
		c0,2.3,0.5,3.3,1.3,4.9c0.8,1.5,2.3,3.6,3.1,6.9c0.3,1.5,0.8,2.6,0.8,3.3c0.5-0.3,0.8-0.5,1.5-1.3c1.8-1.8,2.8-2.8,3.6-3.8
		c0.8-1,1.3-2.6,1.3-5.6c0-1.5-0.3-5.1-0.3-8.5c0-1.8,0-3.3,0.3-4.9c0.3-1.5,0.3-2.8,1.8-4.4c3.3-3.3,7.9-5.1,14.1-5.1
		c1.3,0,4.4-0.8,7.2-1.8c1.3-0.5,2.6-0.8,3.6-1.3c0.5-0.3,1-0.3,1.5-0.5c0.5,0,1-0.3,2.3,0.3c1.3,0.5,1.8,1,2.8,1.8
		c-0.3-1.5-0.5-3.3-1-5.9c-0.3-1.5-0.5-2.8-0.8-3.8c-0.3-1-0.8-1.8-0.5-1.5c-2.8-2.8-5.1-6.7-7.2-10.8c-0.3-0.5-1.5-2.6-3.1-4.6
		c-0.8-1-1.5-1.8-2.1-2.3s-1.3-0.8-1-0.8c-3.1-0.8-5.1-2.6-6.7-4.1c-1.5-1.5-2.3-3.1-3.6-4.4c-3.8-3.8-4.6-6.2-6.2-12.3
		c-0.3-0.5-0.3-1-0.5-2.3s-0.5-2.8-1-4.4c-0.5-1.5-0.8-3.1-1-4.4c-0.3-0.5-0.3-1-0.5-1.3c-1-1-3.6-2.6-5.6-4.1
		c-1-0.8-2.1-1.8-2.8-3.3c-0.3-0.8-0.8-1.5-0.5-2.6s0.8-1.8,1.3-2.6c1-1,2.8-2.3,4.4-4.1c0.8-0.8,1.3-1.8,1.8-2.3
		c0.3-0.3,0.3-0.5,0.3-0.5s-0.5-0.8-1.3-1.5c-0.8-0.8-1.8-1.8-2.6-2.8c-0.8-1-1.8-1.8-2.6-2.6c-0.3-0.3-0.5-0.8-0.8-1
		s-0.5-0.3-0.8-1.5c-0.8-2.8-1.3-3.8-2.1-4.6s-2.1-2.1-4.1-4.1c0,0-2.3-1.3-4.6-2.3c-2.3-1-5.4-2.3-6.2-5.6
		c-1.3-5.1-1.8-6.9-3.3-13.3c-0.5-1.5-1.5-3.6-2.3-5.9c-0.8-2.3-1.8-5.4-0.8-8.7c0.8-3.1,2.1-5.1,3.1-6.7c1-1.5,1.3-2.6,1.3-4.9
		c0-5.6,0-11.3,0-16.7c0-6.2,3.1-9.7,6.4-13.1c2.6-2.6,4.9-5.9,7.9-9c2.6-2.6,4.4-5.4,7.9-9c0.3-0.3,0.5-0.5,0.8-0.8
		c2.1-3.8,4.4-6.9,5.4-10.5c0.5-2.1,1.5-4.1,2.3-6.7c0.8-2.6,0.8-4.6,0-6.2c-0.5-1.3-1-2.6-1.5-4.4s-1-3.8-1.3-5.9
		c-0.3-2.1-0.8-4.4-1-6.2c-0.3-1.5-0.3-2.8-0.3-3.8l0,0c-2.1-1-4.9-0.8-6.7-1.3c-3.1-0.8-3.6,0.3-5.1-1.5c-1.8-1.8-2.1-2.3-4.4-4.1
		c-1.3-1-2.1-3.3-2.3-4.4c-1.3-2.6-1.8-4.4-2.3-7.4c-0.3-1.5-2.8-2.3-4.4-2.8c-0.8-0.3-1.3-3.3-1.5-4.1c-1.8-0.5,1-3.3,0.8-5.1
		c-0.3-0.8-4.1-1.3-4.6-1.5c-2.3-0.5-1.8-1.5-3.6-3.3c-1.3-1.3-1.3-2.8-3.8-2.8c-0.5,0-3.6-3.1-4.1-3.6c-1.3-1.3-2.6-2.6-4.4-3.6
		c-1.3-0.8-2.3-1.8-2.3-3.6c0-2.8,0.5-3.1-0.8-4.4c-1-1-2.1-2.3-2.8-3.6c-1.5-1.8-0.8-3.1-2.3-4.6c-1.3-1.3-0.3-2.6,1.3-4.1
		c1.3-1.3,1.8-2.1,2.8-3.1c1.3-1.3,2.1-1.8,3.1-2.8c1.5-1.5,1.3-3.1,0.8-5.1c-0.5-2.3,0.5-4.9,0.5-7.2s-0.8-3.1-0.8-5.6
		s0.8-2.8,2.1-4.1c1-1,1.3-3.1,1.3-4.6c0-1.8-1.3-3.1-2.1-4.6c-0.8-1.5-0.3-3.8,0-5.1s-1.3-3.8-1.5-4.6c-1-2.1-0.5-2.8-2.3-3.6
		c-1.8-0.8-3.8-0.8-5.6-1.3C463.5,339.6,463.2,339.6,463,339.6L463,339.6z"/>
	<path id="lombardia_1_" class="st0" d="M884.2,281.2c-1,0.3-1.3,2.6-2.1,3.6c-1.3,1.8-2.3,2.3-4.1,2.8c-2.1,0.5-2.3-2.8-4.6-2.8
		c-2.1,0-2.8,1.8-3.6,3.1c-0.5,1.3-3.6,1.8-4.6,2.8c-1.8,1.3-2.1,2.3-3.6,3.1c-1,0.5-4.6-1-5.6-1c-0.3,0-0.5,0-0.8,0
		c-2.8-0.8-2.3,3.8-2.3,5.6c0,2.3-2.3,0.8-2.3,3.6c0,1.8-1.5,2.8-2.3,3.6c-1.5,1.5-2.8,1.3-2.8,4.4c0,1.8-2.1,2.6-3.8,3.1
		c-1.5,0.5-1,3.3-0.8,4.4c0.5,2.1,1.3,2.8,1.5,4.4c0.5,2.1-1.3,3.1-2.1,3.8c-1.3,1.3-1.3,2.3-1.3,4.6c0,2.3,0.3,2.8-1.3,4.4
		c-1.5,1.5,1,3.6,1.5,4.4c1.3,1.8,2.1,2.6,2.1,5.1c0,2.3-0.3,3.6,0,5.1c0.3,1,3.3,2.1,3.8,2.3c2.3,1.3,2.6,2.1,5.6,2.8
		c2.6,0.8,4.6-1,6.4-2.1c2.6-1.3,3.8-1.5,5.9,0c0.8,0.5,1.8,3.6,2.1,4.6c0.5,1.8,1.8,2.6,2.3,4.4c0.5,1.8-1.8,3.6-3.1,4.6
		c-1,1-2.6,1.8-3.6,2.8c-1.3,1.3-2.3,2.6-3.1,4.1c-1,1.8-1.8,3.1-2.3,5.1c-0.5,1.5-2.1,2.6-2.1,4.6c0,1.3,1.3,3.3,2.1,3.8
		c0.8,0.8,1.5,3.6,2.3,4.6c1.3,1.5,2.6,2.8,3.6,4.1c1.3,1.8,2.3,3.1,4.4,4.6c1.5,1.3,2.3,2.3,3.1,3.8c0.8,1.8,1,2.8,1.5,5.1
		c0.5,2.1-1.3,3.1-2.1,4.1c-1.3,1.3-2.6,1.5-3.8,2.8c-1.5,1-1.8,2.3-3.8,2.8c-2.3,0.5-3.8-0.3-5.6-0.8c-2.3-0.5-3.8-0.3-5.1,0.5
		c-1.8,0.8-1.5,1.8-3.6,2.3c-1.8,0.5-2.8,1-4.6,0c-1.8-1-1-3.6-0.5-4.6c1-2.1,2.8-1.8,3.6-4.6c0.5-2.3-0.3-2.6-0.8-4.4
		c-0.3-1.5-3.3-2.1-4.4-3.3c-1.3-1.3-3.1-1.8-5.1-2.8c-1.5-0.8-3.6-1.3-4.6-2.3c-1.5-1.5-1.8-3.6-2.3-5.9c-0.8-2.8-0.5-2.8-2.3-4.6
		c-1.5-1.5,1.8-3.6,2.3-3.8c2.1-1,1.8-1.8,1.3-4.4c-0.5-1.5-2.3-3.3-3.6-3.8c-1.8-0.8-3.1-1.5-4.4-2.8c-1.3-1.3-2.3-1.5-3.8-2.1
		c-1.8-0.5-3.3-0.5-5.1-2.1c-1.3-1-4.1,1-4.6,1.3c-1.8,1-3.6,1.3-5.1,2.3c-1.8,1.3-1.8,1.5-4.6,1.5c-2.1,0-4.1,0-6.4,0
		c-2.6,0-2.8,1.3-3.6,2.8c-1,1.8-2.3,2.3-3.8,3.1c-1.8,1-2.3,2.8-3.8,3.6c-1.8,1-4.6-2.3-5.6-3.3c-1.3-1.3-3.8-0.8-5.6-0.8
		c-2.1,0-2.8,1.8-3.3,3.6c-0.5,1.5-0.5,3.6-0.8,5.1c-0.5,1.8-0.5,3.6-0.5,5.6c0,1.3-2.1,2.6-2.8,3.1c-1.5,1.5-2.1,0.8-3.8-0.8
		c-1.8-1.3-1-2.3-4.1-1.5c-1.8,0.5-1.8,2.3-3.6,2.8c-2.1,0.5-2.8,1.8-3.8,2.8c-1.3,1.3-3.1,1.3-5.1,1.3c-0.8,0-2.1-3.3-2.3-4.1
		c-1-2.1-3.6-2.1-5.6-2.1c-2.3,0-3.1-0.8-4.4-2.1c-1.3-1.3-2.1-2.3-4.1-2.8c-2.6-0.8-3.6-1-4.6-2.3c-1-1-1.8-3.1-2.3-4.4
		c-0.8-1.8-0.8-3.8-0.8-5.9c0-1-3.1-2.3-4.1-2.8c-1.5-0.8-2.8-2.8-3.6-3.6c-1.5-1.5-2.6-2.6-3.6-3.6c-1-1-0.5-4.1-0.5-5.6
		c0-2.6-0.5-3.1-1.5-4.4c-0.5-0.5,0-4.9,0-5.9c0-2.1,0.8-4.1,1.3-5.9c0.5-2.3,0.3-3.8-0.5-5.1c-1-2.3,0.8-3.3,1.5-4.6
		c0.8-1.8,1.3-2.6,0.8-4.4c-0.3-1.5-2.1-2.3-2.8-3.3c-1.5-1.5-1-2.3-2.8-3.1c-2.6-1.3-2.8-1.3-3.6,1.5c-0.3,1.5-2.1,2.1-2.8,3.6
		c-1,2.1-1,3.8-2.3,5.1c-1.8,1.8-2.8,2.3-3.8,0c-0.8-1.8-1.5-2.3-3.3-3.1c-2.1-1-2.8-0.3-3.6-2.8c-0.3-1.5,1.8-3.8-1.3-3.8
		c-2.3,0-4.9,0-7.2,0c-2.1,0-4.1,0-6.4,0s-3.6,0.3-4.6,1.5c-1.3,1.3-1.5,2.6-0.8,5.1c0.5,2.1,0,4.6-0.8,6.2
		c-0.8,1.8-0.8,2.8-0.5,4.9c0.3,1-3.3,2.3-4.4,2.3c-2.1,0-2.8,1-3.6,2.3c-0.5,0.8,2.8,2.3,3.6,2.8c1,0.5,2.8,2.8,3.3,3.6
		c0.8,1.5,2.1,3.1,2.3,4.6c0.3,1-0.5,3.6-0.5,5.1c0,2.1,0.5,3.6,0,5.6c-0.5,2.1,0.5,3.6,0.5,5.6c0,1.5,2.1,2.1,2.3,3.6
		c0.5,2.1,0.8,4.1,1.3,5.6c0.5,2.1-0.3,4.6-0.8,5.9c-0.8,1.5-1,2.8-2.1,4.9c-0.8,1.8-0.8,3.1-1.5,4.6c-1,1.8-2.1,2.1-2.8,3.6
		c-0.8,1.8-1.3,2.3-1.3,4.6c0,2.3-0.5,3.3-2.8,4.4c-0.8,0.3-2.3,2.6-3.3,3.6c-2.3,1.3-2.1,4.6-2.3,6.4c-0.5,2.6-1.5,3.6-3.1,4.4
		c-1.3,0.8-1.8,2.8-2.3,3.8c-0.8,1.3-2.8,2.8-4.4,4.4c-1.3,1.3-1,2.6-3.1,3.6c-1.5,0.8-2.8,2.3-3.6,3.8c-0.8,1.5-3.1,2.8-4.4,4.1
		c-1.5,1.5-0.8,2.8-3.6,3.6c-1.5,0.3-3.6,1.5-5.1,2.1c-2.8,0.8-2.1,1-1.5,3.1c0.3,1-2.1,1.8-1.5,3.6c0.5,2.3,1,2.3,2.3,3.6
		c1.3,1.3,0,4.4-0.5,5.6c-0.5,2.3-0.8,3.1-2.1,4.4c-1,1-4.9,2.6-5.9,2.8c-1.3,0.3-3.3,2.1-3.8,2.8c-1,1-5.1,2.3-6.4,2.8
		c-1,0.5-1.3,3.8-1.3,5.1c0,2.1,1.5,2.6,2.8,3.1c1.5,0.8,1.5,2.6,1.5,4.4c0,2.6-1,3.1-2.8,4.4c-1.5,1.3-2.3,1.3-2.8,3.1
		c-0.5,1.8,1.3,3.1,1.5,4.4c0.5,1.8,0.5,3.8,0.5,5.9c0,2.3,0.3,3.8,0.8,5.1c0.5,1.3,6.2,1.3,7.2,1.5c1.5,0.3,3.6,1.5,4.6,2.3
		c1.8,1.3,0.3,2.6,2.3,3.6c2.3,1,3.1,0.3,4.1,2.3c1,1.8-2.1,3.6-3.3,3.8c-1.5,0.5-1.8,2.8-2.8,3.6c-1.3,1.3-2.6,1.3-4.1,2.1
		c-1.3,0.8-1,3.1-1,4.6c0,1.8-0.8,3.8-1.3,5.1c-0.5,2.3-0.8,4.4-1.3,6.2c-0.5,1.8-4.1,0.3-4.6,0c-2.3-1.3-2.1-0.5-2.8-3.6
		c-0.5-2.3-0.5-2.6-3.1-3.1c-0.8-0.3-2.3,2.6-2.8,3.1c-2.1,2.1-2.3,0.3-3.6-1.3c-1-1.3-1.8-2.1-2.3-3.6c-1-2.1-2.8-0.5-3.8,0.5
		c-1.8,1.3-1.8,1.8-3.8,2.3c-2.6,0.8-0.3-4.1,0-4.6c0.8-1.3,2.1-2.1,3.1-3.1c1.5-1.5,2.1-1,2.8-3.6c0.3-1.5-1.5-3.1-2.1-3.8
		c-0.8-1.5-1.5-2.6-2.1-4.4c-0.5-1.8-0.8-3.3-0.8-5.6c0-2.1-2.6-3.1-3.6-4.1c-1.5-1.5-2.1-2.8-2.8-4.4c-1-2.1-1.3-3.3-1.3-5.6
		c0-2.6-1-2.6-2.8-3.6c-1.8-0.8-3.6-1-5.6-1.5c-1.8-0.5-2.6-2.1-3.6-3.1c-1.3-1.3-3.8-2.6-5.1-2.8c-2.1-0.5-2.6-2.3-3.3-3.6
		c-1-2.1-2.1-1.5-0.8-4.1c0.8-1.5,1.8-1.8,3.6-2.3c1.8-0.5,3.1-1.5,3.6-3.3c0.5-2.1,2.6-0.5,2.1-3.1c-0.5-2.1-2.6-0.3-1.3-3.3
		c0.3-0.5,4.6-1.5,4.6-1.5c1-0.5,0.8-3.3,1.3-4.1c1-2.1-1-2.8-2.3-3.6c-1.5-0.8-2.6-2.3-3.6-3.1c-1.3-1.3-2.1-2.1-2.8-3.6
		c-1.3-2.6-3.6,0.5-4.1,0.8c-0.8,0.8-3.3,1.8-4.4,2.1c-1.5,0.3-4.4-2.6-5.6-3.3c-1-0.5-2.8-2.8-3.1-3.6c-1-1.8-4.4,2.8-4.4,2.8
		c-0.3,0.3-4.6,0.8-5.1,0.8c-1.5,0.3-2.8-0.3-4.1-0.8c0.3,1.5,0.5,3.3,0.8,5.4c0.5,2.1,0.8,4.1,1.3,5.9c0.5,1.8,1,3.1,1,3.3
		c1.8,3.3,1,6.9,0.3,10c-0.8,3.1-2.1,5.6-2.3,6.4c-1.3,4.9-4.1,8.5-5.9,11.8c-0.8,1.5-1.5,1.8-1.5,1.8c-3.3,3.3-4.6,5.9-7.9,9
		c-2.6,2.6-4.6,5.9-7.7,9c-3.3,3.3-4.9,4.6-4.9,9.5c0,5.6,0,11.3,0,16.7c0,3.3-1,5.6-2.1,7.4c-1,1.8-1.8,3.1-2.6,5.4
		c-0.5,2.1-0.3,3.6,0.8,5.6c0.8,2.1,2.1,4.1,2.6,6.7c1.5,6.4,2.1,8.2,3.3,13.6c0,0.3,1.3,1.3,3.3,2.3s4.4,1.3,6.2,3.3
		c1.8,1.8,3.3,3.1,4.6,4.6s2.1,3.6,2.8,6.2c0.3,0.3,0.3,0.5,0.8,0.8c0.5,0.8,1.5,1.5,2.3,2.6c0.8,1,1.8,2.1,2.8,2.8
		c1,0.8,1.5,1.8,2.1,2.8c0.8,1.8,0.5,3.6-0.3,4.9s-1.5,2.6-2.6,3.6c-1.8,2.1-3.3,3.3-4.1,3.8c0.3,0.3,0.5,0.5,1,1
		c1.8,1.3,4.4,2.8,6.2,4.6c1,1,0.8,1.3,1,1.8c0.3,0.5,0.3,1.3,0.5,1.8c0.3,1.3,0.8,3.1,1,4.6c0.3,1.5,0.8,3.1,1,4.4
		c0.3,1.3,0.5,2.3,0.5,2.1c1.5,6.4,1.3,6.4,4.9,10c1.8,1.8,2.8,3.6,3.8,4.9c1,1.3,1.8,1.8,3.8,2.3c1.5,0.3,2.3,1,3.3,2.1
		c1,1,1.8,1.8,2.6,2.8c1.5,2.1,2.8,4.1,3.6,5.4c1.8,3.6,4.1,7.2,6.2,9.5c1.3,1.3,1.3,2.3,1.8,3.6c0.5,1.3,0.8,2.8,1,4.4
		c0.5,3.1,1,6.2,1.3,6.7c0.5,1.8,1,3.1,0.3,4.9c-0.5,1-1.8,1.8-2.8,1.8c-1,0-1.5-0.3-2.1-0.5c-2.1-0.8-3.6-2.3-5.1-3.1
		c-0.3,0-0.3,0-0.8,0.3c-0.8,0.3-2.1,0.8-3.3,1c-2.8,1-5.9,2.1-8.7,2.1c-5.1,0-7.9,1.3-10.3,3.6c0,0-0.3,0.5-0.5,1.5
		c-0.3,1-0.3,2.6-0.3,4.1c0,3.1,0.3,6.4,0.3,8.5c0,3.6-0.8,6.2-2.1,8.2c-1.3,2.1-2.8,3.3-4.4,4.6c-1.3,1.3-2.6,2.3-3.8,3.1
		c-0.5,0.3-1.3,0.5-2.3,0.5c-0.8,0-1.8-0.5-2.3-1c-1-1-1.5-2.1-1.8-3.3c-0.3-1.3-0.5-2.3-1-3.8c-0.5-2.6-1.5-3.8-2.6-5.6
		c-1-1.8-2.1-4.1-2.1-7.2c0-0.3,0-0.5-0.5-0.8c-0.5-0.3-1-0.8-2.1-1c-2.1-0.8-4.9-1.3-7.2-2.6c-3.6-1.8-7.2-2.1-13.3-2.1
		c-0.3,0-0.5,0.3-1,0.5c-0.8,0.5-1.8,1-2.8,1.8c-2.1,1.5-4.1,3.1-4.4,3.6c-1.8,1.8-2.1,2.8-2.1,3.6c0,0.5,0.8,1.5,2.1,2.8
		c3.6,3.6,5.4,7.2,7.2,10.8c1.3,2.6,2.1,3.8,3.1,5.1c1,1.3,1.8,3.3,2.6,6.4c0.3,1.5,0.3,3.1-0.3,4.1c-0.5,1-1,2.1-1.3,2.6
		c-0.5,1.3-0.8,1.5,0.3,3.8c0,0,0.3,0.3,0.8,0.8c2.6,2.6,2.3,5.9,2.1,9c-0.3,2.6-0.8,4.6-1,6.4c0,0,0.3,0,0.3,0.3
		c0.8,0.5,2.1,1.3,3.3,2.1c1.3,0.8,2.6,1.5,3.8,2.1c0.5,0.3,1,0.5,1.3,0.8c0.3,0,0.3,0,0.3,0.3c0.3,0,0.3,0,0,0
		c2.8,0.8,4.6,2.8,6.2,4.9c1.5,2.1,2.6,4.1,3.3,5.4c1.3,2.8,1.5,5.6,1.8,8.5s0.3,5.1,0.8,6.7c1.3,4.9,1.5,10.8,2.1,14.1
		c0.3,0,0.3,0,0.5,0.3c0.8,0.5,2.1,0.8,3.3,1.3c2.8,0.8,5.6,1.3,6.4,1.5c4.6,1,9,1,14.9,1s11,0,15.1-1c2.6-0.5,4.1-1.3,6.2-2.1
		c2.1-0.8,4.4-1.3,7.9-1.3c0.3,0,3.8-1,4.9-0.5c2.1,1,4.1,5.6,3.8,7.4c-0.3,2.1-0.3,3.8-0.5,5.4c0,0.8,0,1.3-0.3,1.8
		c0,0.3,0,0.3,0,0.5c0,0.3,0,0.5,0,0c0,0,0,0.3,0.5,0.8c0.5,0.5,1.3,1,2.3,1.5c1.8,1,4.4,1.8,5.4,2.1c1.8,0.5,3.3,0.8,4.6,1.5
		c1.3,0.8,2.3,1.8,2.8,3.3c0.8,2.6,0.3,4.9,0.3,8.7c0,3.3-0.8,5.4-1,6.7c-0.3,1.3,0,2.1,0.8,3.8c0.3,0,0.3,0.3,0.8,0.3
		c1,0.3,2.6,0.8,4.1,1c1.5,0.3,3.1,0.5,4.4,0.8c1.3,0.3,2.1,0.5,2.8,0.5c2.1,0.5,3.8,2.3,4.9,4.1c1,1.8,1.8,4.1,2.6,6.7
		c1,3.8,0.3,6.4,0,7.7c0,0.8,0,0.8,0,1.3s0.5,1,1.5,2.1c1,1,2.6,1.5,4.9,1.5c2.3,0.3,5.1-0.3,7.9-0.3c1.8,0,3.3,1,4.4,2.1
		s1.8,2.3,2.3,3.6c1.3,2.6,2.1,5.1,2.3,5.9c1.3,2.6,4.6,5.6,7.2,8.5c2.3,2.3,3.1,5.6,3.1,8.5c0,2.8-0.8,5.6-1.3,7.4
		c-0.8,2.6-0.8,4.9-0.5,7.2c0.5,0.3-0.8,3.6-0.3,3.8c0.5,0.5,2.8-1.8,3.8-1c0.3,0.3,0.3,0.3,0.5,0.3c0.3-0.5,0.5-0.8,1-1.5
		c1-1.3,2.1-3.1,4.6-3.1c2.1,0,3.6,0.8,4.6,1.3s1.5,0.8,2.1,1c1,0.3,1.8,0.3,2.6,0.3s1-0.3,1.8-0.8c1.5-1.5,1.3-1.5,2.1-4.4
		c0.5-2.1,0.5-3.8,0-5.9c-0.5-2.3-1.5-3.3-2.3-6.2c-0.5-2.1-0.8-2.1-2.6-3.8c-0.8-0.8-1.8-1.5-2.3-3.1c-0.3-0.8-0.5-1.8-0.3-2.8
		c0.3-1,0.8-2.1,1.5-2.8c1-1,2.6-3.6,4.6-5.6c1-1,2.1-3.6,4.6-6.2c0.3-0.3,1-1.3,1.8-2.3s1.3-2.1,1.3-2.1c0.3-0.8,0.5-2.1,0.5-3.1
		s-0.3-2.1-0.3-2.3c-0.3-0.8-0.8-1-1.3-1.5s-1.5-1.3-2.6-2.3c-1.3-1.3-2.6-2.6-4.4-3.3c-0.8-0.3-1.8-0.8-3.1-1.5
		c-1.3-0.8-2.3-1.3-3.3-3.1c0,0-0.8-1-1.5-2.1c-0.8-1-2.1-2.1-2.1-4.4c0-1.3,0-2.1,0.3-3.1c0.3-1,1-1.8,1.5-2.3
		c1.3-1,1.5-0.5,2.3-1.5c1.5-1.5,2.8-2.3,3.3-3.8c1.3-2.6,2.3-3.6,3.3-5.6c0.8-1.5,1.8-2.6,2.6-3.6s1.3-1.8,1.3-2.1
		c0.5-1.5,1-2.8,1.5-3.6s0.8-1.5,0.8-2.1c0-3.6,1-5.6,1.8-8.5c0.5-1.8,1-2.8,1.3-3.6c0.3-0.8,0.5-1.5,1-3.1c0.3-1,0.8-2.6,1.3-3.8
		s1-2.8,2.3-4.1c0.8-0.8,1.5-1.3,2.3-2.1s1.5-1.5,1.5-1.8c0.5-0.8,1-3.8,3.3-6.2c2.1-2.1,3.6-3.3,6.7-4.1c2.3-0.5,4.4-1,6.7-1.5
		c2.8-0.8,5.1-1.3,6.7-2.1c1.3-0.5,2.6-1.3,4.1-0.8c1.5,0.5,2.6,1.3,3.8,2.6c0.3,0.3,0.5,0.3,0.8,0.8c0.3,0.3,1.8,2.6,2.1,2.8
		c-0.8-3.1-1.8-7.9-2.1-9c0,0.3-0.3-0.5-0.5-1.3c-0.3-0.8,1.5-3.1,2.1-3.8c1.8-2.3,5.6-3.6,9.7,0.3c0.8,0.8,0.8,1,1,1.8
		c0.3,0.8,0.5,1.3,0.8,1.8c0.3,0.5,0.5,0.8,0.8,1c0.3,0,0.8,0,0.8,0s1-0.8,2.6-1.8c0.5-0.3,0.8-0.5,1.3-1.5c0.5-1,1.5-2.1,3.1-3.1
		c1.3-0.8,2.8-1.3,4.4-1c1.5,0.3,2.6,1.3,3.6,2.6c1.8,1.8,3.6,4.4,3.6,7.9c0,1.3-0.3,2.8-0.3,4.4c0,0.8,0,1.3,0,1.8c0,0,0,0,0,0.3
		c1.3,1.3,2.1,1.8,4.1,2.8c1.3,0.8,3.3,1.5,5.6,2.1c-0.3,0,0,0,0.3,0c0.3,0,0.5,0,0.8,0c0.8,0,1.5,0.3,2.6,0.3c1,0,1.8,0.3,2.8,0.3
		c-0.5-2.1-0.5-3.8-0.5-6.4c0-1.3,0-2.1,0.5-3.1c0.3-1,1.3-2.1,2.3-2.6s2.1-0.3,3.1,0c0.8,0.3,1.5,0.5,2.3,1
		c3.1,1.5,4.4,1.8,6.9,4.4c1.3,1.3,1.8,2.3,2.6,3.3c0.8,1,1,1.8,2.1,2.8c0.5,0.5,1,0.8,1.3,0.8c0.3,0,0,0.3,0.8-0.3
		c1-1,2.1-2.6,2.8-4.4c0.3-0.5,0.8-1.8,1.8-3.1c0.5-0.5,1.3-1.3,2.3-1.8c1-0.5,2.3-0.3,3.3,0.3c0.5,0.3,0.8,0.5,1.3,1v-0.5
		c-1-1.3-1.8-2.6-2.1-4.1s0-3.1,0.5-4.9c0.5-1.8,1-2.6,1.3-3.1c0.3-0.5,0.3-0.5,0-1.8c-0.3-1.3-0.8-2.3-0.8-4.1c0-0.5,0-1,0.5-1.5
		c0.3-0.5,1-1.3,1.8-1.5c1.5-0.5,2.6,0,3.3,0.5c2.6,1.3,3.6,2.8,5.1,4.4c1.3,1.3,1.8,2.3,2.3,3.3c0.5,1,0.8,1.8,1.3,3.1
		c0.5,1,0.8,1.5,1,1.5c0.3,0.3,0.5,0.3,1.8,0.3c2.6,0,4.4-0.5,6.2-1.5c1-0.5,1.8-0.8,2.6-1c0.8-0.3,2.3,0,3.1,0.5
		c1.8,1.3,1.5,1.8,2.3,2.6c2.1,2.1,2.3,4.4,3.3,6.2c1,2.1,2.3,4.6,3.1,7.2c0.5,2.6,1,5.6,1.5,6.7s1,1.5,1,1.8
		c0.3,0.3,0.5,0.5,1.8,0.8c2.3,0.5,5.6,0.3,9.5,1c3.1,0.8,5.9,1.8,7.7,2.3c0.5,0.3,2.1,0.3,3.6,0.5c1.5,0.3,3.1,0.3,4.6,0.8
		c2.3,0.5,5.4,0.3,8.5,1c1.8,0.5,5.1,1,7.7,2.3c1,0.5,2.1,1.3,3.1,2.1c1,0.8,1.8,1.3,2.1,1.5c2.6,1.3,4.1,2.6,5.6,4.4
		c1,1,3.3,2.8,4.4,3.3c3.1,1.5,4.4,3.6,6.2,4.6c2.1,1,2.8,1.3,5.6,2.1c1.3,0.3,4.6,0.5,7.2,0.5c3.1,0,5.6,0.5,8.5,1
		c3.1,0.8,4.1,1.3,6.7,2.6c-0.3,0,0.3,0,0.8,0.3c0.5,0.3,1.3,0.3,2.1,0.8c0.8,0.5,1.5,0.5,2.1,1c0.5,0.5,1.5,1,2.1,2.6
		c0.3,1,0,0.8,0.5,1c0.5,0.3,2.3,1,3.1,3.1c0.3,0.5,0.8,1.3,1.3,1.8c0.5,0.5,1,0.8,1,0.8c1.5,0,2.6,0.8,3.3,1.3
		c0.5,0.5,1,0.8,1.5,1.3c0.5,0.3,1.3,0.3,1.8,0.5c2.8,0.8,4.1,1,7.2,1c1.8,0,3.3,0.5,4.9,0.8c1.5,0.3,2.8,0.3,2.8,0
		c0.3,0,1-0.8,1.8-1.5c0.8-0.8,2.1-2.1,3.8-2.6c1.5-0.5,3.1-2.1,4.9-3.8c1.8-1.8,4.4-3.8,6.2-5.6c2.1-2.1,3.6-3.6,5.6-5.6
		c0.8-0.8,1.5-2.8,2.8-5.4c0.8-1.8,1-2.8,2.3-4.4c0.8-0.8,2.1-1.3,3.1-1c1,0,1.8,0.5,2.6,0.8c0,0,1.5,0.5,3.1,1.3
		c0.8,0.3,1.3,0.8,2.1,1.3c0.8,0.5,1.5,1.3,1.8,2.6c0,0.3,0.5,1.5,1,2.8c0.5,1.3,1,3.1,0.5,5.1c0,0.5-0.5,2.1-0.8,3.3
		c0,0.5,0,1,0,1.3c1.3,0.5,3.3,0.5,5.9,2.1c1.5,0.8,4.9,1.3,7.7,2.8c1.8,1,4.1,2.3,6.2,3.3c2.8,1.3,5.1,2.6,7.9,3.3
		c1.5,0.3,3.1,1,4.4,1.5c0.8,0.3,1.3,0.5,1.8,0.5h0.3c0.5-0.3,1.3-0.5,2.3-0.8c0.5-0.3,1-0.5,1.3-0.8c0.3,0,0.3-0.3,0.3-0.3
		c1-2.1,1.8-3.1,3.3-5.9c1-1.8,1.8-3.3,3.3-4.4s2.8-1.3,4.6-1.5c0.5-0.3,1.8-0.8,3.3-1.3c1.5-0.5,2.8-1,4.6-1c1.5,0,2.8,0,4.1,0
		c1.3,0,2.3-0.3,2.6-0.3c0.8-0.5,1.5-1,2.8-1.5c1.3-0.5,2.6-1,4.6-1c3.3,0,6.7,0.3,10,2.1c1.5,0.8,5.1,2.1,7.2,2.6
		c2.3,0.5,4.6,0.5,7.2,0c3.1-0.8,6.2-1,9-1.8c3.1-0.8,5.6-0.5,7.9-1c2.3-0.5,5.1-1.3,8.5-1.3c3.3,0,6.7,0,10,0c2.3,0,5.9-0.5,9.5,0
		c2.1,0.5,3.6,1,4.6,1.8c1,0.8,1.8,1.3,2.8,1.8c1.5,0.8,2.6,2.1,3.3,3.1s1.8,1.8,2.1,2.1c0.5,0.3,1.3,0.5,2.3,0.8v-0.3
		c0-1-0.3-1.8-0.5-3.1c-0.3-0.8-0.5-1.3-1-2.3s-1.3-2.6-1.3-4.4c0-1,0-1.3,0-1.5c-0.3,0-1.5-0.3-3.1-1.8c-1.3-1.3-2.3-2.3-3.8-2.6
		c-1.5-0.3-4.6-0.3-7.7-1.8c-2.1-1-3.8-2.3-5.1-2.6c-1.8-0.5-3.1-1-3.8-1.5c-0.8-0.5-1.3-1-2.3-1.5c-2.1-1-4.9-3.1-5.9-6.7
		c-0.3-1-0.5-2.1-0.8-3.3c-0.3-1.3-0.8-2.3-0.8-2.8c-1-2.3-1.5-4.1-2.3-4.9c-0.5-0.5-0.8-0.8-1.3-0.8c-0.5-0.3-1-0.3-1.8,0.3
		c0.3-0.3-0.3,0.3-0.8,0.5c-0.5,0.3-1.3,0.8-1.8,1c-0.5,0.3-1.3,0.8-2.1,1c-0.3,0.3-0.8,0.3-1,0.5c-0.5,0-1,0.5-2.1,0
		c-0.3,0-0.5,0-0.8,0c-0.8,0-1.5-0.3-2.3-0.3c-0.8,0-1.8,0-2.6-0.3c-0.5,0-0.8,0-1.3-0.3c-0.5,0-1-0.3-1.8-0.8
		c-0.3-0.3-0.5-0.5-0.8-1c-0.3-0.5-0.8-1-1.3-1.5c-0.5-0.5-1-1-1.3-1.5c-0.3-0.3-0.3-0.3-0.5-0.5c0,0,0,0-0.3-0.3l0,0l0,0
		c0,0,0,0-0.3,0v-0.3c0,0-0.3-0.5-0.3-0.8c-0.5-1.8,0-3.8,0.8-4.9c1-1.3,1.8-1.8,2.6-2.6s1.3-0.8,1.8-1c0.5-0.3,1-0.5,1.3-0.8
		c0,0,0,0,0.3,0c0-0.3-0.3-0.5-0.5-0.8c-1.3-0.3-2.6-0.5-3.3-0.8c-1-0.5-1.5-1-2.1-1c-1.5-0.3-2.6-1-3.3-1.3
		c-0.8-0.3-1.3-0.5-2.1-0.3c-0.8,0.3-1.3,0.5-1.8,1c-0.5,0.5-1.3,1.3-2.6,2.1c-1.3,0.8-1.8,1-2.8,1.5c-1,0.5-2.1,1-3.8,1.5
		c-2.1,0.5-3.6,0.3-4.9,0c-1.3-0.3-2.1-0.5-3.1-0.5c-1,0-1.8,0-2.6,0s-1.8,0-2.6-0.8c-1-0.8-1.5-2.1-1.5-3.1s0.3-1.8,0.5-2.8
		c0.3-0.8,0.3-1,0.3-1c-0.3-0.3-1.3-1.8-1.3-3.8c0-0.5,0-0.8,0-0.8s-0.8-0.3-2.6-0.5c-1-0.3-2.1-0.3-3.3-0.8
		c-1.3-0.5-2.8-1.5-3.8-3.3c-0.5-0.8-1-2.1-1.3-3.8c-0.3-1.8,0.3-3.8,1.8-5.4c0,0,0.5-0.8,0.8-1.3c0,0-0.8,0-2.1,0.3
		c-0.8,0.3-1.5,0.3-2.6,0.3c-1-0.3-2.8-1.3-3.1-2.8c-0.3-0.8-0.3-0.5-1-0.8c-0.5-0.3-1-0.3-1.5-0.5c-0.5-0.3-2.1-1-2.3-2.6
		c-0.3-1.3-0.5-1.3-0.5-1.3s-0.3-0.3-1.5-0.3c-1,0-2.1-0.3-3.1-0.8c-1-0.5-1.5-1.3-2.1-2.1c-0.8-1.5-0.8-2.3-1-3.1
		c-0.3-0.5-0.5-0.8-0.5-1c0,0-1.5-0.3-3.3-1.3c-1.5-0.8-2.6-1.8-3.3-2.3c-0.8-0.5-1.3-1.3-2.8-2.1c-1.3-0.5-4.1-1.8-6.2-3.8
		c-2.1-2.1-2.1-2.3-4.4-3.3c-2.6-1.3-5.4-4.1-6.2-4.9c-1-1-1.5-2.3-2.1-2.8c-0.5-0.5-0.3-0.5-0.8-0.5c-0.3,0-2.1,0.3-3.6,0.5
		c-0.8,0.3-1.5,0.3-2.1,0.5c-0.3,0-0.5,0-0.8,0s-0.3,0-0.5,0c-0.3,0-0.3,0-0.8,0c-0.5-0.3-1.8-0.3-3.3-0.5c-1.5-0.3-3.1-0.5-4.6-2.1
		c-1.5-1.5-2.8-3.6-3.8-5.6c-1-1.8-2.1-3.3-2.8-6.4l0,0v-0.3c0-0.3-0.3-0.5-0.3-0.8c-0.3-0.8-0.5-1.5-0.8-2.6
		c-0.3-1-0.5-1.8-0.5-3.1c0-0.5,0.3-1.3,0.8-2.1c0.5-0.8,1.3-1.3,2.1-1.5c-0.3,0,1.8-0.5,3.1-1c0.8-0.3,1.5-0.5,2.1-0.8
		c0.3,0,0.3-0.3,0.3-0.3l0,0c1-1.8,2.1-2.8,2.8-4.4c1-2.3,0.8-1.8,0.8-5.1c0-1.5,0-2.6-0.3-2.8c-0.3-0.3-0.3-0.5-1-1
		c-1.3-0.8-3.1-0.8-6.2-0.8c-0.8,0-2.6,0-4.4,0c-0.8,0-1.5,0-2.6-0.5c-1-0.3-2.3-1-2.8-2.6c-0.3-0.8-0.3-1.3-0.3-1.8
		c0-0.8,0-1.5-0.3-2.1c-0.3-0.5-0.3-1.3-0.3-1.8c0-0.3,0-0.5-0.3-0.5c-1.8-2.3-3.1-4.9-3.6-7.4c-0.8-3.1-0.8-5.4-1.5-6.7
		c-0.5-1-0.8-1.8-0.8-2.8c0-1,0.3-2.1,0.5-2.8c0.8-1.3,1-1.3,1.3-2.3c0.3-1,0.3-1.3-0.3-2.1c-0.3-0.8-1-1.8-1.8-3.3
		c-0.3-0.5-1-1.8-1.5-3.6s-0.5-4.1,1.3-6.2c0.8-0.8,1.5-1.3,2.6-2.1c0.5-0.5,0.8-0.8,1-1c0,0,0-0.3,0.3-0.3c0,0,0-0.3,0-0.8
		c0-0.5,0-1.5,0-2.3c0-0.8,0.3-1.8,0.3-2.6c0.3-0.8,0.3-1.8,1.3-2.8s2.1-1.5,2.8-2.1c0.8-0.5,1-0.8,1.3-1.3c1-2.3,1.5-2.1,1.5-5.6
		c0-2.1,0.3-3.6,1-4.9c0.8-1.3,1.5-1.8,2.6-2.6c1.3-1.3,1.5-1.3,1.5-4.4c0-1.3,0.3-2.3,0.5-3.3c0.3-1,1-1.5,1.5-2.1
		c1-0.8,1.3-0.8,1.5-1.5c0.5-0.8,0.5-4.1,3.3-6.9c1.3-1.3,2.8-2.8,4.6-4.6c0.5-0.5,1-0.8,1-1s0,0,0-0.3c0-0.3,0-1.3,0-3.6
		c0-1.3,0.3-2.8,0.5-4.6c0.3-0.8,0.5-1.8,0.8-2.6c0.3-0.8,1-1.8,2.1-2.3c1-0.5,1.3-0.8,1.5-1c0.3-0.3,0.5-1.3,1.3-2.8
		c1.3-2.6,3.1-3.8,3.8-5.6c1.3-2.6,2.1-3.8,3.3-6.2c0.8-1.5,1.8-2.6,2.6-3.3c0.8-0.8,1-1,1-1.3c0.5-2.1,1-4.9,1.8-7.2
		c0,0,0-0.3,0-0.5c-0.3,0-0.5,0-0.8,0h-0.3c-0.8,0.8-1.5,1.5-2.6,1.8c-1.3,0.5-2.8,0.8-4.6,0.8c-1.5,0-3.1-0.3-4.6-0.5
		c-1.5-0.3-2.8,0-2.6-0.3c-3.6,0.8-6.7,0-8.5,0.5c-1.5,0.3-2.1,0.5-2.6,0.8c-0.5,0.3-1.3,0.8-3.1,1.8c-1.3,0.8-2.3,2.1-5.1,3.3
		c-0.8,0.5-2.1,1-3.3,1.8c-1.3,0.8-2.6,1.5-2.6,1.5c-0.3,0.3-1,1.3-2.1,2.1c-1,0.8-2.1,2.1-3.8,2.3c-1,0.3-1.5,0.8-2.6,1.3
		c-1,0.5-2.3,1.3-4.1,1.5c-1,0.3-2.3,0.5-3.8,0.8c-1.5,0.3-3.6-0.3-5.1-1.8c-1-1-1.8-1.8-2.3-3.3s-0.8-2.8-0.8-4.6
		c0-1.3,0-2.6-0.3-3.3c-0.3-0.8-0.3-1-0.5-1c-1.5-0.8-2.8-0.5-6.2-1.5c-1.8-0.5-3.1-1.3-3.8-2.3c-0.8-1-1-1.5-1.8-2.3
		c-0.8-0.8-1.5-1.3-2.6-2.3c-1-1-1.5-3.1-1.5-5.1c0-0.8-0.5-1.8-0.8-2.8c-0.3-0.5-0.5-0.8-0.8-1.3c-0.3-0.5-0.8-0.5-0.8-2.1
		c0-1.3-0.3-2.6,0-4.1c0.3-1.5,0.5-3.6,2.1-4.9c1.8-1.8,2.6-2.1,3.3-3.8c0.5-1,0.5-1.5,0.8-2.3c0.3-0.8,0.3-2.1,0.8-3.8
		c0-0.5,0-0.5,0.3-0.8c-0.8-0.5-1.8-1-2.1-2.1c-0.3-0.5-0.8-1.5-1.3-2.6c-0.3-0.5-0.5-1-0.8-1.3l0,0c-0.8-0.3-1.5-0.5-2.1-0.8
		c-0.8-0.5-1.5-1.3-1.8-2.3c-0.5-1.8-0.3-3.1-0.3-4.9c0-2.8,0.5-6.2,0-7.7c-0.5-1.8-0.5-3.1-0.3-4.4c0.3-1.3,0.5-2.3,0.8-3.6
		c0.8-2.6,2.1-4.6,4.1-6.7c1.5-1.5,2.6-3.1,4.6-5.1c1-1,1.3-2.3,2.8-5.6c1-2.3,2.8-3.8,3.8-6.2c0.8-1.3,1-4.1,3.1-6.7
		c0.5-0.8,1.5-1.5,2.3-2.6c0.5-0.5,0.8-1,1-1.5c0-0.3,0.3-0.3,0.3-0.3c0-2.6-0.5-4.4-0.5-7.4c0-2.3,0.5-3.8,1-5.1
		c0.5-1.3,0.8-1.8,0.8-2.8c0-3.1-0.3-5.9,1.3-9c0.5-0.8,1-2.1,1.8-3.1c0.3-0.5,0.8-1.3,0.8-1.5c-0.5-1.8-2.1-3.1-2.6-5.9
		c-0.5-1.8-0.3-3.6,0-4.6c0.3-1,0.5-1.5,0.5-2.8c0-3.6,0.5-5.4,1.3-7.9c0.3-0.8,0-0.8-0.3-1.5c-0.3-0.8-1-2.1-1-3.8
		c0-0.5-0.3-2.1-0.5-3.3c-0.3-0.5-0.3-1-0.5-1.3l0,0c-1.3-0.5-2.3-1.5-2.8-2.6c-0.5-1-0.8-2.1-1.3-2.8c-0.3-0.5-1.3-1.8-2.1-3.6
		s-1.3-4.1,0-6.4c0.3-0.8,0.8-1.3,1.3-2.1s1.5-0.8,2.1-1c0.3,0,0.3,0,0.5,0c0,0,0,0,0.3-0.3c1.3-1.3,3.1-2.3,4.4-2.3
		c1.3,0,2.1-0.3,3.6-0.5c2.3-0.5,4.9-0.8,6.2-1.5c1.3-0.8,2.1-1.5,3.8-3.3c2.1-2.1,1.8-1.5,3.3-4.9c0.8-1.5,1.3-2.3,1.5-2.8
		c0.3-0.5,0.5-1.3,0.5-3.3c0-1.3,0-1.8-0.5-2.6c-0.3-0.8-0.8-1.8-1.3-3.6c-0.3-1.3-0.5-1.5-0.8-2.1c-0.3-0.3-1-0.8-2.1-2.1
		c-1-1-3.3-2.3-5.6-4.4c-1.3-1.3-2.1-1.8-4.4-2.8c-1.3-0.8-3.1-0.8-6.2-1.5c-2.8-0.8-4.1-1.8-6.7-3.1c-0.8-0.3-1.8-1-3.1-1.5
		c-0.5-0.3-1.3-0.5-1.5-0.8c-0.3-0.3-0.8-0.3-0.8-0.3c-3.6,0-5.4-0.8-7.7-2.1c-1.8-0.8-3.8-2.1-5.6-3.8c-1-1-3.1-3.1-3.8-3.8
		c-1.8-1.5-2.8-3.8-4.1-6.2c-1.3-2.3-2.1-4.4-2.3-6.2h0.3c0-0.3,0-0.3-0.3-0.5c-0.5-1.5-2.1-2.8-2.8-3.6c-1.5-1.5-3.6,2.1-3.8,2.8
		c-1,2.1-2.1,2.6-4.1,3.6c-2.3,1.3-2.3,1.5-3.8,0c-1.8-1.8-2.6-3.3-3.6-4.6c-0.8-1.3-3.3-1.8-4.4-2.8c-1.5-1.5-1.5-2.3-3.6-2.8
		c-2.3-0.5-3.1,1.5-4.4-1.3c-0.5-1-1.5-2.1-2.1-3.8c-0.5-2.1,1.3-2.8,2.1-4.4c0.8-1.5,1-2.3,1-4.9c0-0.8-2.1-3.1-2.3-3.6
		c-1.5-1.5-0.8-2.1-2.8-3.1C884.4,281.2,884.4,281.2,884.2,281.2L884.2,281.2z"/>
	<path id="liguria_1_" class="st0" d="M585.5,939.8c-0.8,0.3-1.8,0.5-3.1,0.8c-1.3,0.3-2.1,0.8-2.1,0.8c-1.3,1.3-3.6,3.3-5.6,4.4
		c-1,0.5-1.5,1-2.3,1.5c-0.8,0.5-1.8,1.5-3.3,2.3c-0.8,0.5-1.5,0.8-2.1,1.3c-0.5,0.5-0.5,0.5-0.5,1c0,1.3,0.3,1.5,0.8,2.6
		c0.5,1,1,2.3,1,4.1c0,0.8,0.3,2.6,0.3,4.4c0,0.8,0,1.8-0.3,2.6c-0.3,0.8-0.3,1.8-1.3,2.8c-1.3,1.3-3.1,3.1-6.2,4.1
		c-0.5,0-1,0.5-2.1,1c-1,0.5-2.6,1.3-4.6,1.3c-1.8,0-2.8,0-3.6,0.3c-0.8,0.3-1.3,0.3-2.1,1c-1.8,1.3-3.1,2.3-3.6,3.6
		c-0.8,3.1-2.1,4.4-3.1,6.2c-0.3,0.8-1,2.1-2.1,3.3c-1,1.3-3.6,2.1-5.9,1.5c-1.5-0.5-2.8-1-3.6-1.5s-1.5-0.8-2.6-0.8
		c-3.3,0-3.3,0.3-5.6,1.3s-2.6,1.3-4.4,2.8c-0.3,0.3-1,1.3-2.1,2.1c-1,0.8-2.1,2.1-3.8,2.3c-2.8,0.8-5.1-0.5-7.9-1
		c-3.1-0.8-5.4-1.8-7.2-2.3c-2.1-0.5-3.3-1.3-4.6-1.8c-1.3-0.5-2.1-0.8-3.3-0.8c-2.3,0-5.9,0.8-9.5-0.8c-3.1-1.5-3.6-1.5-7.2-2.6
		c-2.6-0.5-3.1-0.5-3.1-0.5s-0.5,0.5-1.8,2.1c-1.5,1.5-3.3,1.5-4.4,1.8c-1,0.3-1.5,0.3-1.8,0.5c-1.3,1.3-2.3,2.8-3.8,4.6
		c-1,1-2.6,2.8-2.8,3.8s-0.5,2.3-1,3.8s-2.3,2.6-4.1,3.1c-1,0.3-2.3,0.5-4.1,0.5c-0.8,0-1.8,0-2.6-0.3c-1-0.3-2.1-0.5-2.8-2.1
		c-0.5-1-2.1-2.6-3.3-3.3c-1.5-0.8-2.6-2.1-3.6-3.1c-1-1-1.3-1.8-1.3-1.8c-2.6-1.3-3.3-2.6-5.6-3.3c-2.1-0.5-3.3-1-4.1-1.3
		c-0.8-0.3-0.8-0.3-2.1,0.5c-1.5,0.8-3.6,2.1-4.4,2.8c-1.5,1.5-3.3,2.8-4.1,4.4c-1,2.1-1.3,3.3-2.1,6.2c-0.8,2.6-1,4.6-1.8,6.7
		c-0.8,2.6-1.5,5.1-3.3,7.7c-1,1.3-2.1,2.1-2.8,2.8c-0.8,0.8-1.5,1.3-2.3,2.1c-1.3,1.3-2.3,2.1-3.1,2.6c-0.8,0.5-0.8,0.8-0.8,1.3
		c0,2.8,0,5.6,0,8.5c0,1.5,0,3.1-0.8,4.6c-0.8,1.5-1.8,3.1-3.6,3.8c-1.3,0.5-2.6,2.3-5.6,3.8c-1.3,0.5-3.3,1.8-4.4,2.8
		c-1.3,1.3-2.3,2.6-3.3,4.4c-0.5,0.8-1,2.1-1.8,3.3c-0.8,1.3-0.8,2.6-0.8,2.8c0,2.8,0.3,5.9-0.8,9c-0.5,2.1-0.3,3.1,0.5,6.2
		c0.3,1,0.5,1.5,1.3,2.3s1.5,2.1,2.1,3.8c0.8,3.1,0,6.2,0,7.9c0,1.3-0.3,2.6-0.8,4.4c-0.3,0.8-0.5,1.5-1,2.3s-1.3,1.5-2.6,2.1
		c-2.6,0.8-3.8,1.3-7.2,2.3c-2.6,0.8-5.4,0.5-7.2,1c-0.8,0.3-1.3,0.3-1.8,0.3c-0.8,0-1.5,0-2.3,0.3c-0.8,0.3-1.5,0.3-2.1,0.3
		c-0.3,0-0.5,0.3-0.5,0.3c-0.8,0.8-1.5,1-2.1,1.5c-0.5,0.5-0.8,0.8-0.8,1.3c-0.3,1.5-0.3,1,0,1.3c0.3,0.3,1.3,1.3,1.8,3.1
		c0,0,0.3,0.5,0.5,1c0.3,0.8,0.5,1.5,0.8,2.3s0.5,1.8,0.5,2.8c0,1,0,2.3-1,3.3c-0.8,0.8-1.8,1.8-3.6,2.1c-1.8,0.3-3.6-0.8-5.1-2.1
		c-0.5-0.5-1.3-1.3-2.1-1.8c-0.8-0.5-1-0.5-1.3-0.5c-3.3,0.8-6.4,0.5-8.2,1c-0.8,0.3-2.6,0.5-4.4,0.8c-1,0-1.8,0-2.8,0
		c-1,0-2.1-0.3-3.1-1.3c-0.8-0.8-0.8-0.5-1.5-0.8c-0.8-0.3-2.3,0-4.6-0.3c-3.8-0.8-5.1-1.8-7.4-4.1c-1.5-1.5-3.1-2.6-4.9-2.6
		c-0.5,0-3.1,0.8-5.1,1.5c-1.8,0.8-3.8,2.1-4.1,2.3c1.8,2.3,1.5,6.2,3.3,8.2c1.8,1.8-4.1,7.2-4.6,7.9c-2.1,2.1-2.8,5.1-4.6,7.2
		c-3.1,3.1-4.9,1.3-2.3,6.4c2.1,4.1-0.5,6.2-2.3,7.9c-2.1,2.1-4.1,3.8-7.2,4.6c-1.8,0.5-5.1,3.8-7.2,4.6c-3.3,1.5-5.4,2.3-7.2,5.6
		c-1.3,2.6-1.5,6.7-2.3,9.5c-0.3,1.5-7.7,3.6-8.7,4.1c-2.3,1.3-3.8,4.9-5.6,6.4c-3.1,3.1-0.3,5.6,1.5,7.9c1.5,2.1,2.6,6.2,3.3,8.7
		c1.3,5.1,0.3,5.9,3.1,8.7l3.8,4.6l7.2-1.5c1.3-5.4,5.9,0.8,6.4,2.3c0.3,1.5,9,0.8,11,0.8c3.3,0,7.9-1.5,9.5-2.3
		c4.1-2.1-0.5-5.6,6.4-5.6c4.9,0,5.9,1.8,7.9-2.3c1.3-2.8,6.4,1.8,7.9-3.8c0.8-2.8,10.3,2.3,10.3,2.3c2.3,2.3,6.2-2.3,9.5-2.3
		c3.1,0,5.6-3.3,8.7-3.3c6.2,0,4.6-1.5,7.9-4.6c2.8-2.8,4.9-1,7.2-5.6c1.5-2.8,6.7-1,9.5-2.3c3.3-1.8,4.1-3.3,6.4-5.6
		c0.5-0.5,1.5,0,2.3,0c0.8,0,1.3,0,2.1,0c2.6,0,3.3,0.5,5.1-0.5c1-0.5,0.8-3.6,0.8-5.1c0-1.3,1.8-2.8,2.3-3.8c0.5-0.8,4.4,0,5.6,0
		c1.5,0,1.3-2.6,2.3-3.6c0.8-0.8,2.8-2.1,4.4-2.3c1.3-0.3,1.5-2.6,3.6-3.1c1.3-0.3,2.6-2.1,3.3-2.8c1.5-1.5,0.3-2.6-0.5-3.8
		c-1.3-2.6-2.1-1.8-2.8-4.4c-0.5-2.1,0-3.1,0.8-4.9c0.8-1.5,1.8-2.1,3.3-3.6s2.1-3.1,3.8-3.8c1.5-0.8,2.8-2.1,3.8-3.3
		c1.3-1.3,2.6-1.5,4.1-2.3c1.5-0.8,1.5-2.6,1.5-4.4c0-2.3-0.3-3.8-0.8-5.9c0-0.3,0-0.5,0-0.8c0-2.1-0.5-4.6-0.5-6.7
		c0-2.1,1.8-3.3,2.3-4.6c0.8-1.5,1.5-2.8,2.3-4.9c0.8-1.8,1-3.1,2.1-4.6c0.8-1.8,2.3-2.6,3.3-3.6c0.8-0.8,3.1-2.1,4.6-2.3
		c1.5-0.3,4.1-0.5,5.6-0.8c2.3-0.5,4.1-1.8,5.9-2.3c0.5-0.3,1-0.3,1.5-0.5c1.5-0.5,3.6-1.5,4.6-2.3c1.3-0.8,4.1-1.8,5.1-2.3
		c1.8-1,3.1-1.5,4.6-2.3c1.5-0.8,2.3-1.8,3.6-2.3c0.3-0.3,0-5.1,0-5.9c0-2.1-0.5-3.1,0-5.1c0.3-1.3,2.8-1.8,3.6-2.3
		c1.5-0.8,2.3-1.8,3.1-3.3c0.8-1.8,1.5-2.6,1.5-4.6s-1-2.8-2.1-3.8c-1.8-1.8-3.3-1-2.8-3.8c0.5-1.8,3.1-1.8,4.6-2.3
		c1.8-0.8,1.5-1.8,3.6-2.3c2.3-0.5,3.6-2.1,4.1-3.6c0.5-2.1-1.5-2.8-3.3-2.8c-1.3,0,1-2.8,2.1-3.6c1.5-1,2.1-1.5,4.4-1.5
		s4.9,0,7.2,0c2.6,0,3.3-0.5,5.1-1.5c0.5-0.3,2.6-2.6,3.3-3.3c1.8-1.8-0.5-2.8,2.3-4.4c1.5-0.8,2.6-2.1,4.4-2.3
		c1.3-0.3,2.3-2.3,4.1-2.8c1.5-0.5,3.3-1.8,4.6-2.3c1.8-0.8,2.3-1.5,4.4-2.1c2.1-0.5,3.3-2.3,5.1-3.3c0.8-0.5,2.8-2.6,3.3-3.6
		c0.5-1.3,2.8-1.8,4.4-2.3c1.5-0.8,2.6-1.3,4.4-1.5c1.3-0.3,3.1-0.8,5.1-0.8s3.8-0.5,5.9-0.5c1.8,0,3.1,1,4.1,2.1
		c1.3,1.3,2.6,1.3,4.4,0.8c2.1-0.5,3.1-1.3,4.4-2.3c1.3-1.3,4.1,2.1,4.4,2.3c1.3,1.3,1.5,2.6,3.6,3.3c1.5,0.3,3.3,1,4.6,1.5
		c2.1,0.5,3.8-0.5,5.1-0.8c2.3-0.5,0-3.3,3.6-1.5c1.5,0.8,0,3.6,0.8,5.1c0.8,1.3,3.6,0.8,5.1,0.8s3.1,1.3,5.1,1.3
		c2.6,0,3.8-0.3,5.9-0.8c2.1-0.5,2.6,0.5,4.1,1c2.3,1,4.6,1.5,6.7,2.1c2.1,0.5,4.4,1.5,5.9,2.3c1.3,0.5,4.4,0.5,5.6,0.5
		c0.8,0,3.1,1.8,4.1,2.1c1.5,0.3,3.3,1.8,3.8,2.3c1.3,1.3,1.5,2.6,2.8,3.6c1.8,1.3,2.1,0.8,3.1,2.8c0.8,1.3-1.3,3.3-1.3,5.1
		c0,2.3,1.3,2.3,2.8,3.1c1.8,0.8,2.8,1.5,4.4,2.3c2.3,1.3,2.8,1,4.4,2.3c0.8,0.8,4.1,0.3,5.6,0.3c1.5,0-2.1-2.6-2.3-3.8
		c-0.5-1.8-0.5-3.6,0-5.1c0.5-2.1,1-2.8,2.1-4.4c0.5-0.8,3.1-1.5,4.4-1.5c1.8,0,3.3,1,5.1,2.1c1.3,0.8,2.8,1.3,4.4,2.1
		c1.8,1,3.3,1.5,5.1,2.3c1.8,1,3.3,1.5,4.6,2.3s3.1,1.5,4.6,2.1c1.5,0.5,3.3,2.6,4.1,3.3c1.3,1.3,2.1,1.8,3.1,2.8
		c1.5,1.5,2.3,2.3,3.6,3.6c0.8,0.8,1.8,2.6,2.3,3.6c0.5,1.3,0,4.6,0,5.9c0,1.8,3.3,1.3,4.6,1.3c0,0.3,3.1,0.3,1.5-2.8
		c-0.8-1.3,2.1,1,3.3,1.5c1.5,0.8,1.5,2.8,2.1,4.4c0,0.5,4.4,0.8,5.1,0.8c2.1,0,3.1,1,4.4,1.5c1.5,0.8,1.5,2.1,3.6,3.1
		c1.5,0.8,2.6,1.8,3.1,3.3c1,2.1,0.8,2.1,3.3,2.8c1.5,0.3,2.8,1.3,4.4,1.5c2.3,0.5,2.3,1,3.3,2.8c0.8,1.3,1.8,2.8,2.8,3.6
		c1.5,1.5,1.5,1.5,4.4,2.3c2.1,0.5,2.3,1.3,2.8,3.3c0.5,2.3,0.8,2.8,1.5,4.4c0.5,1,2.1,2.6,2.8,3.3c1,1,1.8,2.1,3.1,2.8
		c2.1,1,1.5,0.3,1.5-2.8c0-1.5,2.3-2.8,3.3-3.3c2.1-1,3.6,1,4.4,1.5c1.3,1.3,1,2.8,2.3,3.8c1,1,2.1,2.1,2.3,3.6
		c0.3,0.5,4.1,2.3,4.4,2.3c1.5,0.8,2.1,2.8,3.6,3.6c1.8,1,2.8,1.8,3.6,3.3c0.8,1.8,1.3,2.8,3.6,3.6c2.1,0.5,3.6,1.5,4.9,2.8
		c1,1,3.3,2.3,4.4,2.8c2.3,1.3,3.1,1.8,5.1,2.8c1.8,1,1.8,1.5,4.6,1.5c2.1,0,2.3-1.5,2.8-3.3s-1.5-3.3-2.8-3.8
		c-1.3-0.8-2.6-3.1-3.1-4.4c-0.8-1.5-1.5-2.3-2.1-4.1c-0.3-1,2.3-2.6,2.8-3.1c1.3-1.3,3.3,2.1,3.6,2.3c1.5,1.5,1.5,2.1,3.6,3.3
		c1.5,0.8,2.3,2.1,3.6,2.8c1.3,0.5,4.6,0.3,5.6,0.5c1.5,0.5,1.3,2.8,1.3,4.6c0,2.1,1.8,2.6,2.8,3.6s2.3,1.8,3.6,2.3
		c1.5,0.8,3.1,1.3,4.4,2.1c1.8,1,2.3,2.1,4.6,2.1c2.1,0,3.8,0,5.9,0c0.3,0,0.8,0,1,0c-0.3-1.5,0-3.1,0.3-4.6
		c0.3-2.3,0.8-4.6,1.3-5.9c0.3-1.3,0.8-1.5,1-2.1c0.3-0.5,0.8-1,1.3-1.5c1-1,2.1-2.1,2.1-2.1c0.3-0.3,0.5-0.8,0.8-1.8
		s0.5-2.1,0.8-3.1c0.3-0.5,0.3-0.3-0.3-0.5c-0.5-0.5-1.8-1-2.8-1.5c0.3,0-1.3,0-2.8,0c-1.5,0-3.1,0.3-4.4,0.3
		c-2.3,0-3.8-1.8-4.6-3.1c-0.8-1.3-1.3-2.6-1.5-3.1c-0.8-1.5-2.6-2.8-4.6-4.9c-1.3-1.3-3.1-2.1-5.1-3.8c-0.3-0.3-0.5-0.3-1.5,0
		c-1,0.3-2.3,1.3-2.1,1c-0.5,0.5-0.8,0.5-1,0.8c-0.3,0-0.5,0-0.5,0.3c-0.3,0-0.8,0.3-1,0.3c-0.8,0.3-1.8,0.3-2.6,0.5
		c-0.8,0-1.8,0.3-2.3,0.3c-0.3,0-0.5,0.3-0.8,0.3l-2.3-2.6c-1,0.3-2.1-4.1-1.8-4.9c1-2.1,2.1-3.8,3.8-5.6c0.8-0.8,1-1.3,1.3-1.5
		c0-0.3,0-1,0.3-1.8c-0.3,0-0.3,0-0.5-0.3c-1-0.3-2.1-0.3-2.8-0.5l0,0c-0.3,0.3-1,0.8-1.5,1c-1,0.8-2.3,2.1-2.3,2.1
		c-2.8,2.8-6.4,3.1-9.2,2.3c-1.5-0.5-2.3-1.8-2.8-2.8c-0.5-1-0.5-1.8-0.5-2.8c0-1.8,0.3-3.6,0.3-4.4c0-1.5-1-4.1-1-7.7
		c0-1.8,0.5-1.8,0.8-2.1c0.3-0.3,0.5-0.5,0.8-0.8c0.5-0.5,1-1,1.5-1.3c0.5-0.3,1-0.8,1.5-1.3c0.5-0.5,1-0.8,0.8-0.5
		c0.5-0.5,0.3-0.3,0-0.8c-0.3-0.5-1-1.3-1-1.3c-2.3-1-5.4-2.6-7.7-4.1c-2.3-1.8-4.1-3.8-5.6-5.1c-1.5-1-3.8-1.3-6.4-2.6
		c-3.6-1.8-4.6-5.4-5.4-6.4c-1.3-1.8-1.3-3.3-1.3-4.9s-0.3-3.3-0.3-3.3c-0.3-1.5-1.3-2.1-2.6-2.8l-0.3-0.3c-1.5,0.8-3.3,1-5.9,1
		c-1.3,0-2.8-0.3-4.4-0.8c-1.5-0.5-3.1-1.8-3.6-3.8c-0.8-2.8-0.8-5.6,0.8-8.5c1-2.3,2.1-2.8,1.5-4.9c-0.3-1.3-0.5-2.6-0.8-3.1
		s-0.3-0.5-0.8-0.8c-2.1-1-3.1-1.3-5.6-2.1c-1.5-0.3-4.6-0.8-5.4-0.3c-1,0.5-3.6,3.1-7.9,3.1c-3.6,0-3.8,0-6.7,1.5
		c-1.5,0.8-3.8,2.3-6.7,3.1c-1.3,0.3-1.8,0.5-2.3,1s-1.3,1-2.8,1.8c-0.3,0-4.6,3.8-9,1.8c-2.1-1-4.4-2.8-5.4-6.2
		c-0.5-1.8-0.3-3.6,0-4.6c0.5-1.3,0.8-1.8,1-2.6c0.8-2.6,1.3-4.6,3.3-6.9c1-1,2.1-1.5,2.8-2.1c0.8-0.5,1.5-1.3,1.8-1.5
		c1.3-2.8,2.1-3.3,3.3-6.2c0.5-0.8,1-1.8,1.5-2.8c0.5-1,1-1.8,1-2.3c0.5-1.5,1.3-2.6,1.8-3.6c0.3-0.8,0.5-1.3,0.5-1.5
		c-0.8-2.8-0.5-4.6-1.3-6.2c-0.5-1-1-1.8-1.3-2.1c-0.3-0.3-0.3-0.5-1-0.5c-2.1,0-5.6,0.8-9,0c-1.8-0.5-3.1-0.8-4.6-1.5
		c-1.5-0.8-2.1-2.1-2.8-3.6c-0.3-0.8-0.8-1.8-1.3-2.8c-0.3-0.3-0.3-0.5-0.5-0.8c-0.5,0-1.3,0-1.3,0.3c-0.3,0-0.8,0.8-1.8,1.8
		c-1,1-2.1,1.8-3.1,2.3c-1,0.5-1.8,0.8-3.1,1.5c-2.8,1.5-5.9,1.5-9,0.8c-1.8-0.5-4.9-0.5-7.2-2.8c-1.8-1.8-2.3-3.1-3.8-4.6
		c-1.3-1.3-3.3-2.6-5.1-4.4c-0.8-0.8-1.5-1.3-1.5-1.5c0,0,0,0-0.3,0.3c-0.8,0.8-2.1,1.5-3.6,2.1c-1.5,0.5-3.8,1-5.9,0
		c-0.3,0-0.8,0.3-1.3,0.5c0,0-0.3,0-0.5,0c-0.3,0.5-0.8,1-0.8,1c-1,2.3-3.1,4.9-6.7,5.9c-1.8,0.5-5.6,1.5-9,0.5
		c-1.8-0.5-2.8-0.5-4.1-1s-2.6-1.3-3.8-2.6c-1.3-1.3-1.8-2.6-2.1-3.3c-0.3-0.8-0.5-1.5-1-2.8c-0.5-1-0.8-2.1-1.3-2.8
		c-0.5-0.8-1-1.8-1-2.1c-1-1-1.5-1.5-1.8-1.8c-0.3-0.3-0.3-0.3-1.5-0.3c0,0-2.3,0.3-4.4,0.3c-1,0-2.1,0-2.8,0c-0.5,0-0.8,0-1.3,0
		c-0.3,0-0.5,0-0.8-0.3c-0.3,0-1-0.3-1.5-1.3c-0.8-1.8-2.1-3.1-3.3-5.6c-1-2.1-1.5-3.3-2.8-3.8c-1.5-0.8-2.3-1.8-2.8-2.1
		C586.5,942.3,585.7,939.8,585.5,939.8L585.5,939.8z"/>
</g>
</svg>
