<?xml version="1.0" encoding="utf-8"?>
<!-- Generator: Adobe Illustrator 24.0.1, SVG Export Plug-In . SVG Version: 6.00 Build 0)  -->
<svg version="1.1" id="ITALIA" x="0px" y="0px" viewBox="0 0 1200 1500" style="enable-background:new 0 0 1200 1500;">
<style type="text/css">
	.st0{fill:#11676A;}
</style>
<g id="NORD-EST_SINGLE">
	<path id="veneto_1_" class="st0" d="M813.6,314.9c0,0.3-1,1.6-1.8,3.1c-0.8,1.8-1.6,3.6-2.6,5.2c-1,1.3-2.3,2.1-3.1,2.8
		c-0.8,0.5-1.6,1-2.1,1.8c-1.3,1.8-2.8,2.3-3.4,2.6l0,0l0,0c0,0,0,0.3,0,0.8c0,2.1-0.3,3.6-1.6,5.2s-2.8,1.8-4.4,2.3
		c-2.8,0.8-5.7,0.8-8.5,0.8s-5.9-0.5-8.5-0.5c-1.6,0-3.1,1.3-6.2,2.1c-1,0.3-2.8,2.1-6.2,2.8c-1.6,0.5-3.9,2.1-5.2,3.1
		c-1.3,0.8-2.8,1-4.1,0.8s-2.1-1-2.6-1.8c-0.5-0.8-1-1.3-1.3-2.1c0-0.3-0.3-0.5-0.3-0.5c-2.3-2.3-3.4-4.9-4.1-7.5
		c-0.5-1.8-1-2.3-2.6-3.9c-1.3-1.3-2.3-1.6-4.4-2.1c0,0-0.5,0-0.5-0.3c0-0.3-0.3,0-0.3-0.3c-0.3,0-0.3-0.3-0.3-0.3l-0.3-0.3
		l-0.3-0.3c-0.3-0.3-0.3-0.3-0.5-0.5c-0.3-0.5-0.8-1-1.3-1.6c-0.5-0.5-1-1.3-1.3-1.6c-0.3-0.3-0.3-0.3-0.5-0.5
		c-2.3-1.3-4.1-2.3-5.9-3.6c-1.3-1-2.1-1.8-2.3-2.1c-0.3-0.3-0.5-0.5-2.3-0.5c-1.6,0-2.3,0-2.3,0c0,0.3,0,0.3,0,0.8
		c0,2.6,0,4.1,0,7.2c0,2.1-0.3,3.6-0.8,4.7c-0.5,1-0.8,1.6-1,2.6c-0.5,2.1-1.6,2.8-2.6,3.9c-1,1-1.8,2.1-1.6,1.8
		c-1.3,2.6-3.4,4.7-5.7,5.7c0.5-0.3-0.3,0.5-0.8,1.3c-0.5,0.8-1,1.8-1.3,2.6c0,0-0.3,1.3-0.5,2.8s0,2.8,0,3.9c0,1-0.3,1.8-0.8,2.3
		c-0.3,0.8-0.5,1.3-1,1.8c-0.8,1.3-1.3,2.6-1.3,2.6c-0.8,3.6-3.9,5.4-4.7,6.2c-2.1,2.1-4.1,3.1-5.2,3.9c-1.3,1.3-2.6,2.1-4.4,2.3
		c-1.6,0-2.8-0.5-4.1-1.3c-1.8-1-2.8-2.3-3.4-2.6c-0.5-0.3-0.3-0.5-1.8-0.5c-0.8,0-1.3,0-1.6,0c0.3-0.3,0,0.3-0.5,1.8
		c-0.5,1.8-1.6,2.1-2.1,2.6c-0.5,0.5-1.6,0.8-2.3,1.3c-1.6,0.8-3.1,1.3-4.1,1.6c-1.6,0.3-2.8,0.5-3.9,0.8c-0.5,0-0.8,0.3-1,0.3
		c0,0,0,0.3-0.3,0.8c0,0.5-0.5,1.3-0.8,1.8c0.3,0.3,0.5,0.5,1,1c0.5,0.5,1.3,1,1.6,1.6c0.3,0.3,0.3,0.3,0.5,0.5l0,0l0,0
		c0,0,0,0,0.3,0c0.3,0,1,0,1.6,0c1.3,0,2.8-0.3,3.9-0.5c1.6-0.3,2.8,0.5,3.4,1c0.5,0.5,1,1.3,1.6,2.1c0.8,1.6,1,2.8,1,4.4
		c0,1-0.3,1.3-0.5,2.1c-0.3,0.5-0.3,1-0.5,1.6c-0.5,1-0.8,2.3-0.8,3.1c0,1.3-0.8,2.6-1.6,3.4c-0.8,0.8-1.6,1-2.3,1.6
		c-1.6,0.8-3.1,1.3-3.4,1.8c-1.3,1-2.3,1.6-2.8,1.8c-0.5,0.3-0.5,0.3-0.8,1.3c-1,2.3-2.1,2.8-2.6,5.2c0-0.3,0,1,0.5,2.3
		c0.3,1.3,0.8,2.6,0.8,4.4c0,2.3-1.3,3.6-2.3,4.7s-2.1,2.1-2.3,2.3c-1,1-1.3,1.3-1.3,1.6c0,0.3-0.3,1-0.3,2.8c0,0,0.3,1.3,0.8,2.3
		c0.5,1,1,2.1,1.3,2.6c0,0.3,0.5,0.8,1.3,1.6c0.8,0.8,1.8,2.3,2.3,4.1c0.5,2.1,0,4.1-0.3,5.2c-0.3,0.8-0.3,1-0.5,1.6
		c0.3,0.3,0.5,0.3,1,0.5c1.6,0.5,3.1,0.8,4.1,1c3.1,0.8,5.2,1.8,7.2,3.1c0.3,0.3,1.6,0.5,2.8,0.8c1.3,0.3,2.8,0.5,3.9,0.8
		c1,0.3,2.1,0.5,2.8,1.3c0.8,0.8,1.3,1.8,1.3,2.8c0.3,1.8,0,2.8,0,4.7s-0.8,2.8-1,3.9c-0.3,1-0.8,1.8-0.8,2.8c0,0.5,1.3,2.6,2.6,3.9
		c1.8,1.8,1.6,3.4,1.8,5.2c0.3,1.8,0.3,3.6,0.3,4.7c0,1.8,0,2.8,0,3.6c0,0.8,0,1,0.3,1.6c0.5,1,0.5,2.6,0,3.6c-0.5,1-1,1.6-1.8,2.1
		c-1.3,1-2.3,1.8-2.6,2.1c-0.5,0.5-0.8,1-1.3,2.1c-0.5,1-0.8,2.3-2.1,3.4c-2.1,2.1-3.1,3.1-4.7,4.7c-1.3,1.3-2.6,1.8-3.9,2.3
		c-1.3,0.5-2.6,1-3.6,1c-2.6,0.5-4.4,1.8-8.5,1.8c-2.8,0-4.1,0.5-6.2,1.6c-3.4,1.6-6.7,1.3-9.6,1.3c-2.8,0-5.7,0-8.5,0
		c-0.3,0-1,0.3-1.8,0.8c-0.8,0.5-1.6,1.3-2.6,1.8c-0.8,0.5-0.5,0.3-0.8,0.8c0,0.3,0,1.6,0,3.4c0,3.6-0.5,6.5-2.3,8.8
		c0,0.3-0.3,0.8,0,1.6c0.3,0.8,0.5,1.8,0.8,2.3c1.3,2.6,1.6,5.7,2.1,7.2c0.5,2.6,1.8,4.7,1.8,8.5c0,2.1-0.5,3.9-1.6,5.2
		c-1,1.3-2.3,1.8-3.4,2.3c-1.8,1-3.4,2.3-6.2,3.1c-1,0.3-1,0.3-1.8,1c-0.8,0.8-2.6,1.8-5.2,1.8c-1.8,0-4.9,0.5-7.8,0.5
		c-2.3,0-3.9-1.3-4.9-2.6c-1-1.3-1.6-2.1-1.6-2.1c-1.6-1.6-2.8-2.3-4.7-3.9c-1.8-1.8-2.6-3.4-3.9-4.7c-2.3-2.3-3.1-4.9-3.9-5.7
		c-0.8-0.8-2.1-0.8-3.4-0.5c0,0,0,0-0.3,0.3c-0.3,0.3-0.5,0.5-0.8,1c-0.8,0.8-1.6,2.1-1.6,2.1c-0.8,1.8-2.1,2.6-3.1,3.4
		c-1,0.8-1.6,1.3-1.6,1.3c-1.6,3.1-4.4,4.1-6.7,4.7c-3.9,1-7-0.5-9-0.5c-1.8,0-3.1,0-3.9,0.3c-0.8,0.3-1,0.3-1.6,0.8
		c-1,1-1.8,2.8-2.1,4.4c-0.8,3.4-1.3,4.7-2.3,6.7c-0.8,1.8-2.1,2.6-2.3,2.8c0,0,0,0.3,0.3,1c0.8,3.1,0.5,5.9-0.8,8.5
		c-0.5,1.3-0.3,1.8-1.3,3.4c-0.5,0.8-1.6,1.6-2.6,1.8c-1,0.3-1.8,0.3-2.8,0.3c-2.1,0-3.9-1-4.9-2.1c-1-1-1.6-2.1-2.1-2.6
		c-1-1-1.6-1.3-2.3-2.1c-0.8-0.8-1.8-1.6-2.6-3.4c-0.5-1.3-0.8-1.3-0.8-1.3s-1-0.3-2.6-0.8c0,0,0,0,0,0.3c-0.3,0.5-0.5,1.8-2.1,3.1
		c-0.3,0.3-0.5,0.8-0.8,1.8c-0.3,1-0.5,2.6-1.8,4.1c0,0,0,0,0,0.3c0,0.3,0,1,0,1.6c0,1.3,0.5,2.8,0.5,3.4c0.5,2.1,0,4.1-0.8,5.4
		s-1.6,2.3-1.8,2.6c-0.8,1.3-0.8,3.9-1.6,6.2c-0.8,3.1-1.8,4.4-2.3,6.7c-0.5,1.8-1.3,3.1-2.1,4.1c-0.8,1-1,1.3-1.6,2.1
		c-0.8,1.8-2.1,2.1-2.8,2.8c-0.8,0.8-1.6,1.3-1.6,1.8c-1,2.1-1.6,3.1-2.1,5.7c-0.3,1.6,0.3,4.9,0.5,6.7c0.5,2.1,0.3,3.9,0,5.2
		c-0.3,1.3-0.5,2.3-0.5,3.4c0,3.4-1,6.2-3.1,8c-1.3,1.3-2.6,1.6-3.9,2.1l0,0c-1,1-1.3,1.8-2.1,2.8c-0.8,1-2.3,2.3-4.7,2.8
		c-1.8,0.5-3.4,0.5-4.7,0.5s-1.8,0-2.1,0.3c-2.1,1-3.6,1.8-5.7,2.8c-1.3,0.5-2.8,0.5-3.9,0c-1-0.5-1.8-1.3-2.1-2.1
		c-0.3-0.8-0.8-1.3-1-1.8c0-0.3-0.3-0.5-0.3-0.5l0,0l0,0c-1-1-1.6-1.8-1.8-1.8c0,0-0.8-0.3-1-0.3c-0.5,1-0.8,2.8-3.1,3.9
		c-2.6,1.3-3.1,2.1-5.7,3.4c-0.8,0.5-1.3,0.8-2.1,1.6c-0.8,0.8-2.3,1.6-4.1,2.1c-1.8,0.5-3.4,0.5-4.7,0c-1.6-0.5-2.3-1.6-3.4-2.3
		c-1.3-1.3-3.1-2.1-5.2-3.9c-0.5-0.5-1.6-1.3-2.8-2.1c-1.3-0.8-2.3-1.6-3.4-2.6c0,0-1.3-0.8-2.3-1.3c-1-0.5-2.1-1.3-2.8-1.6
		c-1.8-1-3.1-2.8-3.4-4.7c-0.3-1.8,0.3-3.6,1-4.9c1.3-2.8,2.8-4.9,3.4-6.7c0.5-1.8,1-3.1,1.8-4.1c0.8-1,1.3-1.8,1.8-3.1
		c1.6-3.1,2.1-3.4,2.1-6.2c0-3.1,0.5-5.7,1.3-8c0.5-1.8,0.5-4.9,1-7.2c0,0,0,0-0.3-0.3c-0.5-0.3-1.8-0.8-2.8-1.3
		c-1.8-0.8-4.1-0.8-7-2.1c-0.3,0.5-0.3,1.6-0.8,2.6c-0.5,2.3-1,5.2-1.8,7.2c-0.5,1.8-1.6,3.1-2.6,3.9s-1.3,1.3-1.6,1.8
		c-1.3,2.6-2.3,3.9-3.4,6.2c-1.6,2.8-3.4,4.4-3.9,5.7s-0.8,2.1-1.6,3.4c-0.8,1-1.8,2.1-3.4,2.8c0,0,0,0-0.3,0.3
		c-0.3,0.3-0.3,0.8-0.5,1.6c-0.3,1.3-0.5,2.8-0.5,3.4c0,2.1,0.3,2.8,0,4.4c0,0.8-0.5,1.6-0.8,2.3c-0.3,0.8-1,1.3-1.6,2.1
		c-1.6,1.6-3.1,3.1-4.7,4.4c-1,1-1,3.1-2.3,5.7c-1,1.8-2.6,2.8-2.8,3.1c-0.3,0.3,0,0-0.3,0.3c-0.3,0.3-0.3,0.5-0.3,1.3
		c0,3.6-1,6.2-3.1,8c-1,1-1.6,1.6-1.8,1.8c0,0.3-0.3,0.5-0.3,2.1c0,3.9-1,5.9-2.1,8c-0.8,1.6-2.1,2.6-3.1,3.4
		c-0.8,0.5-1.3,0.8-1.8,1.3c0,0,0,0.3-0.3,0.3c0,0.5-0.3,1-0.3,1.8c0,0.8,0,1.6,0,2.1s0,1-0.3,2.1c-0.3,1.3-0.8,1.6-1.3,2.1
		c-0.5,0.5-1,1-1.6,1.6c-1,1-2.3,2.1-2.3,2.1s-0.3,0.3,0,1.3c0.3,1,0.8,2.1,1,2.6c0.8,1.3,1.3,2.3,2.1,3.6c0.8,1.3,1,3.4,0.5,5.4
		c-0.5,2.1-1.6,3.4-1.8,3.4c0,0,0,0.3,0.5,0.8c1.6,2.8,1.3,5.4,1.8,8c0.5,2.1,1.6,3.9,2.8,5.9c0.8,1,0.8,1.8,1,2.6
		c0.3,0.8,0.3,1.8,0.3,2.6c0,0.8,0,1.6,0.3,2.1l0,0c0.3,0,0.3,0,0.8,0c1.3,0,2.8,0,4.1,0c3.4,0,5.9,0,8.5,1.3
		c1.6,0.8,3.1,2.1,3.6,3.6c0.5,1.6,0.8,3.1,0.8,4.7c0,3.1,0,4.7-1.3,7.2c-1.3,2.6-2.6,3.6-3.4,5.2c-0.5,1-1,1-1.3,1.3
		c-0.3,0.3-0.8,0.5-1,0.8c-0.8,0.3-1.6,0.8-2.3,1c-1,0.5-1.8,0.5-2.6,0.8c0,0.3,0,0.3,0.3,0.8c0.3,0.8,0.5,1.3,0.8,2.1
		c0,0.3,0.3,0.5,0.3,0.8c0,0,0,0,0,0.3l0,0c0,0,0,0,0.3,0.5c0.5,2.6,1.3,3.1,2.6,5.7c1,2.1,1.8,3.4,2.8,4.4c0,0,0.8,0.3,1.8,0.5
		c0.8,0,2.1,0.3,3.4,0.5c0,0,0.3,0,0.5,0c0.5,0,1.3-0.3,2.1-0.5c1.6-0.3,3.1-0.8,4.7-0.8c2.1,0,3.9,1.3,4.7,2.3
		c0.8,1,1.3,2.1,1.6,2.3c0.5,0.5,3.9,3.6,4.9,4.1c2.6,1.3,3.9,2.6,5.7,4.4c0.5,0.5,3.6,2.1,4.9,2.8c2.1,1,3.4,2.1,4.1,2.8
		c0.8,0.8,1.3,1.3,2.1,1.6c1.3,0.8,1.6,0.5,2.8,1c0.5,0.3,1.3,0.8,2.1,1.3c0.8,0.5,1,1.3,1.3,2.1c0.8,1.6,1,2.8,1,3.1c0,0,0,0,0.5,0
		c1.6,0,2.8,0,4.4,1c1,0.8,1.6,2.1,2.1,3.4c0.3,0,0.5,0.3,1.3,0.5c1,0.5,2.8,1.6,3.6,3.4c0.3,0,0.3,0,0.5,0c1.3-0.3,8.3,5.4,8,6.2
		c-0.5,1.8-1.6,2.8-2.3,3.6c-0.5,0.5-0.5,0.5-0.3,1c0,0.5,0.5,1.3,0.8,2.1c0.3,0.8,0.3,0.8,0.8,0.8c0.5,0.3,1.6,0.3,3.1,0.8
		c1.3,0.3,2.3,0.3,4.1,1c0.8,0.5,1.6,1.6,2.1,2.3s0.5,1.8,0.5,2.8s-0.3,0,0.5,1c0.3,0.5,0.8,1.3,0.8,2.3s0,1.8-0.3,3.1l0,0
		c0.5,0,0.8,0,1.3,0c1.8,0,3.1,0.3,4.1,0.5s1.6,0.3,2.6,0c1.6-0.3,2.1-0.5,2.8-1c0.8-0.5,1.6-1,3.1-1.8c0,0,0.5-0.5,1.6-1.3
		s2.3-1.8,4.1-2.3c2.1-0.5,3.9,0,5.2,0.5c1.3,0.5,2.3,1,2.8,1.3c1.6,0.5,2.6,1.3,3.4,1.6c0.8,0.3,1.3,0.8,2.8,0.8h1.6l0.8,1.6
		c0.3,0.8,0.8,1.6,1,2.1c0.5,1.3,0.5,2.8,0,4.1c-0.5,1-1.3,1.6-2.1,2.1s-1.3,0.8-1.8,1c-0.3,0-0.3,0.3-0.5,0.3c-0.3,0.3-0.3,0.3,0,0
		c-1,1-2.1,1.8-2.1,2.1v0.3c0.3,0.5,0.8,1,1.3,1.6c0.5,0.5,1,1,1.3,1.6c0.3,0.3,0.3,0.3,0.5,0.5c0,0,0,0,0.3,0c0.5,0,1.3,0,2.3,0.3
		c1,0.3,1.8,0.3,2.6,0.3c0.5,0,0.8,0,1,0.3h0.3c0.3-0.3,0.8-0.5,1.6-0.8s1.3-0.8,1.8-1c0.5-0.3,0.8-0.3,1.3-0.8c1.8-1,3.9-1,5.4-0.8
		s2.8,1.3,3.9,2.1c2.3,2.3,2.8,5.4,3.4,6.5c0.8,1.3,1,2.8,1.3,4.1c0.3,1.3,0.5,2.6,0.8,3.1c0.5,2.1,1.3,2.6,3.1,3.4
		c1.6,0.8,2.3,1.3,2.8,1.8c0.5,0.5,0.8,0.5,2.3,0.8c2.8,0.8,4.9,2.3,6.2,3.1c1.6,0.8,4.1,0.8,7,1.6c3.1,0.8,4.9,2.8,6.2,4.1
		c0.8,0.8,0.8,0.5,2.3,1.3c0.8,0.3,1.8,1.3,2.1,2.3c0.3,1,0.3,2.1,0.3,3.4c0,0.8,0.3,1,0.8,2.1c0.5,0.8,1,2.1,1.6,3.6
		s0.5,2.8,0.5,3.9c0,0.8-1.6,1.3-1.3,1.8c1.6,0.3,4.1,0,6.7-0.8c-0.3,0,1.3-0.8,2.8-1.6c1.6-0.8,3.9-1.8,6.2-0.5
		c0.5,0.3,2.1,1,3.4,1.8c1.3,0.8,3.1,2.1,3.6,4.4c0.3,1.6,0.5,2.8,0.8,3.6c0.3,0.8,0.5,1.3,1,2.1c2.1,2.1,5.2,4.4,7.8,4.9
		c1.8,0.5,3.1,0.3,5.9-0.5c2.6-0.8,5.4-0.8,7.2-1c3.4-0.8,5.7-0.8,7.2-1.6c1.6-0.8,3.6-2.6,5.7-4.7c2.3-2.3,4.7-3.4,6.2-5.2
		c2.6-2.6,4.4-3.4,7-5.2c3.1-2.3,5.9-3.4,8.8-4.7c2.8-1.6,4.7-1.8,6.7-2.8s4.9-2.1,8.5-2.1c3.6,0,7,0,10.6,0c3.6,0,5.4,0.3,8.5,1
		c4.1,1,7.5,2.1,11.6,2.1c1.6,0,1.8,0,2.3-0.5c0.8-0.3,1.8-1.3,3.6-1.8c2.1-0.5,3.9,0,5.2,0.5s2.3,0.8,2.8,0.8
		c1.3,0,2.1-0.3,3.1-0.8c1-0.5,2.3-1,4.4-1s3.6,0,4.9,0.8c1.3,0.8,1.8,1.8,3.1,2.8c-0.3-0.3,1,0.8,2.1,1.6s2.6,1.3,3.1,3.6
		c0.3,1,0.5,1.6,0.8,1.6c0,0,0,0.3,1.3,0c0,0,1.3-0.5,2.6-1.3c1.3-0.8,2.1-1.6,4.4-1.6c2.6,0,4.4,0.5,5.4,1.3c1,0.8,1.3,0.8,2.1,1
		c1.6,0.5,3.4,1,5.4,0.5c3.1-0.8,4.4-0.5,6.2-1.6c0.3-0.3,1.8-0.8,3.6-1.3c1-0.3,1.8-0.5,3.1-0.3c1.3,0,2.8,0.8,3.6,2.3
		c0.5,1,0.8,2.3,1.3,3.4c0.5,1,0.8,2.3,1,2.8c1,1.8,1,3.6,0.8,4.7c-0.3,1-0.3,1.6,0,2.1c0.8,2.8,0.5,5.9-0.8,8.5c0,0,0,1.8,0.8,3.9
		s2.1,3.9,2.8,4.9c0.3,0.3,0.5,0.3,0.8,0.5c0.3,0,2.3,2.8,2.8,3.4c1,1,1.6,2.8,2.1,3.9c0.5,1.3,2.6,1.8,3.6,2.3
		c1.3,0.8,2.8,3.6,2.1,0.5c-0.5-2.3-1.3-2.8-2.1-4.4c-0.5-1.3-2.8-2.1-4.4-3.6c-1.6-1.6-2.3-2.6-3.1-4.1c-0.5-1.3,4.4-1,5.2-1
		c0.5,0,2.8,2.8,3.1,3.1c1,1.3,1.6,2.8,2.3,4.4c1,2.1,2.1,1.6,2.1,4.4c0,2.1,0,3.9-0.3,5.7c-0.5,2.3,1,3.1,2.1,3.9
		c2.3,2.3,3.4-1,2.8-2.3c-1.3-2.3-2.8-3.4-3.4-5.2c-0.5-1.8,3.1,2.3,3.6,2.8c1.6,1.6,1.6,2.1,3.9,2.8c1.3,0.3-0.3-4.4-0.5-4.7
		c-0.3-0.5,4.4-1,4.7-1.3c1.6-0.3-0.8-2.8-2.1-3.9c-2.1-2.1-2.3,0.8-3.4-2.8c-0.5-2.3,2.1-2.1,3.6-2.3c2.6-0.8,1.3-2.3,0.5-3.4
		c-1.3-1.3-2.1-1.6-3.6-2.3c-1.8-0.8-2.1-2.8-1.6-4.4c0.3-1.6,2.1-2.8,2.8-3.6c1.3-1.3,1.3-2.6,1.3-4.7c0-2.6,2.6-1.6,4.4-0.8
		c1.6,0.8,1.6,2.8,1.6,4.7c0,1.8,0.5,3.4,0,5.2c-0.3,1.3-2.3,2.6-3.4,3.4c-1.6,1,3.6,3.6,3.6,3.6c1.3,0.5-0.3,4.1-0.5,4.9
		c-0.8,2.6,1,2.8,3.1,2.8c1.3,0,2.8-2.1,3.4-3.1c0.8-1.8,1.8-2.6,2.8-4.9c0.8-1.8,1.3-3.4,2.1-4.7c0.8-1.8,1-3.4,1.6-4.7
		c0.5-1.8,2.1-2.6,2.1-4.4c0-1.8-3.1-1.3-4.7-2.1c-0.8-0.5,0.5-2.1,1.3-2.8c-2.6-1.3,2.3-4.4,2.3-4.4c1.3-0.8,1.6-2.8,1.6-4.4
		c0-0.8,3.1-2.1,3.9-2.3c1-0.3,1.8-3.1,2.1-4.1c0.5-1.8,1.3-2.3,1.3-4.7c0-2.1-1-3.1-1.6-4.4c-0.8-1.6-2.8-1.8-4.4-2.1
		c-2.8-0.5-3.4-0.8-5.7-2.1c-1.6-0.8-3.4-0.8-5.7-0.8c-2.1,0,0-4.4,0-4.4c1-2.1-1.6-3.1-2.3-3.6c-2.3-1-2.6,0.3-3.1,2.1
		c-0.3,1.3-1.8-1.6-1.6-2.8c0.5-2.3,2.6-1,0.5-3.1c-1.6-1.6-2.8,0.3-3.9-2.1c-0.8-1.8-3.6,1.8-4.4,3.6c-0.8,1.6-2.3,1.3-2.8,3.4
		c-0.8,2.8,0,2.3-2.8,3.1c-2.8,0.8-3.4,0.8-3.9-2.1c-0.3-1.6,1.6-3.1,2.1-4.1c0.3-0.8,4.7-1.3,5.2-1.6c0.5,0-1.3-3.4,1.3-4.1
		c3.1-0.8,1.8-1.8,0-2.8c-1.8-1-2.3,1.3-4.4,0.8c-2.3-0.5-1.6-2.3-1.3-3.4c0.5-2.1,1.3-3.1,0.8-4.7c-0.3-0.8-2.3-3.1-2.8-3.6
		c-1-1-1.8-2.3-2.8-3.4c-1.6-1.6-3.4-1-4.4-3.1c-0.8-1.6,0.5-3.9,0.5-5.7c0-2.6,1.8-3.4-1.3-4.1c-2.6-0.5-2.6-1.6-2.1-3.6
		c0.8-2.6,1.8-2.6,2.3-4.7c0.3-1.3,1.3-2.6,1.6-4.4c0-0.3-3.4-4.9-3.6-5.2c-0.8-0.8-1.8-3.4-2.3-4.4c-0.8-1.6-1.8-2.1-2.8-3.1
		c-0.5-0.5,2.1-3.9,2.1-3.9c1-2.1-0.8-4.1-1.3-4.9c-1.3-2.6-3.9,0.3-3.1-3.1c0.5-1.8,1-2.8,2.1-3.9c0-0.5,1.8-4.1,2.1-5.2
		c0.5-1.8,0.5-4.1,0.5-5.9c0-2.3,1.3-3.9,1.3-6.7c0-1.6,1-4.1,1.6-5.2c0.8-1.8,1-3.6,1.6-4.9c0.8-1.6,1.6-3.1,2.3-4.7
		c1-2.1,1.6-3.4,2.3-5.2c0.8-1.8,1.6-2.3,2.1-4.4c0.5-1.6,1.8-3.4,2.3-4.4c0.8-1.8,2.6-3.1,3.6-4.1c1-1,1.6-2.8,2.3-3.9
		c1.3-1.8,2.1-2.1,2.8-3.6c1-2.1-1.3-2.3-2.8-2.8c-1.3-0.3-2.8,2.8-3.4,3.4c-0.3,0.3-0.5,0.8-0.8,1c-0.3,1.6-1,1.6-1.3,2.1
		c-0.3,0.5-0.5,1-0.8,1.3c-1,2.1-1.6,2.6-2.8,3.9c-1,1-1.3,2.6-2.3,3.6c-1,1-2.6,3.4-3.4,4.9c-0.5,1-1,3.9-1.3,4.7
		c-0.5,2.1-1.3,3.4-2.3,5.7c-0.8,1.6-1.3,3.6-2.1,4.7c-1,2.1-0.8,3.1-1.3,5.2c-0.5,1.8-0.8,3.6-1,5.2c-0.5,1.8-0.5,3.6-0.8,5.2
		c-0.5,2.1-1,3.9-1.6,5.7c-0.5,2.1-1.3,4.1-1.6,5.7c-0.5,2.1,0.8,3.1,1.3,4.9c0.3,1.6,1.3,2.8,1.6,4.4c0.5,1.8,0,4.4,0.5,5.7
		c0.8,2.8-3.1,1-3.6,0.8c-1-0.5,3.4-2.8-0.8-2.8c-2.3,0,0,3.1,0,3.4c0,0-3.6-2.3-2.1,1c1,2.1,2.8-0.3,2.8,3.4c0,2.6-0.8,2.8-3.1,2.8
		c-2.6,0-3.1-0.3-4.7-1c-1.3-0.8-0.5-2.6-2.8-3.4c-2.1-0.5,0-2.3,0.8-3.1c1-1,0-3.1-0.5-4.7c-0.5-1.8-0.8-1.8-0.5-3.4
		c0.5-1.6,0.5-3.4,0.8-4.7c0.5-1.8,0.5-2.6-0.5-4.4c-0.3-0.5,2.1-3.1,1.6-4.4c-0.3-1-2.8-2.1-3.6-2.3c-2.8-1.6-2.3,1.6-2.8,3.1
		c-0.8,3.1-0.3,2.1-3.4,2.1c-2.1,0-2.6-1.6-3.9-2.3c-2.6-2.1-2.1,1.8-3.9-2.1c-0.8-1.3-0.5-3.6-1.3-4.7c-1-1.8,0-1.6,1.6-3.4
		c1-1,1-3.6,1.3-4.7c0.5-2.1-0.5-3.6-0.5-5.7c0-2.1,0.5-4.4,0-5.9c-0.5-1.8-1.3-2.3-2.3-3.6c-1.6-1.6-1.6-3.1-2.1-4.9
		c-0.3-1.3,3.1-2.8,4.1-3.1c1.6-0.8,3.9-0.5,5.7-0.5c2.8,0,4.7,0.3,5.9-1.3c0.5-0.5,0-4.9,0-5.9c0-2.8,0.3-3.1,1.6-4.4
		c0.8-0.8,5.2,0.8,6.5,0.8c2.3,0,2.6-0.3,3.6-2.1c0.5-1.3-0.5-4.1-0.8-5.2c-0.3-1,1.6-2.6,1.6-4.4c0-2.3,0-2.3,2.3-2.8
		c2.1-0.5,3.1,1.3,3.9,2.1c0.8,0.8,1.3,3.6,1.6,4.4c1,2.1,0.5,2.3,3.6,2.3c1.3,0,3.1,1.3,4.7,1.6c1.6,0.5,2.1,1.3,2.1,1.3
		c0.3,1,2.3,1.6,3.9,1.6c1.8-1.3,0.8-2.1,0.8-2.6c-2.1-1-2.3-1-3.4-2.8c-1.3-2.3,1.3-3.6-1.6-4.4c-2.1-0.5-2.8-0.5-5.2-0.5
		c-2.1,0-2.6-1.6-3.6-2.3c-1.6-1.6-2.6-0.8-3.6-2.8c-0.8-1.6-0.8-3.1-0.5-4.9c0.5-1.6,3.1-1,4.7-1c2.6,0,3.4-0.5,4.7-1.3
		c1.3-0.5,1.8-2.1,2.8-2.8c1.3-1,2.8,2.3,3.6-1c0.5-2.1-0.3-4.1,0-5.7c0.3-1.8,4.1-0.3,4.7,0c1.8,0.8,3.4-2.3,3.9-2.8
		c1.6-1.6,0,4.4,0,4.7c-0.5,1.8,3.9-0.3,4.1-0.5c0.5-0.5,0.5-4.9,0.8-5.2c1-2.1,1.8-2.3,4.9-2.3c2.3,0,3.9,0.3,4.4-1.6
		c0.5-2.1,0.8-2.8,2.3-3.6c0.5-0.3,4.4,0.8,5.9,0.8c2.8,0,3.6,0,4.9,1.3c1.3,1.3,2.6,1.6,3.9,0c1.6-1.6-2.3-3.1-2.8-3.1
		c-0.5-0.3-2.1-3.4-2.3-3.6c-1.3-1.3,4.4-1.6,5.2-1.6c2.3,0,5.2-0.5,7.2,0.5c0.8,0.5-0.3,3.9,1.6,4.7c2.6,1.3,2.8,0.5,3.6,3.6
		c0.5,2.3-1,2.3-2.8,3.4c-1.8,0.8-3.1,2.6-4.4,3.6c-1.6,1.3-3.4,1.8-5.2,2.3c-3.4,0.8-3.4-0.3-5.2,1.6c-1.6,1.6-0.8,2.1-3.9,2.8
		c-1.8,0.5-3.4,1-4.9,1.6c-2.3,0.5-2.3,2.1-2.8,4.1c-0.5,2.1-2.1,2.3-3.9,2.8c-1.8,0.5-3.1,0.8-4.9,1.3c-2.1,0.5-1.3,1.6-2.3,2.8
		c-1.6,1.6-3.9-1.3-5.9-1.3c-1,0-0.8,4.1-0.8,5.2c0,2.6,3.4,0.8,3.9,0.5c1.6-0.8,2.8-1.3,4.4-0.8c2.1,0.5,0.8,3.1,0.5,3.9
		c-1,2.1-3.4-0.5-2.1,2.3c0.8,1.6,0.8,2.6,2.8,3.1s3.4-1.8,4.1-2.8c1-1.3,1.8-2.3,2.8-3.4c0.5-0.5,3.6-1.6,4.4-2.1
		c1.6-0.8,2.6-1.6,4.9-1.6c2.3,0,3.6-0.8,5.9-0.8c1.3,0,2.8-2.1,3.6-2.8c0.8-0.8,2.8-1.8,3.9-2.3c1.8-1,1.8-1.8,3.6-2.3
		c1-0.3,1.3-0.8,2.1-1c0.5-0.3,1-0.5,1.6-0.8c2.3-1,4.4-2.6,6.7-4.1c1.8-1,4.1-0.8,5.9-1c1-0.3,2.6-2.1,3.9-2.3c2.1-0.5,5.4,0,7.5,0
		c0.5,0,2.6-2.8,3.1-3.1c1.6-0.8,3.4-1,4.7-1.6c1.8-0.8,3.4-2.1,4.1-3.6c0.8-1.3,2.3-2.1,3.9-2.1c2.1,0,4.1-0.5,5.7-0.8
		c1.6-0.3,2.8-2.6,3.4-3.6c0.8-1.8,3.4-3.1,4.7-4.1c1.6-1.3,2.8-2.1,4.4-3.6c1-1,4.7-1.8,5.9-2.3c2.3-1,3.9-1.3,5.7-3.6
		c1-1.6,5.2-1.8,6.5-3.1c1.6-1.6,1.6-3.4,2.8-4.4c1.8-1.8,0.5-2.8,2.8-3.6c1.8-0.5,4.1,0,5.9,0c2.6,0,2.3-1,2.3-3.6
		c0-1.8,2.8-1.6,4.4-1.6c1,0,2.1,3.4,2.3,3.9c0.5,2.1,3.4,0.8,4.1,0.5c1.3-0.5,3.6-0.5,5.7-0.5c2.1,0,3.9,0,5.9,0c0.5,0,1,0,1.6-0.3
		c-0.3-0.8-0.8-1.6-1-2.6c-0.5-1-1.3-2.3-1-2.3c0,0.3-1-0.8-2.1-1.3c-1-0.8-2.3-1.3-3.4-3.1c-0.8-1.6-1-2.8-1.3-4.1
		c-0.3-1.3-0.8-2.6-1-3.1c-1-1.8-0.8-3.6-0.8-4.9c0-1.3,0.3-1.8,0-3.1c-0.3-1.3-0.5-1.8-0.8-2.3c0-0.3,0-0.3,0-0.3
		c-0.3,0-1-0.5-2.6-2.1c-0.8-0.8-0.8-1-1-1.8s-0.5-1-0.8-1.6c-0.3-0.5-0.5-1-0.8-1.3c-0.8-0.3-1.3-0.3-2.1-0.8
		c-0.8-0.3-1.8-1-2.3-2.1c-1-1.8-0.5-3.1-0.5-4.9c0-1,0-2.6,0-3.6c0-1-0.5-2.1-0.3-1.8c-1.3-1.3-3.6-3.9-3.6-7.5
		c0-2.8-0.5-4.9-0.5-7.8s-0.3-5.7,0.5-8.5c0.3-1.6,1-2.6,1.3-3.6c0.3-1,0.5-1.8,0.3-2.3c-0.8,0.5-1.8,1.3-2.6,1.6
		c-1,0.5-1.6,0.8-2.1,1.3c-0.8,0.8-1.3,1.6-2.6,2.3c-1.3,0.8-3.1,1-4.9,0.5c-0.8-0.3-1.3-0.3-1.8-0.3c0.3,0.8,0.3,1.8,0.5,3.4
		c0,1,0,1.8-0.3,2.8c-0.3,0.5-0.3,1-0.8,1.8c-0.5,0.8-1.6,1-2.6,1c-0.8,0-2.6,0-4.4,0c-1.8,0-3.4,0-5.4-0.8
		c-2.8-1.3-4.7-3.1-6.2-3.9c-1.3-0.8-3.9-0.8-7.2-0.8c-3.1,0-5.7-1.3-8-2.6c-0.8-0.3-1-0.5-1-0.5c-0.3,0.3-1.8,1.3-3.9,1.3
		c-0.5,0-1,0-1.6,0c-0.5,0-1.3,0-1.8,0c-0.5,0-1,0-1,0.3c-0.5,1-1.6,4.1-2.1,5.4c-0.3,1-0.5,1.6-0.8,2.3c-0.3,0.5-0.5,1-1,1.6
		c-0.5,0.5-1.6,0.5-2.1,0.5c-1,0-1-0.3-1.6-0.5c-0.3,0-0.8-0.3-1.6-0.3c-2.6,0-4.4,1-7.2,1s-5.9,0.3-9-0.8c-1.8-0.5-5.2-1.3-6.7-1.8
		c-2.6-0.5-4.4-1-7.2-2.3c-0.8-0.5-1-0.5-1.6-1c-0.5-0.5-1-0.8-1.8-1.3c-0.8-0.5-1-1-1.6-1.3c-0.3-0.3-0.3-0.3-0.5-0.3
		c-1.3-0.5-2.3-1.3-3.4-2.1c-1-1-2.1-2.3-2.3-3.9c-0.5-2.3-1-4.1-1.6-6.7c-0.5-2.1-1-4.4-1.8-6.7c-0.3-0.8-0.5-1-1-1.6
		c-0.5-0.5-1.6-1.3-2.8-2.3c0,0-1-0.8-2.3-1s-2.8-0.8-4.4-2.3c-2.1-2.1-2.8-4.4-3.4-5.2c-0.8-0.8-2.8-1.6-5.7-2.8c0,0-0.5-0.3-1-0.5
		c-0.8-0.3-1.6-0.5-2.3-0.8c-0.8-0.3-1.6-0.8-2.3-1.3c-0.5-0.3-0.8-0.8-1-1.6c-0.3-0.8-0.3-1.8,0-2.6c0.8-1.6,1.8-3.6,2.8-5.7
		c1.3-2.6,1.8-4.4,2.6-7.2c0.8-2.6,1.8-5.2,2.1-6.7c0.5-2.3,1-4.7,1.8-7.2c0.8-3.4,2.1-5.2,2.1-6.7c0-1.8,0.3-4.7,0.8-7.2
		s1-5.2,2.8-7c1.3-1.3,1.6-3.4,3.9-5.7c0.5-0.5,0.8-1,1-2.1s1-2.3,2.3-3.6c0.8-0.8,1.6-2.6,1-4.9c-0.5-2.1-2.1-4.7-3.9-8
		c-0.3-0.5-1-1.8-1.8-3.4c-0.3-0.8-0.8-1.3-1-1.8c-0.3-0.3-0.3-0.5-0.5-0.8c0-0.3-0.3-0.5-0.3-1c-0.3-0.8-0.3-0.8-1-1
		c-0.8-0.3-2.3-0.8-3.4-2.8c-1-1.8-1-2.1-2.8-2.6c-2.1-0.5-5.7-1-7.8-1c-1.8,0-3.6-0.3-5.2-1c-1.6-0.8-2.6-2.6-3.1-4.4
		c-0.5-2.1-1.3-4.7-1.8-6.7c-0.5-2.6-1.3-5.2-1.3-8.5c0-1.8,0-3.1,0.3-4.4c0.3-1.6,1-2.8,2.3-4.1c1-1,1.6-1.6,1.8-1.8
		c0.3-0.3,0.3-0.5,0.3-2.1c0-2.3,0-3.6,0.8-5.2c0.8-1.6,1.6-1.8,2.6-3.1c1.3-1.3,3.4-3.9,5.2-5.7c1.3-1.3,2.3-3.4,2.8-4.9
		c0.8-2.8,1.8-4.7,4.1-7c2.1-2.1,4.4-2.6,7-3.9c1.3-0.5,2.3-1,3.1-1.3c0.8-0.3,0.8-0.3,0.8-0.8c0-2.1,0.3-3.9,1.3-5.4
		c1-1.6,2.3-2.1,3.6-2.6c1-0.5,2.3-1.3,3.1-1.8c0.3-0.3,0.3-0.3,0.3-0.3c-0.3-0.8-0.8-1.3-0.8-2.1c-0.3-0.8,0-2.1,0.5-2.6
		c0.8-1.3,1-1.3,1.6-2.6c0.3-0.5,0.5-1.8,1.6-3.1s2.8-2.8,5.4-2.8c2.3,0,4.1,0.5,5.2,1.3c1,0.5,1,0.8,1.8,1h0.3c0.3,0,0.5,0,0.8,0.3
		c0.8,0.3,1.6,0.3,2.3,0.5c0.8,0,1.6,0.3,2.1,0.3c0.8-1.6,1.6-3.1,3.1-4.7c1.8-1.8,3.4-3.6,7.2-4.7c0,0,1.6-0.5,2.6-1
		c0.3,0,0.3-0.3,0.5-0.3l0,0c-0.3,0-1.8-0.8-3.4-2.3c0.3,0.3-0.3-0.3-0.8-0.5c-0.5-0.3-1-0.8-1.6-1.3c-0.5-0.5-1-1-1.6-1.3
		c-0.3-0.3-0.5-0.5-0.8-0.8c-0.3-0.3-0.5,0-0.8-1.3c-0.3-1-0.8-2.6-0.5-4.4c0.3-1.8,1.6-3.9,3.6-4.9c1.6-0.8,3.1-0.8,4.4-0.8
		s2.3,0,3.6-0.5c2.1-0.5,3.6-1,5.7-2.1c2.8-1.6,4.7-1.8,8-2.6c2.3-0.5,4.1-1,6.2-2.1c1-0.5,1.8-0.8,2.8-1.3c0,0,0,0,0.3,0
		c-0.3-0.3-0.3-0.3-0.5-0.8c-0.8-0.8-1.8-2.6-1.8-4.7c0-1.6,0-1-0.5-1.6c-0.5-0.5-1.8-1.6-2.3-3.4c-0.5-2.6-2.1-7.8-1.8-12.4
		c-0.5-0.3-1.3-0.8-1.8-1c-0.3-0.3-1.8-3.6-2.1-3.9c-0.8-1.3-5.9-2.1-7.5-2.1c-1,0-3.9,1-5.2,1.3c-2.1,0.5-3.4,0.3-4.7-0.5
		c-1.6-0.8-2.3-1.8-3.6-2.3c-1.8-1-3.4-0.8-5.2-0.5c-1,0.3-2.6,2.3-3.1,2.8c-0.5,0.5-4.9,0-5.9,0c-2.1,0-2.6-1-3.1-2.8
		c-2.3,0,0.5-4.7-3.4-2.8c-1.8,0.8-3.4-1.8-4.4-2.3c-1.3-0.5-4.7,0-5.9,0c-2.3,0-4.1-0.3-5.7-0.8
		C813.9,314.9,813.9,314.9,813.6,314.9L813.6,314.9z"/>
	<path id="trentino-alto-adige_1_" class="st0" d="M757.7,172.2c-0.5,0.3-1,0.8-1.6,1.3c-0.8,0.8-4.1,1.3-5.7,1.6
		c-2.1,0.5-2.8,1.3-4.1,2.3c-0.8,0.8-4.7,1.3-5.9,1.6c-2.1,0.5-3.6,1.3-5.7,2.3c-1.8,0.8-4.9,0-6.2,0.8c-2.6,1.3-3.4,1.8-5.2,3.6
		c-1,1-3.9,0.8-5.9,0.8c-2.1,0-4.1,0-6.2,0c-1.8,0-2.8,1.6-5.2,1.6c-2.6,0-4.1-0.3-5.7,1.6c-0.8,1.3-2.6,1.6-3.6,3.6
		c-0.5,0.8-3.4,1.8-4.4,2.3c-1.8,0.8-3.4,1.3-4.7,2.3s-4.7,1.8-5.9,2.3c-1.6,0.8-3.4,1.6-4.9,2.3c-2.1,1-2.6,3.1-4.4,3.9
		c-1.3,0.8-2.8,2.1-4.4,2.8c-2.1,1-3.1,1.3-5.9,1.3c-2.6,0-4.4,0-6.5-0.5c-1.8-0.5-2.8,1.6-3.6,2.3c-1,1-2.1,2.1-3.4,3.1
		c-1,1-4.7,0.3-5.7,0c-2.1-0.5-2.6-1-3.9-2.3c-1.3-1.3-1.3-3.4-2.8-4.7c-0.3-0.3-0.5-0.3-0.8-0.5c-1.8-0.8-3.1-1.3-4.9-0.8
		c-2.1,0.5-0.5,2.8-3.1,3.6c-2.3,0.5-3.9-1-4.7-2.8c-0.8-1.6-2.3-3.6-3.4-4.7c-0.5-0.5-4.1-1.6-5.2-1.6c-2.6,0-3.6,0-4.7,1.3
		c-1.3,1.3-2.8,1.3-3.9,2.3c-1,1-1,2.8-2.1,3.9c-1.8,1.8-3.1,2.8-4.4,4.1c-0.8,0.8-5.4-2.8-5.9-3.4c-1.8-0.8-2.1-3.9-1.6-5.7
		c0.5-2.6-2.1-2.1-3.9-2.1c-2.1,0-3.9,0-5.9,0c-1.6,0-2.6,2.1-2.8,3.1c-0.5,1.8-1.3,3.4-2.1,4.4c-0.8,1.8-1.8,2.1-2.8,3.4
		c-1.8,1.8-3.6,2.1-5.2,3.6c-1.6,1.6-3.6,0.5-5.2-0.5c-1.8-1-2.6-1.8-4.7-2.8s-3.4-1.3-4.7-2.1c-1.6-0.8-2.1-1.6-4.1-2.1
		c-2.1-0.5-4.9,0-6.5,0.5c-1,0.3-2.6,1.8-3.9,2.3c-1.3,0.8-3.6,0.8-5.2,1.3c-1.6,0.3-3.1,3.1-4.4,3.6c-1.6,0.8-4.1,0.5-5.9,0.5
		c-2.3,0-4.7,0-6.7,0c-2.1,0-3.1,0.3-4.4,0.8c-0.5,0-1-0.3-1.6-0.5c-1-0.3-3.6,2.8-3.9,3.9c-0.8,1.8-2.1,0.5,0.5,2.8
		c1.6,1.6,1,1.6-0.5,3.1c-1,1-4.1,0.8-5.7,1.3c-2.1,0.5-3.4,0.3-5.2,1.3c-0.5,0.3-1.6,4.7-1.6,4.7c-1,1.8-2.1,1-2.1,3.9
		c0,1.6,0.8,3.9,0.8,5.9c0,1.3-2.1,3.1-2.3,4.4c-0.5,2.3-0.8,2.6-2.3,3.9c-1,1-0.3,4.4,0,5.7c0.5,2.1-0.3,4.1-0.8,5.9
		c-0.5,2.1-1.8,2.6-2.8,3.6c-1.3,1.3-1.8,2.1-3.1,3.4c-1.6,1.6-0.8,2.6-3.1,3.1c-1.3,0.3,0.3,4.9,0.3,5.2c0.5,2.1,0,2.8-1,4.1
		c-1.3,1.3-2.6,1.6-3.6,2.8c-1,1-4.9-0.5-5.7-0.8c-1.6-0.5-3.1-1.8-5.7-2.3c-2.6-0.5-3.4-0.3-5.2-0.8c-2.6-0.5-4.4-0.3-5.9,0.5
		c-1.6,0.8-3.6,0.8-5.2,1c-2.3,0.5-3.9-0.3-5.9-0.3c-2.3,0-2.8-1.6-4.4-2.3c-1.3-0.8-4.7,0.3-5.7,0.5c-1.8,0.5-3.6-1-4.4-1.6
		c-1.6-1.6-1.6-2.1-3.6-3.1c-1.6-0.8-4.7,0.5-6.5,0.5c-2.8,0-4.4-0.8-6.5-1.3c-1.6-0.3-1.8-3.1-2.1-3.4c-0.3-0.8,2.8-3.1,3.1-3.6
		c1.3-1.3,1.8-1.6,1.3-3.9c-0.3-1.6,2.8-1.8,3.1-3.4c0.3-1-3.4-2.1-3.9-2.3c-2.8-0.8-4.4-0.3-7.2-1.6c-1.8-0.8-2.6-3.4-3.6-4.4
		c-1.3-1.8-2.8-2.6-5.7-3.4c-2.6-0.8-3.6,0.5-6.5,0.5c-2.1,0-4.7-1.3-7.2-1.3c-2.3,0-2.8,2.1-3.1,4.1c-0.3,1.3-3.9,2.3-5.7,2.8
		c-0.8,0.3-2.3,3.4-3.4,4.7c-1.8,2.3-2.8-1.3-3.1-2.3c-0.5-1.8-3.6-1.3-5.2-1.3c-2.3,0-3.9,0.8-6.5,0.8c-2.1,0-3.6-1.8-4.7-3.4
		c-1.3-1.8-2.1-1.8-4.4-0.8c-1.6,0.8,0.5,3.6,0.5,5.7c0,1.6-2.3,2.1-2.8,3.6c-0.5,2.1,1,3.1-0.8,4.7c-1.3,1.3-1.8,3.1-2.8,3.9
		c-1.8,1.8-2.3,1.6-2.3,3.6c0,2.6,1,2.3,1.6,4.7c0.3,1,1.6,1.8,1.6,4.4c0,2.6-0.3,3.1-1,4.7c-0.5,1.3-3.6,2.1-4.9,2.3
		c-2.3,0.5-2.6,1-2.1,3.1c0.5,1.8,2.1,1.3,2.1,4.1c0,2.6,0.8,2.6,0.8,5.2c0,1.6-2.6,2.3-3.9,2.8c-2.3,0.5-1.6,2.3-0.8,3.6
		c0.5,0.8,1.6,0.8,2.3,1.3c1.3,0.8-2.8,1.6-4.4,1.6c-2.8,0-3.1,0.5-3.1,3.4c0,1,2.1,2.8,2.3,3.6c0.8,1.6,1.3,3.6,2.1,4.7
		c1,1.8,0,3.1,2.3,3.6c2.3,0.5,5.2,0,7.5,0c2.8,0,4.4-0.3,5.9,1.3c0.8,0.8,1.3,3.6,1.6,4.4c1,2.3,2.8,0.8,3.6,3.6
		c0.5,2.1,0,4.7,0,6.7c0,2.3-1,3.1-2.1,4.4c-1,1.3-1.3,3.6-1.3,5.7c0,2.3-0.5,3.6-1.3,5.2c-1,2.1-2.6,2.1-4.7,1.6
		c-1.6-0.5-2.1-2.8-3.1-3.9c-1.8-1.8-3.1,0-4.1,0.8c-0.3,0.3-0.5,0.5-0.8,0.8c0.3,0.8,0.8,2.3,1.6,3.9c1,2.1,2.3,4.1,2.8,4.7
		c1.3,1,3.1,3.1,4.1,4.1c1.3,1.3,2.6,2.1,4.4,2.8c2.6,1.3,2.1,1.3,5.7,1.3c1,0,1.8,0.3,2.3,0.5c0.5,0.3,1.6,0.5,2.1,1
		c1.3,0.8,2.6,1.6,2.8,1.6c2.8,1.6,3.6,2.1,5.7,2.6c2.6,0.8,4.7,0.5,7.2,1.8c2.6,1.3,4.1,2.1,5.7,3.9c1.6,1.6,3.6,2.6,5.7,4.7
		c1,1,1.6,1.6,2.3,2.3c0.8,0.8,1.3,2.3,1.8,3.9c0.3,1.3,0.8,2.1,1,3.1c0.3,1,0.8,2.6,0.8,4.4c0,2.3-0.3,3.9-0.8,5.2
		c-0.5,1.3-1,2.1-1.8,3.4c-1.8,3.6-2.3,4.1-4.4,6.2c-1.6,1.6-2.8,3.1-5.2,4.4c-2.8,1.3-5.9,1.6-7.2,1.8c-2.1,0.5-3.4,0.5-4.1,0.8
		c-0.5,0-0.5,0-1.6,1c-1,1-2.1,1.3-2.6,1.3l0,0c0,0,0,0-0.3,0.5c-0.3,0.5-0.3,1,0.3,2.1c0.5,1,1,2.1,1.8,3.4c0.5,1.3,0.8,2.1,1,2.6
		c0.3,0.5,0,0.3,0.3,0.3c1.8,0.5,2.1,1.6,2.6,2.3c0.5,0.8,0.8,1.6,0.8,2.3c0.5,1.6,0.8,3.4,0.8,4.7c0,0.5,0.3,1,0.8,2.1
		s0.8,2.8,0.5,4.9c-0.8,2.6-1,3.6-1,6.7c0,2.1-0.5,3.4-0.8,4.1c-0.3,0.8-0.3,0.8,0,2.1c0.3,0.8,2.1,2.8,2.8,6.2c0.3,0.8,0,1.3,0,1.8
		c0,0.5-0.3,0.8-0.3,1c-0.3,0.8-0.5,1.3-1,2.1c-0.8,1.3-1.6,2.8-1.8,3.1c-1,2.1-0.8,3.4-0.8,6.7c0,1.8-0.5,3.4-1,4.7
		c-0.5,1.3-0.8,2.1-0.8,3.4c0,2.6,0.5,4.4,0.5,8c0,1.3-0.5,2.1-0.8,2.6c-0.3,0.5-1,1.3-1.6,2.1c-1,1.3-2.1,2.6-2.1,2.6
		c-1,1.3-1.3,3.4-2.6,5.9c-1.6,3.1-3.4,5.2-3.9,6.2c-1.3,2.6-1.8,4.7-3.9,7c-1.8,1.8-2.6,3.1-4.7,5.2c-1.6,1.6-2.3,2.6-2.6,4.4
		c-0.3,1.6-0.8,2.3-0.8,3.1c0,0.5,0,1,0.3,2.3c0.8,3.4,0,7,0,9c0,1.8,0,2.8,0,2.8c0.3,0,0.3,0.3,0.8,0.3c1.6,0.3,1.8,1,2.3,1.8
		c0.5,0.8,0.8,1.3,1.3,1.8c0.8,1.3,1.3,2.6,1.6,2.8c0.5,0,1.3,0.3,2.1,0.8c0.8,0.8,0.8,1.6,0.8,2.1c0,1,0,1.8-0.5,3.4
		c-0.3,1.6-0.5,2.6-0.8,3.9c-0.3,1.3-0.5,2.3-1.3,3.6c-1.6,2.8-3.1,3.9-4.4,5.2c-0.3,0.3-0.3,0.5-0.5,1.6c0,1,0,2.3,0,3.6
		c0.3,0.3,0.5,0.8,0.8,1.6c0.8,1.3,1.6,2.8,1.6,5.2c0,1.6,0,1.6,0.3,1.8c0.3,0.3,1,0.8,2.3,2.1c1.3,1.3,1.8,2.3,2.1,2.6
		c0.3,0.3,0.3,0.5,1.3,0.8c2.8,0.8,4.7,0.5,7.2,1.8c2.1,1,2.8,2.8,3.4,4.7c0.5,1.8,0.5,3.4,0.5,4.7c0,1.8,0.3,2.6,0.3,2.8
		c0,0.3,0.3,0.8,1,1.6c0.3,0.3,0.8,0.3,1.6,0.3c0.8,0,1.8-0.3,2.8-0.5c1.3-0.3,1.8-0.8,2.8-1.3s2.1-1.3,3.9-1.6c0,0,0.8-0.3,1.3-1
		c0.5-0.8,1.3-1.6,2.1-2.1c1-1,2.3-1.8,3.9-2.6c1.6-0.8,2.8-1.6,3.6-1.8c1.6-0.8,2.6-2.1,5.2-3.4c1.3-0.8,2.1-1,2.8-1.6
		c0.8-0.5,2.1-1,3.9-1.3c3.6-0.8,6.7-0.3,8.5-0.5c1.8-0.5,3.1,0,4.7,0c1.6,0.3,3.1,0.5,3.9,0.5c1.6,0,2.6-0.3,2.8-0.3
		s0.8-0.5,1.6-1.3c0.8-0.8,1-0.5,1-0.8c0.3,0,0.5-0.3,0.5-0.3c0.3,0,0.5,0,0.8,0c0.8,0,1.3-0.3,2.1-0.3c0.5,0,1,0,1.6,0
		c0.3-0.3,0.5-0.5,1-0.8c1.3-0.5,2.8-0.3,4.1,0.3s4.1,0.5,7.2,2.1c0.8,0.3,2.1,0.8,3.4,1.8c0.8,0.5,1.6,1,2.1,2.1s0.5,2.3,0.3,3.6
		s-0.5,4.4-1,7.2c-0.5,2.3-1,4.4-1,6.7c0,3.6-1,5.7-2.6,8.5c-0.8,1.6-1.6,2.8-2.1,3.6s-0.8,1.3-1,2.6c-0.8,3.1-2.3,5.4-3.6,7.8
		c-0.5,1-0.5,1.8-0.5,2.1c0,0.3,0,0.3,0.5,0.8c0.5,0.3,1.8,1,3.1,1.6s2.3,1.3,3.4,2.3c0.3,0.3,1.3,1,2.6,1.8
		c1.3,0.8,2.6,1.6,3.6,2.8c1,1,3.1,1.8,5.2,3.9c0.8,0.8,1.3,1,1.3,1c0.3,0,0.5,0.3,1.8-0.3c1-0.3,1.6-0.5,2.1-1s1.6-1.3,3.1-2.1
		c1.8-1,2.6-1.8,5.7-3.4c-0.5,0.3,0.3-0.5,0.8-1.6c0.3-0.5,0.5-1.3,1.3-2.1c0.8-0.8,2.3-1.3,3.6-1c1.8,0.5,3.1,0.8,4.1,1.8
		c1,1,1,1.3,2.1,2.3c0.8,0.8,0.8,1.3,1,1.8c0.3,0.5,0.5,1,0.8,1.3c0,0.3,0,0,0.3,0.3c1.8-0.8,3.1-1.6,5.2-2.6
		c1.6-0.8,3.1-0.8,4.4-0.8s2.3,0,3.6-0.5c1.6-0.5,1.6-0.5,1.8-0.8c0.3-0.3,1-1.8,2.6-3.6l0.5-0.5l0.8-0.3c2.1-0.5,1.3,0,2.8-1.6
		c1-1,1.6-2.1,1.6-4.4c0-1.8,0.5-3.1,0.8-4.4c0.3-1.3,0.3-2.1,0-3.1c-0.5-1.8-1.6-5.7-0.5-9c0.8-2.6,1.3-4.4,2.6-6.7
		c0.8-1.8,2.1-2.6,3.1-3.4c0.8-0.5,1.3-1,1.3-1.3c0.8-1.6,1.8-2.6,2.3-3.1c0.5-0.5,0.8-0.8,1-2.1c0.8-3.1,1.6-4.4,2.3-6.7
		c0.5-1.6,0.5-4.4,1.8-7.2c0.8-1.3,1.3-2.1,1.8-2.8c0.5-0.8,0.5-1,0.3-1.8c-0.3-0.8-0.5-2.3-0.8-4.1c0-0.8,0-1.8,0-2.6
		c0-0.8,0.3-2.1,1.3-3.1c0.3-0.3,0.5-0.8,0.8-1.8c0.3-1,0.5-2.8,2.1-4.4c-0.3,0.3,0.5-1,1.3-2.3c0.5-0.8,1-1.3,2.1-2.1
		c1-0.8,2.3-0.8,3.6-0.5c1.3,0.3,2.6,0.5,3.9,1.3c1.3,0.8,2.3,2.1,3.1,3.6c0.5,1,0.5,1,1,1.6c0.5,0.5,1.6,1,2.8,2.3
		c1,1,1.8,2.1,2.3,2.6s0.5,0.5,1,0.5c0.8,0,1,0,1.3,0c0-0.3,0-0.8,0.8-2.3c0.8-1.6,1-2.6,0.3-4.9c-0.3-1-0.3-2.1-0.3-2.8
		c0-1,0.5-1.8,1-2.3c0.8-1,1.3-1,1.8-2.1c1-2.1,1.3-2.6,2.1-5.7c0.5-2.1,1.3-4.7,3.4-6.7c1.3-1.3,2.8-2.1,4.4-2.3s3.1-0.3,4.7-0.3
		c3.6,0,5.9,1,7.8,0.8c1.8-0.5,2.8-1,3.4-2.1c0.8-1.6,2.1-2.3,3.1-3.1c1-0.8,1.3-1.3,1.6-1.6c0.5-0.8,1-1.8,2.1-2.8
		c0.5-0.5,1-1,1.6-1.6s1-1,2.3-1.3c2.3-0.5,5.9-0.8,8.5,1.8c2.1,2.1,2.6,4.4,3.9,5.7c1.8,1.8,2.3,3.1,3.9,4.7
		c1.3,1.3,2.6,2.1,4.4,3.9c1,1,1.6,2.1,2.1,2.6c0.5,0.5,0.5,0.5,0.8,0.5c2.1,0,5.2-0.5,7.8-0.5c1.6,0,1,0,1.6-0.5
		c0.5-0.5,1.8-1.8,3.9-2.3c1.6-0.3,2.6-1.3,5.2-2.6c1-0.5,1.6-1,1.8-1c0-0.3,0.3-0.5,0.3-1.8c0-2.6-0.8-4.1-1.6-7.2
		c-0.5-2.3-1-5.2-1.6-6.2c-0.5-0.8-1-2.1-1.3-3.6s-0.5-3.9,1-5.7c1-1.3,1.3-2.3,1.3-5.7c0-1.6-0.3-2.8,0.3-4.7
		c0.5-1.6,1.8-3.1,3.4-4.1c0,0,1-0.8,2.1-1.6c1-0.8,2.6-1.6,4.7-1.6c2.8,0,5.7,0,8.5,0c3.1,0,5.7,0,7.2-0.8c2.6-1.3,4.9-2.1,8.5-2.1
		c3.1,0,4.1-0.8,7.2-1.6c0.5-0.3,1.8-0.5,2.8-0.8c1-0.3,2.1-1,2.1-1.3c1.6-1.6,2.6-2.6,4.7-4.7c0.3-0.3,0.5-1,1-2.1
		c0.5-1,1-2.3,2.3-3.6c1-1,2.3-1.8,3.1-2.3c0.3,0,0,0,0.3-0.3c-0.3-0.8-0.5-1.8-0.8-2.6c0-1,0-2.3,0-3.9c0-1,0-2.8,0-4.1
		c0-1-0.5-1.8-0.5-2.1c-1.6-1.6-3.9-3.9-3.9-7.5c0-2.1,0.5-3.6,1-4.7c0.5-1,0.8-1.8,0.8-2.1c0-1.8,0-3.4,0-3.6c0,0,0,0-0.5,0
		c-0.8-0.3-2.1-0.3-3.4-0.8c-1.3-0.5-2.8-0.5-4.4-1.3c-2.3-1.3-3.6-2.1-6.2-2.6c-0.5,0-2.3-0.5-4.4-1c-1-0.3-1.8-0.5-2.6-1
		c-0.5-0.3-0.8-0.5-1.3-0.8s-1-1.3-1-2.3c0-2.1,0.8-3.4,1-4.4s0.5-1.3,0.3-2.3c-0.3-0.8-0.5-1.3-1-1.8c-0.5-0.5-1.3-1.3-2.1-2.6
		c-0.3-0.5-1-1.8-1.6-3.1c-0.5-1.3-1-2.6-1-4.4c0-1.8,0-3.1,0.5-4.7c0.5-1.3,1.6-2.3,2.6-3.4c0.8-0.8,1.6-1.6,2.3-2.3
		c0.5-0.5,0.8-1.3,0.8-1.3c0-0.5-0.3-1.8-0.8-3.1c-0.3-1.3-0.8-2.8-0.5-4.7c0.8-3.4,2.3-4.9,3.1-6.2c0.8-1.6,1.8-2.6,2.8-3.4
		c1-0.8,1.6-0.8,2.6-1.6c1.6-1,3.1-1.6,4.1-2.1c0.5-0.3,0.8-0.5,1-0.5c0-1.8,0.5-3.4,1-4.7c0.3-0.8,0.5-1,0.5-1.6c0-0.3,0-0.3,0-0.3
		c0-0.3-0.3-1.6-0.5-2.1c0-0.3,0-0.3-0.3-0.3c-1,0.3-2.1,0.5-3.4,0.5c-0.8,0-1.8,0-2.8,0c-1-0.3-2.1-0.3-3.1-1.3
		c0.3,0.3,0,0-0.3-0.3c-0.3-0.3-0.3-0.3-0.5-0.5c-0.5-0.5-1-1-1.6-1.6c-0.5-0.5-1.3-1-1.6-1.6c-0.3-0.3-0.3-0.5-0.5-0.8
		c0,0-0.3-0.3-0.3-0.5c0,0-0.3-0.3-0.3-0.5c0,0,0,0,0-0.3c0-0.3,0-0.5,0-0.5v-0.8c0,0,0.5-1,0.8-1c0,0,0.3-0.8,0.8-1.8
		c0.5-1,0.8-3.4,2.8-4.4c0.5-0.3,0.5-0.3,0.8-0.3c0.3,0,0.3,0,0.5,0c0.3,0,0.8-0.3,1.3-0.3c1-0.3,2.3-0.3,3.4-0.8
		c0,0,1.8-0.5,3.4-1.3c0.8-0.3,1.3-0.8,1.8-0.8c0.3-1.3,0.3-2.3,1.6-3.6c0.8-0.8,1.6-1.3,2.6-1.6c0.8-0.3,1.8-0.3,2.8-0.3
		c2.3,0,4.4,1,5.4,1.8s1,1.3,2.1,1.8c1,0.5,1.6,0.8,1.8,0.8c0,0,0.3,0,1-0.8c1.8-1.8,3.9-2.8,5.2-3.9c1.6-1.6,2.8-2.6,3.4-3.9
		c0.5-1.6,1-2.6,1.8-3.6c0.3-0.5,0.5-1.3,0.8-1.6c0-0.3,0.3-0.5,0.3-0.5c0-0.8,0-2.1,0-3.6c0-1.6,0-3.4,0.8-4.9
		c0.3-0.5,0.8-1.6,1.6-2.8c0.8-1.3,1.3-2.6,3.1-3.4c1.6-0.8,2.3-1.6,3.4-3.4c0.8-1.6,1.8-2.1,2.6-3.1c0.8-1,1.3-1.8,1.3-1.6
		c0.5-1.6,1-2.6,1.3-3.4c0.3-0.8,0.5-1.3,0.5-2.8c0-3.1,0-4.7,0-7.2c0-1,0-2.1,0.5-3.1c0.5-1,1.3-2.1,2.3-2.3
		c1.8-0.8,3.1-0.5,4.9-0.5c2.3,0,3.9,0.5,5.2,1.3s1.6,1.6,2.6,2.1c1.6,1.3,2.8,1.8,5.2,3.1c1,0.5,1.3,1,1.8,1.6s1,1,1.6,1.8
		c0.5,0.8,1,1.3,1.3,1.8l0,0c2.1,0.5,4.1,1.3,5.9,3.4c1.6,1.6,3.4,3.1,4.1,6.2c0.5,2.1,1,3.4,2.6,4.9c0.8,0.8,0.8,1,1,1.6
		c0.3,0.5,0.5,0.8,0.8,1.3c0.3,0.3,0,0,0.3,0.3c1.6-1,3.9-2.8,6.7-3.6c1.8-0.5,3.1-2.1,6.2-2.8c1.3-0.3,3.6-2.3,7.5-2.3
		c3.1,0,6.2,0.5,8.5,0.5c2.8,0,5.4,0,7.2-0.5c1.3-0.3,1.6-0.5,1.8-0.8c0,0,0.3-0.5,0.3-1.8s0.3-2.3,0.8-3.1c0.5-1,1.3-1.6,1.8-2.1
		c1-0.8,1.6-0.8,2.1-1.6c1-1.6,2.3-2.3,3.4-2.8c1-0.5,1.3-1,1.8-1.6c0.3-0.3,1.3-2.3,2.1-4.4c0.3-0.8,0.8-1.6,1-2.1
		c-1.3-0.5-3.1-2.1-3.9-2.6c-1.3-1.3-1.6-3.1-2.8-4.4c-1-1-2.6-1.8-3.6-2.8c-1-1-2.1-1.6-2.8-3.1c-1-1.8-1.6-1.8-1.6-4.7
		c0-2.6-1-2.6-1.6-4.9c-0.5-2.6,0.3-3.4-1.3-4.7c-1-1-2.1-2.3-3.4-3.6c-1.8-1.8-2.1-2.3-4.4-2.8c-1.8-0.5-4.1,0-5.9,0
		c-3.1,0-3.6-0.8-3.6-3.6c0-2.1,0-3.9,0-5.9c0-2.3,0.3-3.9,1.3-5.2c1-1.6,0.8-3.6,0.5-5.2c-0.8-2.6,0-3.6-1.6-5.2
		c-1-1-0.8-3.9-0.8-5.7c0-2.3,0.3-3.9-1.3-5.2c-1.3-1.3-2.8-1.3-5.2-0.8c-1.8,0.5-3.9,0.5-5.9,0.5c-1.6,0-1.8,2.6-3.1,3.1
		c-1,0.5-3.1,2.3-3.4,2.3c-1.6,1.6-1-3.9-1.6-5.9c-0.5-2.3,1-4.1-2.1-4.1c-2.1,0-3.9,0-5.9,0c-2.3,0-2.6-2.1-2.1-3.9
		c0.3-1.3,2.1-3.4,2.8-3.9c1-1,0.3-4.9,0-5.7c-0.5-2.1-1.3-3.1-3.4-3.6c-1.3-0.3-2.6-3.1-3.1-3.6c-1-1-1.3-4.1-1.3-5.7
		c0-1.8-0.8-4.1-1.3-5.2c-1-2.1-2.1-1.3-0.8-3.9c1-1.8,2.8-2.3,4.1-3.6c1.3-1.3,3.4-1.6,4.7-2.3c1.8-1,2.8-1.6,5.2-1.6
		c2.1,0,3.9-0.8,5.7-1.3c2.6-0.5,3.4-2.1,3.9-3.9c0.8-2.8-0.8-3.6,1.6-4.7c2.3-1,3.1,0.3,3.1-2.8c0-1.6-2.6-1-0.3-3.1
		c1-1-1-2.8-2.1-3.4c-1.3-0.5-1.8-2.6-2.3-3.6c-0.5-0.8-0.8-1.3-1-1.3C758,172.2,758,172.2,757.7,172.2L757.7,172.2z"/>
	<path id="friuli-venezia-giulia_1_" class="st0" d="M884.4,326c-1.6,0-2.8,0.5-3.6,1c-1.3,0.5-0.8,1.6-1,2.3h0.8
		c-0.5,3.4,0.8,9,1.6,11.9c0,0.3,0,0.3,1,1c0.8,0.8,2.1,2.8,2.1,5.2c0,0.8,0,0.5,0.5,1.3c0.5,0.5,1.8,1.8,2.1,3.9
		c0.3,0.8,0,1.8-0.3,2.3c-0.3,0.5-0.8,1-1,1.3c-0.8,0.5-1.3,1-2.1,1.3c-1.3,0.8-3.1,1.3-3.1,1.3c-2.6,1.3-4.9,1.8-7.2,2.3
		c-3.4,0.8-4.4,1-6.7,2.1c-2.3,1-4.4,1.8-6.7,2.3c-1.8,0.5-3.4,0.5-4.7,0.5c-1,0-1.6,0.3-2.1,0.5c-1,0.5-0.8,0.5-0.8,0.8
		c0,0.3,0,1,0.3,2.1l0,0c0.3,0.3,0.8,0.8,1.3,1s1,0.8,1.6,1.3c0.5,0.5,0.5,0.5,1,0.8c0.8,0.8,1,0.5,2.1,1.3c0.5,0.3,1.3,1,2.1,1.8
		c0.8,0.8,0.8,1.8,1,2.8c0.5,1.6-0.5,2.8-1.3,3.6c-0.8,0.8-1.6,1-2.3,1.6c-1.6,0.8-2.6,1.3-3.4,1.3c-3.4,0.8-2.8,1.3-4.9,3.4
		c-1,1-2.3,3.1-2.8,4.4c-0.8,1.3-1.6,1.6-2.1,1.6c-0.5,0-1,0.3-1.6,0.3c-1,0-2.1,0-3.1-0.3c-1-0.3-2.1-0.3-2.8-0.5
		c-0.3,0-0.8,0-0.8-0.3c0-0.3,0,0-0.5,0c-1.8-0.5-2.8-1.3-3.4-1.8c-0.5-0.5-0.8-0.5-2.3-0.5c-1,0-0.8,0-1,0.5
		c-0.3,0.3-0.5,1.3-1.3,2.6c-0.8,1.6-1.3,2.1-1.3,2.1c0,0.3,0,0.3,0.3,0.8c0.5,1.3,0.8,2.8,0.3,3.9c-0.5,1-1.3,1.8-2.1,2.3
		c-1.6,1-3.1,1.8-3.9,2.3c-1.3,0.5-1.6,1-1.8,1c-0.3,0-0.3,0.5-0.3,2.3c0,2.3-1.8,4.4-3.1,5.2c-1.3,0.8-2.8,1.3-3.4,1.6
		c-2.8,1.6-4.7,2.1-5.4,2.8c-2.1,2.1-2.1,2.1-2.6,4.4c-0.5,2.3-1.8,5.2-4.1,7.5c-1.3,1.3-3.4,3.9-4.9,5.7c-1.3,1.3-1.8,1.8-1.8,1.8
		s-0.3,0.5-0.3,2.6s-0.3,3.6-1.3,4.9c-1,1.3-1.6,1.8-2.3,2.6c-0.8,0.8-0.8,0.8-0.8,1.6c0,0.5,0,1.6,0,3.4c0,2.8,0.5,4.9,1,7.2
		c0.5,2.1,1.3,4.9,1.8,6.7c0.3,0.8,0.3,0.8,0.5,1c0.3,0.3,1,0.5,2.6,0.5c2.8,0,6.5,0.5,9,1.3c3.1,0.8,5.2,3.1,6.2,5.2
		c0,0,0.3,0.3,1.3,0.8s2.8,2.1,3.4,4.1c0,0,0,0,0,0.3l0,0c0,0,0.3,0.3,0.3,0.5c0.3,0.5,0.5,1,1,1.8c0.8,1.3,1.6,2.6,2.1,3.4
		c1.6,3.1,3.4,5.7,4.1,9c1,3.9-0.3,7.5-2.3,9.8c-0.5,0.5-0.8,1-1,2.1s-1,2.3-2.3,3.6c-1,1-1.6,3.4-3.9,5.7c0,0-1,2.1-1.6,4.4
		c-0.5,2.3-0.8,4.9-0.8,6.2c0,3.6-1.8,5.7-2.3,8c-0.5,2.6-1,4.7-1.6,7.2c-0.5,2.6-1.8,4.7-2.3,6.7c-0.8,3.1-1.6,5.7-3.1,8.5
		c-0.8,1.6-1.6,2.8-2.1,4.1l0,0c0.5,0.3,1.3,0.5,2.1,0.8c0.5,0.3,1,0.3,1.8,0.8c2.1,1,4.7,1.8,7,3.9c2.1,2.1,2.8,4.4,3.4,5.2
		c0,0,1,0.5,2.3,1s2.8,1,4.4,2.3c0.8,0.8,1.6,1,2.6,2.1s2.1,2.3,2.6,4.1c0.5,2.3,1.3,4.9,1.8,6.7c0.8,2.6,1,4.4,1.8,6.7
		c0,0.3,0.5,1,1,1.6c0.5,0.5,1.3,1,1.6,1c0.5,0.3,0.5,0.3,0.8,0.3c0,0,0,0,0.3,0l0.3,0.3c0.3,0.3,0.3,0.3,0.5,0.5
		c0.5,0.3,1,0.8,1.6,1.3c0.5,0.5,1,1,1.6,1.3c0.5,0.3,1,0.8,0.8,0.5c2.3,1.3,3.6,1.6,6.2,2.1c1.8,0.5,5.2,1.3,6.7,1.8
		c2.1,0.5,4.9,0.5,7.8,0.5c1,0,3.6-1,7.2-1c0.8,0,1.3,0.3,2.1,0.3c0.5-2.1,1.8-5.2,2.6-6.7c0.5-1.3,1.8-2.1,2.8-2.3
		c1-0.3,1.8-0.5,2.8-0.5c0.8,0,1.8,0,2.3,0s1.3,0,1,0c0.8,0,0.5,0,1.8-0.8c0.5-0.3,1.6-0.5,2.6-0.5c1,0,2.1,0.5,3.1,1
		c2.3,1.3,3.9,2.1,5.7,2.1c3.6,0,6.7,0,9.6,1.6c2.6,1.3,4.4,3.1,6.2,3.9c0,0,1.6,0.3,3.1,0.5c1,0,1.8,0,2.6,0c0-0.3,0-0.3,0-0.3
		c0-1.3-0.3-3.1-0.5-3.4c-0.3-1-0.3-2.3,0.5-3.6s2.1-1.6,3.1-1.8c1.8-0.3,3.4,0.3,4.9,0.5c1,0.3,0.8,0.3,1,0.3c0,0,0.5-0.8,1.6-1.8
		c1.3-1.3,2.8-2.1,3.9-2.3c1-0.3,1.6-0.8,1.8-1c0.5-0.5,1-1,1.6-1.3c0.5-0.3,1.8-0.8,3.1-0.3c1.3,0.5,1.8,1.3,2.1,2.1
		c0.3,0.8,0.8,1.6,0.8,2.6c0.5,2.1,0,3.9-0.5,5.2c-0.5,1.3-1,2.6-1.3,3.4c-0.5,2.1-0.5,4.4-0.5,7.2c0,2.1,0.5,4.4,0.5,7.8
		c0,1,1.3,3.1,2.1,3.9c1.6,1.6,1.8,3.4,1.8,4.9c0.3,1.6,0,3.4,0,4.1c0,1.3,0,2.1,0,2.1c0.3,0,0.8,0.3,1.6,0.5c1.6,0.3,2.1,1,2.3,1.8
		c0.3,0.8,0.8,1.3,1,1.8c0.3,0.5,0.5,1.3,0.8,1.6c0,0.3,0.3,0.3,0.3,0.5c1.3,1.3,1.3,1,2.6,2.1c0.5,0.5,1,1.3,1.3,2.1
		c0.3,0.8,0.5,1.6,0.8,2.8c0.5,2.1,0.3,3.9,0.3,4.9c0,1-0.3,1,0.3,1.8c0.8,1.6,1,2.8,1.3,4.4c0.3,1.3,0.5,2.3,0.8,2.8
		c0.3,0,0.8,0.8,1.6,1.3c1,0.8,1.8,1,3.1,2.1c1.3,1.3,1.6,2.6,2.1,3.9c0.5,1.3,1,2.8,1.3,3.1l-1.3,0.8c1.6-0.5,2.8-0.8,5.2-0.8
		c2.1,0,1.6-2.6,1.3-3.9c-0.5-1.8,1.3-3.1,2.3-3.6c0.8-0.5,2.1-3.4,2.3-4.4c0.3-1,2.8-2.3,3.6-2.8c1-0.5,1.6-1.6,2.1-2.3
		c0.5-0.3,1-0.5,1.6-0.8c2.3-1,0-3.1-0.8-3.6c-2.1-1,0.8-3.6-2.3-3.6c-0.8,0-2.3,3.6-2.3,3.9c-1,2.1-2.1,3.1-3.6,3.9
		c-1.6,0.8-3.9,0.8-4.7,0.8c-1.3,0-2.8-2.8-3.6-3.6c-0.8-0.8-1.6-3.1-2.1-4.1c-0.8-1.6-1.8-1.6-1.3-3.9c0-0.3,2.8-2.1,3.4-2.8
		c0.8-1.6,1.8-2.3,3.1-3.6c1.3-1.3,2.1-2.6,2.3-4.4c0.5-2.3,1-2.6,2.8-4.4c0.3-0.3,0.5-0.3,0.8-0.5c1.6-0.8,2.1-2.1,2.3-3.6
		c0.3-1,5.9-0.3,7.2-0.3s1.6,2.8,2.8,3.1c1.6,0.3,1.8-2.8,3.1-3.1c2.8-0.8,2.8,3.4,3.4,4.4c0.5,1.8,4.4-0.8,5.2,2.1
		c0.5,2.3,0.8,2.3,3.6,2.3c1.8,0,3.4-0.5,5.7-0.5c2.1,0,4.1,0,6.5,0c1.3,0,3.6,1.3,4.7,1.6c1.3,0.3,2.6,1.8,4.4,2.3
		c1.6,0.5,3.6,0.8,5.2,1.3c3.1,0.8,3.4,0,3.9,2.8c0.5,2.1,0.8,3.6,0.8,5.9c0,0.8-1.6,1-2.3,1c-1.6,0.5,2.8,2.6,2.8,4.4
		c0,2.1-0.3,3.9,0,5.2c0.5,2.1,3.4,1.3,4.4,0.8c1.6-0.8,2.8-0.8,5.2-0.8c2.8,0,3.4-0.5,5.7-1.6c1.8-0.8,1.3-2.1,4.7-2.1
		c1.6,0,2.3-2.8,3.4-3.9c1.6-2.1,2.3-1.8,4.7-2.3c1.8-0.5,4.7-1.3,6.5-1.6c0.5,0,2.1-2.8,2.8-3.4c1.8-0.8,4.4,0.5,5.7,0.8
		c2.8,0.8-1.3-3.9-1.6-3.9c-1.6-1-3.4-1.3-4.4-2.3c-1.6-1.6-2.8-2.1-3.9-3.1c-1.3-1.3,0.5-3.4,0.8-4.4c0.5-1.6,2.3-2.3,3.1-4.1
		c0.8-1.6,1.8-2.3,3.4-3.1c2.1-1,2.8-0.5,4.7,0c2.1,0.5,3.1,1.6,4.7,2.1c0.8,0.3,2.3,2.8,4.1,3.1c2.6,0.8,3.6,1.3,5.2,2.1
		c1.8,0.8,3.4,3.4,4.4,4.4s2.1,3.1,3.1,4.4c1.6,1.8,3.9,2.8,4.9,5.2c0.8,1.8,1.8,2.6,2.8,3.6c1.3,1.3,2.6,1.6,3.6,2.8
		c1.3,1.3,1.3,2.8,2.3,3.9c1,1,3.4,0.5,4.4,1.6c1.3,1.3,1.6,1.6,1.6,4.4c0,0.5,3.1,2.1,3.6,3.6c0.5,2.1-1,3.1-2.1,3.9
		c-1.6,1.6-1,2.6-0.5,3.9s3.9,0.8,5.2,1.3c1.3,0.3,2.3,2.3,3.1,3.4c1,1,3.9,0,5.2,1c1,1-1.6,2.6-2.3,2.8c-1.8,1-2.3,1.3-2.8,3.1
		c-0.5,2.6-3.4-2.1-3.6-2.3c-0.8-1.3-3.9-0.8-5.7-0.8c-2.3,0-4.4,0-5.9-0.8c-2.8-1.3-2.3,0.8-2.3,2.1c0,2.3,1.6,2.6,3.6,3.1
		c3.4,0.8,3.1,0.8,5.7,2.1c1.8,0.8,3.9,2.1,5.2,2.3c2.1,0.5,4.1,1.6,6.5,2.1c2.1,0.5,5.4,0,7.5,0c2.6,0,3.9-1.3,6.2-1.3
		c1.3,0,2.8-2.8,3.4-3.6c0.5-1.3,1.8-3.9,2.3-4.7c0.8-1.6,2.6-2.1,3.4-3.6c0.8-1.3,1.8-2.3,2.3-3.6c1-2.1,0.3-3.4-0.8-4.4
		c-1.3-1.3-2.6-2.1-4.1-2.8c-1.8-1-3.6-2.1-5.7-3.1c-1.8-0.8-2.6-2.3-3.1-4.4c-0.3-1-1.3-4.1-1.6-5.2c-0.5-2.1-1.3-2.8-2.1-4.4
		c-0.8-1.8-1.8-3.9-2.3-5.9c-0.3-1.3-2.6-3.1-3.6-3.9c-0.5-0.3-1.3-3.4-2.1-3.9c-0.8-0.8-7.2-0.5-8.5-0.5c-1.3,0-3.4-2.6-3.9-3.4
		c-1.6-1.6-3.9-1.8-5.7-3.1c-1.8-1.3-2.1-1.8-2.8-3.6c-0.8-1.3-2.1-2.3-3.1-3.6c-1.6-2.1-1.8-2.6-3.9-3.1c-1.8-0.5-3.4-1.6-5.9-1.6
		c-2.3,0-3.6-0.5-5.9-0.5c-2.6,0-6.5-1.3-6.5-3.9c0-1.8-1.3-3.1-2.1-4.4c-1-1.8-1.8-3.6-2.3-5.9c-0.8-2.8,1-4.1,1.6-6.5
		c0.5-1.8,1.3-2.3,1.3-4.7c0-1.6,0.5-3.9,0.8-5.7c0.3-1,2.3-2.8,3.1-3.9c1-1.3,1.3-3.4,1.6-4.7c0,0,3.6-1.8,3.9-2.1
		c1.3-0.8,2.8-1.6,2.8-3.1c0-1-2.6-4.1-2.8-4.7c-0.5-1,2.6-3.4,2.8-3.6c1.3-1.3,1.3-2.6,0.8-4.4c-0.3-1.3-2.3-2.3-3.4-2.8
		c-1.6-0.8-2.1-1-4.7-1c-2.1,0-4.1,0-6.5,0c-2.6,0-2.8,1-5.2,1.6c-1,0.3-2.8,1.8-3.9,2.3c-1.6,0.8-2.8,0.8-5.2,0.8
		c-0.8,0-3.1-3.9-3.4-4.1c-0.8-1.6-3.4-2.6-4.4-2.8c-1-0.3-2.3-2.8-3.1-3.6c-1.3-1.3,1.3-4.7,1.6-4.9c1.3-1.3,2.3-1.6,3.6-2.8
		s2.1-2.3,2.8-3.6c0.8-1.3-1.8-3.1-2.8-3.6c-1.3-0.8-2.3-1.6-3.4-2.1c0.5,0.3,3.6,1.3,1.3,0c-3.1-1.6-0.8-2.6,1.6-3.1
		c1.6-0.5,2.8-2.1,4.4-2.3c1-0.3,3.1-2.1,3.9-2.8c1.8-1.3,3.6-3.1,4.9-3.9c1.6-1,3.1-1.8,4.4-2.3c1.8-0.8,3.9-1.6,4.7-3.1
		c0.5-1.3,2.8-2.8,3.9-3.6c1.8-1.6,2.8-2.6,4.1-4.7c0.5-1,2.3-1.8,3.1-3.6c0.5-1.3,3.1-2.6,3.9-4.1c1-2.1,2.1-2.6,2.3-4.4
		c0.5-2.1-1.3-3.9-1.6-5.7c-0.5-2.1-1.8-2.3-3.9-2.8c-2.1-0.5-4.1-0.3-5.9-0.8c-1.8-0.5-4.4,0-6.5,0c-1.8,0-3.9,0-5.2-0.5
		c-2.3-0.5-2.3-1.8-3.6-2.8c-1.3-1.3-2.1-2.6-3.4-3.6c-1.3-1.3-1.3-2.3-3.1-3.4c-1.3-0.8-3.6-0.8-4.9-0.5c-1.8,0.5,0.8,3.4-2.8,3.4
		c-1.3,0-1.3-2.3-3.9-2.3c-2.8,0-3.1-0.3-4.4-1.6c-1.6-1.6-1.3-2.1-3.6-1.6c-1,0.3-1.6,3.1-1.6,4.4c0,2.1-2.1,3.1-3.1,3.6
		c-2.1,1-2.6-2.3-3.4-3.6c-0.8-1.6-0.5-3.9,0-5.7c0.8-2.6,0-3.4-0.8-5.2c-1-2.1-2.6-3.4-3.6-5.2c-0.8-1.8-0.8-3.6-1.3-5.7
		c-0.5-2.1-0.8-3.1-1-4.7c-0.5-2.3,0-2.8,1.6-4.1c1.8-1.6,3.4-1,4.7-2.3s2.6-1.6,4.1-2.8c1.3-1.3,2.3-2.6,2.8-3.9
		c0.3-1.3,1.3-2.1,0.8-4.4c-0.5-1.6-1.3-2.3-0.8-4.4c0.5-1.6,2.6-1.6,4.4-1.6c2.1,0,3.4-1.3,5.2-1.3c0.8,0,3.4-1.8,3.9-2.1
		c0.5-0.3,1.6-3.6,1.6-4.4c0.3-1.3,2.3-2.8,3.1-3.6c1-1,4.1-1.3,5.2-1.6c2.3-0.5,4.1-0.8,6.5-0.8c1.8,0,3.1-1.3,3.6-2.8
		s0.5-3.9,0.8-5.2c0.8-2.8-0.3-2.8,2.1-3.9c1.6-0.8,4.4-0.3,5.9-0.8c2.3-0.5,3.4-1,5.7,0c2.1,1,2.6,1.6,4.4,2.1
		c2.1,0.5,2.8,1.3,5.2,1.3c0.8,0,2.3-3.4,2.3-4.1c0.5-2.3-0.8-3.6,1.6-4.4c1.6-0.3,1.6-2.8,1.6-4.4c0-1.3,1.3-2.6,1.3-4.7
		c0-2.3-1.3-2.6-2.3-3.6c-1.6-1.6-0.8-3.9,0.5-5.2c0.8-0.8,1.6-2.6,2.1-3.9c0.5-2.3-0.8-3.1-2.8-3.4c-2.8,0-3.9,0.5-6.7-0.8
		c-1.6-0.5-3.9-1.3-5.2-1.6c-1.6-0.5-3.6-0.8-5.2-1.6c-1.8-1-3.9-1.3-4.9-2.3c-1-1-3.6-0.5-4.7-0.3c-1.3,0.3-1.3,2.6-2.3,3.6
		c-0.5,0.5-3.1-2.6-3.4-2.8c-1.3-1.3-2.6-1.3-3.6-2.3c-0.5-0.5-4.7-0.5-5.7-0.5c-2.8,0-3.1-0.3-4.4-1.6c-1.6-1.6-1.8-1.3-4.1-2.1
		c-0.5-0.3-3.4,2.8-3.6,3.1c-1.8,1.8-3.6,0.5-5.2,0c-1.3-0.3-3.6-0.8-5.2-1.6c-2.6-1.3-3.9-0.5-5.7-2.3c-1.3-1.3-2.3-1.8-3.4-2.8
		c-1.6-1.6-3.1-1.6-4.7-1.3c-0.8,0.3-2.6,2.3-3.1,2.8c-0.5,0.5-5.7,0.3-5.9,0.5c-1.3,0.3-2.1,2.6-2.3,3.6c-0.8,1.3-2.3,2.1-3.9,2.1
		c-2.1,0-3.1-0.8-4.1-2.3c-0.8-1.6-2.8-1.3-4.7-1.3c-1.6,0-2.6,1.8-3.9,2.3c-2.1,1-2.8,0.5-4.7,0c-2.3-0.5-2.8-1.3-3.6-2.8
		c-0.8-1.6-4.7-2.8-6.5-3.4c-2.1-0.5-3.9-2.1-5.2-2.8c-1.8-0.8-2.3-2.3-3.9-2.8c-2.1-0.5-3.6-1-5.7-1.6c-1.6-0.5-2.3-1-4.4-1.6
		c-2.1-0.5-4.9,0-7.2,0c-1.8,0-2.8,1.6-4.7,2.1c-1.6,0.3-3.9,0.3-5.9,0.8c-2.1,0.5-3.4,0.3-4.7-0.5c-1.6-0.8-2.8-1.3-4.9-1.3
		c-1.6,0-3.6-0.8-5.9-0.8c-2.1,0-3.1-1-4.1-2.1c-1-1-3.1-1.3-4.7-1.6c-1.8-0.5-4.1,0-5.7,0.5c-1.6,0.5-2.8,2.1-4.4,2.3
		c-1.8,0.5-3.6,0.5-5.7,0.5s-3.9-0.5-5.2-1.3c-1.3-0.5-2.1-2.8-2.3-4.1c-0.3-1.6-1.3-3.4-1.6-4.7c-0.3-1-3.4-2.1-3.9-2.3
		c-1.8-0.8-2.6-1-3.9-2.3c-1-1-2.8-1.3-4.4-1.6C885.5,326,885,326,884.4,326L884.4,326z M986.3,639.2c-1.3,0.3-2.6,1.3-3.1,1.8
		c-1.6,1.6-3.1,0.5-1.3,2.3c0.5,0.5,5.2,0.5,5.7,0.5c2.3,0,3.4,0.3,5.7-0.8c1-0.5,1.3-2.1,2.1-2.8c-2.3-1-5.4,0.3-7.5-0.8
		C987.4,639.2,986.8,639.2,986.3,639.2z M1013.5,642.8h-0.3C1013.2,643,1013.2,643,1013.5,642.8c-0.8,0.8-2.8,2.6-3.1,3.6
		c0,0.3,2.8,2.3,3.1,2.8c1,1.8,4.4-1.6,4.4-1.6c1-2.1-1.8-3.1-2.8-3.6C1014.5,643.8,1014,643.3,1013.5,642.8
		C1013.5,643,1013.5,642.8,1013.5,642.8L1013.5,642.8z"/>
	<path id="emilia-romagna_1_" class="st0" d="M207.8,829.7c0.3,1.3,0.8,6.7,0.5,7.8c-0.5,1.3-0.8,1.6-1,2.6
		c-0.5,1.8-0.5,2.3-0.5,2.6c0,0.3,0.3,0.8,1,2.1c1,1.6,1.3,3.1,1.3,4.4s0,1-1.6,1.6c-2.3,1-6.2,2.1-7,1.6c-0.3,0.5-0.8,1-1,1.8
		c-1,2.1-2.3,4.1-3.9,5.7s-3.9,2.1-5.7,1.8c-1.8-0.3-2.8-1.6-3.6-2.3c-1.3-1.3-2.3-2.8-2.8-3.9c-0.5-1-1-1.8-1.6-2.3
		c-2.1-2.1-2.3-1.8-5.7-3.4c-0.3-0.3-0.5-0.3-0.8-0.3c0,0.3,0,0.3,0,0.3c0,3.4,0,4.1,0.5,6.7c0.3,1,0.5,2.1,0.5,3.1
		c0,1-1,2.3-2.1,2.3c-0.8,0-2.8,1.6-3.1,1c-0.5-0.5-0.8-1-1-1.3c0,0,0,0-0.3,0c-0.5,0-1.3-0.3-2.3-0.3c-1,0-1.8,0-2.6-0.3
		c-0.3,0-0.8,0-1,0c-0.3,0-0.5,0-1-0.3c-2.6-0.8-4.9-1.6-6.7-2.3c-2.3-1-3.9-2.1-5.7-3.9c-1-1-1-2.1-1.3-2.8
		c-0.3-0.8-0.3-1.8-0.3-2.6c0-1.8,0.3-3.4,0.3-4.4c0-2.6-0.5-2.6-2.1-4.4c-0.8-0.8-1-1-1.3-1c-0.3,0-0.3,0.3-0.8,0.5
		c-0.3,0-0.5,0.5-1.3,1.3s-1.6,2.3-3.4,3.1c-1,0.5-1.3,1-2.6,1.6c-1.3,0.5-3.1,0.8-4.9,0.3c-1.6-0.3-2.1-1-2.3-1.8
		c-0.3-0.8-0.8-1.3-1-2.1c-0.3-0.8-0.5-1.3-0.8-1.6c0-0.3-0.3-0.3-0.3-0.5c-1-1-2.3-1.3-3.4-1.8c0.3,0.5,0.3,0.8,0.5,1.6
		c0.8,2.8,0.3,5.2,0.5,6.7c0.5,2.3,0.8,4.1,0,5.7c-0.5,1.6-2.1,0.8-2.1,1c-0.3,1.3-5.7,1.6-5.7-0.8c0-0.8-1-1.3-1.6-1.6
		c-0.5-0.3-0.8-1-0.8-0.8c-0.8-0.8-1.3-1-1-1c0,0-0.3,0-1,0.5c-2.6,1.3-5.2,1.8-7.8,2.6c-2.3,0.5-4.7,1-6.7,1.8
		c-2.8,0.8-2.3,0.5-4.4,2.6c-0.5,0.5-1.3,2.8-2.3,4.9c-0.8,1.6-1.8,2.3-2.8,3.4c-1,1-2.1,1.6-2.1,1.8c0,0-0.5,1-1,2.3
		c-0.5,1.3-0.8,2.6-1,3.4c-0.5,1.6-0.8,2.8-1.3,3.6c-0.5,0.8-0.8,1.8-1,3.1c-0.8,3.4-1.6,4.7-1.6,7.2c0,1.8-0.8,3.1-1.3,4.1
		c-0.5,1-1,1.8-1,2.6c-0.5,1.8-1.3,2.8-2.1,3.9c-0.8,1-1.6,2.1-2.1,2.8c-1.3,2.8-2.3,3.4-3.4,5.7c-1.3,2.6-3.4,4.1-4.4,5.2
		c-1.3,1.3-2.3,1.8-2.6,1.8c0,0.3,0,0.5,0,1.3c0,0,0.3,0.5,0.8,1.3c0.8,0.8,1.6,1.6,2.3,2.8c0.3,0,0.8,0.5,1.3,0.8
		c0.8,0.5,1.8,1,2.6,1.6c2.6,1.3,4.4,3.1,5.7,4.4c0.8,0.8,1.6,1.3,2.3,2.1c0.8,0.8,1.8,1.8,2.6,3.4c0.8,1.8,0.8,3.4,0.8,4.9
		s-0.3,3.1-0.8,4.1c-0.5,1.8-1.3,2.8-2.3,4.1c-1,1.3-1.8,2.3-2.3,2.8c-1.6,1.6-2.3,3.9-4.7,6.2c-1,1-2.6,3.6-4.7,5.7l0,0
		c0,0.3,0.5,0.8,1.3,1.3c1.8,1.8,3.4,3.4,4.1,6.2c0.5,2.1,1.3,3.1,2.1,6.2c0.8,3.1,0.8,5.9,0,8.5c-0.8,3.1-1.6,4.9-3.4,7
		c-1.6,1.6-3.1,2.1-4.9,2.3c-1.8,0.3-3.1-0.3-4.4-0.5c-1.8-0.5-2.8-1.3-3.4-1.6c-0.5-0.3-1-0.5-1.8-0.5c0,0-0.3,0.3-0.8,0.8
		c-0.5,0.8-1,1.8-2.1,2.8c-1,1-2.8,1.3-4.1,0.8s-1.8-0.8-2.6-1.3c-0.3-0.3-0.3-0.3-0.5-0.5c0.3,1.3,0.5,2.6,0.5,4.1
		c0,2.3-0.8,3.9-1.3,4.9c-0.5,1-0.8,1-1,2.1c-0.5,2.1-0.5,4.9-0.5,7.8c0,0.8,0.5,3.1,0.8,4.9c0.3,0,0.5-0.3,1-0.3
		c0.8-0.3,1.8-0.3,3.1,0.3c0.3,0.3,1,0.3,2.1-0.3c0.8-0.3,1.8-1,1.8-1c0.8-0.8,1.6-1.3,2.8-1.8c1.3-0.5,2.3,0,3.1,0.3
		c1.8,0.8,2.6,1.8,3.4,2.6c1.3,1.3,3.4,2.8,4.9,4.7c1.8,1.8,2.8,3.4,3.9,4.7c0.8,0.8,2.3,0.8,4.9,1.6s3.6,0.8,5.7-0.3
		c1.6-0.8,2.6-1,3.1-1.6c0.5-0.5,1-0.5,1.8-1.6c0.8-0.8,1.3-1.8,2.6-2.6s2.8-1,4.9-1c1.8,0,2.6,1,3.1,1.6c0.5,0.5,1,1.3,1.3,2.1
		c0.8,1.3,1.6,2.8,1.6,2.8c0.8,1.3,0.8,1.6,1,1.8c0.3,0,1,0.5,2.8,0.8c1.6,0.3,4.9,0,7.8,0c2.1,0,3.9,1,4.9,2.1c1,1,1.6,2.3,1.8,3.4
		c1.3,2.8,1.3,5.2,1.8,7.2c0.5,2.3-0.3,3.6-1,4.9s-1.3,2.3-1.3,2.6c-0.3,1.3-1,2.6-1.6,3.6s-1.3,2.1-1.6,2.6
		c-1.6,3.1-2.1,3.6-3.4,6.2c-0.8,1.8-2.1,2.8-3.4,3.6s-2.1,1.6-2.3,1.6c-1.6,1.6-1.6,1.8-2.1,4.4c-0.5,1.6-1,2.6-1,3.1
		c-0.3,0.5-0.3,0.5,0,1.8c0.3,0.8,1.8,2.6,2.6,2.8c1,0.5,2.3-0.5,4.4-1.8c1-0.5,1.6-0.8,2.3-1.3c0.8-0.5,2.1-1.3,3.9-1.6
		c1.8-0.5,3.9-1.6,5.7-2.6c3.1-1.6,5.2-2.1,9-2.1c2.6,0,2.8-1.3,5.7-2.6c3.6-1.8,7.2-0.8,9-0.3c2.6,0.8,4.4,1.3,6.7,2.6
		c1.8,0.8,2.8,2.3,3.4,3.6s0.5,2.6,0.8,3.6c1,4.4-1.3,7.5-2.1,8.5c-1,2.1-1,2.6-0.3,4.9c0,0,0,0.3,0.8,0.5c0.8,0.3,1.6,0.5,2.3,0.5
		c2.8,0,3.6-0.3,5.7-1.3l0.3,0.3c0.5-0.5,0.8-0.8,1.3-1c1.6-0.8,3.4-2.1,3.4-2.1c0.8-0.8,1-1.3,1.3-1.8c0.3-0.5,0.3-1.6,0.3-3.1
		c0-3.6,1.8-6.5,2.6-8c0.8-1.3,1.3-2.3,1.6-3.1c0.3-0.8,0.5-1.3,0.5-2.6c0-1,0.5-1.8,0.8-2.1c0.3-0.3,0.5-0.5,1-0.8
		c0.8-0.5,1.6-1,2.1-1.3c1.6-0.8,3.1-1.6,3.6-1.8c1.8-1,3.6-2.3,4.9-3.4c1.8-1.8,3.9-2.1,5.9-2.3c2.1-0.3,3.9-0.5,4.4-0.8
		c2.3-0.5,4.7-1.8,7.2-3.1c3.1-1.6,5.7-1.8,6.7-2.3c1.8-1,3.9-0.8,5.4-0.8c1.6,0,3.1,0.5,4.1,0.5c1.6,0,2.8,1,3.6,2.1
		c0.8,1,1,1.8,1,2.8c0.5,1.8,0.5,3.9,0.5,3.9c0.3,1.6,1.6,2.6,2.8,3.9c0.8,0.8,2.8,1.3,5.2,3.4c1.6,1.6,1.8,3.1,2.1,4.7
		c0.3,1.6,0.5,3.1,0.8,3.4c0.8,3.4,0.8,3.9,2.1,6.2c1,1.8,1.8,3.4,2.8,4.4c1,1,4.1,2.3,5.7,2.8c3.4,0.8,4.9,2.3,6.7,2.8
		c2.6,0.8,4.4,1.8,6.2,2.3c1.8,0.5,3.1,1.6,3.9,2.6c0.8,1,1.6,1.8,1.8,2.1c-0.3-0.3,0.3,0,0.8,0.3c0.5,0.3,1.3,0.5,2.1,0.8
		c1.6,0.5,3.1,0.8,3.9,1c1.8,0.5,3.1,1.6,4.4,2.6c1.3,1,2.3,2.1,2.8,2.3c2.1,1.6,4.4,3.4,6.5,4.4c1,0.5,1,0.8,1,1
		c0.3,0.3,0.3,0.5,0.5,0.8c0.3,0.5,0.8,1,1,1.8c0.3,0.8,0.8,1.3,1,1.6c0.3,0.3,0.8,0.8,0.5,0.5c1.6,1.6,2.8,2.3,4.4,3.9
		c0,0,0.5,0,1.3,0c0.5,0,1-0.3,1.8-0.5v-0.3c0.5,0,1.6-0.5,2.6-0.8c1-0.3,2.3-1.3,1.8-0.8c0.8-0.8,1.8-1.8,3.6-2.3
		c1.8-0.5,3.6-0.3,5.7,0.8c2.1,1,3.6,1.8,5.7,2.8c1.6,0.8,3.9,2.1,5.7,3.9c2.1,2.1,3.1,2.3,5.2,4.7c0,0,0.3,0.3,0.8,0.5
		c0.5,0.3,1,0.8,1.8,1.3c0.8,0.5,1.6,0.8,2.1,1.3c0.5,0.5,1.3,0.8,1.8,2.1c1,1.8,1,2.1,3.1,3.6c2.1,1.6,3.6,3.1,5.4,4.7
		c1.6,1.6,2.6,2.6,4.4,4.4s2.6,3.1,4.1,5.4c0.8,0.8,3.1,2.3,5.2,4.9c0.3,0.3,1,1,1.8,1.8s2.1,1.8,2.8,3.4c0.8,1.6,2.1,3.4,3.4,4.9
		c1.6,1.6,2.6,2.6,4.4,4.7c0.8,0.8,3.6,2.6,4.4,2.6c2.3,0.5,4.7,1,6.7,0.8c1-0.3,1-0.5,1.6-0.8c0.5-0.3,0.8-1,1.3-2.3
		c0.8-1.8,2.3-3.1,3.6-3.6s1.8-0.5,3.1-1c0.5-0.3,1.3-0.8,2.3-1.6s2.3-1.6,3.9-2.1c0.5,0,1.3-0.8,2.6-1.3c1.3-0.5,3.1-1,5.4-0.5
		c0,0,1.8,0.3,3.6,0.5c1.8,0.3,3.6,0.3,5.4,2.1c1,1,3.4,2.8,4.4,3.4c1.6,0.8,2.6,2.1,3.4,2.8s1.8,1.6,1.8,1.6c1,0.3,2.3,0.8,3.6,1.6
		c1.3,0.8,2.8,1.6,3.6,3.4c0.5,1,0.5,1,0.8,1.3c0.5,0.3,1.8,0.8,3.1,2.1c0.3,0.3,1.3,0.8,2.8,1.3c1.6,0.5,3.1,1.3,4.7,2.6
		c0.8,0.8,1.3,1.3,1.8,1.6c0.5,0.3,0.5,0.3,1.6,0c0.5,0,0.5,0,0.5,0h0.3c0.3,0,0.5,0,1,0c0.8,0,1.8-0.3,2.6-0.3
		c0.8,0,1.6-0.3,2.1-0.3c0.3-0.8,0.3-1.6,0.8-2.1c0.5-1,0.8-1.3,1-2.1c0.5-1.6,1-2.8,1.6-3.9c0.5-1,1-1.6,1.6-2.3
		c1-2.1,2.6-4.4,4.4-6.2c0.8-0.8,1.8-1.8,3.6-2.1s4.1,0,5.7,1.6c1.8,1.8,2.8,3.4,4.4,6.2c0.5,0.8,1,2.1,1.6,3.1
		c0.5,1,1.3,2.3,1.3,2.3c0.5,0.5,0.8,0.8,1,1c0.3,0.3,0.8,0.8,1,1.3c0.3,0.3,0.5,0.3,0.5,0.5c0.5-0.3,1-0.5,1.8-1
		c0.5-0.3,1-0.8,1.8-1c0.8-0.3,1.8-0.8,3.1-0.5c2.1,0.5,3.6,1.8,4.1,2.3s0.5,0.5,1.3,0.5c3.1,0,4.1-0.5,6.7-1
		c2.1-0.5,5.4-1.8,8.5-1.8c2.8,0,5.7,0,8.5,0c1,0,2.8,0.3,4.1,0.3c0,0-0.8-0.8-2.1-2.1c-0.3-0.3-1-0.8-2.1-1.6
		c-1-0.8-2.3-1.6-3.1-3.1c-0.5-0.8-1-2.1-1.3-3.6c-0.3-1.6,0.3-3.9,1.8-5.4c1-1,2.6-3.1,5.2-4.4c2.1-1,4.9-2.1,5.7-2.8
		c1-1,2.6-3.1,5.2-4.4c1.8-0.8,3.1-0.8,4.4-1c0.5,0,1.3-0.3,1.6-0.5c0.5-1.3,1.6-2.6,2.8-3.6c0.8-0.5,1.8-1,3.1-1s2.6,0.5,3.4,1.6
		c1.6,1.6,1.8,3.1,2.1,4.1c0,0.3,0,0.3,0,0.3c1,0,2.1,0,2.1-0.3c0.3,0,0.5-0.3,1.6-1.3c0.8-0.8,1.3-2.8,3.4-5.2
		c-0.3,0.3,0,0,0.5-0.5c0.3-0.5,0.8-1,1-1.6c0.3-0.5,1-1.3,1.6-1.8c0.5-0.5,1-1.3,2.8-1.3c0.8,0,1.8,0,3.4,0.3
		c1.6,0.3,3.1,1.6,4.1,3.4c0.8,1.8,2.1,4.4,2.6,5.2c0.8,1,3.1,3.1,4.1,5.4c1,1.8,1.3,2.6,2.8,3.4c0.8,0.5,1.8,1,2.8,1.6
		c1,0.5,1.8,1,2.3,1c0.5,0.3,1.8,0.5,3.4,0.8c1.6,0.3,3.1,0,2.8,0c-0.3,0.3,0.3-0.3,0.8-0.5c0.5-0.3,1-0.8,1.6-1.3
		c0.5-0.5,1-0.8,1.8-1.3c0.3-0.3,0.5-0.3,1-0.5c0.3-0.3,0.8-0.5,2.1-0.3c2.1,0.5,3.6,1.8,4.1,2.3c0.5,0.5,0.5,0.8,1.6,1
		c1.3,0.3,2.8,0.8,4.1,2.1s1.6,3.9,1,5.9c-0.5,1.8-1.3,2.6-1.8,3.4c-0.5,0.8-0.5,1-0.3,1.6c0.3,0.8,0.8,1.8,1.3,2.3
		c0.3,0.5,0.8,0.8,0.5,0.8c1.6,0,1.8-0.3,1.8-0.3s0.5-0.5,1.8-2.1c0.8-0.8,1.3-1.3,2.1-1.8c0.8-0.5,2.3-0.5,3.1-0.3
		c1.6,0.8,1.3,1,2.3,1.3c1.8,0.5,5.2,0.3,6.7-0.5c2.1-1,2.8-1.3,4.4-2.8c1.3-1.3,2.6-2.1,4.4-2.3c1.6,0,3.1,0.5,4.4,1.3
		c0.8,0.5,2.1,1,3.4,2.3c1.3,1.3,2.1,3.4,1.6,5.7c0.3-1,0,0,0.3,0.5c0,0.8,0.3,1.6,0.5,2.6c0.3,1,0.3,2.1,0.5,3.1
		c0.3,1,0.3,2.1-1,3.6c-1.3,1.3-2.3,2.1-2.3,2.1c0,0.3-0.3,0-0.3,1.6c0,2.8,0,5.7-1.3,8.5c-0.3,0.8-1,1.8-1.8,2.8
		c-0.8,1-1.8,2.6-3.9,3.1c-2.6,0.5-3.4,0.8-5.7,2.1c-0.3,0.3-1,0.5-1.6,0.8c0.3,0-4.9,0.3-4.7,0.5c0.8,0.5,2.1,1,2.8,2.1
		s5.7,2.3,5.4,3.4c-0.3,0.5-0.5,2.1-1,3.4c-0.3,0.8-3.4,0-3.9,0.8c-0.5,0.8,1.8,3.1,0.3,3.4c-1,0.3-1.3,0.5-1.6,0.5
		c0,0,0,0.3,0.3,0.8c0.3,0.8,0.8,1,1.6,1.8s1.6,1.8,2.3,3.4c1,2.3,2.1,4.4,3.4,6.7c0.8,1.6,1.3,3.1,1,4.4s-0.5,2.1-0.8,3.6
		c-0.5,1.6-0.8,2.6-0.8,2.8c0,0,0,0.3,0.5,0.5c2.1,1,4.1,2.3,5.9,4.7c1.3,1.8,2.6,3.1,4.7,4.7c1.3,1,2.6,2.3,3.6,3.4
		c1,1,2.1,2.1,2.8,2.6c0.5,0.3,1.8,0.8,3.1,1.6c1.3,0.8,2.6,1.6,3.6,3.4c1,2.1,1.8,3.4,3.4,4.9c0.8,0.8,1.3,1.6,2.1,2.3
		c0.8,0.8,1.8,1.3,1.8,1.3c1.8,0.5,2.8,1,3.6,1.6c0.8,0.5,1.3,0.8,2.3,0.8c3.1,0,4.4,0,6.2-0.8c1.6-0.8,4.4-2.8,8-1.8
		c1.6,0.5,2.8,1.3,3.6,1.8c0.8,0.5,1.3,0.8,2.1,1c2.1,0.5,3.6,2.1,4.4,2.8c0.5,0.8,0.8,1,0.8,1c1,0.3,2.3,0.8,3.6,1.3
		c1.3,0.5,2.6,1,3.6,2.1c0.3,0.3,1.3,1.3,2.1,2.1c0.5,0.5,0.8,0.8,1,1l0,0l0,0c0.3,0,2.1,0.3,3.6,0.5c0.8,0,1.8,0.3,2.6,0.5
		c0.8,0.3,2.1,0.5,2.8,2.1c0.5,1.3,0.8,2.1,1,2.3c0.3,0.3,0.3,0.5,1.6,0.8c1.6,0.3,4.1,0,6.7,0c1.8,0,3.1-0.5,4.4-1l-0.8-0.8
		c-0.5,0.5,0,0,0-0.8c0-0.8,10.1-1.8,9.8-2.3c-0.3-1.3,16.3,5.4,16.3,5.2c0.3-1.3-8.8-8.8-9.8-9.6c-1-0.8,15.8-12.2,10.6-10.3
		c-1.6,0.5,15,5.2,15.8,5.2c0.8,0,12.2-12.7,12.4-13.2c1.3-1.3,4.1-8.8,5.4-9.8c1.3-1.3,8.5-2.6,8.8-4.1c0.8-2.8,11.6,3.6,12.7,2.8
		c1.6-1.6-4.4-6.5-3.4-7.5c1.3-1.3-2.8,0.5-4.4,0.5c-1,0-5.2-4.4-4.1-4.1c1.8,0.5,2.1-1.8,4.7-1.8c2.3,0-1.8-5.2,0.3-5.2
		s-4.7-11.4-2.1-11.4c2.1,0,6.2-0.5,6.7-0.8c0.3-0.3,0.5-0.3,0.8-0.5c1.3-1.3,3.4-1.8,4.7-3.1s2.6-2.3,4.1-3.6
		c1.6-1.3,2.3-2.3,3.6-3.6c1-1,3.4-1.8,4.4-2.3c1.3-0.5,1.8-0.8,2.3-0.8s0.8,0.5,1.3,0.8c1.3,0.5-0.3,4.1-0.5,5.2
		c-0.5,1.8-1.6,2.8-2.1,3.9c-0.8,1.6-1.3,2.6-0.8,4.4c0.3,0.8,0.8,1.6,1.3,2.3c0.8,0,3.1,0.5,3.6,0.8c0.8,0.3,1.6,0.5,2.6,1
		c1,0.5,1.6,0.5,2.3,1.3c0.8,0.8,1.8,1.6,2.3,2.8c0.3,0.8,0.8,1,1.3,2.1c0.5,1,0.5,2.3,0.3,3.6c-0.8,3.4-3.4,4.7-4.4,5.9
		c-1.3,1.8-2.1,2.3-2.6,3.4c-0.8,1.6-1.3,2.6-1.8,4.7c0.3,0,0,0,0.3,0c2.1,0,3.4-0.3,3.9-0.5c0,0,0-0.3,0.5-0.8
		c0.3-0.3,0.8-0.8,1.6-1c0.8-0.3,1.6-0.3,2.1,0c1,0.5,1.6,1,2.1,1.6c1,1,1.6,2.3,1.8,3.1c0.3,0.8,0.3,0.8,0.3,0.8
		c0.3,0,1,0.5,1.8,0.8c1,0.3,2.3,0.8,3.6,1.3c1.6,0.8,2.8,2.3,3.1,3.6s0,2.3,0,3.4c0,0.5,0,0.5,0.3,0.5c0,0,0.5,0.3,0.8,0.5
		c0.3-0.3,0.5-0.5,0.8-0.8c0.3-0.3,0.3-0.5,0.8-0.8c1-1,1.8-1.3,2.3-1.8c0.5-0.5,1-0.8,1.3-1.3c1-1.6,2.3-2.8,4.7-3.9
		c1.8-1,2.8-1.6,3.6-2.3c1.6-1.6,2.8-1.3,3.9-1.6c1-0.3,2.3-0.3,2.6-0.3c2.3-0.5,5.2-0.5,7.5-0.5c0.5,0,0.8,0,1-0.3
		c0.3-0.3,1-0.8,2.1-1.3c0.3-0.3,1-1.3,1-2.8c0-0.8-0.3-0.8-0.5-1.6s-0.8-1.3-1-2.6c-0.3-0.8-0.8-1-2.1-2.3
		c-1.8-1.8-2.3-4.1-2.3-6.7c0-1.8,0.8-2.8,1.6-3.6c0.8-0.8,1.3-1.6,1.8-1.8c0.8-0.8,1.8-2.1,2.8-3.4c0-0.3,0.3-0.8,0.5-1.3
		c0.3-1,0.5-2.1,0.8-3.1c0-0.5,0.3-0.8,0.3-1.3v-0.3c-0.5,0-1.3-0.3-1.8-0.3c-2.1-0.5-3.9-0.5-5.2-1.3c-1.8-1-2.3-2.1-3.6-3.1
		c-1-1-2.6-1.6-3.9-2.8c-1-1-3.1-1.6-4.9-3.1c-1.6-1.6-3.1-1.6-5.2-3.6c-1.6-1.6-2.3-2.8-3.6-3.9c-1-1-2.3-2.6-3.4-3.6
		c-1.3-1.3-1.8-2.6-2.8-3.6c-1.3-1.3-3.1-2.6-3.9-3.6c-1.3-1.3-1.3-2.8-1.6-4.4c-0.5-2.1-1-2.3-3.6-2.3c-2.1,0-3.6-1.3-5.2-2.3
		c-1.6-1-1.3-3.1-2.8-4.9c-1.3-1.8-2.1-2.8-2.8-4.4c-0.5-1.3-2.3-3.1-3.6-4.4c-0.3-0.3-0.8-1-0.8-1.3c-2.1-2.1-4.9-3.1-6.5-4.7
		c-0.8-0.8-3.4-1.6-4.4-2.1c-0.3-0.3-2.1-3.6-2.3-4.4c-0.8-1.3-2.6-2.6-3.6-3.6c-0.8-0.8-1.3-4.4-1.6-5.7c-0.5-2.3-1.8-2.8-2.3-5.2
		c-0.5-1.8-3.4-3.4-4.1-4.4c-0.8-1.6-2.1-3.9-3.1-5.2s-2.3-3.1-2.8-4.4c-0.8-1.6-0.5-3.1-1-5.2c-0.5-2.1-1.3-3.9-1.6-5.7
		c-0.5-2.1-0.5-4.1-0.5-6.5c0-1.8-1-3.9-1.6-5.2c-0.8-1.3-0.3-4.1-0.8-5.9c-0.5-2.3-0.5-2.8-2.1-4.4c-1.3-1.3-2.3-2.1-4.4-2.1
		c-2.8,0-2.8-0.8-1.6-2.1c1-1,1.8-2.1,2.8-3.1c1.3-1.3,0.8-3.1,0.8-5.2c0-2.1,0-3.9,0-5.9c0-1.3-2.1-2.8-2.3-4.1
		c-0.5-1.6-2.1-2.8-2.3-5.2c-0.5-2.3,0-4.1-0.5-5.9c-0.5-1.8-1.6-2.6-2.1-4.4c-0.3-1.3-1.6-3.4-2.3-4.4c-0.8-1-1.3-4.4-1.6-5.7
		c-0.5-1.8-0.8-3.9-1.3-5.7c-0.5-1.8-0.8-3.6-0.8-5.9c0-2.3,0.3-3.4,0.8-5.2c0.5-2.1,0.3-4.1,0.8-5.9c0.5-1.8,0.8-3.1,1.3-5.2
		c0.5-2.1,0.8-3.9,1.3-5.2c0.5-2.1,0.3-3.4-0.5-4.9s-2.6-2.1-4.1-2.8c-1.6-0.8-2.1-1.6-3.1-2.8c-0.5-0.5,0.5-3.6,0.8-4.7
		c0.5-1.8,0.5-3.4,0.5-5.7c0-2.1-0.5-3.6-0.8-5.2c-0.5-2.1-1.3-2.3-2.3-3.6c-0.8-0.8-1.3-4.9-1.6-5.9c-0.5-1.8,0-4.1,0-5.9
		c0-2.1,0.5-3.9,1-5.2c0.8-1.6,2.1-3.1,2.3-4.9c0.5-1.8,1.3-2.6,1.3-4.7c0-1.8,0.5-3.6,0.8-5.2c0.3-1.6,0.8-3.4,1-4.7
		c0.5-2.3,1.8-2.1,1.3-4.4c-0.5-2.1-3.1,0-2.3-3.4c0.3-1.6,3.4-0.3,4.4,0.8c1.3,1.3,0.8-1.6,0.8-3.6c0-0.3,0-0.5,0-0.8
		c-1-1.6-2.1-3.4-2.8-5.2c-1-2.6-2.1-5.4-0.8-8.3c0.8-1.8,1-2.8,0.5-4.9c-0.5-1.8,0-3.1,0-3.6s0-1-0.5-2.1c-0.5-1.3-1-2.3-1.3-3.6
		c-0.3-0.8-0.5-1.6-0.8-2.1c-0.3,0-0.5,0-0.8,0.3c-1.3,0.3-2.6,1-2.6,1c-2.8,1.6-4.9,1.3-7.2,1.8c-3.9,1-7.5-0.5-8-0.5
		c-1.8-0.5-2.8-1.3-3.4-1.6c-0.5-0.3-1-0.5-2.8-0.5c0.8,0-0.5,0.3-1.8,1s-2.1,1.3-3.9,1.8c-2.3,0.5-4.7,0.3-5.9-1s-1.8-2.6-2.1-3.9
		c0,0-0.5-0.5-1-1c-0.8-0.5-1.8-1-2.8-2.1c-1.3-1.3-1.8-1.8-1.8-1.8s-0.5-0.3-2.6-0.3c-0.8,0-1.3,0.3-2.3,0.8c-1,0.5-2.8,1-4.9,1
		c-1.8,0-3.4-0.5-4.4-0.8c-1-0.3-1.6-0.5-2.3-0.3c-1,0.3-1.6,0.5-2.6,1c-1,0.5-2.8,1-4.9,1c-5.2,0-9-1.3-12.9-2.3
		c-3.1-0.8-3.9-1-7.2-1c-3.6,0-7,0-10.6,0c-2.6,0-4.9,0.8-6.2,1.3c-2.6,1.3-4.4,1.6-6.7,2.8c-3.4,1.6-5.4,2.3-8,4.4
		c-2.8,2.3-4.7,2.8-6.5,4.9c-2.3,2.3-4.4,3.4-6.2,4.9c-1.8,1.8-4.1,4.1-7,5.7c-3.1,1.6-6.2,1.3-8.5,1.8c-2.8,0.8-5.9,0.8-7.2,1
		c-3.1,0.8-5.7,1.3-8.5,0.5c-4.1-1-7.5-3.6-10.1-6.2c-1.3-1.3-2.1-3.1-2.3-4.7c-0.3-1.6-0.5-2.6-0.8-3.4c0,0-0.5-0.8-1.3-1.3
		c-0.8-0.5-2.1-1-2.8-1.6c0,0-0.5,0-1.6,0.5s-2.1,1.6-3.9,2.1c-2.8,0.8-5.2,1.3-8.5,0.5c-2.6-0.8-5.2-0.5-7.8-1.8
		c-1.8-0.8-2.8-2.1-3.6-3.4c-0.8-1.3-1.8-1.8-1.8-1.8c-1.6-0.8-2.6-1.6-3.4-2.1s-1.3-0.8-2.8-1c-2.1-0.5-5.4,0-8.5,0
		c-3.4,0-6.7,0-10.1,0c-2.6,0-5.2,0.5-7.2,1c-3.1,0.8-5.9,0.8-7.8,1c-3.4,0.8-6.5,1-9,1.8c-3.4,0.8-6.5,0.8-9.8,0
		c-2.6-0.8-6.2-1.8-8.5-3.1c-2.3-1-4.9-1.6-8-1.6c-1.3,0-1.8,0.3-2.3,0.5c-0.5,0.3-1.3,0.8-2.6,1.6c-1.6,0.8-3.1,0.8-4.7,0.8
		c-1.6,0-3.1,0-4.4,0c-0.3,0-1.6,0.3-2.8,0.8c-1.3,0.5-2.6,1-3.9,1.3c-1.8,0.5-2.6,0.8-3.1,1c-0.3,0.3-0.8,0.5-1.6,2.1
		c-1.6,3.1-2.3,4.1-3.4,6.2c-0.5,1-1.3,1.6-1.8,2.1s-1.3,0.8-2.1,1c-1.3,0.5-2.6,1-3.4,1.3c-1.3,0.3-1.8,0-2.6-0.3
		c-0.8-0.3-1.6-0.5-2.1-0.8c-1.6-0.5-2.8-1.3-3.6-1.3c-3.4-0.8-6.2-2.3-9-3.6c-2.6-1.3-4.7-2.6-6.2-3.4s-4.9-1.3-8-2.8
		c-2.1-1-4.1-1-6.7-2.3c-1.6-0.8-2.1-2.3-2.1-3.4c-0.3-1,0-2.1,0-2.8c0.3-1.8,0.8-3.6,0.8-4.1c0-0.5,0-1-0.5-2.1
		c-0.3-1-1-1.8-1.3-3.4c-0.3-0.3-0.5-0.3-1-0.5c-1-0.5-2.1-0.8-3.1-1.3c-0.3,0.3-0.3,0.8-1,2.1c-1,2.3-1.8,4.7-3.9,7
		c-1.8,1.8-3.6,3.6-5.7,5.7c-2.1,2.1-4.7,4.1-6.2,5.7c-1.8,1.8-3.9,4.4-7.5,5.2c0,0-0.5,0.3-1.3,1c-0.8,0.8-1.6,1.8-3.1,2.6
		c-2.3,1-4.4,0.8-6.2,0.5c-1.8-0.3-3.6-0.8-4.1-0.8c-2.3,0-4.1-0.3-5.9-0.8c-0.3,0.3-0.8,0.5-1,0.5c-0.8,0.3-1.6,0-2.3-0.3
		c-1-0.3-1.6-0.8-2.1-1.3c-0.3,0-0.3-0.3-0.5-0.3c-0.8-0.5-1.3-1.3-1.8-1.6c-0.3-0.3-0.5-0.3-0.8-0.3c-2.1,0-3.6-1.3-4.7-2.3
		c-1-1-1.8-2.3-2.1-3.1c-0.3-0.5,0-0.3-1-0.8c-0.8-0.5-2.1-1.8-2.8-3.6l0,0c-0.3-0.3-0.8-0.3-1.3-0.5c-0.5-0.3-1-0.5-1.8-0.5
		c-0.5-0.3-1-0.3-1.6-0.5c-2.3-1.3-2.6-1.3-5.7-2.1c-2.8-0.8-4.7-1-7.2-1c-2.8,0-5.9,0-8.5-0.8c-3.1-0.8-4.7-1.3-6.7-2.6
		c-3.1-1.6-4.4-3.6-6.2-4.4c-2.3-1.3-4.7-3.1-5.9-4.4c-1.8-1.8-2.3-2.6-4.4-3.4c-1-0.5-1.8-1.3-2.8-1.8c-1-0.5-1.8-1.3-2.3-1.6
		c-1.6-0.8-4.9-1.6-6.7-2.1s-5.2-0.3-8.5-1c-1-0.3-2.6-0.5-4.1-0.5c-1.6-0.3-3.1-0.3-4.4-0.5c-2.3-0.5-5.2-1.6-8-2.3
		c-2.6-0.5-5.9-0.3-9.6-1c-1.6-0.5-3.1-1-4.1-2.1c-1-1-1.6-2.1-2.1-3.4c-1.6-2.8-1.6-6.2-1.8-7.8c-0.5-1.8-1.6-4.1-2.6-6.2
		c-1.3-2.6-1.6-4.1-2.3-4.9c-1-1-1-1.3-1-1.6c-0.3,0-0.3,0.3-0.8,0.5c-2.3,1-5.2,2.1-8.5,2.1c-2.1,0-3.6-0.5-4.9-1.6
		c-1.3-1-1.8-2.3-2.3-3.4c-0.8-1.3-1-2.3-1.3-2.8c-0.3-0.5-0.5-1-1.6-2.1C208.8,834.4,208,830.2,207.8,829.7L207.8,829.7z"/>
</g>
</svg>
