<?xml version="1.0" encoding="utf-8"?>
<!-- Generator: Adobe Illustrator 24.0.1, SVG Export Plug-In . SVG Version: 6.00 Build 0)  -->
<svg version="1.1" xmlns="http://www.w3.org/2000/svg" xmlns:xlink="http://www.w3.org/1999/xlink" x="0px" y="0px"
	 viewBox="0 0 32 32" style="enable-background:new 0 0 32 32;" xml:space="preserve">
<style type="text/css">
	.st0{fill:#06B6D4;}
	.st1{fill:#FFFFFF;}
	.st2{fill:#67E8F9;}
	.st3{fill:#A5F3FC;}
	.st4{fill:#0E7490;}
</style>
<g id="Livello_2">
</g>
<g id="Livello_1">
	<g id="Packaging_Delivery31">
		<g>
			<path class="st0" d="M17.6,7.8v10.6c0,0.4-0.4,0.8-0.8,0.8H7c-0.5,0-0.8-0.4-0.8-0.8V7.8C6.2,7.3,6.5,7,7,7h9.8
				C17.2,7,17.6,7.3,17.6,7.8z"/>
		</g>
		<path class="st1" d="M14.9,11.4l-2.4-1.8c0,0-0.1,0-0.1-0.1c0,0-0.1,0-0.1-0.1c-0.2-0.1-0.4-0.1-0.6,0c0,0-0.1,0-0.1,0.1
			c0,0-0.1,0-0.1,0.1l-2.4,1.8c-0.3,0.2-0.4,0.8-0.2,1.1S9.7,13,10,12.7l1.1-0.8v3.3c0,0.5,0.3,0.8,0.8,0.8c0.5,0,0.8-0.3,0.8-0.8
			v-3.3l1.1,0.8c0.2,0.1,0.3,0.2,0.5,0.2c0.2,0,0.5-0.1,0.7-0.3C15.3,12.2,15.2,11.7,14.9,11.4z"/>
		<g>
			<g>
				<path class="st2" d="M20.1,18.4v4.1c0,0.4-0.4,0.8-0.8,0.8H4.6c-0.4,0-0.8-0.4-0.8-0.8v-4.1c0-0.4,0.4-0.8,0.8-0.8h14.7
					C19.7,17.6,20.1,18,20.1,18.4z"/>
			</g>
			<g>
				<g>
					<path class="st0" d="M28.2,16.8v5.7c0,0.4-0.4,0.8-0.8,0.8h-9V12.7c0-0.5,0.4-0.8,0.8-0.8h4.9c0.2,0,0.5,0.1,0.7,0.3l3.3,4.1
						c0,0.1,0.1,0.1,0.1,0.2l0,0l0,0C28.2,16.6,28.2,16.7,28.2,16.8z"/>
				</g>
			</g>
			<g>
				<path class="st3" d="M28.2,16.8L28.2,16.8h-4.9v-4.9h0.8c0.2,0,0.5,0.1,0.7,0.3l3.3,4.1c0,0.1,0.1,0.1,0.1,0.2l0,0l0,0
					C28.2,16.6,28.2,16.7,28.2,16.8z"/>
			</g>
			<g>
				<path class="st4" d="M25.8,22.5c0,1.3-1.1,2.4-2.4,2.4s-2.4-1.1-2.4-2.4s1.1-2.4,2.4-2.4S25.8,21.2,25.8,22.5z"/>
			</g>
			<g>
				<path class="st4" d="M11.9,22.5c0,1.3-1.1,2.4-2.4,2.4S7,23.8,7,22.5s1.1-2.4,2.4-2.4S11.9,21.2,11.9,22.5z"/>
			</g>
		</g>
	</g>
</g>
</svg>
