<?xml version="1.0" encoding="utf-8"?>
<!-- Generator: Adobe Illustrator 24.0.1, SVG Export Plug-In . SVG Version: 6.00 Build 0)  -->
<svg version="1.1"
	 id="ITALIA" x="0px" y="0px" viewBox="0 0 1200 1500" style="enable-background:new 0 0 1200 1500;">
<style type="text/css">
	.st0{fill:#11676A;}
</style>
<g id="SUD_SINGLE">
	<path id="puglia_1_" class="st0" d="M647.2,347.2c-1.1,0-2.9,1.1-4.2,1.3c-1.8,0.4-4,0-5.3,0.4c-1.8,0.4-3.8,0.2-5.6,0.7
		c-1.6,0.4-2.9,0.9-3.8,1.8c-0.9,0.9-3.3,1.1-4.9,1.1c-1.8,0-3.8,1.3-5.1,2c-1.1,0.7-3.6,0.2-5.1,0.7c-1.8,0.4-2.9,1.1-4.9,1.1
		c-1.6,0-3.3,0.7-4.9,0.9c-2,0.4-3.3,0.2-5.1-0.4c-1.8-0.4-3.8-0.4-5.1,0c-1.8,0.4-2.2,0.9-3.3,2c-0.9,0.9-3.6,0.4-4.9,0.4
		c-1.3,0-2.2-1.6-3.1-2c-1.3-0.7-3.6-1.1-4.9-1.8c-1.3-0.7-2.9-1.1-4-1.3c-1.6-0.4-3.6,0-5.1,0c-1.1,0-2.9,1.6-3.8,2
		c-1.3,0.7-2.9,0.7-4,0.9c-1.8,0.4-3.1,1.1-5.1,1.1c-1.3,0-3.3,0.4-4.5,0.7c-1.6,0.4-3.1,0.4-4.5,0.7c-1.6,0.4-3.6,0.4-5.1,0.4
		c-3.6,0.9-4.9,1.8-7.8,1.1c-2-0.4-3.8-0.4-5.8-0.4c-2.5,0-4.9,0-7.4,0c-2.5,0-3.6-0.2-4.9-1.3c-1.3-1.3-0.9-2.9-3.1-2.9
		c-2.9,0-6,0.4-9.4,0.4c-2.5,0-4.9,0-7.4,0c-2.5,0-4.7-0.7-7.4-0.7c-2,0-3.3-1.1-5.8-1.1c-2.2,0-4-0.4-6-0.9c-0.9,2-2.2,6.5-2.9,8.9
		c-0.4,1.3-0.2,2-0.2,2.9c0,1.1-0.4,2.7-1.8,3.8c0,0-0.4,0.7-0.7,1.8c-0.2,1.1-0.2,2-0.2,3.1c0,1.8-0.7,2.9-1.3,3.8
		c-0.7,0.9-1.1,1.6-1.1,2.2c-0.4,1.3-0.4,2.2-0.7,3.1c-0.2,0.9-0.4,2-0.9,3.1c-0.7,1.6-0.7,2.7-0.7,5.3c0,1.8,0.4,3.8,0.4,6.9
		c0,1.8,0.2,2.2,1.3,3.3c1.8,1.8,2.5,3.8,2.9,4.5c1.3,1.3,2,1.8,3.8,2.5c2.5,1.3,3.6,3.6,4,5.8c0.2,0.9,0.4,1.8,0.2,2.7
		c-0.2,0.9-0.9,2.2-1.6,2.7c-1.6,0.9-2.5,0.7-3.8,0.9c-2,0.4-2.5,0.9-3.8,2.2c-0.9,0.9-1.8,1.6-2.7,2c-0.9,0.4-2,1.1-2.5,1.6
		c-1.8,1.3-2.5,2-3.8,3.1c-1.1,1.1-2,2.9-2.9,4.7c-1.3,2.7-3.6,4-5.8,4.7c-3.6,0.9-6.5-0.9-7.8-1.6c-2.9-1.3-3.8-4.2-4.5-5.3
		c-0.2-0.2-0.2-0.4-0.7-0.4c-0.2,0-0.4,0-0.7,0c0,0.2,0,0.7,0,1.1c0,1.3,0.2,2.7,0.2,3.8c0,3.3-0.9,5.3-0.9,7.8c0,2.5,0.2,4-0.7,6.9
		c-0.7,2.5-1.1,4-2,5.8c-0.7,1.3-0.7,2.7-0.4,4.2c0.2,1.1,1.3,3.1,2,5.3c0.2,0.9,0.2,0.9,0.9,1.1s1.8,0.9,2.9,2s3.1,2.5,4.2,2.9
		c1.3,0.7,2.5,1.6,3.1,2.2c0.7,0.7,1.1,1.3,1.8,2c1.1,1.1,2.5,2,3.8,3.8c0,0,0.2,0.2,0.4,0.2c0.4,0.2,1.1,0.7,1.8,0.9
		c0.7,0.2,1.3,0.7,2,0.9c0.2,0.2,0.7,0.2,0.9,0.4c0.2,0.2,0.2,0.2,0.9,0.7c1.6,1.6,2.7,4,3.3,5.3c1.3,2.9,1.1,6,0.7,7.8
		c-0.7,2.7-2.2,4.2-3.3,5.6c-0.9,1.1-1.1,2.5-1.6,4.5c-0.2,0.9-0.2,0.9,0,1.1s0.7,0.9,1.3,2.2c0.2,0.4,0.7,0.7,1.3,1.3
		c0.7,0.7,1.6,1.3,2.2,2.5c0.9,1.8,1.3,2.2,2.9,3.8c0.9,0.9,1.8,1.6,2.2,2.9c0.4,1.3,0.4,2.5,0.4,4c0,0.2,0,0,0,0.2
		c0.2,0,0.7-0.2,1.6-0.4c3.1-0.7,6.9-0.7,9.8,0c2.5,0.7,4,1.3,5.8,1.3c1.3,0,2.5,0,3.8,0.4c1.1,0.4,2.2,1.1,3.1,2.2
		c0.7,0.7,1.6,1.1,2.2,2.2c0.7,1.1,1.3,2.7,1.3,4.7c0,3.1-0.4,4.9-1.1,7.4c-0.2,1.1-0.2,1.6-0.2,1.8c0,0.2,0.4,0.9,0.9,2
		c0.7,1.3,0.2,2.2,0,2.9c-0.2,0.7-0.7,1.3-0.9,1.8c-0.2,0.4-0.7,1.1-0.9,1.6s-0.4,0.9-0.4,0.7c0,0-0.2,0.9,0,1.8s0.7,2.5,0.7,4
		c0,2.7,0.4,3.8,0.9,5.8c0.4,2,0.9,4,1.3,5.6c0,0,0,0,0.2,0.2c0.2,0.2,0.4,0.7,0.9,1.1c0.7,0.7,1.6,1.6,1.8,1.8
		c0.7,0.7,2,1.3,3.8,1.3c2.9,0,5.3,1.8,6.2,2.2c0,0,1.1,0,2.2-0.2c1.1-0.2,2.2-0.7,2.7-0.9c2-0.9,3.8-1.6,5.8-2.2
		c1.8-0.4,3.3-0.4,3.8-0.4c0.7,0,0.2,0.2,0.9-0.4c0.9-0.9,2.2-1.1,3.1-1.1c0.9,0,1.8,0.4,2.5,0.7c1.3,0.7,2.7,1.6,3.1,2
		c1.1,0.9,4.2,2.2,5.6,2.5c3.1,0.9,4.7,1.8,7.6,2.5c1.6,0.2,2.9,1.3,3.8,2c0.9,0.7,2,1.6,2,1.6c0.4,0.2,0.9,0.4,1.1,0.7
		c0.9-0.9,2-1.8,3.8-2.7c3.1-1.6,5.3-3.8,10.3-5.1c4.7-1.1,9.1,0,13.1,0c4.9,0,9.8,0,14.5,0c2.7,0,5.1,0.2,7.1,0
		c2-0.2,3.3-0.7,4-1.3c2.7-2.7,4.9-4,7.8-6.9c2.9-2.9,4.5-3.6,8-5.3c0.4-0.4,0.9-0.7,1.3-0.9l2,4c-0.2,0,0.2,0,0.4-0.7
		c0.2-0.4,0-0.9,0-0.7c0,0,0.9,0.9,1.8,1.8c2,1.6,5.1,3.3,6.5,6.2c0.9,1.8,4.9,6,6.7,6.9c4.7,2.5,6.9,4.7,9.4,7.1
		c2.7,2.7,4.7,5.6,6.9,7.8c0.7,0.7,1.1,1.3,1.1,2.5s-0.2,1.8-0.7,2.2c-0.9,1.1-1.8,1.8-2.9,2.5c-1.1,0.7-2.2,1.1-3.1,1.6
		c-0.9,0.4-1.8,0.7-1.8,0.9c-2.2,1.1-4.7,1.3-7.1,1.6c-1.6,0.2-2.9,0.2-4,0.4l0,0c1.6,1.3,4,3.1,5.3,3.8c3.6,1.8,6.9,2.9,10.7,4.9
		c3.8,1.8,8.2,4,11.1,4.7c2.5,0.7,4,1.1,5.1,1.1c0.9,0,1.8-0.2,3.8-1.8c2.5-2,5.1-2.7,7.4-2.2c2.2,0.4,3.8,2,5.3,3.3
		c2.9,2.9,5.1,4,7.8,6.9c1.1,1.1,1.3,2.2,1.6,3.6c0.2,1.3,0.2,2.7,0.2,4c0,2.9-0.2,5.8-0.2,7.4c0-0.2,0.2,0.4,0.4,1.1
		c0.4,0.7,0.9,1.6,1.6,2.5c1.3,1.6,2.7,3.3,3.1,3.8c2.9,2.9,5.1,4,7.8,6.7c1.8,1.8,2.7,3.3,3.6,4.5c0.9,1.1,1.6,1.8,3.6,2.9
		c2.2,1.1,3.8,2.5,5.1,3.6c1.3,1.1,2.5,1.8,4.2,2.2c2,0.4,3.6,1.8,5.1,3.1c1.6,1.3,3.3,2.5,4,2.9c2.7,1.3,4.2,2.2,4.7,2.2
		c0.2,0,0.2,0,0.7-0.2c0.4-0.2,1.1-0.7,2-1.8c2.9-2.9,4-5.1,6.7-7.8c1.1-1.1,2.7-1.6,4-1.8c1.3-0.2,2.5,0.2,3.6,0.7
		c2.2,0.7,4.2,1.3,5.8,1.3c1.3,0,2.9-0.4,4.9-0.9c2-0.4,4.5-0.9,7.4,0c3.1,0.7,4.9,1.6,6.2,2.7c1.3,1.1,2,2.2,3.6,3.8
		c3.1,3.1,4.7,6,6.2,9.4c0.9,1.8,1.6,1.8,2.9,2.9c0.7,0.7,1.3,1.8,1.6,2.9c0.2,1.1,0,2.5-0.4,4.2c-0.7,2.5-2.2,4-3.3,5.8
		c-1.1,1.8-2,3.3-2,5.8c0,4-1.6,7.1-1.6,11.6c0,0.9,0.2,0.9,0.2,0.9s0.2,0.2,0.9,0.7c0.7,0.4,1.6,1.1,2,2.2s0.9,2.5,0.9,4.5
		c0,0.9,0.2,1.1,0.2,1.1s0.7,0.4,1.3,0.7c0.4,0.2,0.9,0.4,1.3,1.1c0.4,0.7,0.4,1.8,0.2,2.5c-0.4,1.3-1.3,2.2-2.9,3.8
		c-1.1,1.1-0.9,2.2-0.4,3.8c0.4,1.6,1.8,3.1,2.5,3.8c0,0,0.4,0.2,1.3,0.4c0.9,0,2,0,3.1-0.2c1.1-0.2,2.2-0.4,3.1-0.7
		c0.4,0,0.9-0.2,1.3-0.2c0.4,0,0.7-0.2,1.1-0.2c1.1,0,1.1,0.4,1.3,0.7c0.2,0.2,0.2,0.2,0.4,0.2c0.2,0.2,0.2,0.2,0.4,0.4
		c0.2,0.2,0.4,0.7,0.7,1.1c0.4,0.9,1.3,2,2,2.9s1.3,2.2,1.8,2.9c0.2,0.4,0.4,0.7,0.7,0.9c0,0,0,0,0,0.2c0.2,0.2,0.2,0.2,0.2,0.2
		c2.9,3.1,4.7,6,6.2,9.1c0-0.2,1.1,1.3,2,2.5c0.7,0.7,1.1,1.1,1.6,1.6c0.4-1.1,0.9-2.5,1.1-2.9c0.4-1.1,1.8-2.5,2.7-3.3
		c1.1-1.1,1.8-2.2,3.3-3.1c0.9-0.4,2.2-2.9,2.9-3.6c1.1-1.1,1.6-1.6,2.5-3.1c0.9-1.8,1.6-2.5,4-3.1c1.6-0.2,1.1-1.6,2.5-2.9
		c0.9-0.9,2.7-1.3,3.8-2c1.1-0.4,1.8-2.7,2.5-3.6c0.4-0.4,3.3-1.1,4.5-1.3c1.3-0.2,2.7-1.6,3.8-2c2-0.9,4-1.1,6.2-2.5
		c1.3-0.9,4.2-0.2,5.8-0.2c2.2,0,4-0.2,5.6,0.9c1.1,0.7,4.2,1.3,4.9,1.8c2,0.9,2,1.6,4,2c1.1,0.2,0.4,3.8,0.4,4
		c0,0.4,2.5,2.2,2.7,2.7c0.4,1.1,4,0.2,4.9,0c1.8-0.4,3.1,0.7,4.5,1.3c1.3,0.7,0.7,1.6,1.8,2.7c1.3,1.3,2,0.4,1.3,3.1
		c-0.4,2,0.7,2.5,0,3.8c-0.2,0.7-2.9,1.6-3.8,2.5c-0.9,0.9-2.7,1.3-4,1.3c-1.3,0,0.4,2.7,1.3,3.6c1.3,1.3,1.8,2,3.8,3.1
		c1.6,0.7,4,1.3,5.6,1.8c2.5,0.7,2.2,0.4,2.9,3.1c0.4,1.8,2.5,1.6,4.5,1.1c1.8-0.4,3.8,2,4.9,2.5c2.2,1.1,2.9,1.1,4,2.5
		c2,2,3.6,1.3,6.2,2c1.8,0.4,2.7,2.2,4,3.6c1.6,1.1,1.6,2.2,3.3,3.1c1.1,0.4,4,0,5.1,0c1.6,0,2.2,1.3,3.1,2c1.8,1.8,1.8,2.2,4.5,2.7
		c2,0.4,2.9,0.9,4,2c2.2,2.2,2.2,2,5.8,2c2.2,0,4.2,0.7,6.5,0.7c2,0,3.1-0.7,4.9-0.7c1.3,0,2.7-1.6,3.6-2.5c0.7-0.7,4.9-0.2,5.8-0.4
		c1.1-0.2,3.8,0.4,5.1,0.4c2.2,0,4.5,0,6.5,0c1.8,0,3.6,0,5.6,0c2,0,3.3,0.9,5.1,1.3c1.6,0.4,2,0.9,3.8,1.3c0.9,0.2,3.3-0.7,4-1.1
		c0.7-0.4,3.3,1.8,3.6,2c1.6,1.6,1.8,0.7,4,0.7c0.4,0,1.1,2,3.1,2c1.1,0,2.5-1.8,3.1-2.5c1.6-1.1,3.8,0.7,4,1.1
		c1.6,1.6,1.8,2.5,1.8,3.1c0,0.9,3.6,1.6,4.5,1.8c1.3,0.4,2,1.6,2,3.3c0,1.3-1.6,2-1.1,3.8c0.4,2.2,2.9,0.2,2.9,3.6
		c0,1.8,0,3.3,0,5.1c0,1.3,0.4,3.1,0.4,4.9c0,1.1,3.3,2.5,4,3.1c1.3,1.3,2,1.8,2.5,3.3c0.4,1.6,2.5,2.9,3.6,3.8
		c1.1,1.1,2.2,1.3,3.1,2.5c0.2,0.2,0.2,0.2,0.4,0.4c1.8,1.8,1.1,2.9,3.3,4c1.3,0.7,0.7,3.1,0.4,4c-0.2,0.9,0.2,3.6,0,4.5
		c-0.4,1.8-0.4,3.6-0.9,4.9c-0.4,0.9-2.5,0.7-3.1,2c-0.7,1.3,1.8,3.1,2.5,3.8c1.3,1.3,2.9,1.8,3.8,2.9c0.9,0.9,0.4,3.6,0.4,4.9
		c0,2.2,0.2,2.9-1.3,3.8c-1.6,0.9-2.7,1.3-3.1,2.9c-0.4,1.3,1.3,2.9,2,3.3c1.1,1.1,2.7,2.2,3.8,3.1c0.4,0.4,0.7,3.6,1.8,4.5
		c1.1,1.1,1.6,2.2,2.5,3.1c1.1,1.1,1.8,1.8,2.7,2.7c1.1,1.1,1.8,2,2.9,3.1c1.1,1.1,2.2,1.6,3.3,2.7c1.1,1.1,1.1,2.2,3.1,3.1
		c2,1.1,4,1.8,5.8,2.5c0.7,0.2,3.1,2.7,3.8,3.3c0.9,0.9,2.2,1.8,3.1,2.9c1.3,1.1,1.8,1.8,3.1,2.5c1.1,0.7,2.7,0.9,3.8,1.3
		c1.3,0.7,4.2,0.2,6.2,0.7c2,0.4,3.8,1.1,5.8,1.1c2,0,3.3,0.4,5.1,0.9c1.1,0.2,2.2,2.2,2.7,3.1c0.4,0.9,2.5,2,3.1,2.7
		c1.3,1.3,2,1.8,3.3,3.1c0.9,0.9,2.2,1.8,3.8,1.8c2.7,0,2.5-0.2,3.8-1.8c1.1-1.1,1.1-2.5,2-3.6c1.3-1.3,1.6-1.1,2-3.1
		c0.4-1.6,0.2-3.6,0.7-5.1c0.4-1.8,0-3.8,0.4-5.6c0.4-1.8,0.7-3.1,0.7-5.1c0-1.3,0.4-3.3,0.4-4.9c0-2,0-3.8-0.4-5.6
		c-0.4-1.8,0.9-2.9,1.3-3.8c0.9-2,1.6-2.9,2-5.1c0.4-2,0.9-3.6,1.8-5.1s0.7-3.1,0.7-5.1c0-1.3,2.2-1.8,2.9-2.5
		c0.7-0.7,0.4-3.8,0.7-4.5c0-0.4,2.9-1.6,3.3-2c0.7-0.7,2.7-1.3,3.3-1.8c1.3-0.7,1.1-2.5,1.3-3.8c0.4-1.6,0-3.8-0.4-4.9
		c-0.4-2,0.7-3.1,1.8-3.8c1.1-0.7,2.7-1.3,3.8-1.8s0.7-3.1,1.1-4c0.2-0.9-1.8-1.6-1.3-3.1c0.2-0.9,2-2,2.7-2.5
		c1.6-0.9-0.9-2.2-1.8-2.5c-1.6-0.4-2.7-0.7-3.6-1.8c-0.7-0.7-1.3-2.9-1.8-4.2c-0.4-2-1.8-2.5-1.8-4.9c0-1.6,0.4-3.8,0.4-5.8
		c0-0.4-2-2.2-2.5-2.9c-0.7-1.3-0.7-3.3-1.1-4.9c-0.4-1.8-1.1-3.3-1.3-4.9c-0.4-1.3-1.3-2.5-2-4c-0.7-1.6-1.6-2.5-2.7-3.1
		c-0.2-0.2-0.9-3.8-1.1-4.2c-0.4-1.1-2.2-2-3.1-2.7c-1.1-1.1-1.6-2.7-3.1-3.8c-1.8-1.3-2.2-3.3-2.7-5.1c-0.4-1.3-3.1-2.7-4-3.1
		c-2-0.9-3.3-2.7-4.5-4c-1.6-2-2.5-2.5-4-4c-1.6-1.6-3.3-2.7-4.5-3.8c-0.9-0.9-1.8-2.2-2.7-3.1c-0.9-0.9-1.8-1.8-2.5-3.1
		c-0.4-1.1-2.5-2.5-3.1-3.1c-0.9-0.9-0.9-2.7-1.8-3.6c-0.9-0.9-1.3-2.5-2.5-3.3c-1.1-1.1-1.1-2-2.5-3.3c-1.1-1.1-2.2-1.3-4-1.3
		c-2,0-2.9-0.7-4.5-1.1c-2-0.4-3.6-1.3-4.5-3.3c-0.2-0.4-2.9-1.3-3.3-1.8c-1.1-1.1-2.7-2-4-3.3c-1.3-1.3-2.7-1.6-3.8-2.9
		c-1.3-1.3-3.1-2.5-4-3.3c-0.2-0.2-0.2-0.4-0.4-0.7c-0.9-1.8-1.6-2.2-2-3.8c-0.2-0.9-2.2-2.5-2.9-3.1c-0.9-0.9-2.5-0.9-3.3-1.8
		c-1.3-1.3,1.1-2.5,1.8-2.9c1.1-0.4,0.9-3.1,0.9-4.5c0-0.7-0.4-1.6-0.7-2.5c0-0.7-5.1-3.1-5.1-3.1c-1.1-0.4-0.7-3.1-0.9-4
		c-0.4-1.8,3.3-1.3-0.4-3.1c-1.6-0.7-3.8-0.4-5.6-0.4c-1.6,0-3.1-1.6-4.5-2c-1.3-0.7-1.1-3.1-1.1-4.9s-1.3-2-2.5-3.1
		c-0.9-0.9-2.7-2.9-3.3-3.8c-0.2-0.2-2.2,3.3-2.5,3.3c-0.4,0.9-4.2,0.4-5.1,0.4c-1.3,0-3.3-0.4-4.5-0.7c-3.1-0.7-4-0.2-6.2-2
		c-0.9-0.7-3.1-1.3-4.5-1.8c-2-0.4-2.9-1.6-2.9-3.3c0-1.3-1.8-2.5-2.7-3.1c-1.1-0.7-3.1-1.1-4-1.8c-1.8-0.9-2.7-1.8-4.2-2.5
		c-1.6-0.7-2.5-1.6-3.3-2.5c-0.9-0.9-1.8-2.5-2.5-3.3c-0.4-0.7-3.6-1.3-4.5-1.8c-1.6-0.9-2.9-1.8-5.1-1.8c-1.6,0-3.1-1.1-4.5-1.3
		c-2-0.4-4.2-1.6-5.8-2.5c-1.6-0.9-3.8-1.3-5.1-1.8c-1.6-0.4-3.3-0.7-5.1-1.1c-1.8-0.4-2.5-0.9-4.5-1.3c-1.3-0.2-2.2-1.6-3.8-2
		c-1.3-0.4-2.7-1.1-3.8-1.8c-2-0.9-2.2-0.2-3.8-1.8c-1.1-1.1-1.8-2.5-2.9-3.6c-0.9-0.9-1.3-2-2.7-2.7c-1.3-0.7-1.6-2-3.1-2.5
		c-0.4,0-2.7-2.2-3.1-2.7c-1.3-1.3-2.2-2-3.3-3.1c-1.1-1.1-1.1-2-2.9-2.5c-1.6-0.4-2.5-2-3.1-2.9c-0.9-1.3-2.9-1.8-4.9-1.8
		c-1.8,0-2-1.6-3.1-2.5c-1.1-1.1-2.2-2.2-3.1-3.3c-0.9-1.3-1.8-2.5-2.5-3.8c-0.7-1.1-2-2.5-2.9-3.8c-0.7-1.1-0.7-2-1.8-3.1
		c-1.1-1.1-2-1.8-3.1-2.5c-1.8-0.9-2.5-0.4-4.5-0.4c-1.1,0-2.2-1.6-2.7-2.5c-0.7-1.3-2.7-2-3.6-2.7c-1.8-1.3-3.1-1.6-5.1-2.5
		c-1.6-0.7-2-1.1-3.1-2c-1.1-1.1-1.8-2.5-2.5-3.6c-0.9-1.1-2.9-1.8-4-2.5c-1.1-0.4-2.5-1.1-3.3-2c-0.4-0.4-3.1-1.1-3.8-1.3
		c-1.8-0.9-2.9-1.8-3.8-2.7c-1.3-1.3-1.1-2.2-3.1-2.7c-1.8-0.4-3.3-1.8-4.5-2.5c-0.9-0.7-2.9-1.1-4-1.3c-0.7-0.2-1.6,0-2,0
		c-2.5-0.7-7.6-4.2-10-5.6c-1.3-0.7-3.1-1.3-5.1-1.3c-1.3,0-3.8-0.4-5.1-0.7c-2-0.4-4-1.6-5.6-2.5c-1.6-0.9-2.9-1.8-4.9-2.5
		c-0.9-0.2-1.8-2.7-2.5-3.1c-1.1-1.1-2.9-0.7-4.5-0.7c-1.8,0-3.3,0.2-5.1,0.2c-1.8,0-3.1-0.9-4.9-1.3c-2-0.4-2.2-1.3-3.6-2.5
		c-1.3-1.3-3.1-1.3-4-2.5c-0.7-0.7-2.9-1.3-3.8-1.8c-1.8-0.9-3.8-1.3-4.9-2.5c-0.9-0.9-4.5-0.2-5.8-0.9c-1.6-0.9-3.1-0.7-4.5-1.3
		c-1.6-0.9-3.1-1.6-4.9-2.5c-1.8-0.9-4.9-1.3-6.9-1.3c-1.6,0-3.1-1.6-4.9-2c-1.6-0.4-2.7-2-3.3-3.1c-0.9-1.1-4.7-2-5.8-2.9
		c-1.1-0.9-2.2-1.1-3.8-2.5c-1.1-0.9-1.6-2.2-2.5-3.6c-0.9-1.1-3.3-1.3-4.9-1.3c-1.8,0-3.3,0-5.1,0c-1.8,0-2.5-1.1-3.3-2
		c-1.6-1.6-0.4-2.5-2-3.3c-1.6-0.9-3.1-1.3-5.1-1.3c-2.2,0-3.8,0-5.1-0.7c-2.5-1.3-2.9-0.4-2.9,0c0-0.2-0.2-0.9-0.7-2.2
		c-1.1-1.1-2.9-2-3.8-2.9c-0.7-0.7-3.8-1.8-4.5-2c-2.2-0.4-2.7-1.3-4.9-1.3c-2.2,0-3.3-0.2-5.1-0.7c-1.3-0.4-3.3-2.2-5.6-2.7
		c-1.6-0.4-2.5-2.2-3.3-2.9c-1.6-0.7-2.2-1.3-3.6-2c-1.1-0.4-2.2-1.6-3.1-2c-1.8-0.9-3.6-1.3-6.2-2c-1.3-0.4-2.7-1.3-3.3-2
		c-0.9-0.9-3.6-1.8-4.9-2.9c-1.3-1.1-4-1.6-5.1-2c-1.8-0.9-2.9-2.5-4.5-2.9c-1.6-0.4-3.1-1.8-4.9-2.7c-1.6-0.7-3.6-1.8-5.1-2.5
		c-1.3-0.7-2-1.8-3.8-2.7c-1.8-0.9-3.1-2-4.5-2.5c-0.9-0.2-1.8-2.2-2.5-2.7c-1.3-1.3-2.2-1.6-3.3-2.7c-1.3-1.3-1.8-2.2-3.1-3.6
		c-1.1-1.1-1.3-2-2.5-3.1c-1.3-1.3-2.9-0.9-2.9-3.1c0-1.3-0.9-2.5-1.3-3.8c-0.4-2.2,0-2.2-0.7-3.8c-0.7-1.3-0.9-2.9-1.3-4
		c-0.7-1.3-0.7-2.7-1.1-4c-0.4-1.6-1.3-2.5-1.3-4.5c0-1.6-0.4-3.3-0.4-5.1c0-2,0.2-3.1,0.7-4.9c0.4-1.6,1.1-2.2,1.8-3.6
		c0.2-0.7,2.7-1.8,3.1-2.5c0.9-0.9,2.7-1.6,3.6-2c1.8-0.9,2.5-2,4.9-3.1c1.1-0.7,2-1.8,3.1-2.9c0.9-0.9,2.7-1.6,3.8-2
		c1.1-0.7,2.7-0.9,3.8-2c1.3-1.3,2.7-0.4,4-2.7c0.9-1.6,1.8-2,3.3-2.5c1.1-0.2,1.8-2.2,2.5-2.7c1.1-1.1,3.8-1.3,4.9-1.8
		c1.1-0.7,1.8-2,2.7-3.1c0.9-1.1,1.6-2.5,2-3.6c0.7-1.6,2.7-1.3,4-1.8c1.6-0.4,2.9-0.7,4-1.1c0.9-0.2,2.2-2.2,2.7-2.9
		c1.3-1.3,0.9-2.2,2.9-3.1c2.5-1.1,2.2-1.1,2.7-3.8c0.4-2,0.7-2.2,1.3-3.8c0.9-1.6,1.6-1.1,2-3.1c0.2-1.3-0.7-2.7-0.7-4.5
		c0-2-0.4-3.1-0.7-4.5c-0.2-0.7-2.7-2-3.1-2.5c-1.1-1.1-1.1-2.2-2-3.1c-0.9-0.9-1.3-2.2-1.8-3.3c-0.2-1.1,2.7-0.9,3.1-2
		c0.4-0.9,0.7-2,1.3-2.7c0.9-0.9-2.5-1.1-3.8-1.3c-2.7-0.7-1.8-0.7-2.5-3.1c0-0.2-3.3-2-4.2-2c-2.2-0.4-2.5,0.9-4-0.7
		c-1.1-1.1-1.6-1.8-2.5-2.7c-1.1-1.1-2-2.2-2.9-3.1c-1.3-1.3-1.8-2.2-2.7-3.1c-0.9-0.9-3.8-0.7-4.9-0.7c-2,0-2.5,0.2-4-0.7
		C651,347,649,347.2,647.2,347.2L647.2,347.2z"/>
	<path id="molise_1_" class="st0" d="M239.8,425.8c-3.8,2.2-0.2-0.9,0-0.4c0.2,0.4,3.8,3.8,4.9,5.8c0.9,1.8,2,4,2.7,6.2
		c0.7,2.5,0.7,5.1,0.7,7.4c0,2.7-0.9,5.6-0.9,7.8c0,1.8-0.9,3.3-1.6,4.5c-0.7,1.1-1.3,2-1.6,2.5c-0.7,1.6-1.1,3.6-2,5.3
		c-0.9,1.6-1.1,2.7-1.1,5.3c0,1.3,0.7,3.3,1.1,4.5c0.4,0.7,0.7,0.9,0.7,1.3c0,0.2,0.2,0.4,0.2,0.7s0.2,0.2,0,1.1c0,0,0,0.2-0.2,0.4
		c0,0.2-0.2,0.4-0.2,0.4s-0.2,0-0.2,0.2l0,0c0,0,0.2,0.2,0.7,0.7c0.7,0.4,1.3,1.1,2,1.8c2,2,2,4.7,2,6.5c0,2.7-0.7,4.2,0,6.2
		c0.2,1.3,0.4,1.6,0.9,2c0.4,0.4,0.9,1.1,1.6,2.5c0.4,0.9,1.1,1.3,2.9,1.8c1.1,0.2,4.5-0.2,5.6-0.4c0,0,0,0,0.2-0.4
		c0.2-0.4,0.9-1.3,1.8-1.8c0.9-0.4,1.8-0.7,2.9-0.7c1.6,0,2.2-0.2,2.2-0.2l0.2-0.4c0-0.2-0.2-0.2-0.4-0.4c-0.2-0.4-0.7-0.9-1.1-1.1
		c-0.4-0.2-0.7-0.7-1.1-1.6c-1.1-2-1.8-4.5-2.2-6.2c-0.4-1.6-1.6-3.1-1.6-6.2c0-1.6,0-2.9,0.7-4.2c0.4-1.1,1.6-2.2,2.7-2.9
		c0,0,0.2-0.2,0.4-0.4c-0.2,0-0.2,0.2-0.4,0.2c0.2-0.2,0.2-0.9,0.4-1.3c0.2-0.7,0.4-1.1,0.4-1.8c0.2-0.4,0.2-0.9,0.4-1.6
		c0.4-1.1,1.6-1.6,2.2-2c0.7-0.4,1.6-0.4,2.5-0.7c1.6-0.2,3.1-0.2,4.2-0.2c2.9,0,5.6,0,8.2,1.3c1.6,0.9,3.3,1.1,5.8,1.1
		c3.3,0,5.3,1.1,7.1,2.5c0.9,0.7,1.1,0.9,1.8,0.9c0.7,0,1.6,0.2,3.1,0.2c1.8,0,3.3,0.2,4.5,0.9c1.1,0.7,1.8,1.3,2.5,2.2
		c0.7,0.7,1.1,0.9,2,1.3c0.9,0.4,2,1.8,2.5,3.6c0,0,0.4,0.9,1.3,1.6c0.9,0.7,1.8,1.3,2,1.3c1.6,0.7,1.8,1.1,2.9,1.1l-0.2-0.2
		l4.7,1.3c0.4,0.4,0.9,0.7,1.1,1.1c0.7,0.7,0.9,0.9,1.1,0.9c2.2,0.4,5.1,2,6.2,2.7c1.6,0.7,2.2,1.8,2.9,2.7c0.7,0.9,1.1,1.3,1.1,1.3
		c0.9,0.4,1.6,0.7,2.5,0.9c0.9,0.2,2,0.9,2.9,1.8c-0.2-0.2,1.1,0.4,2.5,0.7s2.7,0.4,4,0.7c2.2,0.7,3.1,0.9,5.8,0.9
		c2,0,5.1,0.4,7.4,0.9c1.3,0.4,2.2,0.7,3.1,1.1c0.9,0.4,1.3,0.7,2.2,0.9c0.7,0.2,0.9,0.2,1.8-0.2c0.9-0.4,2.2-0.9,4-0.9
		c1.3,0,1.6,0,2-0.2c0.4-0.2,1.1-0.7,2.2-1.3c0.2,0,1.1-0.7,1.8-1.3c0.7-0.7,1.6-1.3,2.2-1.8c1.8-1.3,3.1-2,5.1-2.9l0,0
		c0-0.2,0.2-0.4,0.4-0.9c0.4-0.9,1.8-2.5,3.6-2.9l0,0c0.2-0.2,0.4-0.4,0.7-0.9c0.4-0.9,1.1-2,2.7-2.9c0.7-0.2,0.9-0.4,1.1-0.7
		c-0.2,0.2,0-0.4,0-2.2c0-0.9,0-1.8,0.4-2.7c0.4-0.9,1.1-1.6,1.8-2c1.3-0.9,2.5-0.7,3.3-0.9c2.5-0.7,4.7,0.2,6,1.6s2.2,2.9,2.7,4.5
		c0.2,1.1,1.1,1.6,2.7,2.5c0,0,0.7,0,1.3,0c0.9,0,2.2,0,3.8,0.4c0.4,0,0.4,0,0.4,0l0,0c0.2-0.2,0.4-1.1,0.9-2.2
		c0.9-1.6,2-2.2,2.9-2.9c0.9-0.7,2-1.3,2.2-1.6c0.7-0.7,0.9-1.3,1.6-2c0.7-0.7,1.6-2,2.9-2.7c2.5-1.3,5.1-2,7.8-2.7
		c0.9-0.2,1.3-0.4,2-0.4c-0.7-0.7-1.1-1.6-1.3-2.7c-0.2-1.3-1.3-3.3-2-5.3c-0.7-2.5-0.7-4.9,0.7-7.4c0.7-1.6,1.3-2.9,1.8-4.9
		c0.7-2.5,0.4-2.9,0.4-5.8c0-3.3,0.9-5.6,0.9-7.8c0,0-0.2-2-0.2-3.8c0-0.9,0-1.6,0.2-2.5c0-0.4,0.2-0.9,0.4-1.3
		c0.2-0.4,0.7-1.3,1.8-1.6c0.9-0.2,2.2-0.4,3.6-0.2c1.3,0.2,2.9,1.1,3.8,2.9c0.7,1.3,1.8,3.1,2.5,3.3c1.6,0.9,3.3,1.8,4.7,1.3
		c1.8-0.4,2-0.4,2.9-2.2c0.9-2,2-4.2,3.8-6c1.3-1.3,2.2-2.2,4-3.6c0.7-0.7,1.8-1.1,2.7-1.8s1.8-1.3,2-1.6c1.6-1.6,3.1-2.9,5.8-3.6
		c1.3-0.2,1.6-0.2,1.8-0.4c0-0.2,0-0.2,0-0.4c-0.4-1.8-0.7-2.5-1.8-2.9c-1.6-0.9-3.3-1.6-4.9-3.3c-1.8-1.8-2.5-3.8-2.9-4.5
		c-1.6-1.6-2.7-3.8-2.7-6.5c0-2.5-0.4-4.2-0.4-6.9c0-2.5,0-4.9,1.3-7.4c0.4-0.7,0.4-1.1,0.7-1.8c0.2-0.7,0.2-2,0.7-3.6
		c0.4-1.6,1.1-2.7,1.8-3.6c0.7-0.9,0.7-1.3,0.7-1.3c0-1.1,0-2.5,0.4-3.8c0.2-1.3,0.4-2.9,1.8-4c0.7-0.7,0.4-0.2,0.4-0.9
		c0-0.7,0-2,0.4-4c0.4-2,1.6-4.9,2.5-7.4c0,0,0,0-0.2,0c-1.8,0-4.2,0-5.6-0.4c-1.8-0.4-3.1-1.1-4-1.8c-1.3-0.7-2.9-2.5-3.6-3.8
		c-0.2-0.7-2.9-1.8-3.8-2c-2.2-1.1-2.5-5.1-4-6.9c-1.6-1.6-1.1-1.3-3.8-2c-1.8-0.4-2.9-2.2-4.5-3.1c-1.6-0.9-2.9-1.6-4.9-2.5
		c-1.6-0.7-3.1-1.6-4.9-2.5c-1.8-0.9-2.9-1.1-5.1-1.1c-2,0-3.3,0-4.9-0.7c-1.6-0.7-2.7-1.6-3.6-2.5c-1.1-1.1-2.9-1.3-4.5-2.5
		c-1.3-0.9-2.7-2-4.5-2.5c-1.8-0.4-2.7-0.7-3.1-2.5c-0.4-1.6-3.1-1.3-4.5-2c-0.2,0-0.2-0.2-0.4-0.2c0,1.8-0.2,3.8-0.7,5.6
		c-0.4,1.6-1.1,3.1-2,4.7s-1.3,2.9-1.6,3.6c-0.2,1.3-0.9,2.5-1.6,3.6c-0.7,1.1-1.3,2.2-1.6,2.7c-0.7,1.3-1.6,2.2-2.5,2.9
		c-0.9,0.7-1.6,1.6-1.6,1.6c-1.1,2.5-2.9,4-4.9,6c-1.3,1.3-2.2,3.1-4.2,5.3c-0.4,0.4-0.9,1.3-1.3,2.2s-0.7,2-1.1,3.1
		c-0.7,1.1-1.3,4-2.5,6.2c-0.4,1.1-1.1,2.2-2,3.1c-0.7,0.9-1.8,2-3.3,2.2c0,0,0,0-0.2,0c0,0-0.2,0-0.2,0.2c-0.2,0.2-0.7,0.4-1.1,0.7
		c-0.7,0.4-1.8,0.9-2.7,1.3c0,0.2-0.2,0.4-0.2,1.1c0,1.1,0.2,2.7,0.2,3.8c0,0.9-0.2,1.1-0.4,1.6c-0.2,0.4-0.4,0.7-0.7,1.1
		c-0.4,0.7-0.9,1.3-1.6,2c-0.7,0.7-1.1,1.3-1.6,1.8c-0.4,0.4-0.7,1.1-0.7,0.7c-1.1,2-1.1,3.3-1.8,5.8c-0.2,1.1-0.7,2.5-1.6,3.6
		s-2.2,1.6-3.6,2c0,0-1.1,0.7-2,1.3c-0.9,0.7-1.8,1.6-2.2,2c-2.2,2.2-4.7,2.5-6.5,3.3c-1.6,0.7-2.5,1.1-2.5,1.1s-0.4,3.1-3.1,0.7
		s-4.5-5.8-4.5-10.3c-0.4-3.6,0.7-3.8,0-4.9c-1.6-2-3.8-13.8-6.9-16.3c-4.7-2.2-7.1-7.8-11.4-0.9c-8.9,4.9-8.2-9.6-18.1-7.4
		c-7.6,2.9-3.3,18.3-14.5,15.4c-5.8-5.6-8.5-6.5-9.4,1.1c-0.2,4.5,1.6,8.7,4,11.8c2.5,3.1,5.6,4.7,8,7.6c1.8,6.2-6,7.8-8.2,8.9
		c-2,2.7-4,13.1-14,7.1c-1.6-6.5-7.4,3.3-3.3,5.6c-4.2,8.2-13.6,0.9-16.3,0.4C241.8,423.6,243.6,423.8,239.8,425.8L239.8,425.8z"/>
	<path id="campania_1_" class="st0" d="M270.6,470.4c-0.7,0-1.3,0-1.8,0.2c-0.4,0.2-1.1,0.2-1.3,0.2c0,0,0,0.2-0.2,0.7
		c-0.2,0.4-0.2,1.1-0.4,1.8c-0.2,0.7-0.4,1.1-0.7,1.8c-0.2,0.2-0.2,0.7-0.4,0.9c-0.2,0.2-0.2,0.9-1.1,1.1c-0.9,0.4-0.9,0.4-1.1,0.7
		s-0.2,1.1-0.2,2.7c0,2.2,0.9,2.9,1.3,5.3c0.4,1.6,1.1,3.8,1.8,5.1l0,0l0,0c0,0,0.2,0.2,0.4,0.4c0.2,0.2,0.7,0.7,1.1,1.1
		c0.4,0.4,0.9,1.1,1.1,1.8c0.2,0.7,0.9,1.8,0.2,3.1c-0.7,1.1-1.3,2.5-2.7,2.9c-1.3,0.4-2.7,0.7-4.2,0.7c-0.7,0-0.9,0-0.7,0
		c0,0.2-0.2,0.7-0.7,1.3c-0.4,0.7-1.3,1.3-2.5,1.6c-1.6,0.4-4.9,1.3-7.8,0.4c-2.2-0.4-4.7-1.6-5.8-4c-0.4-0.9-0.7-1.1-1.1-2
		c-0.4-0.9-0.9-1.8-1.3-3.3c-0.9-3.1,0-5.6,0-7.4c0-1.6,0-2.5-0.7-3.3c-0.2-0.2-1.1-0.9-2-1.6c-0.9-0.7-2.2-1.8-2.2-3.8
		c0-0.2,0-0.2,0-0.4c-0.2,0-0.7,0-1.1,0.2c-0.9,0.2-0.7,0-0.9,0.7c-0.2,0.4-0.7,1.8-2,3.1c-1.1,1.1-2,2.2-2.5,3.8
		c-0.2,1.1-0.7,2.2-1.1,3.1c-0.4,0.9-1.6,2-2.9,2.7c-2,0.9-2.9,1.3-5.8,2c-0.4,0-0.4,0.2-0.7,0.2c0.7,2.5,0.7,5.3,0.9,6.9
		c0.9,3.3,0.2,5.3-0.4,7.8c-0.2,0.7-0.2,0.9,0,1.6c0.2,0.7,0.7,1.8,0.9,3.1c0,0.2,0.4,1.8,0.9,3.1c0.2,0.7,0.4,1.3,0.4,1.8
		c0,0.2,0,0.4,0.2,0.9c0,0.2,0,0.2,0,0.4c0,0.2,0,0.4-0.2,0.9c0,0,0,0.4-0.2,0.7c0,0.4-0.2,1.1-0.2,1.8c0,0.7-0.2,1.3-0.4,2
		c-0.2,0.7-0.2,1.3-1.1,2.2c-0.9,0.9-2.2,2.9-4.9,4.2c-0.2,0.2-0.9,0.7-1.6,1.6c-0.7,0.9-1.3,2-2.9,2.7c-0.4,0.2-0.4,0.2-0.7,1.1
		c-0.2,0.9-1.1,2-2.7,2.9c-2.2,1.1-4.2,1.3-6.9,2c-0.4,0.2-3.3,1.1-5.8,1.8c-0.4,0.2-0.9,0.2-1.3,0.4c1.3,1.3,2.5,2.5,3.6,3.6
		c1.3,1.3,1.8,2.2,3.3,3.3c1.6,1.3,2.9,2.7,4.5,4c1.1,1.1,1.6,2.9,2.7,4.5c1.1,1.6,1.8,3.6,3.1,4.9c0.9,0.9,1.8,2.9,2,3.8
		c0.4,1.3,2,3.6,2.9,4.5c1.1,1.1,1.1,3.8,2.5,5.1c1.3,1.3,1.6,2.9,3.1,3.8c2,0.9,3.1,3.8,3.3,5.1c0.4,2.2,1.1,3.8,1.1,6.2
		c0,2,0.4,3.8,0.7,5.8c0.2,1.3,2,3.1,3.1,3.8c1.3,0.7,2.7,3.1,3.8,4c1.1,1.1,2,2.5,3.1,4c0.9,1.3,2,3.8,2.7,5.1
		c0.9,1.6,2.2,3.3,3.1,4.9c0.7,1.1,1.1,2.7,1.1,4.2c0,0.2,0.2,0.4,0.4,0.7l0.2,0.2c-0.2-0.2-0.2-0.4-0.4-0.4l0,0
		c0.4,0.2,0.4,0.4,0.2,0.4c0.7,0.9,2.2,2.7,3.1,4.7c0.7,1.6,1.6,3.3,2,5.1c0.2,0.9,1.1,3.3,2,4.5c1.1,1.6,0.7,4,0.7,5.8
		c0,1.6-1.1,3.3-1.3,4.9c-0.4,1.6-1.3,1.8-1.8,3.6c-0.4,1.6-0.7,2.7-0.4,4c0.2,1.1,3.6,0.7,4.9,0.7c2.2,0,3.6-0.7,4,1.3
		c0.4,1.8,2.5,1.3,3.1,1.1c1.8-0.9-1.8-4-2.5-4.5c-0.9-0.7-1.6-3.3-1.8-4c-0.4-1.8-1.3-1.6-0.4-3.3c0-0.2,3.6-1.3,4-1.8
		c1.3-1.3,3.1-0.7,4,0.4c1.1,1.1,3.6,1.8,4.9,2.5c2,0.9,3.6,2,4.9,3.1c1.1,1.1-1.6,3.3-2,3.8c-2,2,2.2,2,3.1,1.8
		c1.3-0.2,2.2-2.5,3.8-2.9c2.2-0.4,3.1,0,4.5-1.3c0.9-0.9,1.1-3.1,1.3-4.2c0-0.2,3.3-2,3.8-2.5c1.1-1.1,2.5-1.3,4.5-1.3
		c1.8,0,3.6-0.4,5.6-0.4c1.3,0,3.6,1.3,4.9,2.5c1.3,1.1,3.6,1.6,5.1,2.5c1.3,0.7,1.8,2.2,3.6,3.1c0.7,0.2,2,3.6,2.5,4.5
		c0.9,1.8,0.9,3.3,2,4.9c0.7,1.1,2.2,1.8,3.1,2.5c1.3,0.9,2,2.2,2.9,3.1c1.1,1.1,1.8,1.3,3.3,1.8c1.3,0.2,3.1-1.3,4.9-0.9
		c1.3,0.4,2,2.9,2.7,3.8c1.1,1.6,1.8,2.5,3.1,3.8c1.1,1.1,1.8,2.7,1.8,4.5c0,2-2,2.5-3.8,2.9c-2.2,0.7-3.1,1.3-4,2.5
		c-1.1,1.1-1.8,2.2-2.5,3.3c-0.9,1.6-1.6,3.1-2.5,4.5c-0.7,1.3-1.3,2.2-2.5,3.3s-1.8,1.8-3.1,2.5c-1.6,0.7-2.7,0.9-4.5,0.4
		c-2-0.4-2.9-0.9-3.8-2.5c-0.9-1.8-2.2-1.8-2.9,0.7c-0.4,1.6,0,3.8-0.4,4.9c-0.2,1.3-1.6,2.5-2,4s-0.4,2.9-0.4,4.9
		c0,1.6,0.9,2.7,1.8,3.3c1.3,1.3,3.3,1.1,4.9,0.7c0.4,0,2.2-2.9,2.9-3.3c1.3-1.3,3.6-2,5.6-2.5c1.8-0.4,2.9-1.6,4.9-2
		c2.2-0.7,3.6-0.9,5.6-1.8c1.6-0.7,2.2-1.1,3.3-1.8c1.1-0.7,2.2-1.1,3.3-1.8c0.9-0.4,1.3-2.9,1.8-3.6c0.9-1.8,2.5,2.2,2.7,2.5
		c0.2,0.7,4,1.8,4.9,2.5c1.8,1.3,2,1.6,2.7,1.8c2,0.4-1.8-3.6-3.3-4.9c-1.8-1.3-3.6-1.3-5.1-3.1c-0.7-0.7,4.7-0.2,5.1,0
		c1.8,0.4,3.1,1.3,3.8,2.7c0.7,1.6,1.1,2.2,2,3.1c1.3,1.3,1.6,1.6,3.6,1.1c1.6-0.4,3.1-1.3,4-2c1.1-0.9,2.9-1.1,4-1.8
		c1.6-0.9,1.6-1.6,2.9-2.7c1.3-1.3,1.8-2,3.3-2.5c1.8-0.4,4,1.3,4.9,2c0.9,0.9,0.4,0.2,1.1,0.4c0.2,0,0.2,0,0.4,0
		c-0.9,0.4,2.9,0,3.1,0.9c0.4,1.8,2.7-0.2,3.3-0.7c0.7-0.4,0.7-3.3,0.7-4.5c0-2,0.4-2.9,1.1-4c0.4-1.1,3.1-1.1,4.5-1.1
		c2,0,3.8,0.2,5.6,0.7c2,0.4,2.9,1.3,4.9,1.3c1.1,0,4,2.5,4.5,2.7c1.3,1.1,2.2,0.9,2.9,2.9c0.2,0.9,2.5,3.3,3.1,4.5
		c0.9,1.6,2,3.3,2.7,4.5c1.6,2,2.2,3.1,3.8,4.9c1.3,1.3,1.8,2.7,2.7,3.8c1.1,1.1,1.8,1.6,3.3,2.5c1.1,0.7,1.6,3.1,2,4
		c0.7,1.3,0.7,3.1,1.1,4.5c0.4,1.8,1.1,3.1,1.8,4.5c0.7,1.6,1.3,3.1,1.8,4.5c0.4,1.8,1.3,3.3,2,4.9c0.9,1.6,1.6,3.3,2.7,4.5
		c1.1,1.1,1.6,3.8,2.5,5.3c0.9,1.8,1.8,2.9,2.5,5.1c0.4,1.6,1.1,3.3,1.3,4.9c0.4,2,1.1,3.6,1.1,4.9c0,0.9-1.6-1.3,0.4,2.5
		c0.7,1.1,0.4,3.1,0.4,4.9c0,1.3-2,2.2-2.9,3.1c-1.3,1.3-2.7,1.3-4,2c-1.8,0.9-2.7,2-3.8,3.1c-0.9,0.9-1.3,2.7-1.8,3.8
		c-0.4,1.6,0.7,3.3,1.1,4c0.7,1.3,1.1,2.2,1.1,4c0,0.7-0.4,1.1-0.7,1.8c-0.4,0.9-2.5,1.8-3.1,2c-1.3,0.7-2.5,1.1-3.3,1.8
		c-1.8,0.9-2,1.1-2.7,2.7c-0.9,1.8,0.4,2.5,0.9,3.6c0.4,1.1,2.5,1.8,3.1,3.1c0.7,1.1,2.5,1.3,3.8,1.8c1.8,0.4,2.9-0.7,2.9-2.5
		c0-2.7,2.9,0,3.1,0.4c1.3,1.3,0.9,2.9,2.7,3.8c1.3,0.7,2.5,1.3,3.8,2c1.6,0.7,2.5,2.9,2.7,3.8c0.2,1.1,2.5,2.7,3.1,4
		c0.7,1.1,2.7,2.2,3.8,2.9c1.8,0.9,2.2-2.9,3.1,0.4c0.4,2,2.7,1.3,3.8,0.4c1.3-1.3,1.3-1.6,3.1-2c1.8-0.4,4.2,0,5.6,0.4
		c2,0.4,3.8,1.1,5.1,1.8c1.1,0.7,1.6,2.7,2,3.8c0.9,1.8,0.9,2.7,2.5,4c1.1,1.1,0.9,2.2,3.1,2.9c2.2,0.4,3.1,0,4.9,1.3
		c0.9,0.7,3.1,1.8,4.5,2c1.1,0.2,2.7,2.9,3.1,3.8c0.7,1.3,1.8,2.5,2.7,3.3c1.3,1.3,2,2.5,2.7,3.8c0.4,0.7,2.2,2.2,2.9,2.7
		c1.1,1.1,1.1,2.2,1.1,4c0,2.5-0.9,2-2.9,2.5c-1.6,0.4-3.8,0.2-4,0.4c-1.3,0.2,0.4,2.9,1.3,3.8c1.6,1.6,3.8,1.1,5.1,0.4
		c0.9-0.4,1.6-2.2,2-3.1c0.7-1.3,4,0,4.5,0.2c1.3,0.7,1.8,1.6,2.9,2.5c0.9,0.9,2,2.2,2.5,3.1c0.7,1.3,2.5,1.1,4.2,1.1
		c1.3,0,3.3-1.3,3.3,1.1c0,1.8-0.7,2.2,1.8,0.4c1.1-0.9,2.9,0.2,3.8,0.7c1.8,0.9,3.3,0,4.5-0.4c1.1-0.2,2-2.2,2.7-3.1
		c1.3-1.8,1.6-2.9,2.9-4c1.3-1.3,2.7-2.9,3.3-4.5c0.7-1.1,2.2-2,3.1-3.1c0.9-1.1,2-2.7,2.7-3.6c1.1-1.1,3.3-1.3,4.5-1.8
		c1.8-0.4,3.8-0.4,5.1-1.1c1.8-0.9,2.2-1.1,4.5-1.1c2.5,0,3.6,0.2,5.1,1.1c0.9,0.4,1.6,0.4,2.5,0.7c2,1.1,3.1,2,4,3.1
		c1.1,1.1,0.7,3.3,1.1,4.9c0.2,1.3,3.6,0.4,4.5,0.4c0.4,0,0.7-0.2,0.9-0.2c0.7-2.7,1.6-5.1,1.6-6.9c0-2.5,0-5.1,0.7-7.8
		c0.2-0.4,0.2-1.6,0.4-2.9c0.2-1.3,0.4-2.7,1.8-4c0.9-0.9,0.9-0.9,0.9-1.3c0-0.4,0-1.6,0.4-3.6c0.2-1.3,0.9-2.7,1.3-3.8s0.7-2,0.7-2
		c0-3.6,0.9-4.9,1.6-7.1v-0.2c0-0.2,0-0.4,0-0.7c0-0.7,0.2-1.3,0.2-2.2c0-0.9,0.2-1.6,0.4-2.2c0-0.4,0.2-0.7,0.2-1.1
		c0-0.2,0-0.4,0.2-0.7c0.2-0.2,0.4-0.9,1.6-1.1c1.8-0.4,4.9-1.1,6.2-1.8c1.3-0.7,2.5-0.7,3.3-0.9c0.9-0.2,1.8-0.2,2.5-0.7
		c0.7-0.4,0.7-0.4,0.9-0.9s0.7-1.8,1.8-2.9c0.7-0.7,1.3-2,1.3-3.8c0-2.5,0-4.9,0-7.4c0-1.3,0-1.1-0.2-1.3c-0.2-0.2-1.3-1.1-2-2.7
		c-0.4-1.1-0.7-1.3-0.9-1.6c-0.2-0.2-0.7-0.4-2-0.7c0,0-1.6,0-3.1-0.2c-0.7,0-1.6,0-2.2-0.2c-0.7-0.2-1.6-0.4-2.5-1.1
		c0,0-0.2-0.2-0.4-0.2c-0.4-0.2-0.9-0.7-1.6-0.9s-1.1-0.7-1.6-0.9c-0.2-0.2-0.4-0.2-0.7-0.4c0,0-0.2-0.2-0.4-0.2
		c-0.2-0.2-0.4-0.2-0.7-1.1c-0.2-1.1-0.4-1.3-0.9-2s-1.1-1.6-1.8-2.9c-0.7-1.3-2.2-3.1-2.2-6.2c0-1.6,0.2-2.7,0.2-3.1s0-0.7-0.4-1.8
		c-0.2-0.2-0.9-1.1-1.8-2c-0.9-0.9-2-1.8-3.1-2.9c-1.6-1.6-1.8-2.2-4.2-3.3c-1.3-0.7-3.6-1.6-5.3-3.3c-0.2-0.2-1.1-1.1-1.8-1.8
		c-0.4-0.4-0.7-0.9-1.1-1.3s-0.7-0.7-0.9-1.8c-0.2-0.7-0.4-1.8-0.7-2.9c-0.2-0.4-0.4-1.1-0.4-1.3c-0.7-0.2-1.3-0.4-1.8-0.9
		c-0.7-0.7-0.9-1.8-1.1-2.2c0-1.1,0.2-0.9-0.2-1.3c-1.6-1.6-2.7-3.1-3.3-3.3c-0.2,0-1.6-0.7-2.7-1.3c-1.1-0.7-2.9-1.6-3.3-3.8
		c-0.2-1.3-0.4-1.3-1.1-1.8c-0.7-0.4-2.2-1.1-3.1-2.9c-0.7-1.3-1.8-2.5-2.9-4.9c-0.4-0.9-0.9-1.3-1.6-2.2c-0.7-0.9-1.6-2-2-3.6
		c-0.7-2.2-0.9-3.6-1.8-5.3c0,0-0.2-0.4-0.7-0.9c-0.4-0.4-0.7-1.1-1.1-1.8s-0.7-1.3-0.9-2c-0.2-0.4-0.2-0.7-0.2-1.3
		c0-0.7,0-1.3,0.7-2c0.7-0.7,0.7-0.9,0.9-1.3c0.2-0.4,0.2-1.1,0.4-2c0.4-1.8,1.6-2.9,2.2-3.3c0.7-0.4,0.7-0.4,0.7-0.9
		c0.2-1.1,0.2-1.8,0.4-1.8c-0.2-0.2-0.7-0.2-1.1-0.4c-2.2-1.1-3.1-2.2-4.5-2.9c-0.7-0.2-1.6-0.4-2.7-0.9s-2.5-0.9-3.8-2
		c-0.4-0.4-0.4-0.7-0.9-0.9c-0.4-0.2-0.7-0.9-0.9-1.3c-0.2-0.4-0.7-0.9-0.9-1.1l-0.2-0.2c-1.1-0.2-2.2-0.7-3.1-1.6
		c-1.1-0.9-1.6-2.5-1.8-4c0-0.4-0.7-1.3-1.1-2.2c-0.4-0.9-1.3-1.6-1.3-3.6c0-0.7-0.2-2-0.4-3.1c-0.2-0.7-0.2-1.1-0.4-1.8
		c0-0.4-0.4-0.7,0-1.8c0.2-0.7,0.4-2,0.7-3.1c0.2-1.1,0.2-2.5,0.2-2.2c-0.7-2.7-0.4-2.5-1.8-3.8c-0.4-0.4-2.5-1.8-3.8-3.1
		c-0.7-0.7-1.3-1.1-2-2.2c-0.2-0.7-0.4-1.3-0.2-2.2c0,0,0,0,0.2-0.2c0-0.2-0.2-0.2-0.2-0.7s-0.2-1.1,0-1.8c0.2-0.7,0.9-1.8,1.8-2
		c1.8-0.9,3.3-0.4,4.5-0.7c0.2,0,0.2,0,0.4,0c0-0.2,0-0.2,0-0.4c0-0.4,0.2-1.1,0.2-1.8c0-0.7,0.2-1.6,0.4-2.2s0.7-1.6,1.8-2.2
		c0,0,0.7-0.7,1.8-1.6s2.7-1.6,4.7-1.1c2.9,0.7,3.6,1.3,6.2,1.3c3.1,0,5.8,0.9,7.4,0.9s1.8-0.2,1.6,0c0,0,0.2-0.4,0.7-1.6
		c0,0,0.4-1.3,0.7-2.9c0.2-0.7,0.4-1.3,0.9-2s1.6-1.8,2.9-1.8c1.8,0,2-0.2,1.8-0.2s0.2-0.7,1.3-1.8c1.1-1.1,1.6-2.2,2.5-4.2
		c0.7-1.3,1.3-2,1.8-2.7c0.4-0.7,0.7-0.9,0.9-1.3c0.2-1.1,0.9-2.2,1.3-3.1s0.7-1.8,0.7-1.8c0-1.1,0.2-2.7,0.4-4c0-1.3-0.2-2.7,0-2.5
		c-0.7-1.3-0.7-2.2-0.9-3.3c-0.2-1.1-0.4-2-0.7-2.5c-1.1-2.2-1.1-3.6-2-5.3c-0.4-0.9-1.1-2-1.6-3.6c-0.2-0.7-0.2-1.3,0-2
		c-0.2-0.2-0.4-0.4-0.9-0.7c-1.1-0.7-1.8-1.3-2.9-2c-1.1-0.7-1.8-1.1-2-1.1c-3.6-0.7-5.3-1.8-7.8-2.5c-2-0.4-4.9-1.8-7.1-3.3
		c-0.7-0.4-1.6-1.1-2.5-1.6c-0.4-0.2-0.7-0.2-0.9-0.2c-1.1,0.9-2.5,1.3-3.6,1.6c-1.1,0-1.8,0-2.9,0.2c-1.8,0.4-3.1,0.9-4.9,1.8
		c-0.9,0.4-2,0.9-3.6,1.3c-1.6,0.4-3.3,0.7-5.1-0.2c-1.6-0.9-3.1-1.8-4.5-1.8c-2.7,0-5.1-0.9-6.9-2.7c-0.2-0.2-1.1-1.1-2-2
		c-0.4-0.4-0.9-0.9-1.1-1.3c-0.2-0.2-0.4-0.4-0.4-0.7c0-0.2-0.2-0.4-0.4-1.1c-0.4-1.8-0.9-3.8-1.6-5.8c-0.4-1.8-1.1-3.8-1.1-6.9
		c0-0.4-0.2-1.8-0.7-3.1c-0.4-1.3-0.7-2.9,0.2-4.7c0.2-0.7,0.4-0.9,0.9-1.1c0.4-0.2,0.7-0.9,0.9-1.3c0.2-0.4,0.4-0.7,0.7-0.9
		c-0.4-0.7-0.9-1.3-1.1-2.5s-0.2-2.5,0.2-4c0.7-2.5,0.9-3.6,0.9-6.2c0-1.6-0.2-1.8-0.4-2c-0.2-0.2-0.9-0.7-2-1.8
		c-0.7-0.7-1.1-0.9-1.6-1.1c-0.4-0.2-1.1-0.2-2.2-0.2c-2.9,0-4.9-1.1-6.9-1.6c-2-0.4-5.6-0.4-7.6,0c-1.1,0.2-2.2,0.9-4,0.4
		c-0.9-0.2-2-0.7-2.5-1.8c-0.4-1.1-0.7-1.8-0.7-2.9c0-1.6,0-2.2-0.2-2.5c-0.2-0.2-0.2-0.4-1.1-1.3c-1.6-1.6-2.7-2.7-3.8-4.9
		c-0.2-0.2-0.4-0.7-1.1-1.1s-1.6-1.3-2.2-2.7c-0.2-0.7-0.9-1.1-1.3-2.2s-0.7-2.7-0.2-4.2c0.4-1.8,0.7-4,2.2-6.2
		c1.1-1.6,2.2-2.9,2.7-4c0.2-0.9,0.2-3.8-0.4-4.9c-0.7-1.6-2-3.6-2.5-4c-0.2,0-0.2-0.2-0.7-0.2c-0.4-0.2-1.1-0.7-1.8-0.9
		c-0.7-0.2-1.3-0.7-2-0.9c-0.2-0.2-0.4-0.2-0.7-0.4c-0.2,0-0.2,0-0.4-0.2c-0.2,0-0.4,0-0.9-0.9c-0.4-0.9-1.6-1.6-3.3-3.3
		c-0.9-0.9-1.6-1.6-2-2c-0.4-0.4-0.9-0.9-1.8-1.3c-1.3-0.7-2.9-1.8-4.5-3.1c-2,0.4-3.3,0.9-5.8,1.3c-2.5,0.4-4.7,1.3-6.7,2.2
		c-0.7,0.4-0.9,0.4-1.1,1.1c-0.2,0.7-0.9,1.8-2.2,2.9c-0.9,0.9-2,1.6-2.9,2.2s-1.6,1.3-1.6,1.1c-0.2,0.2-0.4,1.6-1.3,2.9
		c-0.4,0.7-1.1,1.3-2,1.8c-0.9,0.4-2,0.2-3.1,0c-0.9-0.2-1.6-0.2-2.7-0.2c-0.9,0-1.8,0.2-3.1-0.4c-1.8-0.9-4.2-2.5-5.1-5.3
		c-0.2-0.7-0.7-1.6-1.3-2.2c-0.7-0.7-0.9-0.7-1.8-0.7c-1.3,0.2-2,0.4-2,0.4s-0.2,0.2-0.2,0.9c0,1.8,0.2,2.9-0.4,4.2
		c-0.4,0.7-0.9,1.3-1.6,1.6c-0.7,0.2-1.1,0.7-1.8,0.9c0.2-0.2-0.4,0.4-0.9,1.3c-0.2,0.4-0.4,0.9-0.9,1.3c-0.4,0.4-0.9,1.1-2,1.3
		s-0.9,0.2-1.1,0.7c0,0.2-0.2,0.7-0.4,1.3c-0.2,0.7-0.9,1.3-1.8,1.8c-1.8,0.9-2.9,1.6-4.5,2.7c-0.4,0.2-1.3,1.1-2,1.8
		c-0.7,0.7-1.6,1.3-2.7,1.8c-0.9,0.4-1.3,0.9-2.2,1.3s-2.2,0.9-4,0.9c-0.9,0-1.6,0.2-2.5,0.7c-0.9,0.4-2.7,0.7-4.5,0.2
		c-1.3-0.2-2.2-0.7-2.9-1.1c-0.7-0.4-1.3-0.7-2.5-0.9c-1.6-0.4-5.1-0.9-6.2-0.9c-3.1,0-4.7-0.4-6.9-1.1c-0.4,0-2-0.4-3.6-0.7
		s-3.3-0.4-4.7-2c-0.4-0.4-0.9-0.7-1.6-0.9c-0.7-0.2-1.6-0.7-2.9-1.1c-1.3-0.7-2-1.8-2.7-2.5c-0.7-0.7-1.1-1.1-1.3-1.3
		c-1.1-0.4-4.5-2-5.3-2.2c-1.8-0.4-2.7-1.6-3.3-2.2c-0.7-0.7-0.4-0.7-0.4-0.7c-3.3,0-4.9-0.7-6.9-1.8c-0.9-0.4-1.8-1.1-2.9-2
		c-1.1-0.9-2.2-2-2.7-3.8c-0.2-0.9,0-0.4-0.4-0.7c-0.4-0.2-1.6-0.9-2.9-2c-0.9-0.9-1.3-1.3-1.6-1.3c-0.2,0-0.7-0.4-2.2-0.4
		s-2.7,0-4-0.2c-1.3-0.2-2.5-0.9-3.6-1.8c-1.6-1.1-2-1.6-4.5-1.6c-3.1,0-5.6-0.7-7.8-1.8c-1.3-0.7-3.3-0.7-6.2-0.7
		C271.7,470.4,271,470.4,270.6,470.4L270.6,470.4z M243.8,663.6c-1.1,0.2-1.8,3.1-3.1,4c-0.7,0.4-0.9,3.6-1.1,4
		c-0.7,2.5-0.2,1.8,2.5,1.1c0.9-0.2,2.2-3.6,2.7-4.5c0.7-1.3,2.5-1.1,4.5-1.1c2.5,0,0-2.9-0.4-3.1c-1.3-0.7-3.1-0.4-4.5-0.4
		C244.3,663.6,244.1,663.6,243.8,663.6z M217.8,666.5c-1.6,0-1.8,2-2,3.6c-0.7,2.5-0.2,2.5-2.7,3.3c-1.8,0.7,0,2.9,0.4,3.3
		c0.9,0.9,0,4,0.2,5.1c0.4,1.6,2.9,1.3,4.5,1.3c2.5,0,3.6,0,4.5,1.8c0.9,1.6,5.8-0.2,6.5-0.7c2.2-1.1,2.9-2.2,4.5-3.1s2.5-0.9,3.6-2
		c1.1-1.1-1.3-4-1.8-4.9c-0.7-1.8-2-2.2-3.1-2.9c-1.6-0.7-1.8-0.2-3.6-1.8c1.6,1.6-4.5-0.7-6.5-1.8
		C220.2,667.2,220,666.5,217.8,666.5z M296.4,718.7c-0.9,0.2-2.2,1.8-2.7,2c-0.9,0.9-2.2,1.6-3.3,2c-1.8,0.9-2.5-0.9-3.8-2.5
		c-0.9-0.4-4-1.3-5.8-1.3c-1.6,0,0.4,3.1,0,4.5c-0.4,1.8-2.9,0.2-0.7,2.5c0.9,0.9,3.3,0.7,4.5,1.1c2,0.4,2.7,1.1,4-0.4
		c1.8-1.8-0.2-2.7,3.1-2.7c2,0,3.8-0.2,4.9-0.7c1.6-0.9,0.4-3.6,0.4-4C296.9,718.9,296.7,718.7,296.4,718.7z"/>
	<path id="calabria_1_" class="st0" d="M762.4,827c-0.4,0-0.9,0-1.3,0c-0.4,0-1.1,0.2-1.6,0.2c-3.8,0.9-6,1.8-8.7,4.2
		c-2,2-4.2,2.9-6.2,2.9c-2,0-3.6-0.4-6-0.4c-1.3,0-2,0.2-2.2,0.4c-0.2,0.2-0.2,0.2-0.4,0.7c-0.2,0.9-0.2,3.1-1.1,6.2
		c-0.7,2.5-2.2,4-3.6,5.8c-0.7,0.9-1.3,1.6-1.8,2.2c-0.2,0.2-0.2,0.4-0.4,0.7c0,2,0.4,3.8,0.7,5.8c0.2,2.2-0.2,4.9-2.5,7.1
		s-4.2,5.1-6.9,7.8c-0.9,0.9-1.1,1.6-1.1,1.6s0,0,0.2,0.2c0.2,0.4,0.4,1.3,0.7,2.5c0,1.1-0.2,2.5-1.1,4c-0.9,1.8-1.6,2.7-2.5,3.6
		s-2.7,1.1-3.8,0.9c-2-0.4-2.7-1.3-4.5-1.3c-4.7,0-6.7,0-10.7,0c-1.8,0-2.7,0.2-2.7,0.4c-0.2,0,0-0.2-0.2,0.4c0,0.4-0.2,1.6-0.7,2.7
		s-1.6,2.2-3.1,3.1c-2.7,1.3-5.1,0.9-6.9,0.7s-2.7-0.9-4.2-0.4s-2.7,1.1-4,2c-1.3,0.9-3.1,2.2-5.6,2.9c-1.6,0.4-4,0.9-6.5,0.9
		c-2.5,0-5.3,0-7.6-1.1c-2.2-1.1-3.8-1.6-5.1-2.9c-1.3-1.3-2-3.1-2.9-6.2c-0.2-0.4,0-0.9-0.2-1.3c-0.2-0.4,0-0.9,0-1.6
		c0-1.1-0.2-2.7-0.2-4c0-1.3-0.2-2.9-0.4-3.8c0-0.4-0.2-0.7-0.2-0.7c-2-0.9-3.6-1.3-8.9-2.7c-0.9-0.2-2.9,0.2-5.3,0.7
		c-2.5,0.7-5.1,1.3-7.8,0c-2.2-1.1-3.3-3.1-4.7-4.9c-0.7-0.9-1.3-1.8-1.8-2.5c-0.2-0.2-0.2-0.2-0.4-0.4c-1.8-0.4-3.6-0.9-4.9-0.9
		c-1.3,0-2,0.2-2.7,1.6c0,0,0,0.2-0.2,0.4c0,0.2-0.2,0.7-0.2,1.3c-0.2,1.1-0.4,2.5-0.7,3.8c-0.2,1.3-0.7,2.7-0.9,4
		c-0.2,0.7-0.2,1.1-0.4,1.6c-0.2,0.4-0.2,0.9-0.9,1.6c-0.9,0.9-2.5,3.6-4,6.2s-2.7,5.1-4.2,6.7l-1.8-1.8c0.2,0.4,0.4,1.1,0.7,1.8
		c0.4,1.6,0.7,2.5,1.8,3.3c1.1,1.1,1.6,2.5,2,3.3c0.7,1.3,1.6,2.5,2,3.6c0.7,1.3,0.7,2.9,0.7,4.5s-1.6,2.9-2.5,3.8
		c-1.6,1.6-2.2,1.6-2.9,3.8c-0.2,1.1,1.1,3.3,1.8,4.2c0.9,1.1,1.8,2.2,2,3.8c0.2,1.3,1.6,3.1,2,4c0.7,1.3,0.9,2.7,1.3,4.5
		c0.4,1.6,0,3.6,0,5.1c0,2-0.4,3.1-0.4,5.1c0,1.6,1.1,3.1,1.1,4.9c0,2,0.2,3.1,0.7,4.9c0.4,1.6,0.7,2.9,0.7,4.9
		c0.9,3.6,3.6,1.3,3.6,5.1c0,0.9,0.4,3.6,0.7,4.5c0.4,2,0.7,2.7,1.3,4c0.4,0.9,2.2,1.3,2.9,2.5c0.9,1.8,1.3,2.9,1.8,5.1
		c0.2,1.6,0,3.6,0.4,4.9c0.4,1.6,0.4,3.6,0.7,4.9c0.2,0.9,2.5,2.2,3.6,2.7c1.1,0.7,2.5,2.7,3.8,3.6c1.1,0.9,2.7,2.7,3.3,3.8
		c1.3,1.8,3.1,2.5,4,4.5c0.9,1.6,2.7,2.7,3.1,4c0.2,1.1,2.5,3.1,3.3,4.5c1.1,1.3,1.6,1.3,2,3.1c0,0.4,2.2,2.5,2.7,3.3
		c1.1,2.2,0.9,4.2,1.3,6.5c0.4,1.6,0.7,3.1,1.8,4.9c0.9,1.6,1.3,3.3,2,4.9c1.1,2,1.1,4.7,1.8,6.9c0.7,2.2,0.4,4,0.9,6.2
		c0.4,1.8,0.7,2.9,0.7,5.1c0,1.8,0,3.3,0,5.1c0,2,0.4,3.1,0.7,4.5c0.4,1.6,0.7,2.5,1.1,4c0.4,1.8,0.4,3.1,0.4,4.9
		c0,0.7,0.4,1.8,0.4,2.9c0,2.5,0.4,4.7,0,6.5c-0.4,1.6,0,3.8,0,5.3c0,2.2,0.7,4,0.7,6.2c0,2,0.4,3.3,0.4,5.1c0,2.2,0.2,3.1,0.9,4.5
		c0.7,1.3,2,2,2.5,3.8c0.4,1.6,1.1,2.2,1.1,4.5c0,1.6,0.7,3.6,0.7,5.6c0,1.6,1.6,3.3,2,4.5c0.7,1.3,0.4,3.3,0.4,4.9c0,2,1.1,3.1,2,4
		c1.3,1.3,2,2,3.1,3.1c1.3,1.3,2.2,1.8,3.3,3.6c0.7,0.9,0.7,3.1,1.1,4c0.4,2.2,0.9,2.9,2,4.5c1.1,1.3,1.8,2,3.1,2.7
		c1.3,0.7,3.1,1.8,4.5,2c1.3,0.2,2,2,2.9,3.1c1.1,1.6,2.7,2.7,3.1,4.5c0.4,1.6,1.8,2.5,1.8,4.9c0,2.2,0.2,3.8-0.4,5.8
		c-0.4,1.6-0.7,3.1-1.1,4.5c-0.4,1.6-0.7,2.9-1.1,4.5c-0.4,2-1.1,4.9-1.1,6.9c0,1.8-1.3,2.7-2,3.3c-0.4,0.4-1.1,3.3-1.3,3.8
		c-0.7,1.6-1.1,3.1-1.8,4.5c-0.7,1.3-1.1,2.2-1.8,3.3c-0.7,1.3-2.2,2.5-3.1,3.3c-1.1,1.1-2.2,2.2-3.1,3.1c-0.9,0.9-3.1,1.1-4.5,1.1
		c-1.6,0-2.9,0.9-3.8,1.8c-0.9,0.7-4-1.3-4.9-1.3c-1.3-0.2-2-1.3-4-1.3c-1.6,0-3.1-1.3-4.5-2c-1.8-0.9-2.9-0.7-4,0
		c-1.8,0.9-2.5,0.2-3.8,1.3c-1.1,1.1-2.7,1.6-3.8,2c-1.6,0.9-2.7,1.6-3.6,2.5c-1.3,1.3-1.6,2-3.1,2.7c-2,0.9-4.2,0.9-6.2,1.3
		c-1.8,0.4-2.2,2.7-4,3.1c-1.3,0.4-2.7,1.1-3.8,1.8c-1.8,0.9-2.9,1.1-4,1.8c-2,1.1-2.9,1.8-4,3.3c-0.9,1.1-1.3,2.5-1.8,3.3
		c-0.9,1.8-0.7,3.1,0,4.5c0.7,1.6,2,1.6,2.7,3.1c0.4,1.1,2.9,2,4,3.1c1.6,1.1,3.1,2,4.5,3.1c1.1,0.9,1.8,2.9,3.1,4
		c1.1,1.1,1.3,3.1,2.7,4.5c1.3,1.3,1.8,1.6,2.5,3.1c0.9,1.6,0,3.1-0.4,4.5c-0.4,1.8-1.3,3.1-2,4.5c-0.7,1.1-0.7,3.1-0.9,4
		c-0.4,1.6-1.8,3.8-2.5,5.1c-0.9,2.5-1.6,4-2.7,6.2c-0.9,2-1.8,3.8-3.1,5.8c-1.1,1.6-1.6,4.5-2,6.2c-0.4,1.3-0.9,3.1-1.3,4
		c-0.2,0.2-0.2,0.9-0.2,1.1c0.2,0.2,0,0.4,0,0.2v-0.2c0-0.2-0.2-0.2-0.7-0.4c-1.3-0.7-1.1,2.7-1.8,4c-0.7,1.6-0.7,3.3-0.7,5.6
		c0,1.8-1.6,3.8-2.9,5.6c-1.3,1.6-0.4,3.3-0.4,5.1c0,1.1-2.2,2-3.1,2.5c-1.6,0.7-2.2,1.8-3.1,2.7c-1.3,1.3-2.2,1.8-4.2,2.7
		c-2,0.9-4.2,1.3-5.6,2c-1.8,0.9-3.1,1.3-5.1,1.3c-1.1,0-3.8,0.9-4.9,1.1c-2,0.4-1.6,2.5-3.8,3.1c-2.7,0.7-3.6,0.2-5.6,1.8
		c-0.7,0.4-1.8,2.9-2.5,3.3c-0.9,0.9-0.7,3.6-0.7,4.9c0,1.6-1.3,2-1.8,3.3c-0.2,1.1,1.8,3.1,2.9,3.8c2,1.3,2,2.5,2,5.1
		c0,1.8,0,2.5,0.7,4c0.7,1.3-0.9,3.6-1.1,4.5c-0.2,0.9-3.3,1.8-4,2.5c-0.4,0.4,1.6,3.3,1.8,3.8c0.9,1.8,1.1,1.3-0.7,3.1
		c-1.6,1.6-0.2,2.2,0.7,3.1c1.1,1.1,2.2,1.3,2.7,2.9c0.4,1.6,0,3.6,0,5.1c0,2-0.4,3.6-0.7,4.9c-0.4,1.6-1.1,1.8-0.7,3.8
		c0.2,1.3,1.6,2.7,2,3.3c0.7,1.6,1.8,3.1,2.5,4.2c1.1,1.3,0.7,2.5,2,3.8c1.1,1.1,1.6,2.5,2.5,3.3c1.1,1.1,3.1,2,4.5,2.9
		c1.6,0.7,2.2,1.1,2.7,3.1c0.4,1.6,3.3,2.7,4.9,3.1c1.6,0.4,2.9,0.7,4.5,1.1c2.5,0.7,5.1,0.2,7.4,0.7c2.2,0.4,4.2,0.7,6.5,0.7
		c0.4,0,2-3.1,2.5-3.6c1.1-1.1,2.2-0.9,4-0.9c2,0,3.6,0.7,5.8,0.7c2.5,0,4.5-0.4,6.9-0.4c2,0,3.6,0,4.9,0.7c1.6,0.9,0.7,1.8,3.3,1.8
		c2,0,4,0.4,5.8,0c2.7-0.7,2.9,0.2,4.5-1.3c1.3-1.3,2.5-0.9,4.9-0.9c2,0,4.2,0,6.2-0.4c1.1-0.2,1.8-2.2,2.7-3.1
		c1.3-1.3,2.2-2.5,2.9-4.5c0.4-1.8,1.6-3.1,2.5-4.9c0.7-1.3,2-2,2.5-3.3c0.2-1.1,1.3-3.1,2-4.5c0.7-1.3,1.1-3.8,1.1-5.1
		c0-2,1.3-4.2,2-5.8c0.9-1.8,0.7-4,1.1-5.6c0.7-2.5,0.9-3.8,1.3-6.2c0.4-2.2,0.2-4.2,0.7-6.2c0.4-1.8,1.1-3.1,1.8-4.5
		c0.9-1.6,1.1-2.7,1.8-3.8c0.7-1.3,1.8-2.5,2.7-4c0.4-0.7,2.9-2.2,3.8-3.1c1.1-1.1,2.7-2.7,3.8-3.1c0.9-0.4,1.8-2.5,2-3.1
		c0.7-1.3,2.2-2.2,3.1-3.1c1.3-1.3,1.6-2,2-3.8c0.2-0.7,1.8-2.7,2.5-3.3c0.9-0.9,1.6-3.1,2.7-4c1.3-1.3,2.2-2.9,3.3-4
		c1.1-1.1,1.6-2.2,2.5-3.1c1.3-1.3,2.7-2.5,4-3.1c1.6-0.7,4-0.4,5.6-0.7c1.6-0.4,3.8-0.9,5.1-1.8c0.9-0.4,3.3-2.5,4.5-3.3
		c1.3-1.1,1.6-1.6,3.3-2c1.6-0.4,2.9-2,4.5-2.7c1.8-0.9,2.7-2.9,4.2-3.8c1.3-0.7,2.7-2.2,3.8-2.9c2-0.9,3.6-2,5.1-3.8
		c1.6-1.6,2.2-3.3,3.8-4.9c1.3-1.3,2-2.7,3.1-3.8c1.3-1.3,2.2-2.2,3.8-3.8c0.4-0.4,0.7-3.6,0.9-4c0.9-1.6,1.1-2.5,1.1-4.5
		c0-2,0.4-4.7-0.4-7.8c-0.2-0.4-0.2-0.9-0.4-1.3c-0.4-2.2-1.3-3.8-1.3-6.2c0-1.6-0.7-2.9-0.7-4.9c0-1.8,0.4-3.6,0-5.6
		c-0.4-2-0.4-4.2-0.4-6.2c0-2.2,0-4.2,0.4-6.2c0.4-2.5-0.7-3.8-1.3-5.1c-0.9-2-1.1-4-1.1-6.5c0-2.5,0-4.9,0-7.6
		c0-2.2-0.7-3.3-1.8-4.2c-1.3-1.3-1.3-2.2-1.3-4.5s1.6-4.2,2-6.5c0.2-1.3,2.5-0.9,3.3-1.8c0.9-0.9,1.6-2,2-3.1
		c0.9-1.8,1.8-3.8,1.8-5.8c0-1.1,1.6-2.7,2-3.1c1.3-1.3,2.7-3.8,3.3-5.1c0.7-1.6,1.8-1.8,2-3.3c0.2-0.7,3.6-1.3,4.5-1.3
		c0.7,0,0.2-0.4,0.4-0.7c3.1,0,3.1-0.4,5.6-1.8c1.6-0.9,1.8-1.3,3.1-2.5c1.1-1.1,2-2.5,3.3-3.1c1.3-0.7,2.9-2.7,3.6-3.3
		c0.7-0.7,4-1.8,4.9-2c2.2-0.7,2.9-1.8,5.3-2.5c1.1-0.2,3.1-1.6,4.2-2c1.3-0.7,3.3-1.3,4.9-2c2.2-1.1,4.5-1.3,6.5-2.5
		c1.8-0.9,3.6-1.3,5.8-1.8c1.6-0.2,3.1-0.9,4.9-1.3c1.6-0.4,3.1-1.3,4.9-2c1.8-0.7,2.7-1.1,4.9-0.7c1.3,0.4,2.7,1.3,4,2
		c1.6,0.7,2.9,1.1,3.8,2c1.1,1.1,2,2.7,2.7,3.6c0.9,1.1,0.9,2.5,1.8,3.3c1.6,1.6,1.8-1.6,1.8-2.9c0-1.6,3.6-1.3,5.1-1.3
		c2,0,3.3,0.7,5.6,0.7c1.3,0,1.1,3.3,1.3,4c0.2,1.1,2.5-0.4,3.3-1.3c1.1-1.1,1.8-2.7,2.5-4c0.9-1.6,2.2-3.8,3.8-4.5
		c2.7-1.3,2.7-3.1,6.2-3.1c1.8,0,2.5-1.3,3.1-2.7c0.7-1.3-1.6-3.8-2-4.5c-0.7-1.3-1.1-2.2-1.1-4c0-1.6,2.2-2.5,3.3-3.1
		c2.5-1.1,4.2-2,5.6-3.3c1.6-1.6,1.1-2-0.4-3.3c-0.9-0.9-3.6-1.1-4.5-1.3c-2.5-0.7-4.2-1.6-6.5-2.5c-1.6-0.7-2.5-2.5-3.1-3.8
		c-0.7-1.6-1.3-2.7-1.8-4c-0.2-0.9,1.6-2.5,1.8-3.3c0.4-1.6-2.7-3.3-3.8-3.8c-2-0.9-2.2-1.1-2.9-3.1c-0.2-1.1,0.7-3.8,1.1-5.1
		c0.4-1.8,1.3-2.7,1.8-4.5c0.2-1.3,1.6-2.9,2.5-3.8c1.1-1.1,1.6-2.2,2.5-3.8c0.7-1.1,1.1-2.7,1.3-4c0.7-2.5,0.2-5.1-0.4-7.6
		c-0.4-1.3-2.7-2-3.6-2.9c-1.1-1.1-1.8-1.8-2.7-2.7c-1.3-1.3-1.8-2.5-1.8-4.5c0-1.6,0.4-3.1,1.1-4c0.7-1.1,0.9-2.2,1.1-3.1
		c0.7-1.3-0.7-4.5-1.1-5.6c-0.4-1.8,0.4-2.9,0.4-4.9c0-1.3,1.1-2.5,1.3-3.8c0.2-1.3,1.8-2,2-3.3c0.2-1.3,1.3-2.5,2-3.1
		c1.1-1.1,1.1-3.6,1.3-5.1c0.4-1.8,0.2-2.9-0.4-4c-0.7-1.3-3.3,0-4.9-0.4c-2.7-0.7-3.1-0.2-4.2-2.5c-0.4-1.1-2-2.7-2.7-3.6
		c-1.3-1.3-2.5-2-4-2.7c-1.8-0.9-2.7-2.5-3.8-3.3c-1.1-1.1-2-2.5-2.9-3.8c-0.7-1.3-2.2-2.7-3.1-3.3c-1.3-1.3,0-2.5-2-3.1
		c-2-0.4-4-0.9-6.2-1.3c-1.8-0.4-3.3-1.3-4.9-1.8c-2.2-0.4-4.9-1.1-6.9-1.8c-0.9-0.2-2.7-2.5-3.6-3.1c-1.1-1.1-1.6-2-3.1-2.7
		c-1.1-0.4-2.2-2.2-3.1-3.1c-1.3-1.3-2.9-1.6-4.2-2.7c-1.1-1.1-2.5-1.6-3.8-2.7c-1.1-1.1-1.6-2.7-2-4.2c-0.4-1.6-1.3-2.5-2.5-3.3
		c-1.1-1.1-2.2-2-3.1-3.1c-1.1-1.6-2.2-1.8-3.1-3.6c-0.7-1.3-3.3-0.9-4.9-0.9c-2,0-2.5,0.7-3.8,1.3c-1.3,0.7-2.7,0.7-4,1.1
		c-1.8,0.4-3.1-1.1-3.8-1.8c-0.9-0.9-3.8-0.2-4.5,0c-1.6,0.4-2.7,0.9-3.8,1.3c-1.1,0.7-3.6,0.2-4.9,0c-1.3-0.2-3.3-0.4-4.5-0.7
		c-1.3-0.4-3.1-1.3-4-2.5c-1.1-1.1-3.3-2-4.5-2.5c-1.8-0.7-2.9-1.1-4-2c-1.6-1.1-2.7-2.5-4.2-3.1c-1.3-0.7-1.8-1.8-2-3.1
		c-0.4-1.8,0.4-3.8,0.7-5.1c0.2-1.1,1.8-3.1,2.5-3.8c1.3-1.3-0.2-3.1-1.3-4c-1.3-1.3-1.6-2.2-3.6-2.9c-1.3-0.4-2.7-2-3.3-2.7
		c-0.9-0.9-1.3-3.8-1.3-5.1c-1.3-1.3-2-4.2-2-5.8c0-2.2,0.9-3.6,1.8-5.1c0.9-1.8,2-2.5,2.9-4c0.4-1.1,2.2-2.9,3.1-4.5
		c0.9-1.6,1.6-2.5,2-4.2c0.4-1.6,2.5-3.3,3.1-4.9c1.1-2,2.5-3.1,3.1-5.3c0.4-1.6,3.3-3.1,3.8-4.2c0.7-1.1,2.2-2.9,3.1-3.8
		c1.1-1.1,1.8-2.5,3.1-3.3c1.1-0.9,2.7-3.1,3.8-4l1.8-4.2c-0.9-0.4-2.2-2.9-2.5-3.3c-0.9-2-2-3.3-2.5-5.6c-0.4-1.6-0.9-2.7-0.9-4.5
		c0-1.8-0.4-3.3-0.4-5.1c0-2,0.7-2.9,0.7-4.9c0-2.5,0.4-2,1.3-3.8c0.9-2,0.9-3.6,1.3-5.6c0.4-1.6,1.1-2.5,2.5-3.8
		c1.1-1.1,1.3-2.5,2.5-3.6c0.7-0.7,1.3-1.3,2.2-1.8c-1.3-1.8-4.2-3.6-7.4-5.1C768.9,828.3,765.6,827.2,762.4,827z"/>
	<path id="basilicata_2_" class="st0" d="M622.9,568.7c-2.2,1.1-3.1,1.6-5.1,3.8c-3.1,3.1-5.6,4.5-7.8,6.9c-1.8,1.8-4.2,2.5-6.7,2.7
		c-2.5,0.2-5.1,0-7.4,0c-4.9,0-9.8,0-14.5,0s-8.9-0.9-12,0c-4,0.9-5.3,2.9-9.4,4.7c-1.3,0.7-2.2,1.3-3.1,2.2
		c-0.7,0.7-0.4,0.9-0.4,1.6c0,0.7,0.7,1.3,1.1,2.5c1.3,2.5,1.3,4,2,5.3c0.7,1.3,0.9,2.7,0.9,3.8c0,1.1,0.4,2.2,0.4,2.2
		c0.9,1.8,0.7,3.1,0.4,4.7c-0.2,1.6-0.2,3.1-0.2,3.6c0,1.6-0.7,2.5-1.1,3.6c-0.4,1.1-0.9,2-0.9,2.2c-0.4,1.3-1.1,2.5-1.8,3.1
		c-0.7,0.7-1.1,1.1-1.3,1.6c-0.9,1.8-1.6,3.6-3.3,5.3c-0.7,0.7-0.7,1.3-1.8,2c-0.9,0.7-2.2,0.7-3.8,0.9c0,0.2-0.2,0.2-0.2,0.7
		c-0.2,0.9-0.2,2.2-0.9,3.6c-0.4,1.1-0.9,2-2,3.1s-2.7,1.1-4.5,1.1c-2.9,0-5.3-0.9-7.4-0.9c-3.3,0-4.9-0.9-7.4-1.6
		c-0.2,0-0.2,0-0.9,0.4c-0.4,0.4-1.1,1.1-2,1.8l0,0c0,0.2-0.2,0.7-0.2,1.3c0,0.7,0,1.1-0.2,1.8c-0.2,0.7-0.2,0.9-0.2,1.6
		c-0.2,1.1-1.3,2-2.2,2.5c-0.9,0.4-1.6,0.4-2.2,0.4c-0.7,0-0.9,0-1.3,0c0,0.2,0,0.2,0.2,0.4l0.4,1.8l0,0c1.1,0.9,2.7,1.8,3.8,3.1
		c1.8,1.8,2.2,3.1,2.9,5.8c0.4,1.6,0.2,2.7-0.2,4c-0.2,1.1-0.4,2.2-0.7,2.9c0,0,0,0.2,0,0.4c0,0.4,0.2,0.9,0.4,1.6
		c0.2,1.3,0.7,2.7,0.7,4c0-0.7,0.2,0.2,0.7,1.1c0.7,0.9,1.3,2.2,1.8,3.8c0.2,1.1,0.4,1.3,0.7,1.6c0.2,0.2,0.4,0.4,1.8,0.7
		c1.3,0.4,1.6,0.9,1.8,1.3c0.2,0.4,0.7,0.9,1.1,1.3s0.7,0.9,0.9,1.3c0.2,0.4,0.7,0.7,0.4,0.7c0.4,0.4,0.9,0.7,1.8,0.9
		s2.2,0.4,3.6,1.1c2.2,1.1,3.1,2.2,4.5,2.9c0.7,0.2,1.1,0.4,1.8,0.9c0.7,0.4,1.1,0.9,1.6,1.8c0.7,1.6,0.2,2.9-0.2,4.7
		c-0.4,1.6-1.6,2.7-2,3.1c-0.4,0.4-0.7,0.4-0.9,1.1c-0.2,0.9-0.2,1.6-0.7,2.5c-0.2,0.7-0.7,1.1-1.1,1.8c0.2,0.2,0.2,0.7,0.4,1.1
		c0.2,0.4,0.7,1.1,0.9,1.6s0.4,0.9,0.7,1.3c1.1,2.2,1.6,4,2,6.2c0.2,0.7,0.4,1.1,1.1,1.8s1.6,1.6,2.2,3.1c1.1,2,2,2.9,2.9,4.9
		c0.2,0.4,0.4,0.7,1.6,1.3c1.1,0.7,2.5,2.2,2.9,4.5c0,0,0.4,0.4,1.1,0.7c0.9,0.4,1.8,0.7,2.7,1.1c2.5,1.3,3.8,3.6,4.5,4.2
		c1.3,1.3,1.6,3.1,1.6,3.8c0,0,0,0,0.4,0c0.9,0.2,1.3,0.7,1.6,1.1c0.2,0.4,0.4,0.7,0.7,0.9c0.2,0.7,0.4,1.3,0.7,2
		c0.4,1.1,0.7,2.2,0.7,2.9c0,0,0,0.2,0.2,0.4c0.2,0.2,0.7,0.7,0.9,0.9c0.7,0.7,1.3,1.3,1.8,1.8c0.9,0.9,2.7,1.8,4.2,2.5
		c3.1,1.6,4,2.9,5.3,4.2c0.7,0.7,1.8,1.6,2.9,2.7c1.1,1.1,2.2,2,2.9,3.3c0.7,1.3,0.9,2.7,0.9,3.8s-0.2,1.8-0.2,2.9
		c0,2,0.7,2.5,1.8,4.5c0.4,1.1,0.9,1.6,1.6,2.2c0.4,0.7,0.9,1.6,1.1,2.7c0,0,0,0,0.2,0c0.4,0.2,0.9,0.4,1.3,0.9
		c0.4,0.4,1.1,0.7,1.6,0.9c0.2,0.2,0.4,0.2,0.7,0.4c0.2,0,0.2,0.2,0.4,0.4c0,0,0.2,0,0.4,0c0.4,0,0.9,0.2,1.6,0.2
		c1.3,0,2.7-0.2,4,0.2c1.6,0.4,2.7,0.7,3.8,1.6c1.1,0.9,1.6,1.8,2,2.9c0.4,0.9,0.7,0.9,1.3,1.6c0.7,0.7,1.3,2.2,1.3,4.2
		c0,2.5,0,4.9,0,7.4c0,2.7-0.9,5.1-2.7,6.9c-0.4,0.4-0.4,0.9-0.9,1.8c-0.4,0.9-1.3,2.2-2.9,3.1c-1.3,0.7-2.7,0.9-3.8,0.9
		s-1.8,0.4-2,0.4c-2,1.1-4.5,1.3-6,1.8c0,0.4-0.2,0.9-0.2,1.6c0,0.7-0.2,1.6-0.2,2c0,0.2,0,0.7,0,0.7v0.2c0,0,0,0,0,0.4
		c-0.7,2.9-1.3,3.3-1.3,6.2c0,1.6-0.4,2.5-0.9,3.8c-0.4,1.3-0.9,2.2-1.1,3.1c-0.2,1.6-0.2,2.2-0.4,3.3c-0.2,1.1-0.9,2.5-2,3.6
		c0,0-0.4,0.7-0.4,1.6c-0.2,0.9,0,2-0.4,3.3c-0.4,1.8-0.4,4.2-0.4,6.7c0,2.9-0.9,5.3-1.6,7.6c0.4,0.4,0.7,1.1,0.7,1.6h-2.5h-1.1
		c0.2,0.9,0.2,4.2,0.2,4.5c0.2,1.1,1.3,2.9,2.5,3.8c1.1,1.1,3.1,1.6,4.9,3.1c1.1,1.1,1.8,2,2.5,3.3c0.9,1.8,1.3,2,1.3,4
		c0,1.8,0,3.3,0,5.1c0,1.1,2.7,2.2,3.1,2.5c0.2,0,0.2,0.2,0.4,0.2c0.4-0.4,2-3.1,3.6-5.6c1.6-2.5,2.9-5.1,4.5-6.7c0,0,0-0.2,0.2-0.2
		c0-0.2,0.2-0.7,0.4-1.1c0.2-1.1,0.4-2.5,0.9-3.8c0.4-1.3,0.4-2.7,0.7-3.8c0-0.4,0.2-1.1,0.2-1.3c0-0.2,0-0.4,0.4-1.1
		c1.3-2.7,4-4,6.5-4.2c2.5-0.2,4.7,0.4,6.7,1.1c1.1,0.2,1.3,0.7,1.6,0.9c0.2,0.2,0.7,0.7,0.9,0.9c0.4,0.7,1.1,1.6,1.8,2.5
		c1.3,1.8,2.9,3.6,3.1,3.6c0.7,0.4,2.5,0.2,4.7-0.4c2.2-0.7,4.7-1.6,7.4-0.7c5.6,1.3,7.6,1.8,10.3,3.1c1.1,0.4,1.3,1.3,1.6,1.8
		c0.2,0.4,0.4,1.1,0.7,1.8c0.2,1.3,0.4,2.9,0.7,4.2c0.2,1.3,0.2,2.9,0.2,4c0,0.7,0,1.1,0,1.6c0,0.4,0,0.7,0,0.4
		c0.7,2.9,1.1,3.8,1.8,4.2c0.7,0.4,1.6,0.9,4,2.2c1.1,0.7,3.3,0.9,5.6,0.7c2.2-0.2,4.2-0.7,5.6-0.9c1.6-0.4,2.7-1.1,4.2-2
		c1.6-0.9,3.1-2.2,5.6-2.7c2.9-0.7,5.1,0,6.5,0.4c1.3,0.4,2,0.7,3.8-0.2c0.9-0.4,0.9-0.7,1.1-0.9c0.2-0.4,0.2-0.9,0.4-1.8
		s0.9-2.2,2.2-3.1c1.3-0.9,2.9-1.1,5.1-1.1c3.8,0,6,0,10.7,0c2.9,0,4.9,1.1,5.3,1.3c0.2-0.2,0.7-0.7,1.3-2c0.4-1.1,0.7-1.6,0.7-1.8
		c0-0.2-0.2-0.4-0.4-1.1c-0.2-0.7-0.4-1.8-0.2-2.9s1.1-2.2,2.2-3.3c2.2-2.2,4.2-5.1,6.9-7.8c1.1-1.1,1.1-2,1.1-3.6
		c-0.2-1.6-0.7-3.8-0.7-6.7c0-0.9,0.2-1.3,0.4-1.8c0.2-0.4,0.4-0.7,0.7-1.1c0.7-0.7,1.3-1.6,2-2.5c1.3-1.6,2.7-3.6,2.7-4
		c0.7-2.2,0.4-4.2,1.1-6.5c0.4-1.1,1.1-2.2,2.5-2.9c1.3-0.7,2.7-0.9,4.5-0.9c2.9,0,4.9,0.4,6,0.4s1.6,0,3.1-1.8
		c3.3-3.3,6.9-4.5,10.7-5.3c1.6-0.4,2.9-0.4,4.2-0.4c4,0,7.8,1.6,9.8,2.7c3.3,1.8,7.4,3.6,9.4,7.1c0.4,0,0.9-0.2,1.1-0.2
		c1.1-0.2,1.8-2,2-3.1c0.4-1.6,0-3.6,0-5.1c0-1.3,1.8-2.7,2.9-3.8c0.7-0.7,1.6-2.7,2.5-3.8c0.9-1.3,2-2,3.1-3.1
		c1.1-1.1,1.8-1.6,2.5-2.7c0.7-1.6-0.9-2.5-1.8-3.1c-1.8-1.3-0.4-2.2,0-3.3c0.7-1.1,3.1-2,4-2.9c0.9-0.9,0.9-2.5,1.8-3.3
		c0.9-0.9,1.3-2.2,2-3.1c0.9-0.9,1.1-2.7,2-3.6c0.2-0.2,0-0.4,0-0.7c0.2-0.7,0.4-1.1,0.7-1.8c0.4-1.3,2-2.7,3.1-3.3
		c1.8-1.3,2.5-4.5,3.8-5.6c1.6-1.1,2.5-0.7,2.5-3.1c0-2,0.9-2.9,1.8-4.5c0.9-1.8,1.8-2,3.1-3.3c0.4-0.4,0.7-0.9,1.1-1.3l-0.4,0.4
		c0,0-1.1-1.3-2.2-2.5c-1.1-1.1-2-2-2.7-3.3c-1.6-3.1-2.9-5.6-5.3-8.2c-0.2-0.2-0.2-0.4-0.4-0.4c0-0.2-0.2-0.2-0.2-0.4
		c-0.2-0.2-0.4-0.7-0.7-1.1c-0.4-0.9-1.1-2-1.8-2.9c-0.7-0.9-1.3-2-1.8-2.9c0,0,0,0,0-0.2c-0.2,0-0.2,0-0.7,0.2
		c-0.9,0.2-2.2,0.4-3.6,0.7c-1.3,0.2-2.7,0.2-4,0.2s-2.9-0.7-4-1.8c-1.1-1.1-2.7-2.9-3.6-5.3c-0.9-2.5-0.9-6,1.6-8.5
		c0.9-0.9,0.9-0.9,1.1-1.1c-0.4-0.2-0.7-0.4-1.1-0.9c-0.9-0.9-1.6-2.5-1.6-4.2c0-1.6-0.2-2.2-0.4-2.5c-0.2-0.2-0.2-0.4-0.7-0.7
		c-0.4-0.2-1.1-0.7-1.8-1.6c-0.7-0.9-1.1-2.2-1.1-3.6c0-5.3,1.6-8.9,1.6-11.6c0-3.6,1.3-6.2,2.7-8.5c1.3-2.2,2.5-3.6,2.7-4.5
		c0.4-1.6,0.4-2.2,0.4-2.7s0,0-0.2-0.2c-0.4-0.4-2.5-1.6-4-4.2c-1.8-3.3-2.7-5.3-5.3-8.2c-1.8-1.8-2.7-2.9-3.3-3.6
		c-0.7-0.7-1.6-1.1-4.5-1.8c-2-0.4-3.6-0.2-5.3,0c-1.8,0.4-3.6,0.9-5.8,0.9c-2.7,0-5.1-0.9-6.9-1.6c-0.9-0.2-1.8-0.4-2.2-0.4
		s-0.7,0-0.9,0.4c-2.2,2.2-3.8,4.7-6.9,7.8c-1.1,1.1-2,1.8-2.9,2.5c-0.9,0.7-2.2,0.9-3.3,0.7c-2.2-0.2-3.6-1.3-6-2.7
		c-1.6-0.9-3.1-2.2-4.9-3.3c-1.8-1.1-3.3-2.2-3.6-2.2c-2.5-0.7-4.5-1.8-5.8-2.9c-1.3-1.1-2.7-2.2-4.2-2.9c-2.5-1.3-4-2.7-5.1-4
		s-1.8-2.5-3.3-4c-2.2-2.2-4.7-3.8-7.8-6.9c-0.7-0.7-2.2-2.2-3.6-4.2c-0.7-0.9-1.3-1.8-1.8-2.9c-0.4-1.1-1.1-2-1.1-3.3
		c0-2,0.2-4.9,0.2-7.4c0-1.3,0-2.5-0.2-3.3c-0.2-0.9-0.4-1.3-0.4-1.3c-2.2-2.2-4.7-3.6-7.8-6.7c-1.3-1.3-2.2-2-3.1-2.2
		c-0.9-0.2-1.8,0-3.8,1.6c-2.5,1.8-4.5,2.7-6.5,2.7c-2,0-3.8-0.7-6-1.3c-3.8-0.9-8.2-3.1-12-5.1c-3.6-1.8-6.9-2.9-10.7-4.9
		c-1.8-0.9-4.5-2.7-6.2-4.5c-0.9-0.9,0-1.8-0.4-3.1c-0.2-0.7,0.9-1.8,1.6-3.1c1.1-2,3.3-1.8,5.6-1.8c2.2-0.2,4.5-0.4,5.3-1.1
		c0.7-0.2,1.3-0.4,2-0.9c0.7-0.4,1.8-0.9,2.7-1.3c0.4-0.2,0.7-0.4,0.9-0.7c-2.2-2.5-4.2-5.1-6.2-7.1c-2.5-2.5-4-4.2-8.2-6.2
		c-3.3-1.8-7.1-5.3-8.7-8.7c-0.4-0.7-3.1-2.9-5.3-4.9C624.5,570,623.6,569.6,622.9,568.7L622.9,568.7z"/>
	<path id="abruzzo_1_" class="st0" d="M343.7,397.3c-1.3,0.4-2,0.7-2,0.7c-2.9-3.1-1.6-7.6-1.6-10.5c-2.9-3.8-2.5-6.2-5.6-14.5
		c-1.1-4.2-5.3-5.8-8.5-7.1c-1.3-4-7.8-4-9.8-0.2c-4,5.6-4.7-3.8-8.9-4.7c-3.6-2-10-3.3-12.9,0.2c-3.3,2.7-4.7,6.9-4.9,10.9
		c-2.9,6.2-7.1-0.7-10-2.7c-4.5,0-7.4,4.9-8.7,8.2c-0.4,4.5-0.2,9.4,3.3,12.5c0.7,2.9,2.9,6,5.3,7.4c0.9,2,5.1,1.8,2.5,4.9
		c-5.8-0.4-8.7,4-9.6,9.1c-3.1,2.2-5.6,0.9-6.9-2.7c-5.1-2.9-8,4.2-10,7.6c-1.6,2.2,2.9,5.6-1.1,3.3c-4.7,2.2-8.9-6.7-12.5-2.5
		c-0.4,4-1.6,4.5-4.9,4.7c-3.3,0.2,0,1.3-0.2,0c-0.4-1.3-0.4-1.3-0.9-2s-0.7-1.3-0.9-2.2c-0.4-1.8-1.1-2.9-1.8-3.8
		c-0.7-0.9-1.1-1.3-1.8-2.5c0,0-0.7-1.3-1.1-2.5c-0.2-0.7-0.7-1.3-0.9-1.8c-0.2-0.4-0.9-1.1-1.8-1.6c-1.6-0.9-3.8-1.8-6.9-1.8
		c-3.1,0-5.3,0-6.7-0.7c-1.8-1.1-4.7-2.2-8-2.2c-1.6,0-2.9,0.4-4,0.9s-1.8,1.3-2.5,2c-0.7,0.7-1.1,1.3-1.6,1.6c-0.2,0-0.2,0-0.2,0
		l0,0c-1.3-1.3-2.5-2.2-2.9-3.3c0-0.4-0.2-1.6-0.7-2.9c-0.4-1.1-0.7-2.5-1.8-3.6l0,0c0-0.2-0.4-0.9-0.7-1.8
		c-0.4-1.1-1.1-2.7-3.1-3.3c-0.9-0.2-0.9,0-1.1,0s-0.7,0-0.9,0.2c-0.7,0-1.6,0.2-2.5,0.2c-0.7,0-1.3,0.2-2,0.2
		c-0.7-1.3-1.6-2.5-2.2-3.8c-0.4-1.1-0.9-1.8-1.8-2.5c-0.4-0.4-1.1-0.7-2-0.7c-0.9,0-1.3,0.4-1.8,0.7c-0.7,0.7-0.9,1.1-1.1,1.6
		c-0.2,0.4-0.4,0.7-0.7,0.7c-0.9,0.9-1.6,1.6-2,2.5c-0.4,0.9-0.7,1.8-0.9,3.3c-0.2,1.1-0.4,2-0.7,2.5c-0.2,0.4-0.2,0.7-1.1,0.9
		c-2.5,1.3-4,2.9-5.3,5.3c-0.2,0.2,0,0-0.2,0.2c-0.9-0.4-2.2-0.9-3.8-0.4c-2.7,0.7-1.8,0.7-4.7,0c-0.7-0.2-1.1-0.4-1.8-0.9
		c-0.7-0.4-1.8-1.1-3.1-1.6c-1.6-0.4-1.8-0.7-1.8-0.7s-0.4-0.7-1.1-2c-1.1-2-2.7-3.3-4.9-4.5c0,0-1.1-0.7-2.2-1.3
		c-0.4-0.2-1.1-0.7-1.6-0.9c-0.4-0.2-1.1-0.7-2-0.7c-1.1,0-2.7,0-3.8-0.2c-1.1-0.2-2-0.7-2-0.7c-1.8-1.8-2.7-2.2-4.9-3.3
		c0,0-0.7-0.7-1.3-1.8c-0.7-1.1-1.3-2.5-3.3-2.9c-1.3-0.2-2-0.4-2.2-0.7l0,0c0.2-0.7,0.4-1.6,0.7-2.7c0.2-0.4,0.4-0.9,0.4-1.3
		s0.4-0.4,0.2-0.4c1.1-1.1,1.8-2.7,1.8-4s-0.2-2-0.2-3.3c0-1.3,0-2.7-0.7-4.2c-0.7-1.3-2.2-2.5-4-2.9c-1.1-0.2-3.6-1.6-3.8-1.8
		c-1.8-1.8-2.9-1.8-4.5-3.3c-0.9-0.9-2.2-1.1-3.1-1.3c-0.9,0-1.8,0-2.5,0c-0.4,0-0.7,0-0.9,0c-0.2-0.2-0.2-0.7-0.4-0.9
		c-0.2-0.4-0.7-1.1-0.9-1.6c-0.2-0.4-0.7-1.1-0.7-1.3v-0.2c0-1.1,0-2,0-4.9c0-1.1,0-2-0.2-2.7c-0.2-0.7-0.9-1.6-1.3-2
		c-1.1-0.9-1.3-0.7-1.8-1.1c-0.4-0.4-1.3-1.3-2.5-2.2c-1.1-0.9-2.5-1.8-4.5-1.8c-2.9,0-5.3,0-7.4-0.4c-0.4-0.2-1.6-0.4-2.7-1.1
		c-1.1-0.7-2.5-1.1-3.6-1.3c-0.7-0.2-2-0.4-3.1-0.7c-0.7-0.2-1.3-0.2-1.8-0.4c-0.2,0-0.4-0.2-0.4-0.2c-0.2-0.4-0.4-0.9-0.9-1.8
		c-0.4-1.1-1.6-2.5-3.3-3.3l0,0c0,0-0.2-0.2-0.7-0.4c-0.4-0.4-0.9-0.9-1.6-1.3c-0.7-0.4-1.1-0.9-1.8-1.3c-0.2-0.2-0.7-0.4-1.1-0.4
		c-0.4-0.2-1.1-0.4-2,0c-1.1,0.7-1.8,1.6-2.2,2c-0.4,0.4-0.7,0.9-1.6,1.6c-0.4,0.2-0.7,0.7-1.1,0.9c-0.4,0.2-0.9,0.9-1.3,1.3
		c-0.4,0.4-0.9,0.9-1.3,1.1c0,0-0.2,0-0.2,0.2c-0.9,0.2-1.8,0.2-2,0.2c-0.2,0-0.2,0-0.2,0s0,0.2,0,0s-0.2-1.3-0.2-2.7
		c0-1.3,0-2.7-0.4-4c-0.2-0.9-0.2-2.2-0.2-3.6s0-2.7-0.9-4.2c-0.4-0.9-0.4-1.1-0.2-1.8c0.2-0.7,0.4-2.2,0-4c-0.2-1.3-0.4-2-0.4-2.2
		c0,0,0,0,0.2-0.2c1.8-0.9,4-1.8,6-3.8c0.9-0.9,3.1-2,4.2-4.5c0.9-2,1.3-2.2,3.3-3.3c0.4-0.2,1.6-0.7,2.7-0.9c1.1-0.2,2-0.2,2.2,0
		c2.5,1.3,3.6,1.8,5.1,3.6c1.8,1.8,3.3,2.5,6,3.8c0.7,0.2,1.6,0.9,2.5,1.6c0.9,0.7,1.3,1.3,1.6,1.3c0.4,0.9,1.1,1.8,2,2.7
		c0.9,0.9,2,2,4,2c1.6,0,3.1,0,4.7-1.3c0.7-0.7,1.1-1.6,1.3-2.7c0.2-1.1,0-1.8-0.2-2.9c-0.2-0.7-0.4-1.1-0.7-1.3
		c0.4,0.4,0.9,0.9,1.6,1.3c0.7,0.4,1.3,1.3,2.5,2c0.4,0.4,1.1,0.9,2,0.9s1.8,0,2.7-0.4c0,0,1.1-0.2,2.2-0.4c1.1-0.2,2.7-0.2,4-1.1
		c0.9-0.4,1.6-0.9,2.2-1.6c0.7-0.7,0.7-2,0.7-2.7c-0.2-1.3-0.7-1.6-0.7-2c0-2,0.7-5.1,0-8.2c-0.2-0.9-0.2-0.2,0-0.7
		c0.2-0.2,0.7-1.1,1.1-2.7c0-0.2,0.4-0.9,0.7-1.6c0.2-0.7,0.9-0.9,0.9-0.9c0.7-0.2,1.8-0.4,3.1-0.9c1.3-0.4,2.9-1.1,3.3-3.1
		c0.2-0.7,0.2-1.3,0.4-2.2c0.2-0.9,0-1.6-0.7-2.2c-0.9-1.3-2-1.8-3.3-2.5c-2.2-1.1-3.6-1.8-5.8-2.9c-0.7-0.4-2.5-2.2-5.3-3.1
		c-1.8-0.4-4-1.6-6.2-2.7c-0.9-0.4-1.6-0.9-2.5-1.6c-0.9-0.7-2-1.1-3.6-1.6c-1.1-0.2-2.2-0.4-2.9-0.7c-0.7-0.2-0.9-0.2-1.1-0.7
		c-0.9-1.8-1.3-3.3-2.5-5.3c-0.7-1.6-2-3.6-2.2-4.9c-0.7-2.7-2-4.2-2.5-5.8c-0.2-0.7,0-1.1,0.2-1.8c0.2-0.7,0.7-1.6,0.4-3.1
		c-0.7-2.5-0.9-3.8-0.9-6.2c0-0.2,0.2-2.2,0.4-4c0-0.9,0-1.8,0-2.7c0-0.4,0-0.9-0.2-1.3s-0.2-0.9-0.9-1.6c-0.7-0.7-2.5-3.3-5.3-4.9
		c-2.2-1.1-2.5-1.6-4.2-3.6c-1.8-1.8-3.3-2.5-4.2-3.3c-0.4-0.4-0.4-0.4-0.7-0.7c0,0,0.2-0.2,0.7-1.1c0.2-0.4,0.7-1.3,1.1-1.8
		c0.4-0.4,0.9-0.9,0.9-0.9c0.7-0.2,1.8-0.2,3.1-0.9c1.3-0.4,2.9-1.8,3.3-3.8c0.4-1.6,1.3-4.7-0.2-7.8c-0.4-0.9-1.1-1.8-1.3-2.5
		c-0.2-0.7-0.4-1.3-0.4-1.3c0.2-0.7,0.4-1.1,0.9-1.8c0.4-0.7,1.1-1.8,1.6-3.1c0.2-0.7,0.7-1.1,1.3-2c0.7-0.9,1.6-1.6,2-3.3
		c0.4-1.6,1.1-3.1,1.8-3.8c0.7-0.7,1.1-0.9,1.6-1.1c0.4-0.2,1.3-0.7,2.7-1.3c1.6-0.9,3.6-0.7,6.9-0.7c2.7,0,4.2,0.2,6.7,0.9
		c2.2,0.4,2.9,1.6,5.3,2.9c1.6,0.7,2.9,1.1,4.2,0.9s2-0.9,3.1-1.3c1.3-0.7,3.8-1.6,5.3-3.3c1.1-1.1,2.2-1.8,4-3.3
		c1.8-1.8,2.7-3.8,3.8-6c0.2-0.7,0.4-1.1,0.7-1.8c0.2-0.7,0.2-1.6,0-2.2c-0.7-1.6-2-2-3.1-2.7c-0.9-0.4-1.8-1.6-3.3-2.9
		c-0.7-0.7-1.1-0.9-1.8-1.1c1.1-0.4,2-0.4,3.1-1.3c0.2-0.2,2-0.9,3.6-1.6c0.9-0.2,1.6-0.7,2.5-1.1s1.6-0.7,2.2-1.8
		c0.4-0.7,2.9-2.2,4-4.7c0.4-0.9,1.8-2.2,3.3-2.7c0.9-0.2,2.2-0.7,3.6-1.6c0.7-0.4,1.3-0.7,2-1.3c0.7-0.7,1.3-1.8,0.9-3.1
		c0-0.2-0.4-1.6-0.7-2.9c0-0.7-0.2-1.3-0.2-1.8c0-0.2,0.2-0.4,0.2-0.4c1.8-2,2.5-4.2,3.3-6c0.7-1.6,1.8-3.3,2.5-4.2
		c1.6-1.6,2.2-2.2,4-4c0.4-0.4,0.7-0.7,1.1-0.7s1.6-0.2,3.1-0.2c2.5,0,4.9,0,7.4,0c2.2,0,4.5,0.2,5.8,0.7c1.3,0.7,2.9,1.8,4.9,2.9
		c0.2,0,1.8,1.1,3.1,1.8c0.7,0.4,1.6,0.7,2.2,0.9c0.4,0,0.9,0.2,1.6,0.2c0.7,0,1.3-0.2,1.8-0.9c1.8-1.8,2.5-3.6,3.1-4.2
		c1.8-1.3,3.8-2.5,6-4.7c1.8-1.8,2.5-2.9,4.5-4.9c1.6-1.6,2.5-2.5,4.2-3.3c0.7-0.2,1.6-0.9,2.7-1.3c1.1-0.4,2-0.9,2.2-0.9
		c1.8-0.4,3.1-1.6,3.8-2.5c0.7-0.9,0.4-0.9,1.1-1.1c1.6-0.9,3.6-1.8,4.9-3.3c0.4-0.4,0.7-0.7,1.1-0.7c0.4,0,1.1,0,2.7,0.4
		c2.9,0.7,6.7,0.7,8.5,0.4l-0.2-2.2c0.2,0.7,0.7,1.6,0.7,2.2c1.1,4.9,0.4,2.2,0.7,5.8c0.2,1.1,0.4,3.1,1.1,4.5
		c0.9,1.6,1.3,2.7,1.8,4.9c0.2,1.6,1.3,4.2,2,5.1c1.1,1.6,3.1,5.1,3.3,6.5c0.4,1.6,0.9,2.5,1.3,4c0.4,1.3,0.4,2.7,1.1,4
		c0.7,1.3,0.9,2.7,1.3,4.5c0.2,1.1,1.3,3.1,1.8,4.5c0.2,1.3,1.1,3.3,1.8,4.9c0.7,1.1,0.9,3.3,1.8,4.9c1.1,2.2,2.5,3.1,3.3,5.1
		c0.7,1.6,1.8,2.5,3.1,3.8c1.3,1.3,2.5,1.6,2.5,3.6c0,1.6,0,5.6,1.1,6.5c0.2,0.7-0.2,0.9,0.4,1.3c1.1,1.1,0.7,2.2,1.8,4
		c0.4,1.1,1.3,2,2.9,2.9c1.8,0.9,2.9,2.2,4,3.3c1.1,1.1,3.3,3.3,4,4.9c0.4,1.1,2.5,2.7,2.7,3.8c0.2,1.1,1.1,2.7,1.3,3.8
		c0.4,1.6,1.1,2.2,2.9,3.1c1.6,0.9,2.7,2,4.5,3.1c2,1.3,4,2.9,5.1,4.2c1.6,1.6,2,2.7,3.1,3.8c0.9,0.9,1.6,2.2,1.8,2.5
		c0.2,0.2,0.4,0.2,0.7,0.4c0.9,0.9,1.6,1.8,2.7,2.9c0.9,0.9,3.1,2.2,3.3,3.3c0.4,1.6,1.1,3.3,2.9,4.5c1.3,0.9,1.8,1.8,3.1,3.1
		c0.9,0.9,1.1,2,2,3.1c1.1,1.1,4,0.7,5.8,2c2,1.6,4,3.3,5.3,4.2c1.1,0.7,2,1.3,3.6,1.8c1.8,0.4,2.9,1.1,4,2.5
		c1.1,1.1,2.7,1.6,3.1,3.1c0.2,0.4,0.4,3.8,1.3,4c2,0.4,2.2,1.8,3.3,3.6c1.6,2,1.8,3.1,3.6,4.9c0.9,0.9,1.3,2.5,2.7,3.1
		c1.6,0.9,3.1,1.8,4.5,2.9c2,1.6,2.9,1.1,2.9,3.8c0,2.2,0.9,2.2,1.8,3.8c0.7,1.1,1.1,2,2.5,3.3c0.7,0.7,2.2,2.2,2.7,3.1
		c0.7,1.6,1.8,2.2,4,3.3c0.7,0.2,2.5,2.7,3.1,2.9c1.8,0.4,2.5,1.3,3.8,2c1.3,0.7,3.6,1.3,5.1,2c0.7,0.2,1.8,1.3,3.3,2
		c1.8,0.9,3.8,1.3,5.6,1.8c1.3,0.4,3.1,0.9,4.9,1.8c1.1,0.4,2.5,0.9,3.8,1.8c0.4,0.2,4.5,1.1,4.9,2c0.2,1.1,0.4,3.1,0.4,4.9
		s0,3.6,0,5.6c0,1.8-0.2,3.6,0.2,5.1c0.4,1.6,1.1,2.7,1.8,4c0.9,1.8,1.1,1.3,3.1,2.5c1.6,0.7,2.5,1.3,4,2c0.2,0,0.4,0.2,0.7,0.2
		c0,0.9,0,5.1-0.4,6.7c-0.2,0.9-0.9,2.5-1.8,3.8c-0.9,1.3-1.6,2.9-1.8,4.5c0,0.4-0.4,1.6-1.1,2.5s-1.1,2-1.6,2.9
		c0,0.2-0.7,0.9-1.6,1.8s-1.8,1.3-2.5,2.7c-0.9,1.6-2,2.7-4,4.7c-2,2-2.7,3.8-4.5,5.3c-1.1,1.1-1.8,2.5-2.2,3.8s-0.9,2.2-1.1,2.7
		c-1.1,2.2-1.8,4.9-2.5,6.2c-0.4,1.1-1.1,1.8-1.6,2.5c-0.4,0.7-0.7,0.7-0.9,0.9c-0.7,0.2-0.9,0.4-1.3,0.7c-0.4,0.2-0.9,0.4-1.3,0.7
		c-0.9,0.4-1.8,1.1-2.2,1.1c-1.3,0.4-2.2,1.6-2.5,2.5c-0.2,0.9-0.4,1.8-0.4,2.7c0,1.6,0.2,2.9,0.2,3.6c0,0-0.2,0.2-0.2,0.4
		c-0.2,0.4-0.9,1.1-1.3,1.8s-1.1,1.3-1.6,1.8s-0.7,0.9-1.1,1.6c-1.3,2.7-1.6,4.7-2,6.7c-0.2,1.1-0.4,1.6-0.7,1.8s-0.2,0.2-1.1,0.4
		c-1.6,0.4-2.7,1.3-3.8,2.2c-1.1,0.9-2,1.8-2.7,2.5C347.9,395.8,346.4,396.4,343.7,397.3L343.7,397.3z"/>
</g>
</svg>
